# This file uses centimeters as units for non-parametric coordinates.

mtllib bellPepper.mtl
g default
v 0.267561 0.062245 -0.267561
v -0.000002 0.040048 -0.407850
v -0.267577 0.062245 -0.267561
v -0.407854 0.040048 0.000002
v -0.267577 0.062245 0.267577
v -0.000002 0.040048 0.407854
v 0.267561 0.062245 0.267577
v 0.407850 0.040048 0.000002
v 0.433606 0.220024 -0.433606
v 0.000032 0.132871 -0.780799
v -0.433228 0.221654 -0.433209
v -0.780808 0.132847 0.000041
v -0.433724 0.219726 0.433724
v -0.000062 0.132855 0.780787
v 0.432944 0.221749 0.432964
v 0.780778 0.132879 -0.000054
v 0.545121 1.373267 -0.545121
v 0.000032 1.464877 -0.927807
v -0.544744 1.374897 -0.544724
v -0.927816 1.464853 0.000041
v -0.545239 1.372969 0.545239
v -0.000062 1.464861 0.927794
v 0.544460 1.374992 0.544480
v 0.927785 1.464885 -0.000054
v 0.328573 1.504426 -0.328573
v -0.000002 1.611071 -0.493277
v -0.328589 1.504426 -0.328573
v -0.493281 1.611071 0.000002
v -0.328589 1.504426 0.328589
v -0.000002 1.611071 0.493281
v 0.328573 1.504426 0.328589
v 0.493277 1.611071 0.000002
v -0.000008 0.102230 0.000008
v -0.000008 1.442733 0.000008
v 0.000197 0.826070 -1.001082
v 0.597055 0.830663 -0.597055
v 1.000953 0.826117 -0.000327
v 0.593086 0.841011 0.593128
v -0.000369 0.825971 1.000995
v -0.597683 0.828872 0.597683
v -1.001124 0.825924 0.000239
v -0.594713 0.840441 -0.594671
v -0.820170 1.442814 -0.304070
v -0.435138 1.561552 -0.173511
v 0.435128 1.561552 0.173520
v 0.819998 1.442873 0.303910
v -0.820481 1.441601 0.304387
v -0.435138 1.561552 0.173520
v 0.435128 1.561552 -0.173511
v 0.820414 1.441789 -0.304320
v 0.303904 1.442874 0.820004
v 0.173511 1.561552 0.435138
v -0.173520 1.561552 -0.435128
v -0.304076 1.442814 -0.820164
v 0.304320 1.441789 -0.820414
v 0.173511 1.561552 -0.435128
v -0.173520 1.561552 0.435138
v -0.304387 1.441601 0.820481
v -0.329511 0.826137 0.886852
v -0.219605 0.150331 0.677580
v -0.137387 0.046842 0.357609
v 0.137377 0.046842 -0.357599
v 0.219538 0.150519 -0.677513
v 0.329152 0.827263 -0.886493
v 0.886493 0.827263 -0.329152
v 0.677513 0.150519 -0.219538
v 0.357599 0.046842 -0.137377
v -0.357609 0.046842 0.137387
v -0.677580 0.150331 0.219605
v -0.886852 0.826137 0.329511
v 0.326656 0.833771 0.883987
v 0.219122 0.151603 0.677103
v 0.137377 0.046842 0.357609
v -0.137387 0.046842 -0.357599
v -0.219293 0.151544 -0.677263
v -0.327643 0.833413 -0.884994
v -0.884984 0.833413 -0.327653
v -0.677269 0.151544 -0.219288
v -0.357609 0.046842 -0.137377
v 0.357599 0.046842 0.137387
v 0.677097 0.151603 0.219127
v 0.883997 0.833771 0.326647
v 0.210271 0.054976 -0.323908
v -0.070255 0.039984 -0.400261
v -0.323922 0.054976 -0.210271
v -0.400267 0.039984 0.070255
v -0.210285 0.054976 0.323922
v 0.070250 0.039984 0.400267
v 0.323908 0.054976 0.210285
v 0.400262 0.039984 -0.070250
v 0.323383 0.192545 -0.561324
v -0.110826 0.134886 -0.753021
v -0.560987 0.193986 -0.323031
v -0.753184 0.134257 0.110987
v -0.323484 0.192281 0.561425
v 0.110738 0.134917 0.752937
v 0.560739 0.194070 0.322812
v 0.753151 0.134355 -0.110953
v 0.424977 1.399905 -0.689443
v -0.158333 1.461421 -0.900380
v -0.689106 1.401346 -0.424626
v -0.900544 1.460792 0.158494
v -0.425078 1.399641 0.689543
v 0.158245 1.461452 0.900296
v 0.688858 1.401430 0.424407
v 0.900510 1.460890 -0.158461
v 0.261125 1.526319 -0.395478
v -0.089480 1.599690 -0.485014
v -0.395491 1.526319 -0.261125
v -0.485020 1.599690 0.089480
v -0.261139 1.526319 0.395491
v 0.089474 1.599690 0.485020
v 0.395478 1.526319 0.261139
v 0.485014 1.599690 -0.089474
v 0.352430 0.093997 -0.352430
v -0.000001 0.031896 -0.600579
v -0.352445 0.093997 -0.352430
v -0.600581 0.031896 0.000001
v -0.352445 0.093997 0.352445
v -0.000001 0.031896 0.600581
v 0.352430 0.093997 0.352445
v 0.600579 0.031896 0.000001
v 0.528656 0.494789 -0.528656
v 0.000131 0.435796 -0.919389
v -0.527099 0.501308 -0.527066
v -0.919417 0.435699 0.000160
v -0.529079 0.493595 0.529079
v -0.000246 0.435730 0.919331
v 0.526010 0.501688 0.526043
v 0.919302 0.435827 -0.000217
v 0.450367 1.480832 -0.450367
v -0.000001 1.593448 -0.732469
v -0.450382 1.480832 -0.450367
v -0.732471 1.593448 0.000001
v -0.450382 1.480832 0.450382
v -0.000001 1.593448 0.732471
v 0.450367 1.480832 0.450382
v 0.732469 1.593448 0.000001
v 0.161435 0.070304 -0.161435
v -0.000004 0.064502 -0.231738
v -0.161451 0.070304 -0.161435
v -0.231747 0.064502 0.000004
v -0.161451 0.070304 0.161451
v -0.000004 0.064502 0.231747
v 0.161435 0.070304 0.161451
v 0.231738 0.064502 0.000004
v 0.194295 1.485763 -0.194295
v -0.000004 1.554016 -0.278907
v -0.194311 1.485763 -0.194295
v -0.278916 1.554016 0.000004
v -0.194311 1.485763 0.194311
v -0.000004 1.554016 0.278916
v 0.194295 1.485763 0.194311
v 0.278907 1.554016 0.000004
v 0.000131 1.189091 -1.010616
v 0.598281 1.140016 -0.598280
v 1.010530 1.189122 -0.000217
v 0.595635 1.146915 0.595668
v -0.000246 1.189025 1.010559
v -0.598704 1.138823 0.598704
v -1.010645 1.188993 0.000160
v -0.596724 1.146535 -0.596691
v 0.170503 0.825819 -0.971619
v 0.749746 0.829412 -0.464097
v 0.970324 0.829195 0.169196
v 0.460588 0.838562 0.746257
v -0.170682 0.825234 0.971799
v -0.750284 0.827829 0.464635
v -0.970829 0.829009 -0.169725
v -0.462009 0.838058 -0.747638
v -0.900382 1.461421 -0.158331
v -0.485020 1.599690 -0.089474
v 0.485014 1.599690 0.089480
v 0.900294 1.461452 0.158246
v -0.646573 1.552351 -0.245927
v -0.247030 1.519890 -0.101184
v 0.247018 1.519890 0.101197
v 0.646564 1.552351 0.245936
v -0.689543 1.399641 0.425078
v -0.395491 1.526319 0.261139
v 0.395478 1.526319 -0.261125
v 0.689443 1.399905 -0.424977
v -0.646573 1.552351 0.245936
v -0.247030 1.519890 0.101197
v 0.247018 1.519890 -0.101184
v 0.646564 1.552351 -0.245927
v 0.424392 1.401430 0.688872
v 0.261125 1.526319 0.395491
v -0.261139 1.526319 -0.395478
v -0.424640 1.401346 -0.689091
v 0.245927 1.552351 0.646573
v 0.101185 1.519890 0.247030
v -0.101197 1.519890 -0.247018
v -0.245936 1.552351 -0.646564
v 0.158461 1.460890 -0.900510
v 0.089474 1.599690 -0.485014
v -0.089480 1.599690 0.485020
v -0.158494 1.460792 0.900544
v 0.245927 1.552351 -0.646564
v 0.101184 1.519890 -0.247018
v -0.101197 1.519890 0.247030
v -0.245936 1.552351 0.646573
v -0.464635 0.827829 0.750284
v -0.110987 0.134257 0.753185
v -0.070255 0.039984 0.400267
v 0.070250 0.039984 -0.400261
v 0.110954 0.134355 -0.753151
v 0.464097 0.829412 -0.749746
v -0.334819 1.178613 0.896009
v -0.280742 0.446922 0.806709
v -0.177190 0.045728 0.521465
v -0.084084 0.067403 0.205254
v 0.084071 0.067403 -0.205241
v 0.177181 0.045728 -0.521457
v 0.280500 0.447673 -0.806467
v 0.334577 1.179364 -0.895766
v 0.971619 0.825819 -0.170503
v 0.561324 0.192545 -0.323383
v 0.323908 0.054976 -0.210271
v -0.323922 0.054976 0.210285
v -0.561425 0.192281 0.323484
v -0.971798 0.825234 0.170682
v 0.895766 1.179364 -0.334577
v 0.806467 0.447673 -0.280500
v 0.521457 0.045728 -0.177181
v 0.205241 0.067403 -0.084071
v -0.205254 0.067403 0.084084
v -0.521465 0.045728 0.177190
v -0.806709 0.446922 0.280742
v -0.896009 1.178613 0.334819
v 0.169208 0.829195 0.970312
v 0.322798 0.194070 0.560753
v 0.210271 0.054976 0.323922
v -0.210285 0.054976 -0.323908
v -0.323046 0.193986 -0.560972
v -0.169713 0.829009 -0.970841
v 0.332913 1.183703 0.894099
v 0.278836 0.452011 0.804800
v 0.177181 0.045728 0.521465
v 0.084071 0.067403 0.205254
v -0.084084 0.067403 -0.205241
v -0.177190 0.045728 -0.521457
v -0.279497 0.451772 -0.805468
v -0.333574 1.183464 -0.894767
v -0.747658 0.838058 -0.461989
v -0.753023 0.134886 -0.110824
v -0.400267 0.039984 -0.070250
v 0.400262 0.039984 0.070255
v 0.752935 0.134917 0.110739
v 0.746237 0.838562 0.460608
v -0.894763 1.183464 -0.333578
v -0.805464 0.451772 -0.279501
v -0.521465 0.045728 -0.177181
v -0.205254 0.067403 -0.084071
v 0.205241 0.067403 0.084084
v 0.521457 0.045728 0.177190
v 0.804803 0.452011 0.278833
v 0.894102 1.183703 0.332910
v 0.264575 0.075038 -0.442162
v -0.088834 0.033637 -0.577997
v -0.578001 0.033637 -0.088830
v -0.578001 0.033637 0.088835
v -0.088834 0.033637 0.578001
v 0.264575 0.075038 0.442175
v 0.442162 0.075038 0.264589
v 0.442162 0.075038 -0.264575
v 0.403040 0.476191 -0.674591
v -0.143267 0.438635 -0.889389
v -0.889382 0.438635 -0.143274
v -0.890028 0.436119 0.143913
v -0.143913 0.436119 0.890028
v 0.400701 0.482291 0.672269
v 0.672251 0.482291 0.400718
v 0.674591 0.476191 -0.403040
v 0.350641 1.507207 -0.554718
v -0.350654 1.507207 -0.554718
v -0.554732 1.507207 -0.350640
v -0.708778 1.582284 0.126618
v -0.126618 1.582284 0.708778
v 0.126613 1.582284 0.708778
v 0.708773 1.582284 0.126618
v 0.554718 1.507207 -0.350640
v 0.144125 0.063667 -0.213365
v -0.048049 0.059025 -0.255760
v -0.255769 0.059025 -0.048040
v -0.255769 0.059025 0.048049
v -0.048049 0.059025 0.255769
v 0.144125 0.063667 0.213380
v 0.213366 0.063667 0.144140
v 0.213366 0.063667 -0.144125
v 0.173463 1.506007 -0.256796
v -0.173477 1.506007 -0.256796
v -0.256811 1.506007 -0.173463
v -0.307828 1.560609 0.057828
v -0.057828 1.560610 0.307828
v 0.057819 1.560609 0.307828
v 0.307819 1.560610 0.057828
v 0.256796 1.506007 -0.173463
v 0.467103 1.155645 -0.754574
v 0.754574 1.155645 -0.467103
v 0.752235 1.161745 0.464781
v 0.464763 1.161745 0.752253
v -0.174362 1.187617 0.981761
v -0.981761 1.187617 0.174362
v -0.981114 1.190134 -0.173723
v -0.173716 1.190134 -0.981121
v -0.708778 1.582284 -0.126613
v -0.307828 1.560610 -0.057819
v 0.256796 1.506007 0.173477
v 0.554718 1.507207 0.350654
v -0.554732 1.507207 0.350654
v -0.256811 1.506007 0.173477
v 0.307819 1.560609 -0.057819
v 0.708773 1.582284 -0.126613
v 0.350641 1.507207 0.554732
v 0.173463 1.506007 0.256811
v -0.057828 1.560609 -0.307819
v -0.126618 1.582284 -0.708773
v 0.126613 1.582284 -0.708773
v 0.057819 1.560610 -0.307819
v -0.173477 1.506007 0.256811
v -0.350654 1.507207 0.554732
v -0.467466 1.154589 0.754938
v -0.403403 0.475136 0.674954
v -0.264589 0.075038 0.442175
v -0.144140 0.063667 0.213380
v 0.048040 0.059025 -0.255760
v 0.088830 0.033637 -0.577997
v 0.143792 0.436508 -0.889907
v 0.174241 1.188007 -0.981639
v 0.981639 1.188007 -0.174241
v 0.889907 0.436508 -0.143792
v 0.577997 0.033637 -0.088830
v 0.255760 0.059025 -0.048040
v -0.213380 0.063667 0.144140
v -0.442175 0.075038 0.264589
v -0.674954 0.475136 0.403403
v -0.754938 1.154589 0.467466
v 0.173378 1.190258 0.980770
v 0.142929 0.438759 0.889037
v 0.088830 0.033637 0.578001
v 0.048040 0.059025 0.255769
v -0.144140 0.063667 -0.213365
v -0.264589 0.075038 -0.442162
v -0.401652 0.481955 -0.673185
v -0.465715 1.161409 -0.753169
v -0.753187 1.161409 -0.465697
v -0.673203 0.481955 -0.401635
v -0.442175 0.075038 -0.264575
v -0.213380 0.063667 -0.144125
v 0.255760 0.059025 0.048049
v 0.577997 0.033637 0.088835
v 0.889044 0.438759 0.142922
v 0.980776 1.190258 0.173371
vt 0.758692 0.418480
vt 0.715124 0.396574
vt 0.672245 0.419803
vt 0.650341 0.463371
vt 0.673568 0.506250
vt 0.717138 0.528154
vt 0.760015 0.504927
vt 0.781921 0.461357
vt 0.785835 0.390494
vt 0.714094 0.329263
vt 0.644258 0.392660
vt 0.583031 0.464401
vt 0.646425 0.534237
vt 0.718168 0.595464
vt 0.788001 0.532070
vt 0.849232 0.460327
vt 0.093719 0.588675
vt 0.192672 0.616563
vt 0.289689 0.653962
vt 0.393986 0.657866
vt 0.497154 0.672132
vt 0.599265 0.651645
vt 0.703110 0.641530
vt 0.797600 0.598228
vt 0.894672 0.564376
vt 0.004883 0.782802
vt 0.117947 0.844855
vt 0.247266 0.859786
vt 0.372660 0.897267
vt 0.503575 0.883440
vt 0.635083 0.889268
vt 0.757876 0.844131
vt 0.886022 0.821523
vt 0.995117 0.752741
vt 0.480381 0.383448
vt 0.387506 0.309258
vt 0.294066 0.382739
vt 0.219877 0.475618
vt 0.293359 0.569054
vt 0.386237 0.643246
vt 0.479673 0.569762
vt 0.553865 0.476887
vt 0.442441 0.421100
vt 0.387188 0.392834
vt 0.331719 0.420680
vt 0.303453 0.475935
vt 0.331299 0.531401
vt 0.386554 0.559669
vt 0.442020 0.531822
vt 0.470288 0.476569
vt 0.716130 0.462365
vt 0.386870 0.476251
vt 0.151584 0.737765
vt 0.956159 0.666529
vt 0.038540 0.694380
vt 0.845966 0.716694
vt 0.733635 0.753591
vt 0.618300 0.778307
vt 0.500632 0.786576
vt 0.382670 0.785463
vt 0.266004 0.767754
vt 0.238288 0.529069
vt 0.313993 0.888893
vt 0.313471 0.504581
vt 0.460269 0.447922
vt 0.535453 0.423435
vt 0.830203 0.840249
vt 0.238693 0.422307
vt 0.432239 0.900872
vt 0.313689 0.447365
vt 0.460052 0.505138
vt 0.535047 0.530196
vt 0.940242 0.798551
vt 0.440815 0.328074
vt 0.693119 0.877339
vt 0.415757 0.403070
vt 0.357984 0.549433
vt 0.332926 0.624429
vt 0.174810 0.860173
vt 0.439688 0.624834
vt 0.062435 0.825204
vt 0.415200 0.549650
vt 0.358540 0.402852
vt 0.334053 0.327669
vt 0.575837 0.896498
vt 0.562484 0.784109
vt 0.559349 0.654617
vt 0.685575 0.577908
vt 0.695012 0.520594
vt 0.737249 0.404135
vt 0.156184 0.601236
vt 0.746686 0.346821
vt 0.098625 0.717881
vt 0.897611 0.693633
vt 0.833086 0.580709
vt 0.830685 0.428288
vt 0.773686 0.439474
vt 0.658575 0.485255
vt 0.434010 0.658416
vt 0.601576 0.496441
vt 0.438744 0.787870
vt 0.673485 0.768749
vt 0.638355 0.642138
vt 0.750207 0.576919
vt 0.739020 0.519920
vt 0.693240 0.404809
vt 0.231695 0.625631
vt 0.682054 0.347810
vt 0.205425 0.754134
vt 0.326946 0.779242
vt 0.354388 0.650738
vt 0.600587 0.431809
vt 0.657901 0.441246
vt 0.774359 0.483483
vt 0.759208 0.609656
vt 0.831674 0.492920
vt 0.793285 0.736303
vt 0.758103 0.389471
vt 0.700815 0.369494
vt 0.622835 0.449897
vt 0.623261 0.477680
vt 0.703663 0.555659
vt 0.760313 0.533940
vt 0.789024 0.504337
vt 0.787705 0.418182
vt 0.096128 0.651232
vt 0.194817 0.685295
vt 0.364118 0.720170
vt 0.412431 0.724067
vt 0.584875 0.718833
vt 0.687783 0.703484
vt 0.747844 0.687267
vt 0.896062 0.626960
vt 0.444930 0.569420
vt 0.328104 0.568976
vt 0.293701 0.534311
vt 0.268830 0.455322
vt 0.366839 0.358056
vt 0.407800 0.358211
vt 0.505066 0.456220
vt 0.479595 0.535017
vt 0.738673 0.427645
vt 0.707747 0.421089
vt 0.674618 0.455248
vt 0.674855 0.470748
vt 0.709014 0.503877
vt 0.739725 0.496379
vt 0.750850 0.484908
vt 0.750144 0.438770
vt 0.415743 0.519778
vt 0.357667 0.519557
vt 0.343343 0.505124
vt 0.334540 0.466538
vt 0.377555 0.423849
vt 0.396583 0.423921
vt 0.439272 0.466936
vt 0.430176 0.505454
vt 0.050482 0.755755
vt 0.947962 0.728512
vt 0.779284 0.795566
vt 0.715165 0.812935
vt 0.597952 0.838709
vt 0.406657 0.844531
vt 0.348688 0.839559
vt 0.161915 0.801003
vt 0.268675 0.496284
vt 0.334468 0.485566
vt 0.430397 0.447378
vt 0.480039 0.418191
vt 0.294145 0.417485
vt 0.343563 0.447048
vt 0.439200 0.485964
vt 0.504911 0.497181
vt 0.445637 0.383526
vt 0.416073 0.432944
vt 0.377158 0.528581
vt 0.365941 0.594292
vt 0.406903 0.594447
vt 0.396185 0.528653
vt 0.357997 0.432724
vt 0.328810 0.383082
vt 0.535560 0.839270
vt 0.529832 0.725973
vt 0.674158 0.535258
vt 0.693587 0.497085
vt 0.723247 0.420852
vt 0.728598 0.369069
vt 0.148787 0.669762
vt 0.106669 0.782827
vt 0.893519 0.758940
vt 0.844625 0.648655
vt 0.809001 0.447048
vt 0.757406 0.453981
vt 0.682116 0.485960
vt 0.644555 0.506548
vt 0.467805 0.727856
vt 0.468968 0.841297
vt 0.655481 0.830235
vt 0.632836 0.712029
vt 0.731447 0.555234
vt 0.724514 0.503640
vt 0.692535 0.428351
vt 0.671947 0.390790
vt 0.247802 0.702390
vt 0.222975 0.812482
vt 0.288029 0.825926
vt 0.308733 0.714931
vt 0.643237 0.420392
vt 0.681410 0.439822
vt 0.757643 0.469481
vt 0.809426 0.474832
vt 0.799655 0.666956
vt 0.839510 0.780428
vt 0.749166 0.409422
vt 0.742973 0.377556
vt 0.766261 0.368657
vt 0.773256 0.403463
vt 0.703918 0.397871
vt 0.686705 0.378417
vt 0.698074 0.338537
vt 0.714653 0.365788
vt 0.631322 0.435522
vt 0.651294 0.452130
vt 0.619555 0.463842
vt 0.591809 0.448105
vt 0.651638 0.474577
vt 0.632183 0.491790
vt 0.592303 0.480421
vt 0.689287 0.547173
vt 0.705897 0.527201
vt 0.717609 0.558940
vt 0.701871 0.586686
vt 0.745556 0.546312
vt 0.750771 0.514273
vt 0.775032 0.519491
vt 0.769104 0.554495
vt 0.769073 0.495401
vt 0.800939 0.489208
vt 0.809838 0.512495
vt 0.800078 0.432939
vt 0.768038 0.427724
vt 0.808260 0.409391
vt 0.124951 0.594956
vt 0.124292 0.660716
vt 0.070304 0.705500
vt 0.066130 0.641528
vt 0.212183 0.621097
vt 0.219748 0.692922
vt 0.177909 0.746321
vt 0.171625 0.678059
vt 0.338236 0.717316
vt 0.374187 0.654302
vt 0.388232 0.722688
vt 0.355226 0.782951
vt 0.413998 0.658141
vt 0.438395 0.725419
vt 0.410204 0.787146
vt 0.559040 0.721757
vt 0.579307 0.653131
vt 0.608940 0.715993
vt 0.590929 0.781653
vt 0.658478 0.707631
vt 0.670732 0.641834
vt 0.718366 0.697420
vt 0.703154 0.761672
vt 0.731159 0.625593
vt 0.775259 0.676091
vt 0.764047 0.745179
vt 0.868526 0.638138
vt 0.863879 0.572543
vt 0.925415 0.615453
vt 0.925128 0.679557
vt 0.459680 0.597298
vt 0.426665 0.584185
vt 0.430258 0.543070
vt 0.462354 0.552311
vt 0.346257 0.583879
vt 0.313142 0.596741
vt 0.310810 0.551736
vt 0.342976 0.542739
vt 0.265823 0.549062
vt 0.278937 0.516046
vt 0.320051 0.519639
vt 0.229285 0.448962
vt 0.279242 0.435638
vt 0.305031 0.461306
vt 0.264708 0.475788
vt 0.347076 0.368318
vt 0.360779 0.318463
vt 0.387335 0.354089
vt 0.372548 0.394300
vt 0.414161 0.318666
vt 0.427484 0.368623
vt 0.401816 0.394412
vt 0.494804 0.436457
vt 0.544659 0.450161
vt 0.509033 0.476716
vt 0.468822 0.461929
vt 0.494498 0.516865
vt 0.507360 0.549979
vt 0.453358 0.520145
vt 0.729139 0.428932
vt 0.741582 0.436122
vt 0.702104 0.429345
vt 0.715557 0.424908
vt 0.682697 0.449356
vt 0.678674 0.462938
vt 0.683111 0.476391
vt 0.703121 0.495798
vt 0.716704 0.499821
vt 0.730156 0.495384
vt 0.742373 0.487817
vt 0.749563 0.475374
vt 0.749150 0.448339
vt 0.403484 0.518180
vt 0.419502 0.509132
vt 0.369938 0.518052
vt 0.353989 0.508883
vt 0.344941 0.492865
vt 0.345069 0.459319
vt 0.339332 0.476071
vt 0.370256 0.434322
vt 0.387051 0.428713
vt 0.403803 0.434449
vt 0.428799 0.459637
vt 0.434408 0.476432
vt 0.428671 0.493183
vt 0.078914 0.771105
vt 0.033659 0.804003
vt 0.021712 0.738591
vt 0.920513 0.745557
vt 0.975638 0.709635
vt 0.967679 0.775646
vt 0.810832 0.789181
vt 0.794040 0.842190
vt 0.746763 0.802508
vt 0.684676 0.823345
vt 0.725497 0.860735
vt 0.567863 0.840521
vt 0.626825 0.834919
vt 0.605460 0.892883
vt 0.436800 0.844509
vt 0.402450 0.899070
vt 0.377599 0.842501
vt 0.319104 0.834451
vt 0.343327 0.893080
vt 0.191094 0.808007
vt 0.146378 0.852514
vt 0.134189 0.792325
vt 0.229083 0.502343
vt 0.304919 0.490575
vt 0.453689 0.432863
vt 0.419751 0.443618
vt 0.507917 0.403441
vt 0.462931 0.400766
vt 0.266380 0.402523
vt 0.311385 0.400190
vt 0.320382 0.432356
vt 0.354237 0.443369
vt 0.468710 0.491197
vt 0.544456 0.503542
vt 0.460598 0.355761
vt 0.430765 0.409763
vt 0.371925 0.558091
vt 0.386690 0.523789
vt 0.359581 0.633837
vt 0.386407 0.598414
vt 0.412962 0.634040
vt 0.401193 0.558203
vt 0.343482 0.409432
vt 0.314060 0.355204
vt 0.532055 0.785597
vt 0.539706 0.889969
vt 0.502206 0.838386
vt 0.528252 0.663374
vt 0.498879 0.728875
vt 0.683094 0.515308
vt 0.666000 0.556072
vt 0.659004 0.521267
vt 0.690678 0.488608
vt 0.726364 0.397528
vt 0.730390 0.338042
vt 0.174428 0.608900
vt 0.125437 0.728460
vt 0.090191 0.835029
vt 0.871489 0.705820
vt 0.913132 0.810037
vt 0.866633 0.770087
vt 0.815343 0.589468
vt 0.822341 0.658324
vt 0.780624 0.450152
vt 0.839958 0.444308
vt 0.812707 0.460886
vt 0.753587 0.461791
vt 0.664222 0.497005
vt 0.624000 0.515339
vt 0.465582 0.665274
vt 0.469208 0.787507
vt 0.467907 0.892156
vt 0.645510 0.774150
vt 0.664101 0.883304
vt 0.618810 0.646892
vt 0.728343 0.526857
vt 0.734187 0.586192
vt 0.681489 0.410457
vt 0.689886 0.436913
vt 0.657228 0.405239
vt 0.663156 0.370235
vt 0.260692 0.639797
vt 0.277843 0.710721
vt 0.235151 0.761210
vt 0.255855 0.817448
vt 0.211038 0.859980
vt 0.296904 0.773971
vt 0.280630 0.874340
vt 0.322038 0.652350
vt 0.663187 0.429329
vt 0.622423 0.412234
vt 0.780967 0.472598
vt 0.840453 0.476624
vt 0.778404 0.603942
vt 0.820245 0.726831
vt 0.858113 0.830886
vn 0.161875 -0.986673 0.016499
vn 0.106269 -0.992157 0.065815
vn 0.410396 -0.878731 -0.243737
vn 0.504185 -0.820534 -0.269300
vn 0.609104 -0.537407 -0.583254
vn 0.699627 -0.508153 -0.502298
vn 0.607588 -0.511541 -0.607588
vn 0.416171 -0.808457 -0.416171
vn 0.085058 -0.992739 -0.085058
vn -0.035863 -0.996917 0.069790
vn -0.106265 -0.992157 0.065813
vn -0.413397 -0.876667 -0.246086
vn -0.211539 -0.934474 -0.286374
vn -0.613967 -0.531047 -0.583981
vn -0.362772 -0.565316 -0.740820
vn -0.002956 -0.574058 -0.818809
vn -0.000993 -0.949273 -0.314451
vn -0.000000 -0.997359 0.072635
vn -0.246083 -0.876665 -0.413402
vn 0.065817 -0.992157 -0.106272
vn 0.069791 -0.996917 -0.035867
vn -0.286358 -0.934473 -0.211564
vn 0.072636 -0.997359 0.000000
vn -0.314345 -0.949308 -0.001182
vn -0.818703 -0.574207 -0.003555
vn -0.740782 -0.565306 -0.362864
vn -0.583982 -0.531048 -0.613966
vn 0.069791 -0.996917 0.035865
vn 0.065815 -0.992157 0.106267
vn -0.243302 -0.879136 0.409786
vn -0.284772 -0.935605 0.208681
vn -0.583164 -0.538712 0.608038
vn -0.740912 -0.569513 0.355955
vn -0.409786 -0.879136 0.243302
vn -0.106267 -0.992157 -0.065815
vn -0.035865 -0.996917 -0.069791
vn -0.208667 -0.935607 0.284775
vn -0.000000 -0.997359 -0.072636
vn 0.001309 -0.949294 0.314387
vn 0.004294 -0.574028 0.818824
vn -0.355871 -0.569516 0.740950
vn -0.608037 -0.538712 0.583164
vn 0.413888 -0.876340 0.246424
vn 0.106272 -0.992157 -0.065817
vn 0.161878 -0.986673 -0.016499
vn 0.508263 -0.816790 0.272989
vn 0.085059 -0.992738 0.085059
vn 0.420530 -0.803932 0.420532
vn 0.612543 -0.499581 0.612544
vn 0.705121 -0.497497 0.505272
vn 0.615370 -0.529331 0.584062
vn -0.016497 -0.986674 0.161871
vn -0.065813 -0.992157 0.106265
vn 0.246427 -0.876342 0.413883
vn 0.272993 -0.816793 0.508255
vn 0.584062 -0.529330 0.615371
vn 0.505282 -0.497498 0.705114
vn 0.243737 -0.878731 -0.410396
vn -0.065815 -0.992157 -0.106269
vn -0.016499 -0.986673 -0.161875
vn 0.269300 -0.820533 -0.504185
vn 0.502298 -0.508153 -0.699627
vn 0.583254 -0.537407 -0.609104
vn 0.624360 -0.314637 -0.714967
vn 0.727676 -0.327214 -0.602842
vn 0.610314 -0.135189 -0.780539
vn 0.737732 -0.142556 -0.659871
vn 0.699388 -0.147355 -0.699388
vn 0.665196 -0.339159 -0.665196
vn -0.629837 -0.309907 -0.712224
vn -0.365659 -0.300141 -0.881027
vn -0.614860 -0.135123 -0.776974
vn -0.342045 -0.125037 -0.931328
vn -0.002923 -0.119453 -0.992836
vn -0.003615 -0.295073 -0.955468
vn -0.712228 -0.309906 -0.629834
vn -0.880982 -0.300120 -0.365785
vn -0.955442 -0.295145 -0.004382
vn -0.992840 -0.119395 -0.003576
vn -0.931292 -0.125010 -0.342153
vn -0.776981 -0.135124 -0.614852
vn -0.715630 -0.315645 0.623091
vn -0.883485 -0.302989 0.357285
vn -0.781416 -0.135204 0.609188
vn -0.933894 -0.125004 0.334986
vn -0.623091 -0.315645 0.715630
vn -0.357123 -0.302988 0.883551
vn 0.005610 -0.294955 0.955495
vn 0.004913 -0.119425 0.992831
vn -0.334794 -0.125018 0.933961
vn -0.609188 -0.135204 0.781416
vn 0.631886 -0.308193 0.711152
vn 0.732714 -0.318459 0.601427
vn 0.667632 -0.329446 0.667632
vn 0.699428 -0.146982 0.699426
vn 0.741270 -0.142305 0.655949
vn 0.617077 -0.135099 0.775219
vn 0.711148 -0.308194 0.631890
vn 0.601437 -0.318459 0.732706
vn 0.775213 -0.135099 0.617085
vn 0.655956 -0.142306 0.741263
vn 0.714967 -0.314637 -0.624360
vn 0.602842 -0.327214 -0.727676
vn 0.659871 -0.142556 -0.737732
vn 0.780539 -0.135189 -0.610314
vn 0.707829 0.485346 -0.513242
vn 0.585259 0.511952 -0.628790
vn 0.429974 0.880862 -0.197999
vn 0.470704 0.867649 -0.160076
vn 0.307505 0.940345 0.145576
vn 0.257274 0.957815 0.128063
vn 0.042552 0.998188 -0.042553
vn 0.315967 0.894612 -0.315967
vn 0.615713 0.491725 -0.615714
vn -0.428519 0.881908 -0.196493
vn -0.584593 0.513787 -0.627912
vn -0.707122 0.487698 -0.511986
vn -0.468553 0.869195 -0.157985
vn -0.614565 0.494591 -0.614564
vn -0.313397 0.896418 -0.313395
vn -0.042553 0.998188 -0.042553
vn -0.257268 0.957817 0.128059
vn -0.307495 0.940349 0.145571
vn -0.511977 0.487700 -0.707127
vn -0.627916 0.513788 -0.584589
vn -0.196490 0.881906 -0.428525
vn -0.157980 0.869192 -0.468560
vn 0.145579 0.940343 -0.307509
vn 0.128064 0.957814 -0.257277
vn -0.784876 0.534018 0.314317
vn -0.628973 0.511757 0.585233
vn -0.198274 0.880692 0.430197
vn -0.306727 0.918912 0.248031
vn 0.145573 0.940347 0.307499
vn 0.068555 0.975509 0.209006
vn 0.038486 0.999259 0.000000
vn -0.362710 0.931902 0.000556
vn -0.843952 0.536419 0.000581
vn -0.430196 0.880692 0.198274
vn -0.585233 0.511757 0.628973
vn -0.314275 0.534017 0.784893
vn -0.248033 0.918914 0.306720
vn -0.000208 0.536299 0.844028
vn -0.000535 0.931905 0.362701
vn 0.000000 0.999259 -0.038486
vn -0.209006 0.975509 -0.068554
vn -0.307499 0.940347 -0.145573
vn 0.314332 0.534707 0.784400
vn 0.585588 0.512462 0.628067
vn 0.428673 0.881823 0.196541
vn 0.246906 0.919546 0.305734
vn 0.307508 0.940343 -0.145578
vn 0.209011 0.975507 -0.068557
vn 0.196545 0.881824 0.428668
vn 0.628065 0.512461 0.585593
vn 0.784377 0.534722 0.314365
vn 0.305715 0.919547 0.246924
vn 0.843985 0.536367 -0.000153
vn 0.362624 0.931935 -0.000454
vn -0.038484 0.999259 -0.000000
vn -0.068553 0.975509 0.209005
vn -0.145570 0.940349 0.307496
vn 0.197999 0.880862 -0.429974
vn 0.628790 0.511952 -0.585259
vn 0.513242 0.485346 -0.707829
vn 0.160076 0.867649 -0.470703
vn -0.128063 0.957816 -0.257273
vn -0.145577 0.940345 -0.307504
vn -0.018192 -0.988969 0.147000
vn -0.000355 -0.992501 0.122238
vn -0.079137 -0.993718 0.079137
vn 0.000000 -1.000000 -0.000000
vn 0.018191 -0.988969 0.147001
vn 0.006844 -0.989548 0.144041
vn 0.000000 -0.988079 0.153947
vn 0.147005 -0.988968 0.018187
vn 0.144045 -0.989548 0.006840
vn 0.153952 -0.988078 -0.000000
vn 0.147005 -0.988968 -0.018186
vn 0.144046 -0.989547 -0.006840
vn 0.018186 -0.988969 -0.147005
vn 0.006840 -0.989547 -0.144046
vn 0.000000 -0.988078 -0.153952
vn -0.018187 -0.988968 -0.147005
vn -0.000351 -0.992500 -0.122242
vn -0.079137 -0.993718 -0.079137
vn -0.147001 -0.988969 -0.018191
vn -0.122239 -0.992501 -0.000356
vn -0.147000 -0.988969 0.018192
vn -0.122238 -0.992501 0.000355
vn 0.200147 0.919568 0.338137
vn 0.169607 0.942957 0.286470
vn -0.000001 1.000000 0.000001
vn -0.084989 0.992751 0.084988
vn -0.200142 0.919571 0.338132
vn -0.169603 0.942959 0.286467
vn 0.084989 0.992751 0.084989
vn 0.338145 0.919563 -0.200156
vn 0.286476 0.942954 -0.169613
vn 0.338140 0.919566 0.200151
vn 0.303848 0.932666 0.194448
vn 0.344750 0.938695 0.000000
vn -0.200151 0.919566 -0.338140
vn -0.194448 0.932666 -0.303848
vn 0.000001 0.938694 -0.344750
vn 0.200155 0.919563 -0.338144
vn 0.194453 0.932664 -0.303852
vn -0.338132 0.919571 0.200142
vn -0.303840 0.932670 0.194441
vn -0.344742 0.938698 -0.000001
vn -0.338137 0.919568 -0.200146
vn -0.286470 0.942957 -0.169606
vn 0.612999 0.110201 -0.782360
vn 0.750097 0.112763 -0.651643
vn 0.702179 0.117853 -0.702179
vn 0.782360 0.110201 -0.612999
vn 0.651643 0.112763 -0.750097
vn 0.780053 0.106613 0.616563
vn 0.650008 0.107631 0.752267
vn 0.512497 0.485663 0.708151
vn 0.615517 0.492216 0.615518
vn 0.702644 0.112185 0.702643
vn 0.616556 0.106612 0.780060
vn 0.752273 0.107634 0.650001
vn 0.708157 0.485665 0.512487
vn -0.612423 0.110678 0.782745
vn -0.326889 0.109913 0.938649
vn 0.002268 0.108924 0.994048
vn -0.782744 0.110677 0.612423
vn -0.938599 0.109939 0.327025
vn -0.994023 0.109162 -0.001313
vn -0.781132 0.108418 -0.614881
vn -0.937705 0.108919 -0.329918
vn -0.784347 0.535292 -0.313470
vn -0.614889 0.108419 -0.781126
vn -0.329885 0.108901 -0.937719
vn -0.313502 0.535307 -0.784324
vn 0.000526 0.536487 -0.843909
vn -0.001033 0.109067 -0.994034
vn -0.305728 0.919571 -0.246818
vn 0.068557 0.975507 -0.209011
vn 0.303852 0.932664 -0.194452
vn -0.128059 0.957817 0.257268
vn -0.286467 0.942959 0.169603
vn -0.084989 0.992751 -0.084989
vn 0.042553 0.998188 0.042553
vn 0.158090 0.869074 0.468741
vn 0.313571 0.896295 0.313572
vn -0.513463 0.485163 0.707794
vn -0.160446 0.867395 0.471045
vn -0.615803 0.491500 0.615803
vn -0.316398 0.894307 0.316398
vn -0.042554 0.998188 0.042554
vn 0.128060 0.957816 0.257272
vn 0.286473 0.942956 0.169610
vn 0.084988 0.992751 -0.084989
vn -0.068556 0.975507 -0.209010
vn -0.303844 0.932668 -0.194446
vn 0.784790 0.534177 -0.314261
vn 0.306548 0.919011 -0.247885
vn 0.468748 0.869071 0.158084
vn 0.257277 0.957814 -0.128064
vn 0.169613 0.942955 -0.286476
vn -0.209004 0.975509 0.068553
vn -0.194442 0.932670 0.303841
vn 0.000000 0.938698 0.344742
vn -0.000000 0.999259 0.038484
vn -0.246836 0.919573 -0.305709
vn 0.000474 0.931931 -0.362634
vn 0.314303 0.534178 -0.784772
vn 0.247882 0.919009 -0.306556
vn 0.209010 0.975508 0.068555
vn 0.194446 0.932668 0.303844
vn -0.257272 0.957816 -0.128060
vn -0.169610 0.942956 -0.286472
vn -0.707794 0.485163 0.513463
vn -0.471045 0.867395 0.160446
vn -0.737073 -0.142605 0.660596
vn -0.749692 0.113481 0.651985
vn -0.702111 0.118657 0.702111
vn -0.699381 -0.147424 0.699380
vn -0.698670 -0.509899 0.501860
vn -0.726776 -0.328626 0.603160
vn -0.664793 -0.340737 0.664792
vn -0.606759 -0.513505 0.606759
vn -0.161873 -0.986674 -0.016498
vn -0.503481 -0.821162 0.268700
vn -0.415439 -0.809210 0.415439
vn -0.085060 -0.992738 0.085060
vn 0.000352 -0.992500 -0.122242
vn 0.079137 -0.993718 -0.079137
vn 0.035865 -0.996917 0.069790
vn -0.006845 -0.989548 0.144041
vn 0.209131 -0.935424 -0.285036
vn 0.357048 -0.568820 -0.740919
vn 0.358664 -0.302515 -0.883089
vn 0.336196 -0.125034 -0.933455
vn 0.327601 0.109706 -0.938425
vn 0.933522 -0.125048 -0.336005
vn 0.938476 0.109680 -0.327465
vn 0.994059 0.108828 0.001989
vn 0.992827 -0.119484 0.004260
vn 0.740957 -0.568823 -0.356963
vn 0.883155 -0.302514 -0.358502
vn 0.955521 -0.294884 0.004843
vn 0.818931 -0.573880 0.003695
vn -0.069790 -0.996917 -0.035865
vn 0.285039 -0.935426 -0.209117
vn 0.314494 -0.949259 0.001120
vn -0.072635 -0.997359 0.000000
vn -0.144041 -0.989548 0.006845
vn -0.153947 -0.988079 -0.000000
vn 0.016498 -0.986674 0.161873
vn 0.122242 -0.992500 -0.000352
vn -0.268700 -0.821162 0.503481
vn -0.501860 -0.509899 0.698670
vn -0.603160 -0.328626 0.726776
vn -0.660596 -0.142604 0.737073
vn -0.651985 0.113481 0.749692
vn 0.344740 -0.125019 0.930336
vn 0.331808 0.108055 0.937138
vn 0.364344 -0.564429 0.740725
vn 0.368150 -0.299267 0.880287
vn 0.035867 -0.996917 -0.069791
vn 0.211896 -0.934350 0.286513
vn -0.006840 -0.989548 -0.144045
vn -0.161871 -0.986674 0.016497
vn 0.000356 -0.992501 0.122239
vn 0.079137 -0.993718 0.079137
vn -0.085059 -0.992739 -0.085059
vn -0.507650 -0.817350 -0.272453
vn -0.419863 -0.804631 -0.419861
vn -0.611470 -0.502206 -0.611468
vn -0.703878 -0.499832 -0.504701
vn -0.731337 -0.320755 -0.601882
vn -0.667011 -0.331952 -0.667012
vn -0.699428 -0.146969 -0.699429
vn -0.740103 -0.142322 -0.657261
vn -0.751288 0.110258 -0.650699
vn -0.702400 0.115181 -0.702401
vn -0.657255 -0.142321 -0.740109
vn -0.650692 0.110261 -0.751294
vn -0.504691 -0.499832 -0.703885
vn -0.601873 -0.320756 -0.731345
vn 0.016499 -0.986673 -0.161878
vn -0.272449 -0.817346 -0.507658
vn 0.122242 -0.992500 0.000351
vn -0.069790 -0.996917 0.035863
vn -0.144041 -0.989548 -0.006844
vn 0.286528 -0.934351 0.211872
vn 0.740763 -0.564438 0.364252
vn 0.880332 -0.299288 0.368025
vn 0.930372 -0.125046 0.344633
vn 0.937152 0.108037 0.331775
s 1
g bellPepperBodyHigh
usemtl initialShadingGroup
f 83/214/1 62/90/2 214/215/3 259/118/4
f 214/215/3 63/92/5 91/216/6 259/118/4
f 91/216/6 9/9/7 115/217/8 259/118/4
f 115/217/8 1/1/9 83/214/1 259/118/4
f 84/218/10 74/106/11 242/219/12 260/119/13
f 242/219/12 75/108/14 92/220/15 260/119/13
f 92/220/15 10/10/16 116/221/17 260/119/13
f 116/221/17 2/2/18 84/218/10 260/119/13
f 253/222/19 79/113/20 247/223/21 261/120/22
f 247/223/21 4/4/23 118/224/24 261/120/22
f 118/224/24 12/12/25 246/225/26 261/120/22
f 246/225/26 78/112/27 253/222/19 261/120/22
f 86/226/28 68/98/29 228/227/30 262/121/31
f 228/227/30 69/100/32 94/228/33 262/121/31
f 94/228/33 12/12/25 118/224/24 262/121/31
f 118/224/24 4/4/23 86/226/28 262/121/31
f 211/229/34 61/89/35 205/230/36 263/122/37
f 205/230/36 6/6/38 120/231/39 263/122/37
f 120/231/39 14/14/40 204/232/41 263/122/37
f 204/232/41 60/88/42 211/229/34 263/122/37
f 239/233/43 73/105/44 233/234/45 264/123/46
f 233/234/45 7/7/47 121/235/48 264/123/46
f 121/235/48 15/15/49 232/236/50 264/123/46
f 232/236/50 72/104/51 239/233/43 264/123/46
f 89/237/52 80/114/53 256/238/54 265/124/55
f 256/238/54 81/116/56 97/239/57 265/124/55
f 97/239/57 15/15/49 121/235/48 265/124/55
f 121/235/48 7/7/47 89/237/52 265/124/55
f 225/240/58 67/97/59 219/241/60 266/125/61
f 219/241/60 1/1/9 115/217/8 266/125/61
f 115/217/8 9/9/7 218/242/62 266/125/61
f 218/242/62 66/96/63 225/240/58 266/125/61
f 91/243/6 63/91/5 215/244/64 267/126/65
f 215/244/64 64/93/66 208/245/67 267/126/65
f 208/245/67 36/55/68 123/246/69 267/126/65
f 123/246/69 9/17/7 91/243/6 267/126/65
f 92/247/15 75/107/14 243/248/70 268/127/71
f 243/248/70 76/109/72 236/249/73 268/127/71
f 236/249/73 35/53/74 124/250/75 268/127/71
f 124/250/75 10/18/16 92/247/15 268/127/71
f 252/251/76 78/111/27 246/252/26 269/128/77
f 246/252/26 12/20/25 126/253/78 269/128/77
f 126/253/78 41/60/79 169/254/80 269/128/77
f 169/254/80 77/110/81 252/251/76 269/128/77
f 94/255/33 69/99/32 229/256/82 270/129/83
f 229/256/82 70/101/84 222/257/85 270/129/83
f 222/257/85 41/60/79 126/253/78 270/129/83
f 126/253/78 12/20/25 94/255/33 270/129/83
f 210/258/86 60/87/42 204/259/41 271/130/87
f 204/259/41 14/22/40 128/260/88 271/130/87
f 128/260/88 39/58/89 167/261/90 271/130/87
f 167/261/90 59/86/91 210/258/86 271/130/87
f 238/262/92 72/103/51 232/263/50 272/131/93
f 232/263/50 15/23/49 129/264/94 272/131/93
f 129/264/94 38/57/95 166/265/96 272/131/93
f 166/265/96 71/102/97 238/262/92 272/131/93
f 97/266/57 81/115/56 257/267/98 273/132/99
f 257/267/98 82/117/100 250/268/101 273/132/99
f 250/268/101 38/57/95 129/264/94 273/132/99
f 129/264/94 15/23/49 97/266/57 273/132/99
f 224/269/102 66/95/63 218/270/62 274/133/103
f 218/270/62 9/25/7 123/271/69 274/133/103
f 123/271/69 36/54/68 164/272/104 274/133/103
f 164/272/104 65/94/105 224/269/102 274/133/103
f 99/273/106 55/80/107 199/274/108 275/134/109
f 199/274/108 56/82/110 107/275/111 275/134/109
f 107/275/111 25/49/112 131/276/113 275/134/109
f 131/276/113 17/41/114 99/273/106 275/134/109
f 194/277/115 54/78/116 190/278/117 276/135/118
f 190/278/117 19/39/119 133/279/120 276/135/118
f 133/279/120 27/47/121 189/280/122 276/135/118
f 189/280/122 53/77/123 194/277/115 276/135/118
f 101/281/124 43/62/125 175/282/126 277/136/127
f 175/282/126 44/64/128 109/283/129 277/136/127
f 109/283/129 27/47/121 133/279/120 277/136/127
f 133/279/120 19/39/119 101/281/124 277/136/127
f 102/284/130 47/68/131 183/285/132 278/137/133
f 183/285/132 48/70/134 110/286/135 278/137/133
f 110/286/135 28/46/136 134/287/137 278/137/133
f 134/287/137 20/38/138 102/284/130 278/137/133
f 202/288/139 58/84/140 198/289/141 279/138/142
f 198/289/141 22/36/143 136/290/144 279/138/142
f 136/290/144 30/44/145 197/291/146 279/138/142
f 197/291/146 57/83/147 202/288/139 279/138/142
f 104/292/148 51/74/149 191/293/150 280/139/151
f 191/293/150 52/76/152 112/294/153 280/139/151
f 112/294/153 30/44/145 136/290/144 280/139/151
f 136/290/144 22/36/143 104/292/148 280/139/151
f 178/295/154 46/66/155 174/296/156 281/140/157
f 174/296/156 24/42/158 138/297/159 281/140/157
f 138/297/159 32/50/160 173/298/161 281/140/157
f 173/298/161 45/65/162 178/295/154 281/140/157
f 186/299/163 50/72/164 182/300/165 282/141/166
f 182/300/165 17/41/114 131/276/113 282/141/166
f 131/276/113 25/49/112 181/301/167 282/141/166
f 181/301/167 49/71/168 186/299/163 282/141/166
f 213/302/169 62/90/2 83/214/1 283/142/170
f 83/214/1 1/1/9 139/303/171 283/142/170
f 139/303/171 33/51/172 213/302/169 283/142/170
f 241/304/173 74/106/11 84/218/10 284/143/174
f 84/218/10 2/2/18 140/305/175 284/143/174
f 140/305/175 33/51/172 241/304/173 284/143/174
f 247/223/21 79/113/20 254/306/176 285/144/177
f 254/306/176 33/51/172 142/307/178 285/144/177
f 142/307/178 4/4/23 247/223/21 285/144/177
f 227/308/179 68/98/29 86/226/28 286/145/180
f 86/226/28 4/4/23 142/307/178 286/145/180
f 142/307/178 33/51/172 227/308/179 286/145/180
f 205/230/36 61/89/35 212/309/181 287/146/182
f 212/309/181 33/51/172 144/310/183 287/146/182
f 144/310/183 6/6/38 205/230/36 287/146/182
f 233/234/45 73/105/44 240/311/184 288/147/185
f 240/311/184 33/51/172 145/312/186 288/147/185
f 145/312/186 7/7/47 233/234/45 288/147/185
f 255/313/187 80/114/53 89/237/52 289/148/188
f 89/237/52 7/7/47 145/312/186 289/148/188
f 145/312/186 33/51/172 255/313/187 289/148/188
f 219/241/60 67/97/59 226/314/189 290/149/190
f 226/314/189 33/51/172 139/303/171 290/149/190
f 139/303/171 1/1/9 219/241/60 290/149/190
f 107/275/111 56/82/110 200/315/191 291/150/192
f 200/315/191 34/52/193 147/316/194 291/150/192
f 147/316/194 25/49/112 107/275/111 291/150/192
f 193/317/195 53/77/123 189/280/122 292/151/196
f 189/280/122 27/47/121 149/318/197 292/151/196
f 149/318/197 34/52/193 193/317/195 292/151/196
f 109/283/129 44/64/128 176/319/198 293/152/199
f 176/319/198 34/52/193 149/318/197 293/152/199
f 149/318/197 27/47/121 109/283/129 293/152/199
f 110/286/135 48/70/134 184/320/200 294/153/201
f 184/320/200 34/52/193 150/321/202 294/153/201
f 150/321/202 28/46/136 110/286/135 294/153/201
f 201/322/203 57/83/147 197/291/146 295/154/204
f 197/291/146 30/44/145 152/323/205 295/154/204
f 152/323/205 34/52/193 201/322/203 295/154/204
f 112/294/153 52/76/152 192/324/206 296/155/207
f 192/324/206 34/52/193 152/323/205 296/155/207
f 152/323/205 30/44/145 112/294/153 296/155/207
f 177/325/208 45/65/162 173/298/161 297/156/209
f 173/298/161 32/50/160 154/326/210 297/156/209
f 154/326/210 34/52/193 177/325/208 297/156/209
f 185/327/211 49/71/168 181/301/167 298/157/212
f 181/301/167 25/49/112 147/316/194 298/157/212
f 147/316/194 34/52/193 185/327/211 298/157/212
f 208/245/67 64/93/66 216/328/213 299/158/214
f 216/328/213 55/81/107 99/329/106 299/158/214
f 99/329/106 17/26/114 156/330/215 299/158/214
f 156/330/215 36/55/68 208/245/67 299/158/214
f 223/331/216 65/94/105 164/272/104 300/159/217
f 164/272/104 36/54/68 156/332/215 300/159/217
f 156/332/215 17/34/114 182/333/165 300/159/217
f 182/333/165 50/73/164 223/331/216 300/159/217
f 250/268/101 82/117/100 258/334/218 301/160/219
f 258/334/218 46/67/155 105/335/220 301/160/219
f 105/335/220 23/32/221 158/336/222 301/160/219
f 158/336/222 38/57/95 250/268/101 301/160/219
f 237/337/223 71/102/97 166/265/96 302/161/224
f 166/265/96 38/57/95 158/336/222 302/161/224
f 158/336/222 23/32/221 187/338/225 302/161/224
f 187/338/225 51/75/149 237/337/223 302/161/224
f 209/339/226 59/86/91 167/261/90 303/162/227
f 167/261/90 39/58/89 159/340/228 303/162/227
f 159/340/228 22/31/143 198/341/141 303/162/227
f 198/341/141 58/85/140 209/339/226 303/162/227
f 222/257/85 70/101/84 230/342/229 304/163/230
f 230/342/229 47/69/131 102/343/130 304/163/230
f 102/343/130 20/29/138 161/344/231 304/163/230
f 161/344/231 41/60/79 222/257/85 304/163/230
f 251/345/232 77/110/81 169/254/80 305/164/233
f 169/254/80 41/60/79 161/344/231 305/164/233
f 161/344/231 20/29/138 171/346/234 305/164/233
f 171/346/234 43/63/125 251/345/232 305/164/233
f 236/249/73 76/109/72 244/347/235 306/165/236
f 244/347/235 54/79/116 100/348/237 306/165/236
f 100/348/237 18/27/238 155/349/239 306/165/236
f 155/349/239 35/53/74 236/249/73 306/165/236
f 175/282/126 43/62/125 171/350/234 307/166/240
f 171/350/234 20/38/138 134/287/137 307/166/240
f 134/287/137 28/46/136 172/351/241 307/166/240
f 172/351/241 44/64/128 175/282/126 307/166/240
f 176/319/198 44/64/128 172/351/241 308/167/242
f 172/351/241 28/46/136 150/321/202 308/167/242
f 150/321/202 34/52/193 176/319/198 308/167/242
f 113/352/243 45/65/162 177/325/208 309/168/244
f 177/325/208 34/52/193 153/353/245 309/168/244
f 153/353/245 31/43/246 113/352/243 309/168/244
f 105/354/220 46/66/155 178/295/154 310/169/247
f 178/295/154 45/65/162 113/352/243 310/169/247
f 113/352/243 31/43/246 137/355/248 310/169/247
f 137/355/248 23/35/221 105/354/220 310/169/247
f 183/285/132 47/68/131 179/356/249 311/170/250
f 179/356/249 21/37/251 135/357/252 311/170/250
f 135/357/252 29/45/253 180/358/254 311/170/250
f 180/358/254 48/70/134 183/285/132 311/170/250
f 184/320/200 48/70/134 180/358/254 312/171/255
f 180/358/254 29/45/253 151/359/256 312/171/255
f 151/359/256 34/52/193 184/320/200 312/171/255
f 114/360/257 49/71/168 185/327/211 313/172/258
f 185/327/211 34/52/193 154/326/210 313/172/258
f 154/326/210 32/50/160 114/360/257 313/172/258
f 106/361/259 50/72/164 186/299/163 314/173/260
f 186/299/163 49/71/168 114/360/257 314/173/260
f 114/360/257 32/50/160 138/297/159 314/173/260
f 138/297/159 24/42/158 106/361/259 314/173/260
f 191/293/150 51/74/149 187/362/225 315/174/261
f 187/362/225 23/35/221 137/355/248 315/174/261
f 137/355/248 31/43/246 188/363/262 315/174/261
f 188/363/262 52/76/152 191/293/150 315/174/261
f 192/324/206 52/76/152 188/363/262 316/175/263
f 188/363/262 31/43/246 153/353/245 316/175/263
f 153/353/245 34/52/193 192/324/206 316/175/263
f 108/364/264 53/77/123 193/317/195 317/176/265
f 193/317/195 34/52/193 148/365/266 317/176/265
f 148/365/266 26/48/267 108/364/264 317/176/265
f 100/366/237 54/78/116 194/277/115 318/177/268
f 194/277/115 53/77/123 108/364/264 318/177/268
f 108/364/264 26/48/267 132/367/269 318/177/268
f 132/367/269 18/40/238 100/366/237 318/177/268
f 199/274/108 55/80/107 195/368/270 319/178/271
f 195/368/270 18/40/238 132/367/269 319/178/271
f 132/367/269 26/48/267 196/369/272 319/178/271
f 196/369/272 56/82/110 199/274/108 319/178/271
f 200/315/191 56/82/110 196/369/272 320/179/273
f 196/369/272 26/48/267 148/365/266 320/179/273
f 148/365/266 34/52/193 200/315/191 320/179/273
f 111/370/274 57/83/147 201/322/203 321/180/275
f 201/322/203 34/52/193 151/359/256 321/180/275
f 151/359/256 29/45/253 111/370/274 321/180/275
f 103/371/276 58/84/140 202/288/139 322/181/277
f 202/288/139 57/83/147 111/370/274 322/181/277
f 111/370/274 29/45/253 135/357/252 322/181/277
f 135/357/252 21/37/251 103/371/276 322/181/277
f 203/372/278 59/86/91 209/339/226 323/182/279
f 209/339/226 58/85/140 103/373/276 323/182/279
f 103/373/276 21/30/251 160/374/280 323/182/279
f 160/374/280 40/59/281 203/372/278 323/182/279
f 95/375/282 60/87/42 210/258/86 324/183/283
f 210/258/86 59/86/91 203/372/278 324/183/283
f 203/372/278 40/59/281 127/376/284 324/183/283
f 127/376/284 13/21/285 95/375/282 324/183/283
f 87/377/286 61/89/35 211/229/34 325/184/287
f 211/229/34 60/88/42 95/378/282 325/184/287
f 95/378/282 13/13/285 119/379/288 325/184/287
f 119/379/288 5/5/289 87/377/286 325/184/287
f 212/309/181 61/89/35 87/377/286 326/185/290
f 87/377/286 5/5/289 143/380/291 326/185/290
f 143/380/291 33/51/172 212/309/181 326/185/290
f 206/381/292 62/90/2 213/302/169 327/186/293
f 213/302/169 33/51/172 140/305/175 327/186/293
f 140/305/175 2/2/18 206/381/292 327/186/293
f 214/215/3 62/90/2 206/381/292 328/187/294
f 206/381/292 2/2/18 116/221/17 328/187/294
f 116/221/17 10/10/16 207/382/295 328/187/294
f 207/382/295 63/92/5 214/215/3 328/187/294
f 215/244/64 63/91/5 207/383/295 329/188/296
f 207/383/295 10/18/16 124/250/75 329/188/296
f 124/250/75 35/53/74 163/384/297 329/188/296
f 163/384/297 64/93/66 215/244/64 329/188/296
f 216/328/213 64/93/66 163/384/297 330/189/298
f 163/384/297 35/53/74 155/349/239 330/189/298
f 155/349/239 18/27/238 195/385/270 330/189/298
f 195/385/270 55/81/107 216/328/213 330/189/298
f 217/386/299 65/94/105 223/331/216 331/190/300
f 223/331/216 50/73/164 106/387/259 331/190/300
f 106/387/259 24/33/158 157/388/301 331/190/300
f 157/388/301 37/56/302 217/386/299 331/190/300
f 98/389/303 66/95/63 224/269/102 332/191/304
f 224/269/102 65/94/105 217/386/299 332/191/304
f 217/386/299 37/56/302 130/390/305 332/191/304
f 130/390/305 16/24/306 98/389/303 332/191/304
f 90/391/307 67/97/59 225/240/58 333/192/308
f 225/240/58 66/96/63 98/392/303 333/192/308
f 98/392/303 16/16/306 122/393/309 333/192/308
f 122/393/309 8/8/310 90/391/307 333/192/308
f 226/314/189 67/97/59 90/391/307 334/193/311
f 90/391/307 8/8/310 146/394/312 334/193/311
f 146/394/312 33/51/172 226/314/189 334/193/311
f 220/395/313 68/98/29 227/308/179 335/194/314
f 227/308/179 33/51/172 143/380/291 335/194/314
f 143/380/291 5/5/289 220/395/313 335/194/314
f 228/227/30 68/98/29 220/395/313 336/195/315
f 220/395/313 5/5/289 119/379/288 336/195/315
f 119/379/288 13/13/285 221/396/316 336/195/315
f 221/396/316 69/100/32 228/227/30 336/195/315
f 229/256/82 69/99/32 221/397/316 337/196/317
f 221/397/316 13/21/285 127/376/284 337/196/317
f 127/376/284 40/59/281 168/398/318 337/196/317
f 168/398/318 70/101/84 229/256/82 337/196/317
f 230/342/229 70/101/84 168/398/318 338/197/319
f 168/398/318 40/59/281 160/374/280 338/197/319
f 160/374/280 21/30/251 179/399/249 338/197/319
f 179/399/249 47/69/131 230/342/229 338/197/319
f 231/400/320 71/102/97 237/337/223 339/198/321
f 237/337/223 51/75/149 104/401/148 339/198/321
f 104/401/148 22/31/143 159/340/228 339/198/321
f 159/340/228 39/58/89 231/400/320 339/198/321
f 96/402/322 72/103/51 238/262/92 340/199/323
f 238/262/92 71/102/97 231/400/320 340/199/323
f 231/400/320 39/58/89 128/260/88 340/199/323
f 128/260/88 14/22/40 96/402/322 340/199/323
f 88/403/324 73/105/44 239/233/43 341/200/325
f 239/233/43 72/104/51 96/404/322 341/200/325
f 96/404/322 14/14/40 120/231/39 341/200/325
f 120/231/39 6/6/38 88/403/324 341/200/325
f 240/311/184 73/105/44 88/403/324 342/201/326
f 88/403/324 6/6/38 144/310/183 342/201/326
f 144/310/183 33/51/172 240/311/184 342/201/326
f 234/405/327 74/106/11 241/304/173 343/202/328
f 241/304/173 33/51/172 141/406/329 343/202/328
f 141/406/329 3/3/330 234/405/327 343/202/328
f 242/219/12 74/106/11 234/405/327 344/203/331
f 234/405/327 3/3/330 117/407/332 344/203/331
f 117/407/332 11/11/333 235/408/334 344/203/331
f 235/408/334 75/108/14 242/219/12 344/203/331
f 243/248/70 75/107/14 235/409/334 345/204/335
f 235/409/334 11/19/333 125/410/336 345/204/335
f 125/410/336 42/61/337 170/411/338 345/204/335
f 170/411/338 76/109/72 243/248/70 345/204/335
f 244/347/235 76/109/72 170/411/338 346/205/339
f 170/411/338 42/61/337 162/412/340 346/205/339
f 162/412/340 19/28/119 190/413/117 346/205/339
f 190/413/117 54/79/116 244/347/235 346/205/339
f 245/414/341 77/110/81 251/345/232 347/206/342
f 251/345/232 43/63/125 101/415/124 347/206/342
f 101/415/124 19/28/119 162/412/340 347/206/342
f 162/412/340 42/61/337 245/414/341 347/206/342
f 93/416/343 78/111/27 252/251/76 348/207/344
f 252/251/76 77/110/81 245/414/341 348/207/344
f 245/414/341 42/61/337 125/410/336 348/207/344
f 125/410/336 11/19/333 93/416/343 348/207/344
f 85/417/345 79/113/20 253/222/19 349/208/346
f 253/222/19 78/112/27 93/418/343 349/208/346
f 93/418/343 11/11/333 117/407/332 349/208/346
f 117/407/332 3/3/330 85/417/345 349/208/346
f 254/306/176 79/113/20 85/417/345 350/209/347
f 85/417/345 3/3/330 141/406/329 350/209/347
f 141/406/329 33/51/172 254/306/176 350/209/347
f 248/419/348 80/114/53 255/313/187 351/210/349
f 255/313/187 33/51/172 146/394/312 351/210/349
f 146/394/312 8/8/310 248/419/348 351/210/349
f 256/238/54 80/114/53 248/419/348 352/211/350
f 248/419/348 8/8/310 122/393/309 352/211/350
f 122/393/309 16/16/306 249/420/351 352/211/350
f 249/420/351 81/116/56 256/238/54 352/211/350
f 257/267/98 81/115/56 249/421/351 353/212/352
f 249/421/351 16/24/306 130/390/305 353/212/352
f 130/390/305 37/56/302 165/422/353 353/212/352
f 165/422/353 82/117/100 257/267/98 353/212/352
f 258/334/218 82/117/100 165/422/353 354/213/354
f 165/422/353 37/56/302 157/388/301 354/213/354
f 157/388/301 24/33/158 174/423/156 354/213/354
f 174/423/156 46/67/155 258/334/218 354/213/354
g default
v 0.000000 1.929873 -0.013586
v 0.000039 1.328775 0.000068
v -0.069739 1.736376 0.082793
v 0.000000 1.750025 0.110223
v 0.069739 1.736376 0.082793
v 0.098761 1.703394 0.016457
v 0.069923 1.670290 -0.050030
v 0.000000 1.656654 -0.077656
v -0.069923 1.670290 -0.050030
v -0.098761 1.703394 0.016457
v 0.023192 1.328775 0.023193
v 0.041689 1.332492 0.041850
v 0.048760 1.405842 0.052176
v 0.000027 1.328775 0.032725
v 0.000004 1.332483 0.059076
v 0.000000 1.407715 0.071996
v -0.022966 1.328775 0.023039
v -0.041652 1.332492 0.041825
v -0.048760 1.405842 0.052176
v -0.032200 1.328775 0.000074
v -0.058889 1.332533 0.000225
v -0.069135 1.401448 0.004216
v -0.022539 1.328775 -0.022481
v -0.041630 1.332605 -0.041341
v -0.049043 1.397239 -0.043953
v 0.000048 1.328775 -0.031835
v 0.000008 1.332647 -0.058574
v 0.000000 1.395564 -0.063987
v 0.022890 1.328775 -0.022760
v 0.041687 1.332605 -0.041387
v 0.049043 1.397239 -0.043953
v 0.032692 1.328775 0.000052
v 0.058969 1.332533 0.000222
v 0.069135 1.401448 0.004216
v 0.087734 1.919137 0.075697
v 0.090174 1.987577 0.064114
v 0.051427 1.965970 0.030173
v 0.000000 1.936413 0.110181
v -0.000000 2.006767 0.099232
v 0.000000 1.976084 0.049007
v -0.087734 1.919137 0.075697
v -0.090174 1.987577 0.064114
v -0.051427 1.965970 0.030173
v -0.124703 1.877123 -0.008129
v -0.128348 1.940870 -0.021393
v -0.077123 1.939538 -0.019150
v -0.088554 1.834188 -0.092649
v -0.091484 1.893439 -0.108129
v -0.058599 1.909621 -0.075269
v 0.000000 1.816794 -0.128093
v 0.000000 1.873679 -0.144433
v 0.000000 1.896139 -0.100379
v 0.088554 1.834188 -0.092649
v 0.091484 1.893439 -0.108129
v 0.058599 1.909621 -0.075269
v 0.124703 1.877123 -0.008129
v 0.128348 1.940870 -0.021393
v 0.077123 1.939538 -0.019150
v 0.000000 1.344261 -0.062748
v 0.022488 1.332634 -0.053949
v 0.033346 1.328775 -0.033263
v 0.045197 1.344095 -0.044081
v 0.054305 1.332569 -0.022232
v 0.047369 1.328775 0.000033
v 0.063770 1.343806 0.000855
v 0.054306 1.332508 0.022681
v 0.047275 1.931760 0.100907
v 0.000000 1.865088 0.113657
v 0.079786 1.848922 0.082329
v -0.047275 1.931760 0.100907
v -0.079786 1.848922 0.082329
v -0.114561 1.899882 0.037167
v -0.113253 1.809690 0.006313
v -0.115108 1.853991 -0.053633
v -0.080333 1.769844 -0.070167
v -0.047822 1.821420 -0.118477
v 0.000000 1.753599 -0.102136
v 0.047822 1.821420 -0.118477
v 0.080333 1.769844 -0.070167
v 0.115108 1.853991 -0.053633
v 0.113253 1.809690 0.006313
v 0.114561 1.899882 0.037167
v 0.027965 1.974424 0.045309
v 0.029548 1.949690 0.012440
v 0.000000 1.955321 0.023062
v -0.027965 1.974424 0.045309
v -0.029548 1.949690 0.012440
v -0.070397 1.954715 0.008581
v -0.045008 1.934611 -0.016048
v -0.075352 1.923660 -0.049573
v -0.034764 1.917002 -0.049462
v -0.032920 1.899216 -0.095332
v 0.000000 1.908917 -0.064665
v 0.032920 1.899216 -0.095332
v 0.034764 1.917002 -0.049462
v 0.075352 1.923660 -0.049573
v 0.045008 1.934611 -0.016048
v 0.070397 1.954715 0.008581
v 0.092978 1.965803 0.071337
v 0.048578 2.001605 0.089789
v 0.000000 1.984849 0.107831
v 0.073980 1.983116 0.048895
v 0.000000 1.998539 0.077010
v -0.048578 2.001605 0.089789
v -0.092978 1.965803 0.071337
v -0.073980 1.983116 0.048895
v -0.117805 1.966140 0.024858
v -0.131909 1.919619 -0.017151
v -0.107494 1.944567 -0.021496
v -0.118679 1.915346 -0.068058
v -0.093525 1.872822 -0.106101
v -0.078674 1.903736 -0.096338
v -0.049452 1.879018 -0.134598
v 0.000000 1.853697 -0.143235
v 0.000000 1.886110 -0.128558
v 0.049452 1.879018 -0.134598
v 0.093525 1.872822 -0.106101
v 0.078674 1.903736 -0.096338
v 0.118679 1.915346 -0.068058
v 0.131909 1.919619 -0.017151
v 0.107494 1.944567 -0.021496
v 0.117805 1.966140 0.024858
v 0.012798 1.328775 0.030852
v 0.000022 1.328775 0.018691
v 0.013255 1.328775 0.013256
v -0.012691 1.328775 0.030746
v -0.013082 1.328775 0.013144
v -0.030452 1.328775 0.012691
v -0.018298 1.328775 0.000062
v -0.030158 1.328775 -0.012397
v -0.012772 1.328775 -0.012723
v -0.012397 1.328775 -0.029923
v 0.000041 1.328775 -0.018030
v 0.012589 1.328775 -0.030116
v 0.013036 1.328775 -0.012926
v 0.030639 1.328775 -0.012589
v 0.018664 1.328775 0.000044
v 0.030847 1.328775 0.012798
v -0.037613 1.746344 0.102829
v -0.058201 1.562719 0.068649
v -0.026291 1.407204 0.066654
v 0.000000 1.570377 0.091840
v 0.037613 1.746344 0.102829
v 0.026291 1.407204 0.066654
v 0.058201 1.562719 0.068649
v 0.090895 1.721200 0.052260
v 0.063586 1.403800 0.030110
v 0.082427 1.544312 0.012587
v 0.091018 1.685536 -0.019394
v 0.063775 1.399157 -0.021748
v 0.058389 1.526029 -0.043614
v 0.037735 1.660320 -0.070193
v 0.026480 1.396008 -0.058573
v 0.000000 1.518502 -0.066948
v -0.037735 1.660320 -0.070193
v -0.026480 1.396008 -0.058573
v -0.058389 1.526029 -0.043614
v -0.091018 1.685536 -0.019394
v -0.063775 1.399157 -0.021748
v -0.082427 1.544312 0.012587
v -0.090895 1.721200 0.052260
v -0.063586 1.403800 0.030110
v 0.033543 1.328775 0.033544
v 0.022490 1.332484 0.054434
v 0.000017 1.328775 0.047389
v 0.045009 1.343640 0.045652
v 0.000000 1.343606 0.064177
v -0.022473 1.332484 0.054417
v -0.033397 1.328775 0.033443
v -0.045009 1.343640 0.045652
v -0.054244 1.332508 0.022664
v -0.047048 1.328775 0.000046
v -0.063770 1.343806 0.000855
v -0.054229 1.332569 -0.022201
v -0.033118 1.328775 -0.033081
v -0.045197 1.344095 -0.044081
v -0.022458 1.332634 -0.053918
v 0.000030 1.328775 -0.046810
v 0.008273 1.328775 0.019934
v -0.008183 1.328775 0.019845
v -0.019597 1.328775 0.008183
v -0.019349 1.328775 -0.007935
v -0.007935 1.328775 -0.019152
v 0.008097 1.328775 -0.019314
v 0.019755 1.328775 -0.008097
v 0.019930 1.328775 0.008273
v -0.031389 1.568308 0.085587
v 0.031389 1.568308 0.085587
v 0.075856 1.554230 0.042846
v 0.075982 1.534435 -0.017718
v 0.031515 1.520527 -0.060647
v -0.031515 1.520527 -0.060647
v -0.075982 1.534435 -0.017718
v -0.075856 1.554230 0.042846
v 0.018101 1.328775 0.043672
v 0.024272 1.343612 0.059182
v -0.018034 1.328775 0.043604
v -0.024272 1.343612 0.059182
v -0.043419 1.328775 0.018034
v -0.058674 1.343704 0.025036
v -0.043233 1.328775 -0.017848
v -0.058800 1.343948 -0.023372
v -0.017848 1.328775 -0.043085
v -0.024398 1.344211 -0.057706
v 0.017969 1.328775 -0.043207
v 0.024398 1.344211 -0.057706
v 0.043537 1.328775 -0.017969
v 0.058800 1.343948 -0.023372
v 0.058674 1.343704 0.025036
v 0.043668 1.328775 0.018101
v 0.043006 1.860732 0.105225
v -0.043006 1.860732 0.105225
v -0.104112 1.830917 0.047371
v -0.104477 1.788213 -0.034885
v -0.043371 1.757937 -0.093475
v 0.043371 1.757937 -0.093475
v 0.104477 1.788214 -0.034885
v 0.104112 1.830917 0.047371
v 0.018048 1.957801 0.025208
v -0.018048 1.957801 0.025208
v -0.046001 1.945303 0.001634
v -0.050174 1.924949 -0.036937
v -0.022221 1.908465 -0.068116
v 0.022221 1.908465 -0.068116
v 0.050174 1.924949 -0.036937
v 0.046001 1.945303 0.001634
v 0.050123 1.979716 0.098005
v 0.039667 1.994434 0.069530
v -0.050123 1.979716 0.098005
v -0.039667 1.994433 0.069530
v -0.121294 1.944597 0.030636
v -0.097586 1.965586 0.016914
v -0.121659 1.894393 -0.065077
v -0.100715 1.922780 -0.061419
v -0.050488 1.858812 -0.133181
v -0.042796 1.890943 -0.119738
v 0.050488 1.858812 -0.133181
v 0.042796 1.890943 -0.119738
v 0.121659 1.894392 -0.065077
v 0.100715 1.922780 -0.061419
v 0.097586 1.965586 0.016914
v 0.121294 1.944597 0.030636
vt 0.145184 0.368120
vt 0.121413 0.536043
vt 0.096735 0.439902
vt 0.083836 0.440205
vt 0.070748 0.439958
vt 0.178584 0.446251
vt 0.163252 0.450843
vt 0.149536 0.451807
vt 0.135993 0.451196
vt 0.122779 0.448073
vt 0.109804 0.443357
vt 0.125067 0.539692
vt 0.128917 0.543542
vt 0.152014 0.508783
vt 0.089551 0.506231
vt 0.088345 0.501664
vt 0.153707 0.504389
vt 0.121411 0.541197
vt 0.121406 0.546653
vt 0.097474 0.504261
vt 0.094998 0.492247
vt 0.117782 0.539668
vt 0.113896 0.543542
vt 0.105506 0.502982
vt 0.103904 0.491081
vt 0.116325 0.536044
vt 0.110786 0.536032
vt 0.113491 0.502485
vt 0.112804 0.491098
vt 0.117849 0.532484
vt 0.113896 0.528522
vt 0.121321 0.502750
vt 0.121612 0.491919
vt 0.121414 0.531008
vt 0.121406 0.525411
vt 0.129033 0.503569
vt 0.130429 0.493034
vt 0.125019 0.532440
vt 0.128917 0.528522
vt 0.136709 0.504688
vt 0.139238 0.494189
vt 0.126566 0.536040
vt 0.132027 0.536032
vt 0.144368 0.506361
vt 0.147965 0.495616
vt 0.061287 0.415403
vt 0.189550 0.423320
vt 0.057503 0.404752
vt 0.193935 0.412945
vt 0.161827 0.349988
vt 0.153347 0.359290
vt 0.077203 0.411801
vt 0.074136 0.397785
vt 0.145213 0.342545
vt 0.145198 0.355897
vt 0.093193 0.411177
vt 0.091959 0.397526
vt 0.128582 0.349951
vt 0.137041 0.359272
vt 0.109325 0.414847
vt 0.109723 0.402644
vt 0.121647 0.367930
vt 0.132953 0.368131
vt 0.124810 0.420160
vt 0.126060 0.409451
vt 0.128539 0.385929
vt 0.135876 0.378214
vt 0.139832 0.423783
vt 0.141258 0.413918
vt 0.145155 0.393378
vt 0.145167 0.382742
vt 0.155304 0.424559
vt 0.157183 0.413940
vt 0.161788 0.385967
vt 0.154469 0.378236
vt 0.171786 0.423992
vt 0.175033 0.412246
vt 0.168722 0.367984
vt 0.157415 0.368159
vt 0.122712 0.539178
vt 0.120115 0.539164
vt 0.118314 0.537323
vt 0.118353 0.534780
vt 0.120154 0.533009
vt 0.122684 0.532984
vt 0.124524 0.534754
vt 0.124552 0.537338
vt 0.095067 0.466813
vt 0.084602 0.468973
vt 0.160691 0.474854
vt 0.149681 0.474422
vt 0.138559 0.474057
vt 0.127511 0.472568
vt 0.116668 0.469970
vt 0.105891 0.467477
vt 0.124263 0.542924
vt 0.092988 0.502948
vt 0.118560 0.542914
vt 0.101132 0.501292
vt 0.114554 0.538878
vt 0.109312 0.500367
vt 0.114583 0.533215
vt 0.117400 0.500205
vt 0.118590 0.529232
vt 0.125383 0.500720
vt 0.124242 0.529213
vt 0.133308 0.501719
vt 0.128277 0.533196
vt 0.141170 0.503196
vt 0.148971 0.505333
vt 0.128298 0.538889
vt 0.072847 0.424851
vt 0.087063 0.421879
vt 0.101903 0.423804
vt 0.116586 0.428737
vt 0.131008 0.433414
vt 0.145612 0.435489
vt 0.160771 0.435058
vt 0.176293 0.434574
vt 0.148050 0.360610
vt 0.142335 0.360604
vt 0.137902 0.364819
vt 0.137228 0.371722
vt 0.141650 0.377313
vt 0.148697 0.377322
vt 0.153131 0.371740
vt 0.152474 0.364836
vt 0.067387 0.406837
vt 0.151502 0.351618
vt 0.083906 0.403375
vt 0.138904 0.351604
vt 0.100995 0.405369
vt 0.129688 0.361111
vt 0.117561 0.410687
vt 0.129172 0.375283
vt 0.133122 0.415828
vt 0.138365 0.385839
vt 0.148536 0.418051
vt 0.151963 0.385854
vt 0.165044 0.417616
vt 0.161180 0.375319
vt 0.160696 0.361147
vt 0.182719 0.417565
vt 0.123426 0.540901
vt 0.121410 0.538982
vt 0.123498 0.538124
vt 0.119404 0.540884
vt 0.119342 0.538106
vt 0.116600 0.538035
vt 0.118519 0.536042
vt 0.116647 0.534075
vt 0.119391 0.534024
vt 0.119450 0.531309
vt 0.121413 0.533187
vt 0.123393 0.531279
vt 0.123464 0.533992
vt 0.126242 0.534045
vt 0.124352 0.536039
vt 0.126275 0.538052
vt 0.090213 0.439505
vt 0.100478 0.466818
vt 0.099436 0.491508
vt 0.089746 0.467514
vt 0.077732 0.442104
vt 0.090630 0.493305
vt 0.079546 0.470811
vt 0.166146 0.475320
vt 0.170061 0.450664
vt 0.152291 0.496594
vt 0.155211 0.474513
vt 0.156393 0.451359
vt 0.143613 0.494838
vt 0.144123 0.474348
vt 0.142729 0.451789
vt 0.134839 0.493599
vt 0.133013 0.473485
vt 0.129345 0.449923
vt 0.126019 0.492462
vt 0.122060 0.471374
vt 0.116285 0.445750
vt 0.117214 0.491441
vt 0.111293 0.468593
vt 0.103276 0.441297
vt 0.108364 0.490961
vt 0.126700 0.541326
vt 0.125161 0.545097
vt 0.093512 0.505246
vt 0.121409 0.543511
vt 0.088948 0.503947
vt 0.152861 0.506586
vt 0.097044 0.502034
vt 0.117651 0.545097
vt 0.101490 0.503621
vt 0.116136 0.541310
vt 0.105228 0.500733
vt 0.112341 0.539787
vt 0.109499 0.502734
vt 0.113981 0.536039
vt 0.113373 0.500192
vt 0.112341 0.532277
vt 0.117406 0.502617
vt 0.116180 0.530811
vt 0.121400 0.500388
vt 0.117651 0.526967
vt 0.125177 0.503159
vt 0.121411 0.528644
vt 0.129351 0.501173
vt 0.125161 0.526967
vt 0.132871 0.504128
vt 0.126669 0.530782
vt 0.137249 0.502384
vt 0.130472 0.532277
vt 0.140538 0.505524
vt 0.128882 0.536037
vt 0.145076 0.504172
vt 0.148191 0.507572
vt 0.130472 0.539787
vt 0.069536 0.414125
vt 0.079816 0.422693
vt 0.066017 0.427680
vt 0.184067 0.434785
vt 0.085125 0.410862
vt 0.094466 0.422289
vt 0.101299 0.412620
vt 0.109300 0.426070
vt 0.117152 0.417519
vt 0.123807 0.431340
vt 0.132326 0.422297
vt 0.138256 0.434838
vt 0.147462 0.424472
vt 0.153107 0.435514
vt 0.163444 0.424238
vt 0.168525 0.434589
vt 0.180231 0.424301
vt 0.149630 0.356542
vt 0.149869 0.363001
vt 0.145192 0.361094
vt 0.140765 0.356531
vt 0.140510 0.362991
vt 0.134028 0.363124
vt 0.138054 0.368088
vt 0.133225 0.373569
vt 0.139666 0.374071
vt 0.139945 0.381800
vt 0.145174 0.376805
vt 0.150392 0.381812
vt 0.150689 0.374083
vt 0.157130 0.373596
vt 0.152314 0.368104
vt 0.156352 0.363149
vt 0.059395 0.410077
vt 0.191742 0.418133
vt 0.065819 0.401268
vt 0.153520 0.346267
vt 0.075513 0.404352
vt 0.156948 0.355355
vt 0.145204 0.350259
vt 0.083047 0.397655
vt 0.136898 0.346248
vt 0.092442 0.403763
vt 0.133449 0.355328
vt 0.100841 0.400085
vt 0.125115 0.358940
vt 0.109417 0.407806
vt 0.128101 0.368060
vt 0.117891 0.406047
vt 0.125093 0.376930
vt 0.125453 0.413524
vt 0.132669 0.381602
vt 0.133659 0.411684
vt 0.136847 0.389653
vt 0.140754 0.417404
vt 0.145162 0.387441
vt 0.149220 0.413929
vt 0.153472 0.389672
vt 0.156591 0.418034
vt 0.157668 0.381630
vt 0.166108 0.413093
vt 0.165255 0.376975
vt 0.173789 0.417294
vt 0.162267 0.368099
vt 0.165274 0.358986
vt 0.184484 0.412596
vn 0.000000 -1.000000 -0.000000
vn 0.000000 -1.000000 0.000000
vn 0.000002 -1.000000 0.000006
vn 0.000004 -1.000000 0.000008
vn 0.000000 -1.000000 -0.000003
vn -0.000000 -1.000000 0.000002
vn 0.000000 -1.000000 -0.000002
vn 0.000000 -1.000000 -0.000002
vn -0.000002 -1.000000 -0.000000
vn 0.000000 -1.000000 0.000004
vn -0.000004 -1.000000 0.000000
vn 0.000000 -1.000000 0.000003
vn -0.000004 -1.000000 -0.000001
vn 0.000000 -1.000000 0.000002
vn -0.000006 -1.000000 -0.000001
vn 0.000000 -1.000000 0.000001
vn -0.000004 -1.000000 0.000002
vn 0.000000 -1.000000 -0.000002
vn -0.000004 -1.000000 -0.000003
vn 0.000000 -1.000000 -0.000001
vn -0.000002 -1.000000 -0.000001
vn 0.000000 -1.000000 -0.000001
vn -0.000000 -1.000000 -0.000009
vn 0.000000 -1.000000 -0.000002
vn 0.000001 -1.000000 -0.000013
vn 0.000000 -1.000000 -0.000001
vn 0.000004 -1.000000 -0.000009
vn 0.000000 -1.000000 0.000000
vn 0.000004 -1.000000 0.000000
vn 0.000000 -1.000000 -0.000001
vn 0.000006 -1.000000 0.000007
vn 0.000000 -1.000000 -0.000002
vn 0.000004 -1.000000 0.000009
vn -0.000000 -0.068968 0.997619
vn -0.350089 -0.072673 0.933893
vn -0.355168 -0.110213 0.928283
vn -0.000000 -0.110273 0.993901
vn -0.659979 -0.083693 0.746608
vn -0.670161 -0.110105 0.734003
vn -0.684352 -0.117068 0.719693
vn -0.365380 -0.120713 0.922998
vn -0.000000 -0.121957 0.992535
vn 0.659978 -0.083693 0.746608
vn 0.350089 -0.072672 0.933893
vn 0.355168 -0.110213 0.928283
vn 0.670161 -0.110105 0.734003
vn 0.365380 -0.120713 0.922998
vn 0.684352 -0.117068 0.719692
vn 0.990447 -0.117111 0.072803
vn 0.888613 -0.099057 0.447833
vn 0.899198 -0.106930 0.424274
vn 0.994404 -0.099492 0.035514
vn 0.908738 -0.108069 0.403132
vn 0.995577 -0.092823 0.014478
vn 0.725403 -0.143457 -0.673210
vn 0.935920 -0.132107 -0.326498
vn 0.926401 -0.086103 -0.366561
vn 0.705501 -0.071027 -0.705140
vn 0.922151 -0.071225 -0.380216
vn 0.700839 -0.048628 -0.711660
vn 0.000000 -0.150908 -0.988548
vn 0.393855 -0.148925 -0.907028
vn 0.378162 -0.058303 -0.923902
vn 0.000000 -0.053863 -0.998548
vn 0.375942 -0.030763 -0.926133
vn -0.000000 -0.024501 -0.999700
vn -0.725403 -0.143457 -0.673209
vn -0.393856 -0.148925 -0.907028
vn -0.378162 -0.058303 -0.923901
vn -0.705502 -0.071027 -0.705140
vn -0.375942 -0.030763 -0.926133
vn -0.700839 -0.048629 -0.711660
vn -0.990447 -0.117111 0.072803
vn -0.935921 -0.132107 -0.326497
vn -0.926401 -0.086103 -0.366561
vn -0.994404 -0.099492 0.035514
vn -0.922151 -0.071225 -0.380216
vn -0.995577 -0.092823 0.014478
vn -0.888613 -0.099057 0.447833
vn -0.899198 -0.106930 0.424274
vn -0.908738 -0.108069 0.403132
vn 0.129448 -0.983160 0.128995
vn 0.069329 -0.983449 0.167398
vn 0.507734 -0.696965 0.506405
vn 0.273085 -0.700554 0.659279
vn -0.000248 -0.700564 0.713590
vn -0.000207 -0.983350 0.181720
vn 0.691351 -0.160531 0.704460
vn 0.372112 -0.163583 0.913659
vn -0.000029 -0.164632 0.986355
vn -0.069441 -0.983577 0.166597
vn -0.272921 -0.702218 0.657574
vn -0.505783 -0.700273 0.503788
vn -0.128742 -0.983417 0.127736
vn -0.372153 -0.163818 0.913601
vn -0.691339 -0.161004 0.704364
vn -0.167307 -0.983545 0.068176
vn -0.661882 -0.698780 0.271328
vn -0.721924 -0.691956 -0.004682
vn -0.182359 -0.983231 -0.001444
vn -0.909472 -0.153727 0.386302
vn -0.990011 -0.140914 0.004732
vn -0.168101 -0.983185 -0.071337
vn -0.670968 -0.684937 -0.284013
vn -0.518381 -0.673918 -0.526418
vn -0.129875 -0.982741 -0.131727
vn -0.916844 -0.122303 -0.380052
vn -0.700601 -0.102134 -0.706206
vn -0.070511 -0.982611 -0.171770
vn -0.282388 -0.666452 -0.689999
vn -0.000467 -0.660764 -0.750593
vn -0.000387 -0.982258 -0.187536
vn -0.378232 -0.085599 -0.921745
vn -0.000067 -0.079523 -0.996833
vn 0.070353 -0.982360 -0.173263
vn 0.282673 -0.663162 -0.693046
vn 0.521653 -0.668227 -0.530425
vn 0.131300 -0.982278 -0.133751
vn 0.378132 -0.085082 -0.921834
vn 0.700620 -0.101256 -0.706314
vn 0.170546 -0.982683 -0.072440
vn 0.676509 -0.678451 -0.286425
vn 0.727726 -0.685853 -0.004504
vn 0.184979 -0.982742 -0.001294
vn 0.916955 -0.121306 -0.380102
vn 0.990140 -0.139999 0.004765
vn 0.909552 -0.153008 0.386400
vn 0.666113 -0.693880 0.273539
vn 0.169076 -0.983166 0.069271
vn 0.682436 -0.008287 0.730899
vn 0.369471 0.034231 0.928612
vn 0.360282 -0.005580 0.932827
vn 0.671123 -0.035945 0.740474
vn -0.000000 0.048592 0.998819
vn -0.000000 0.004705 0.999989
vn -0.369470 0.034231 0.928612
vn -0.360282 -0.005580 0.932827
vn -0.682436 -0.008287 0.730899
vn -0.671123 -0.035945 0.740474
vn -0.896594 -0.071168 0.437098
vn -0.891335 -0.081353 0.445986
vn -0.985011 -0.148397 0.087930
vn -0.986499 -0.137898 0.088339
vn -0.933443 -0.229451 -0.275746
vn -0.936721 -0.196611 -0.289653
vn -0.736822 -0.304949 -0.603407
vn -0.737161 -0.250575 -0.627539
vn -0.409245 -0.359025 -0.838820
vn -0.407192 -0.288194 -0.866683
vn -0.000000 -0.379825 -0.925058
vn -0.000000 -0.302620 -0.953112
vn 0.409245 -0.359026 -0.838820
vn 0.407192 -0.288194 -0.866683
vn 0.736822 -0.304949 -0.603407
vn 0.737161 -0.250575 -0.627539
vn 0.933443 -0.229452 -0.275747
vn 0.936720 -0.196611 -0.289653
vn 0.985011 -0.148397 0.087931
vn 0.986499 -0.137898 0.088339
vn 0.896594 -0.071168 0.437098
vn 0.891335 -0.081353 0.445986
vn -0.000001 0.779947 -0.625845
vn -0.069997 0.786031 -0.614211
vn -0.062145 0.799415 -0.597556
vn 0.000000 0.805626 -0.592425
vn -0.128897 0.803490 -0.581196
vn -0.101989 0.824332 -0.556844
vn -0.000000 0.883993 -0.467501
vn 0.128896 0.803493 -0.581192
vn 0.069995 0.786035 -0.614206
vn 0.062145 0.799417 -0.597554
vn 0.101989 0.824332 -0.556843
vn 0.179635 0.860540 -0.476658
vn 0.167145 0.829464 -0.532965
vn 0.147112 0.838211 -0.525129
vn 0.141058 0.869829 -0.472759
vn 0.125561 0.918075 -0.375997
vn 0.165359 0.891305 -0.422176
vn 0.145391 0.891991 -0.428034
vn 0.096256 0.913872 -0.394428
vn 0.000001 0.942135 -0.335234
vn 0.067989 0.935982 -0.345420
vn 0.060441 0.931084 -0.359763
vn -0.000000 0.931271 -0.364327
vn -0.125561 0.918074 -0.375999
vn -0.067989 0.935981 -0.345422
vn -0.060441 0.931084 -0.359764
vn -0.096256 0.913872 -0.394428
vn -0.179635 0.860540 -0.476657
vn -0.165358 0.891305 -0.422176
vn -0.145391 0.891991 -0.428034
vn -0.141059 0.869829 -0.472758
vn -0.167146 0.829464 -0.532966
vn -0.147112 0.838212 -0.525128
vn 0.702044 0.098586 0.705277
vn 0.382126 0.143505 0.912900
vn 0.592719 0.765401 0.250689
vn 0.333796 0.834792 0.437839
vn -0.000001 0.859372 0.511352
vn -0.000000 0.159886 0.987136
vn -0.001564 0.875552 -0.483122
vn -0.000586 0.875197 -0.483766
vn -0.000001 0.875975 -0.482357
vn -0.382126 0.143505 0.912900
vn -0.333796 0.834794 0.437835
vn -0.592718 0.765402 0.250688
vn -0.702044 0.098586 0.705277
vn 0.000586 0.875197 -0.483767
vn 0.001567 0.875552 -0.483122
vn -0.915937 0.031835 0.400057
vn -0.737149 0.675668 -0.009246
vn -0.767080 0.577823 -0.278763
vn -0.997919 -0.047549 0.043563
vn 0.004138 0.875943 -0.482397
vn 0.001518 0.877490 -0.479593
vn -0.937803 -0.131063 -0.321477
vn -0.692050 0.485488 -0.534198
vn -0.529257 0.406189 -0.744914
vn -0.735637 -0.206795 -0.645038
vn -0.002754 0.877490 -0.479588
vn -0.009241 0.874801 -0.484394
vn -0.406804 -0.259502 -0.875882
vn -0.284587 0.361961 -0.887691
vn 0.000000 0.343765 -0.939056
vn -0.000000 -0.279334 -0.960194
vn -0.005799 0.872877 -0.487906
vn 0.000000 0.870771 -0.491689
vn 0.406804 -0.259502 -0.875882
vn 0.284586 0.361960 -0.887692
vn 0.529258 0.406188 -0.744914
vn 0.735636 -0.206795 -0.645039
vn 0.005800 0.872875 -0.487909
vn 0.009242 0.874801 -0.484394
vn 0.937803 -0.131063 -0.321478
vn 0.692052 0.485488 -0.534196
vn 0.767080 0.577824 -0.278762
vn 0.997919 -0.047548 0.043563
vn 0.002755 0.877491 -0.479586
vn -0.001520 0.877490 -0.479593
vn -0.004137 0.875943 -0.482397
vn 0.737149 0.675667 -0.009247
vn 0.915937 0.031835 0.400057
s 1
g bellPepperBodyHigh bellPepperStem
usemtl initialShadingGroup
f 365/435/355 477/567/356 533/503/357 479/569/358
f 368/441/359 478/568/360 533/503/357 477/567/356
f 356/425/361 479/569/358 533/503/357 478/568/360
f 368/441/359 480/570/362 534/504/363 478/568/360
f 371/445/364 481/571/365 534/504/363 480/570/362
f 356/425/361 478/568/360 534/504/363 481/571/365
f 371/445/364 482/572/366 535/505/367 481/571/365
f 374/449/368 483/573/369 535/505/367 482/572/366
f 356/425/361 481/571/365 535/505/367 483/573/369
f 374/449/368 484/574/370 536/506/371 483/573/369
f 377/453/372 485/575/373 536/506/371 484/574/370
f 356/425/361 483/573/369 536/506/371 485/575/373
f 377/453/372 486/576/374 537/507/375 485/575/373
f 380/457/376 487/577/377 537/507/375 486/576/374
f 356/425/361 485/575/373 537/507/375 487/577/377
f 380/457/376 488/578/378 538/508/379 487/577/377
f 383/461/380 489/579/381 538/508/379 488/578/378
f 356/425/361 487/577/377 538/508/379 489/579/381
f 383/461/380 490/580/382 539/509/383 489/579/381
f 386/465/384 491/581/385 539/509/383 490/580/382
f 356/425/361 489/579/381 539/509/383 491/581/385
f 386/465/384 492/582/386 540/510/387 491/581/385
f 365/435/355 479/569/358 540/510/387 492/582/386
f 356/425/361 491/581/385 540/510/387 479/569/358
f 358/427/388 493/583/389 541/511/390 496/586/391
f 493/583/389 357/426/392 494/584/393 541/511/390
f 541/511/390 494/584/393 373/448/394 495/585/395
f 496/586/391 541/511/390 495/585/395 370/444/396
f 359/428/397 497/587/398 542/512/399 499/589/400
f 497/587/398 358/427/388 496/586/391 542/512/399
f 542/512/399 496/586/391 370/444/396 498/588/401
f 499/589/400 542/512/399 498/588/401 367/439/402
f 360/430/403 500/591/404 543/513/405 502/593/406
f 500/591/404 359/429/397 499/590/400 543/513/405
f 543/513/405 499/590/400 367/440/402 501/592/407
f 502/593/406 543/513/405 501/592/407 388/468/408
f 361/431/409 503/594/410 544/514/411 505/596/412
f 503/594/410 360/430/403 502/593/406 544/514/411
f 544/514/411 502/593/406 388/468/408 504/595/413
f 505/596/412 544/514/411 504/595/413 385/464/414
f 362/432/415 506/597/416 545/515/417 508/599/418
f 506/597/416 361/431/409 505/596/412 545/515/417
f 545/515/417 505/596/412 385/464/414 507/598/419
f 508/599/418 545/515/417 507/598/419 382/460/420
f 363/433/421 509/600/422 546/516/423 511/602/424
f 509/600/422 362/432/415 508/599/418 546/516/423
f 546/516/423 508/599/418 382/460/420 510/601/425
f 511/602/424 546/516/423 510/601/425 379/456/426
f 364/434/427 512/603/428 547/517/429 514/605/430
f 512/603/428 363/433/421 511/602/424 547/517/429
f 547/517/429 511/602/424 379/456/426 513/604/431
f 514/605/430 547/517/429 513/604/431 376/452/432
f 357/426/392 515/606/433 548/518/434 494/584/393
f 515/606/433 364/434/427 514/605/430 548/518/434
f 548/518/434 514/605/430 376/452/432 516/607/435
f 494/584/393 548/518/434 516/607/435 373/448/394
f 365/435/355 517/608/436 549/519/437 477/567/356
f 517/608/436 366/436/438 518/609/439 549/519/437
f 549/519/437 518/609/439 369/442/440 519/611/441
f 477/567/356 549/519/437 519/611/441 368/441/359
f 366/438/438 520/612/442 550/520/443 518/610/439
f 520/612/442 367/439/402 498/588/401 550/520/443
f 550/520/443 498/588/401 370/444/396 521/614/444
f 518/610/439 550/520/443 521/614/444 369/443/440
f 368/441/359 519/611/441 551/521/445 480/570/362
f 519/611/441 369/442/440 522/615/446 551/521/445
f 551/521/445 522/615/446 372/446/447 523/617/448
f 480/570/362 551/521/445 523/617/448 371/445/364
f 369/443/440 521/614/444 552/522/449 522/616/446
f 521/614/444 370/444/396 495/585/395 552/522/449
f 552/522/449 495/585/395 373/448/394 524/618/450
f 522/616/446 552/522/449 524/618/450 372/447/447
f 371/445/364 523/617/448 553/523/451 482/572/366
f 523/617/448 372/446/447 525/619/452 553/523/451
f 553/523/451 525/619/452 375/450/453 526/621/454
f 482/572/366 553/523/451 526/621/454 374/449/368
f 372/447/447 524/618/450 554/524/455 525/620/452
f 524/618/450 373/448/394 516/607/435 554/524/455
f 554/524/455 516/607/435 376/452/432 527/622/456
f 525/620/452 554/524/455 527/622/456 375/451/453
f 374/449/368 526/621/454 555/525/457 484/574/370
f 526/621/454 375/450/453 528/623/458 555/525/457
f 555/525/457 528/623/458 378/454/459 529/625/460
f 484/574/370 555/525/457 529/625/460 377/453/372
f 375/451/453 527/622/456 556/526/461 528/624/458
f 527/622/456 376/452/432 513/604/431 556/526/461
f 556/526/461 513/604/431 379/456/426 530/626/462
f 528/624/458 556/526/461 530/626/462 378/455/459
f 377/453/372 529/625/460 557/527/463 486/576/374
f 529/625/460 378/454/459 531/627/464 557/527/463
f 557/527/463 531/627/464 381/458/465 532/629/466
f 486/576/374 557/527/463 532/629/466 380/457/376
f 378/455/459 530/626/462 558/528/467 531/628/464
f 530/626/462 379/456/426 510/601/425 558/528/467
f 558/528/467 510/601/425 382/460/420 413/630/468
f 531/628/464 558/528/467 413/630/468 381/459/465
f 380/457/376 532/629/466 559/529/469 488/578/378
f 532/629/466 381/458/465 414/631/470 559/529/469
f 559/529/469 414/631/470 384/462/471 415/633/472
f 488/578/378 559/529/469 415/633/472 383/461/380
f 381/459/465 413/630/468 560/530/473 414/632/470
f 413/630/468 382/460/420 507/598/419 560/530/473
f 560/530/473 507/598/419 385/464/414 416/634/474
f 414/632/470 560/530/473 416/634/474 384/463/471
f 383/461/380 415/633/472 561/531/475 490/580/382
f 415/633/472 384/462/471 417/635/476 561/531/475
f 561/531/475 417/635/476 387/466/477 418/637/478
f 490/580/382 561/531/475 418/637/478 386/465/384
f 384/463/471 416/634/474 562/532/479 417/636/476
f 416/634/474 385/464/414 504/595/413 562/532/479
f 562/532/479 504/595/413 388/468/408 419/638/480
f 417/636/476 562/532/479 419/638/480 387/467/477
f 367/440/402 520/613/442 563/533/481 501/592/407
f 520/613/442 366/437/438 420/639/482 563/533/481
f 563/533/481 420/639/482 387/467/477 419/638/480
f 501/592/407 563/533/481 419/638/480 388/468/408
f 366/436/438 517/608/436 564/534/483 420/640/482
f 517/608/436 365/435/355 492/582/386 564/534/483
f 564/534/483 492/582/386 386/465/384 418/637/478
f 420/640/482 564/534/483 418/637/478 387/466/477
f 389/469/484 421/641/485 565/535/486 423/643/487
f 421/641/485 392/475/488 422/642/489 565/535/486
f 565/535/486 422/642/489 358/427/388 497/587/398
f 423/643/487 565/535/486 497/587/398 359/428/397
f 392/475/488 424/645/490 566/536/491 422/642/489
f 424/645/490 395/479/492 425/646/493 566/536/491
f 566/536/491 425/646/493 357/426/392 493/583/389
f 422/642/489 566/536/491 493/583/389 358/427/388
f 395/479/492 426/647/494 567/537/495 425/646/493
f 426/647/494 398/483/496 427/648/497 567/537/495
f 567/537/495 427/648/497 364/434/427 515/606/433
f 425/646/493 567/537/495 515/606/433 357/426/392
f 398/483/496 428/649/498 568/538/499 427/648/497
f 428/649/498 401/487/500 429/650/501 568/538/499
f 568/538/499 429/650/501 363/433/421 512/603/428
f 427/648/497 568/538/499 512/603/428 364/434/427
f 401/487/500 430/651/502 569/539/503 429/650/501
f 430/651/502 404/491/504 431/652/505 569/539/503
f 569/539/503 431/652/505 362/432/415 509/600/422
f 429/650/501 569/539/503 509/600/422 363/433/421
f 404/491/504 432/653/506 570/540/507 431/652/505
f 432/653/506 407/495/508 433/654/509 570/540/507
f 570/540/507 433/654/509 361/431/409 506/597/416
f 431/652/505 570/540/507 506/597/416 362/432/415
f 407/495/508 434/655/510 571/541/511 433/654/509
f 434/655/510 410/499/512 435/656/513 571/541/511
f 571/541/511 435/656/513 360/430/403 503/594/410
f 433/654/509 571/541/511 503/594/410 361/431/409
f 410/499/512 436/657/514 572/542/515 435/656/513
f 436/657/514 389/470/484 423/644/487 572/542/515
f 572/542/515 423/644/487 359/429/397 500/591/404
f 435/656/513 572/542/515 500/591/404 360/430/403
f 394/478/516 437/658/517 573/543/518 439/660/519
f 391/474/520 438/659/521 573/543/518 437/658/517
f 355/424/522 439/660/519 573/543/518 438/659/521
f 397/482/523 440/661/524 574/544/525 441/662/526
f 394/478/516 439/660/519 574/544/525 440/661/524
f 355/424/522 441/662/526 574/544/525 439/660/519
f 400/486/527 442/663/528 575/545/529 443/664/530
f 397/482/523 441/662/526 575/545/529 442/663/528
f 355/424/522 443/664/530 575/545/529 441/662/526
f 403/490/531 444/665/532 576/546/533 445/666/534
f 400/486/527 443/664/530 576/546/533 444/665/532
f 355/424/522 445/666/534 576/546/533 443/664/530
f 406/494/535 446/667/536 577/547/537 447/668/538
f 403/490/531 445/666/534 577/547/537 446/667/536
f 355/424/522 447/668/538 577/547/537 445/666/534
f 409/498/539 448/669/540 578/548/541 449/670/542
f 406/494/535 447/668/538 578/548/541 448/669/540
f 355/424/522 449/670/542 578/548/541 447/668/538
f 412/502/543 450/671/544 579/549/545 451/672/546
f 409/498/539 449/670/542 579/549/545 450/671/544
f 355/424/522 451/672/546 579/549/545 449/670/542
f 391/474/520 452/673/547 580/550/548 438/659/521
f 412/502/543 451/672/546 580/550/548 452/673/547
f 355/424/522 438/659/521 580/550/548 451/672/546
f 389/469/484 453/674/549 581/551/550 421/641/485
f 453/674/549 390/471/551 454/676/552 581/551/550
f 581/551/550 454/676/552 393/476/553 455/678/554
f 421/641/485 581/551/550 455/678/554 392/475/488
f 390/473/551 456/679/555 582/552/556 454/677/552
f 456/679/555 391/474/520 437/658/517 582/552/556
f 582/552/556 437/658/517 394/478/516 457/680/557
f 454/677/552 582/552/556 457/680/557 393/477/553
f 392/475/488 455/678/554 583/553/558 424/645/490
f 455/678/554 393/476/553 458/681/559 583/553/558
f 583/553/558 458/681/559 396/480/560 459/683/561
f 424/645/490 583/553/558 459/683/561 395/479/492
f 393/477/553 457/680/557 584/554/562 458/682/559
f 457/680/557 394/478/516 440/661/524 584/554/562
f 584/554/562 440/661/524 397/482/523 460/684/563
f 458/682/559 584/554/562 460/684/563 396/481/560
f 395/479/492 459/683/561 585/555/564 426/647/494
f 459/683/561 396/480/560 461/685/565 585/555/564
f 585/555/564 461/685/565 399/484/566 462/687/567
f 426/647/494 585/555/564 462/687/567 398/483/496
f 396/481/560 460/684/563 586/556/568 461/686/565
f 460/684/563 397/482/523 442/663/528 586/556/568
f 586/556/568 442/663/528 400/486/527 463/688/569
f 461/686/565 586/556/568 463/688/569 399/485/566
f 398/483/496 462/687/567 587/557/570 428/649/498
f 462/687/567 399/484/566 464/689/571 587/557/570
f 587/557/570 464/689/571 402/488/572 465/691/573
f 428/649/498 587/557/570 465/691/573 401/487/500
f 399/485/566 463/688/569 588/558/574 464/690/571
f 463/688/569 400/486/527 444/665/532 588/558/574
f 588/558/574 444/665/532 403/490/531 466/692/575
f 464/690/571 588/558/574 466/692/575 402/489/572
f 401/487/500 465/691/573 589/559/576 430/651/502
f 465/691/573 402/488/572 467/693/577 589/559/576
f 589/559/576 467/693/577 405/492/578 468/695/579
f 430/651/502 589/559/576 468/695/579 404/491/504
f 402/489/572 466/692/575 590/560/580 467/694/577
f 466/692/575 403/490/531 446/667/536 590/560/580
f 590/560/580 446/667/536 406/494/535 469/696/581
f 467/694/577 590/560/580 469/696/581 405/493/578
f 404/491/504 468/695/579 591/561/582 432/653/506
f 468/695/579 405/492/578 470/697/583 591/561/582
f 591/561/582 470/697/583 408/496/584 471/699/585
f 432/653/506 591/561/582 471/699/585 407/495/508
f 405/493/578 469/696/581 592/562/586 470/698/583
f 469/696/581 406/494/535 448/669/540 592/562/586
f 592/562/586 448/669/540 409/498/539 472/700/587
f 470/698/583 592/562/586 472/700/587 408/497/584
f 407/495/508 471/699/585 593/563/588 434/655/510
f 471/699/585 408/496/584 473/701/589 593/563/588
f 593/563/588 473/701/589 411/500/590 474/703/591
f 434/655/510 593/563/588 474/703/591 410/499/512
f 408/497/584 472/700/587 594/564/592 473/702/589
f 472/700/587 409/498/539 450/671/544 594/564/592
f 594/564/592 450/671/544 412/502/543 475/704/593
f 473/702/589 594/564/592 475/704/593 411/501/590
f 391/474/520 456/679/555 595/565/594 452/673/547
f 456/679/555 390/473/551 476/705/595 595/565/594
f 595/565/594 476/705/595 411/501/590 475/704/593
f 452/673/547 595/565/594 475/704/593 412/502/543
f 390/472/551 453/675/549 596/566/596 476/706/595
f 453/675/549 389/470/484 436/657/514 596/566/596
f 596/566/596 436/657/514 410/499/512 474/703/591
f 476/706/595 596/566/596 474/703/591 411/500/590
