# This file uses centimeters as units for non-parametric coordinates.

mtllib cookbookTest.mtl
g default
v 0.824942 -0.333538 -0.964668
v 0.611968 -0.337762 -0.969241
v 0.618217 -0.395369 -1.140542
v 0.613134 -0.360468 -1.104015
v 0.825136 -0.358584 -1.097995
v 0.826574 -0.296987 -0.923591
v -0.824746 -0.333460 -0.964589
v -0.826574 -0.296482 -0.923007
v -0.824742 -0.355045 -1.093902
v -0.610377 -0.357469 -1.100546
v -0.609911 -0.394869 -1.139964
v -0.610595 -0.337771 -0.969268
v 0.824531 0.024051 -0.001008
v 0.609719 0.025447 0.000649
v 0.609839 0.008038 0.012240
v 0.610033 -0.046820 -0.137445
v 0.824589 -0.044532 -0.137659
v 0.826574 -0.024509 -0.137428
v -0.824529 0.024050 -0.001010
v -0.826574 -0.024514 -0.137443
v -0.824563 -0.044573 -0.137775
v -0.609848 -0.046875 -0.137602
v -0.609724 0.008029 0.012214
v -0.609705 0.025447 0.000649
v 0.826574 -0.211395 -0.790821
v 0.824568 -0.234333 -0.892811
v 0.609932 -0.233018 -0.894508
v -0.609697 -0.232518 -0.893930
v -0.824534 -0.233743 -0.892129
v -0.826574 -0.211245 -0.790647
v 0.826574 -0.020207 -0.282606
v 0.824501 0.020331 -0.215172
v 0.609563 0.022373 -0.215460
v -0.826574 -0.020207 -0.282606
v -0.824501 0.020331 -0.215172
v -0.609563 0.022373 -0.215460
v 0.826574 0.027571 -0.089687
v 0.824505 0.055340 -0.037931
v 0.609583 0.057324 -0.037041
v -0.826574 0.027571 -0.089687
v -0.824505 0.055340 -0.037931
v -0.609583 0.057324 -0.037041
v 0.825543 -0.390560 -1.131973
v -0.823434 -0.389512 -1.130761
v 0.822980 0.008806 0.009378
v -0.822951 0.008794 0.009344
v -0.826574 0.049578 -0.040758
v -0.826574 -0.001444 -0.127693
v -0.818395 0.025247 0.000818
v -0.609643 0.042326 -0.013547
v -0.818296 0.057291 -0.037013
v 0.000134 -0.232768 -0.894219
v -0.609563 -0.098352 -0.552418
v 0.000000 0.022373 -0.215460
v 0.609563 -0.098352 -0.552418
v 0.000000 0.057336 -0.037050
v 0.609643 0.042326 -0.013547
v -0.826574 0.010830 -0.167029
v -0.826574 -0.109150 -0.520732
v 0.826574 -0.109150 -0.520732
v 0.826574 0.010830 -0.167029
v 0.826574 -0.001444 -0.127693
v 0.609563 0.062470 -0.074006
v -0.609563 0.062470 -0.074006
v 0.824501 -0.100297 -0.551698
v 0.826574 0.014206 -0.214308
v 0.818280 0.022373 -0.215460
v 0.824501 0.060397 -0.074308
v 0.826574 0.049578 -0.040758
v 0.818296 0.057291 -0.037013
v -0.824501 -0.100297 -0.551698
v -0.818280 0.022373 -0.215460
v -0.826574 0.014206 -0.214308
v 0.818403 0.025247 0.000818
v 0.824517 0.040599 -0.014864
v 0.826574 0.020999 -0.006936
v -0.824501 0.060397 -0.074308
v 0.825564 -0.388261 -1.120763
v 0.825698 -0.383642 -1.126920
v 0.824254 -0.395454 -1.140640
v -0.824795 -0.387924 -1.120373
v -0.819507 -0.394784 -1.139865
v -0.824795 -0.381282 -1.124191
v 0.824543 0.013571 0.007738
v 0.824560 0.005540 0.005541
v 0.818488 0.008015 0.012298
v -0.824535 0.013568 0.007729
v -0.818422 0.008005 0.012269
v -0.824535 0.005513 0.005464
v 0.820047 -0.337751 -0.969212
v 0.824667 -0.188260 -0.549014
v 0.818635 -0.046758 -0.137267
v 0.610413 -0.191578 -0.551304
v 0.826574 -0.320921 -0.951102
v 0.826574 -0.153071 -0.512947
v 0.826574 -0.037994 -0.139231
v 0.616453 -0.385987 -1.133525
v 0.004747 -0.395119 -1.140253
v -0.610131 -0.383987 -1.131213
v 0.001576 -0.358969 -1.102281
v 0.615646 -0.392493 -1.125718
v 0.000785 -0.337770 -0.969264
v -0.610265 -0.392493 -1.125718
v 0.826574 -0.351373 -1.078132
v 0.824770 -0.314622 -1.047434
v 0.826574 -0.238019 -0.887419
v 0.826574 -0.258825 -0.877212
v 0.820822 -0.360978 -1.104604
v 0.611042 -0.314934 -1.051358
v 0.818549 -0.233103 -0.894606
v -0.826574 -0.320586 -0.950721
v -0.824651 -0.188287 -0.549091
v -0.826574 -0.038014 -0.139289
v -0.826574 -0.153075 -0.512957
v -0.819263 -0.337761 -0.969241
v -0.610300 -0.191614 -0.551408
v -0.818530 -0.046818 -0.137440
v -0.819246 -0.356957 -1.099954
v -0.824635 -0.312262 -1.044706
v -0.818414 -0.232433 -0.893831
v -0.610101 -0.312935 -1.049045
v -0.826574 -0.349346 -1.075788
v -0.826574 -0.258488 -0.876821
v -0.826574 -0.237681 -0.887029
v 0.609882 0.003631 0.006794
v 0.000066 0.008042 0.012208
v -0.609711 0.003594 0.006690
v 0.000105 -0.046868 -0.137580
v 0.609784 0.014665 0.009718
v 0.000008 0.025514 0.000593
v -0.609727 0.014665 0.009718
v -0.826574 0.020995 -0.006945
v -0.824517 0.040599 -0.014864
v 0.818947 -0.191536 -0.551185
v 0.826574 -0.178524 -0.542765
v 0.003613 -0.384987 -1.132369
v 0.003075 -0.392493 -1.125718
v 0.826574 -0.312645 -1.034461
v 0.819356 -0.315274 -1.051751
v -0.826574 -0.178537 -0.542804
v -0.818882 -0.191576 -0.551300
v -0.818818 -0.312593 -1.048651
v -0.826574 -0.311293 -1.032898
v 0.000098 0.003599 0.006704
v 0.000033 0.014709 0.009681
v -0.826574 0.036179 -0.019454
v -0.818344 0.042192 -0.013434
v 0.000538 -0.313935 -1.050202
v 0.000000 -0.098352 -0.552418
v 0.000000 0.042370 -0.013584
v 0.000065 -0.191609 -0.551394
v -0.826574 -0.102647 -0.440068
v 0.826574 -0.102647 -0.440068
v 0.000000 0.062470 -0.074006
v 0.826574 -0.106131 -0.549539
v 0.818280 -0.098352 -0.552418
v 0.826574 0.054181 -0.075212
v 0.818280 0.062470 -0.074006
v -0.818280 -0.098352 -0.552418
v -0.826574 -0.106131 -0.549539
v 0.818344 0.042192 -0.013434
v 0.826574 0.036179 -0.019454
v -0.818280 0.062470 -0.074006
v -0.826574 0.054181 -0.075212
v 0.826574 -0.375567 -1.105900
v 0.822532 -0.392493 -1.125718
v 0.823070 -0.386327 -1.133918
v -0.819457 -0.392493 -1.125718
v -0.826574 -0.374215 -1.104338
v -0.819457 -0.383646 -1.130818
v 0.826574 0.011051 0.001160
v 0.818451 0.014531 0.009831
v 0.818515 0.003672 0.006913
v -0.818418 0.014531 0.009831
v -0.826574 0.011037 0.001122
v -0.818418 0.003632 0.006798
v -0.824957 0.004372 1.021403
v -0.612033 0.001924 1.027138
v -0.618075 0.004075 1.208008
v -0.613202 0.024712 1.162012
v -0.825151 0.024510 1.155704
v -0.826574 0.025491 0.970363
v 0.824768 0.004420 1.021298
v 0.826574 0.025774 0.969639
v 0.824765 0.026492 1.150632
v 0.610499 0.026392 1.157713
v 0.610066 0.004355 1.207291
v 0.610713 0.001924 1.027160
v -0.824550 0.024282 -0.008206
v -0.609810 0.024971 -0.010220
v -0.609906 0.004229 -0.014628
v -0.610098 0.001924 0.144585
v -0.824603 0.004116 0.143941
v -0.826574 0.023853 0.136574
v 0.824548 0.024282 -0.008204
v 0.826574 0.023853 0.136586
v 0.824582 0.004116 0.144040
v 0.609946 0.001924 0.144719
v 0.609811 0.004229 -0.014606
v 0.609798 0.024971 -0.010220
v -0.826574 0.066340 0.816212
v -0.824591 0.076537 0.920232
v -0.610050 0.078312 0.921392
v 0.609815 0.078592 0.920676
v 0.824558 0.076867 0.919387
v 0.826574 0.066424 0.815997
v -0.826574 0.089345 0.271899
v -0.824524 0.108554 0.193870
v -0.609681 0.110537 0.193337
v 0.826574 0.089345 0.271899
v 0.824524 0.108554 0.193870
v 0.609681 0.110537 0.193337
v -0.826574 0.064901 0.074223
v -0.824528 0.073062 0.015821
v -0.609698 0.074452 0.014232
v 0.826574 0.064901 0.074223
v 0.824528 0.073062 0.015821
v 0.609698 0.074452 0.014232
v -0.825508 0.005762 1.198349
v 0.823474 0.006350 1.196846
v -0.823005 0.005870 -0.012343
v 0.822981 0.005870 -0.012314
v 0.826574 0.069102 0.020657
v 0.826574 0.045801 0.119842
v 0.818470 0.024748 -0.010293
v 0.609748 0.048013 -0.002655
v 0.818388 0.074415 0.014220
v -0.000134 0.078452 0.921034
v 0.609681 0.101143 0.552508
v 0.000000 0.110537 0.193337
v -0.609681 0.101143 0.552508
v 0.000000 0.074464 0.014236
v -0.609748 0.048013 -0.002655
v 0.826574 0.078947 0.152698
v 0.826574 0.079355 0.526703
v -0.826574 0.079355 0.526703
v -0.826574 0.078947 0.152698
v -0.826574 0.045801 0.119842
v -0.609681 0.098466 0.046737
v 0.609681 0.098466 0.046737
v -0.824524 0.099090 0.552542
v -0.826574 0.102604 0.195467
v -0.818375 0.110537 0.193337
v -0.824524 0.096733 0.047836
v -0.826574 0.069102 0.020657
v -0.818388 0.074415 0.014220
v 0.824524 0.099090 0.552542
v 0.818375 0.110537 0.193337
v 0.826574 0.102604 0.195467
v -0.818477 0.024748 -0.010293
v -0.824538 0.046974 -0.000799
v -0.826574 0.023478 -0.001749
v 0.824524 0.096733 0.047836
v -0.825558 0.004255 1.187027
v -0.825692 0.010560 1.191303
v -0.824174 0.004027 1.208130
v 0.824817 0.004444 1.186543
v 0.819598 0.004402 1.207169
v 0.824817 0.011881 1.187922
v -0.824559 0.010801 -0.012585
v -0.824573 0.004097 -0.007740
v -0.818544 0.004192 -0.014670
v 0.824552 0.010801 -0.012577
v 0.818489 0.004192 -0.014646
v 0.824552 0.004097 -0.007674
v -0.820105 0.001924 1.027107
v -0.824685 0.004267 0.580348
v -0.818691 0.001924 0.144404
v -0.610499 0.001924 0.583661
v -0.826574 0.011716 1.004359
v -0.826574 0.026921 0.534260
v -0.826574 0.010692 0.142969
v -0.616394 0.010525 1.198307
v -0.004577 0.004215 1.207650
v 0.610273 0.011645 1.195441
v -0.001544 0.025552 1.159863
v -0.615590 0.001924 1.193102
v -0.000754 0.001924 1.027158
v 0.610407 0.001924 1.193102
v -0.826574 0.024776 1.134544
v -0.824792 0.049089 1.093316
v -0.826574 0.071356 0.916379
v -0.826574 0.047233 0.913799
v -0.820882 0.024426 1.162743
v -0.611155 0.050071 1.097134
v -0.818643 0.078264 0.921514
v 0.826574 0.011905 1.003884
v 0.824672 0.004267 0.580414
v 0.826574 0.010692 0.143018
v 0.826574 0.026921 0.534269
v 0.819351 0.001924 1.027132
v 0.610405 0.001924 0.583750
v 0.818604 0.001924 0.144551
v 0.819338 0.026679 1.156980
v 0.824658 0.050411 1.089935
v 0.818509 0.078640 0.920553
v 0.610217 0.051192 1.094268
v 0.826574 0.025911 1.131639
v 0.826574 0.047422 0.913315
v 0.826574 0.071545 0.915895
v -0.609943 0.001924 -0.008179
v -0.000054 0.004242 -0.014603
v 0.609801 0.001924 -0.008090
v -0.000087 0.001924 0.144710
v -0.609862 0.011144 -0.014760
v -0.000007 0.025045 -0.010196
v 0.609815 0.011144 -0.014760
v 0.826574 0.023478 -0.001741
v 0.824538 0.046974 -0.000799
v -0.819018 0.001924 0.583541
v -0.826574 0.011295 0.571050
v -0.003498 0.011085 1.196875
v -0.002962 0.001924 1.193102
v -0.826574 0.046725 1.080374
v -0.819447 0.049881 1.097621
v 0.826574 0.011295 0.571082
v 0.818964 0.001924 0.583638
v 0.818911 0.051383 1.093779
v 0.826574 0.047482 1.078438
v -0.000081 0.001924 -0.008096
v -0.000027 0.011193 -0.014744
v 0.826574 0.044696 0.005047
v 0.818428 0.047865 -0.002704
v -0.000536 0.050631 1.095701
v 0.000000 0.101143 0.552508
v 0.000000 0.048063 -0.002639
v -0.000054 0.001924 0.583744
v 0.826574 0.055056 0.448597
v -0.826574 0.055056 0.448597
v 0.000000 0.098466 0.046737
v -0.826574 0.092930 0.552646
v -0.818375 0.101143 0.552508
v -0.826574 0.091533 0.051134
v -0.818375 0.098466 0.046737
v 0.818375 0.101143 0.552508
v 0.826574 0.092930 0.552646
v -0.818428 0.047865 -0.002704
v -0.826574 0.044696 0.005047
v 0.818375 0.098466 0.046737
v 0.826574 0.091533 0.051134
v -0.826574 0.011245 1.168801
v -0.822509 0.001924 1.193102
v -0.823045 0.010335 1.198794
v 0.819548 0.001924 1.193102
v 0.826574 0.012002 1.166865
v 0.819548 0.011836 1.194952
v -0.826574 0.010613 -0.005784
v -0.818514 0.010995 -0.014809
v -0.818568 0.001924 -0.008299
v 0.818487 0.010995 -0.014809
v 0.826574 0.010613 -0.005751
v 0.818487 0.001924 -0.008202
v 0.854460 -0.397333 -1.115463
v 0.824650 -0.407234 -1.144231
v 0.854460 -0.407234 -1.144231
v 0.854460 -0.374971 -1.128642
v 0.854460 -0.384871 -1.157410
v 0.824650 -0.384871 -1.157410
v -0.854460 -0.397333 -1.115463
v -0.854460 -0.407234 -1.144231
v -0.824650 -0.407234 -1.144231
v -0.854460 -0.374971 -1.128642
v -0.824650 -0.384871 -1.157410
v -0.854460 -0.384871 -1.157410
v 0.854460 0.011181 -0.006590
v 0.854460 0.001281 -0.035357
v 0.824650 0.011181 -0.006590
v 0.854460 -0.021081 -0.022178
v 0.854460 -0.011181 0.006590
v 0.824650 -0.011181 0.006590
v -0.854460 0.011181 -0.006590
v -0.824650 0.011181 -0.006590
v -0.854460 0.001281 -0.035357
v -0.854460 -0.021081 -0.022178
v -0.824650 -0.011181 0.006590
v -0.854460 -0.011181 0.006590
v -0.824650 0.001281 -0.035357
v 0.824650 0.001281 -0.035358
v 0.824650 -0.374971 -1.128642
v -0.824650 -0.374971 -1.128643
v 0.824650 -0.397333 -1.115463
v 0.824650 -0.021081 -0.022178
v -0.824650 -0.021081 -0.022178
v -0.824650 -0.397333 -1.115463
v -0.854461 -0.012436 1.213430
v -0.823350 -0.012436 1.244540
v -0.854461 -0.012436 1.244540
v -0.854461 0.012436 1.213430
v -0.854461 0.012436 1.244540
v -0.823350 0.012436 1.244540
v 0.854461 -0.012436 1.213430
v 0.854461 -0.012436 1.244540
v 0.823350 -0.012436 1.244540
v 0.854461 0.012436 1.213430
v 0.823350 0.012436 1.244540
v 0.854461 0.012436 1.244540
v -0.854461 0.012436 0.000000
v -0.854461 0.012436 0.031110
v -0.823350 0.012436 0.000000
v -0.854461 -0.012436 0.031110
v -0.854461 -0.012436 0.000000
v -0.823350 -0.012436 0.000000
v 0.854461 0.012436 0.000000
v 0.823350 0.012436 0.000000
v 0.854461 0.012436 0.031110
v 0.854461 -0.012436 0.031110
v 0.823350 -0.012436 0.000000
v 0.854461 -0.012436 0.000000
v 0.823350 0.012436 0.031110
v 0.823350 0.012436 1.213430
v -0.823350 0.012436 0.031110
v -0.823350 0.012436 1.213430
v -0.823350 -0.012436 1.213430
v -0.823350 -0.012436 0.031110
v 0.823351 -0.012436 1.213430
v 0.823351 -0.012436 0.031110
vt 0.673193 0.978919
vt 0.297274 0.646096
vt 0.714981 0.951945
vt 0.673480 0.494692
vt 0.673532 0.989542
vt 0.714707 0.506903
vt 0.299501 0.649416
vt 0.673143 0.503720
vt 0.259290 0.650644
vt 0.079980 0.586720
vt 0.995116 0.978885
vt 0.118103 0.591325
vt 0.995067 0.505295
vt 0.079250 0.590631
vt 0.952966 0.507771
vt 0.992333 0.494659
vt 0.992385 0.989508
vt 0.953055 0.951925
vt 0.673169 0.744868
vt 0.068340 0.649557
vt 0.715397 0.743929
vt 0.715375 0.748636
vt 0.715340 0.780343
vt 0.673169 0.752433
vt 0.070788 0.646026
vt 0.097264 0.650134
vt 0.308913 0.590188
vt 0.995092 0.744834
vt 0.279986 0.590765
vt 0.306434 0.586657
vt 0.995092 0.752431
vt 0.952892 0.780351
vt 0.952864 0.748616
vt 0.952860 0.743904
vt 0.229380 0.657832
vt 0.268548 0.661642
vt 0.673147 0.536999
vt 0.715336 0.555430
vt 0.952839 0.555554
vt 0.995070 0.536966
vt 0.108705 0.602267
vt 0.147915 0.598474
vt 0.123670 0.660267
vt 0.088028 0.664891
vt 0.673166 0.717549
vt 0.715423 0.697103
vt 0.253583 0.600897
vt 0.995089 0.717515
vt 0.289225 0.605522
vt 0.952827 0.697078
vt 0.085138 0.656634
vt 0.071993 0.659186
vt 0.673167 0.734569
vt 0.715423 0.733704
vt 0.292115 0.597265
vt 0.305261 0.599818
vt 0.995090 0.734535
vt 0.952835 0.733680
vt 0.307897 0.646099
vt 0.673194 0.989542
vt 0.673142 0.494693
vt 0.995117 0.989508
vt 0.069357 0.586723
vt 0.995065 0.494659
vt 0.067001 0.646024
vt 0.673169 0.748646
vt 0.995092 0.748612
vt 0.310253 0.586656
vt 0.674667 0.865703
vt 0.181674 0.647911
vt 0.833401 0.499591
vt 0.833556 0.984213
vt 0.280675 0.654901
vt 0.674551 0.520362
vt 0.195572 0.588538
vt 0.993606 0.865693
vt 0.993558 0.521127
vt 0.096953 0.595673
vt 0.834112 0.750593
vt 0.834124 0.746649
vt 0.305577 0.594328
vt 0.993488 0.739640
vt 0.834002 0.520745
vt 0.834118 0.627257
vt 0.834130 0.739611
vt 0.834130 0.865729
vt 0.219338 0.595876
vt 0.157916 0.655248
vt 0.834128 0.726042
vt 0.178260 0.661652
vt 0.674771 0.627274
vt 0.080766 0.660593
vt 0.674782 0.726059
vt 0.993464 0.627240
vt 0.198993 0.602280
vt 0.674771 0.739673
vt 0.071676 0.653696
vt 0.993474 0.726025
vt 0.296488 0.601224
vt 0.297854 0.647933
vt 0.673981 0.984230
vt 0.673825 0.499209
vt 0.993731 0.984197
vt 0.079774 0.588705
vt 0.993680 0.499974
vt 0.069504 0.647751
vt 0.674751 0.746711
vt 0.674738 0.750566
vt 0.993503 0.746678
vt 0.307741 0.588383
vt 0.993504 0.750557
vt 0.674461 0.951943
vt 0.673181 0.865676
vt 0.184031 0.646061
vt 0.674718 0.780311
vt 0.715275 0.865723
vt 0.265886 0.648016
vt 0.174555 0.650670
vt 0.098463 0.647772
vt 0.714060 0.499306
vt 0.832906 0.494676
vt 0.832958 0.989525
vt 0.952917 0.499876
vt 0.833798 0.507337
vt 0.714268 0.984226
vt 0.833999 0.951937
vt 0.952994 0.984201
vt 0.291193 0.650593
vt 0.284024 0.655529
vt 0.673145 0.520360
vt 0.248847 0.659155
vt 0.248310 0.654674
vt 0.674264 0.506756
vt 0.715116 0.520459
vt 0.674712 0.555409
vt 0.111459 0.588677
vt 0.193207 0.586689
vt 0.995104 0.865658
vt 0.278778 0.588402
vt 0.202696 0.591298
vt 0.993689 0.951915
vt 0.952988 0.865720
vt 0.993529 0.780313
vt 0.993640 0.507920
vt 0.995068 0.521131
vt 0.093977 0.596449
vt 0.993483 0.555575
vt 0.952914 0.521030
vt 0.086622 0.591439
vt 0.129037 0.595336
vt 0.128500 0.599817
vt 0.715366 0.750587
vt 0.834118 0.748625
vt 0.952862 0.750583
vt 0.834113 0.780359
vt 0.715385 0.746673
vt 0.834128 0.743900
vt 0.952864 0.746648
vt 0.306899 0.590732
vt 0.307087 0.595003
vt 0.995091 0.739685
vt 0.302524 0.598161
vt 0.283263 0.594377
vt 0.993499 0.743951
vt 0.952847 0.739610
vt 0.993478 0.733684
vt 0.834084 0.555492
vt 0.952820 0.627245
vt 0.834125 0.697091
vt 0.715416 0.627270
vt 0.834129 0.733689
vt 0.715412 0.739635
vt 0.276823 0.599164
vt 0.204094 0.599871
vt 0.173160 0.659243
vt 0.100431 0.658534
vt 0.093991 0.653747
vt 0.715426 0.726054
vt 0.952830 0.726029
vt 0.178288 0.663267
vt 0.673156 0.627274
vt 0.108903 0.662197
vt 0.674779 0.697107
vt 0.080011 0.662039
vt 0.673167 0.726059
vt 0.074729 0.657530
vt 0.674779 0.733717
vt 0.995079 0.627240
vt 0.198965 0.603895
vt 0.993471 0.697074
vt 0.268350 0.602827
vt 0.674760 0.743985
vt 0.673168 0.739718
vt 0.070167 0.654372
vt 0.070352 0.650101
vt 0.995090 0.726025
vt 0.297243 0.602670
vt 0.302585 0.646098
vt 0.673194 0.984230
vt 0.303699 0.647758
vt 0.673143 0.499206
vt 0.673363 0.989542
vt 0.673311 0.494692
vt 0.995117 0.984197
vt 0.074668 0.586721
vt 0.993751 0.989508
vt 0.993699 0.494659
vt 0.074303 0.588677
vt 0.995066 0.499977
vt 0.067671 0.647790
vt 0.673169 0.746757
vt 0.068894 0.646025
vt 0.673169 0.750539
vt 0.674744 0.748642
vt 0.995092 0.746723
vt 0.309583 0.588422
vt 0.993504 0.748615
vt 0.308343 0.586657
vt 0.995092 0.750522
vt 0.385382 0.955127
vt 0.344863 0.955128
vt 0.345061 0.868750
vt 0.385666 0.868767
vt 0.343608 0.982154
vt 0.343589 0.868724
vt 0.343571 0.755293
vt 0.345110 0.783236
vt 0.385730 0.783265
vt 0.293194 0.554793
vt 0.261737 0.556696
vt 0.177358 0.556606
vt 0.179763 0.554782
vt 0.255117 0.559378
vt 0.170193 0.559649
vt 0.092751 0.559044
vt 0.093996 0.556481
vt 0.066333 0.554771
vt 0.385081 0.506926
vt 0.384458 0.499338
vt 0.503809 0.499618
vt 0.504191 0.507356
vt 0.343918 0.494744
vt 0.503336 0.494718
vt 0.662753 0.494692
vt 0.623331 0.499898
vt 0.623376 0.507786
vt 0.344000 0.992751
vt 0.384695 0.987446
vt 0.503994 0.987426
vt 0.503418 0.992725
vt 0.504418 0.955111
vt 0.623491 0.955092
vt 0.623437 0.987407
vt 0.662835 0.992698
vt 0.287088 0.559242
vt 0.276539 0.563515
vt 0.244102 0.563611
vt 0.295416 0.558066
vt 0.279901 0.564129
vt 0.264385 0.570192
vt 0.244604 0.568309
vt 0.225098 0.567330
vt 0.343529 0.503736
vt 0.344638 0.506780
vt 0.344920 0.520396
vt 0.343532 0.520393
vt 0.385481 0.520491
vt 0.385702 0.555587
vt 0.345082 0.555568
vt 0.343535 0.537051
vt 0.115818 0.621976
vt 0.109148 0.619280
vt 0.193429 0.619101
vt 0.200600 0.622138
vt 0.077598 0.617359
vt 0.191016 0.617278
vt 0.304433 0.617196
vt 0.276787 0.618923
vt 0.278041 0.621485
vt 0.665531 0.982101
vt 0.664120 0.955080
vt 0.664030 0.868717
vt 0.665512 0.868683
vt 0.623417 0.868745
vt 0.623314 0.783251
vt 0.663946 0.783212
vt 0.665494 0.755266
vt 0.664044 0.507933
vt 0.663963 0.521147
vt 0.623323 0.521051
vt 0.665453 0.505302
vt 0.665455 0.521150
vt 0.665458 0.536998
vt 0.663890 0.555717
vt 0.623251 0.555698
vt 0.076886 0.621223
vt 0.084272 0.622025
vt 0.094635 0.626218
vt 0.091651 0.626981
vt 0.126790 0.626184
vt 0.145743 0.629870
vt 0.126291 0.630882
vt 0.106416 0.632740
vt 0.385756 0.753516
vt 0.504516 0.753513
vt 0.504520 0.783269
vt 0.385763 0.751641
vt 0.504521 0.751623
vt 0.623282 0.751606
vt 0.623281 0.753495
vt 0.385771 0.749756
vt 0.504526 0.749726
vt 0.385780 0.746922
vt 0.504530 0.746887
vt 0.623279 0.746883
vt 0.623283 0.749717
vt 0.304978 0.621393
vt 0.303659 0.625526
vt 0.281305 0.625757
vt 0.306968 0.620650
vt 0.305182 0.626103
vt 0.303396 0.631557
vt 0.300623 0.630281
vt 0.290191 0.629470
vt 0.665493 0.747962
vt 0.663914 0.746922
vt 0.663905 0.742184
vt 0.665492 0.742224
vt 0.623268 0.742160
vt 0.623258 0.735655
vt 0.663896 0.735656
vt 0.665491 0.736486
vt 0.504389 0.520771
vt 0.504473 0.555642
vt 0.504511 0.627749
vt 0.385786 0.627769
vt 0.623237 0.627729
vt 0.623248 0.698028
vt 0.504523 0.698047
vt 0.385798 0.698067
vt 0.385800 0.735694
vt 0.504529 0.735672
vt 0.504530 0.742169
vt 0.385792 0.742199
vt 0.504540 0.868764
vt 0.217287 0.627605
vt 0.274912 0.632216
vt 0.251700 0.634258
vt 0.202080 0.632348
vt 0.153511 0.565126
vt 0.089492 0.563318
vt 0.168721 0.569859
vt 0.119102 0.571800
vt 0.095889 0.569773
vt 0.080608 0.567036
vt 0.385802 0.727512
vt 0.504528 0.727493
vt 0.623253 0.727473
vt 0.173772 0.572503
vt 0.173745 0.574102
vt 0.083105 0.578013
vt 0.104218 0.574380
vt 0.345146 0.627775
vt 0.343550 0.627775
vt 0.345158 0.698073
vt 0.343565 0.718500
vt 0.076111 0.572222
vt 0.075255 0.573572
vt 0.067405 0.569131
vt 0.070177 0.567853
vt 0.345163 0.727519
vt 0.343566 0.727519
vt 0.345162 0.735708
vt 0.343568 0.736539
vt 0.663876 0.627723
vt 0.665473 0.627722
vt 0.665488 0.718447
vt 0.663888 0.698021
vt 0.197030 0.634995
vt 0.197058 0.636595
vt 0.266586 0.636829
vt 0.287701 0.640449
vt 0.345146 0.746974
vt 0.345155 0.742236
vt 0.343570 0.748015
vt 0.343569 0.742277
vt 0.063826 0.558227
vt 0.065814 0.558968
vt 0.067137 0.563100
vt 0.065615 0.563679
vt 0.663892 0.727467
vt 0.665489 0.727466
vt 0.294691 0.634653
vt 0.295548 0.636003
vt 0.293760 0.556608
vt 0.299603 0.556430
vt 0.298492 0.554793
vt 0.303791 0.554794
vt 0.344401 0.987453
vt 0.343609 0.987453
vt 0.343805 0.992751
vt 0.343610 0.992751
vt 0.344216 0.499243
vt 0.343723 0.494744
vt 0.343529 0.499240
vt 0.343528 0.494744
vt 0.664164 0.987400
vt 0.664184 0.992698
vt 0.665532 0.987400
vt 0.665533 0.992698
vt 0.077410 0.619322
vt 0.072299 0.617363
vt 0.071944 0.619295
vt 0.067001 0.617367
vt 0.664083 0.499993
vt 0.665452 0.499997
vt 0.664102 0.494691
vt 0.665451 0.494691
vt 0.065029 0.556463
vt 0.064512 0.554771
vt 0.063259 0.556499
vt 0.062692 0.554771
vt 0.345139 0.749793
vt 0.343570 0.749834
vt 0.345134 0.751649
vt 0.343570 0.751652
vt 0.345130 0.753500
vt 0.343570 0.753473
vt 0.663918 0.749740
vt 0.663919 0.751601
vt 0.665493 0.749781
vt 0.665493 0.751599
vt 0.305757 0.618887
vt 0.307534 0.618922
vt 0.306266 0.617195
vt 0.308100 0.617194
vt 0.663919 0.753466
vt 0.665493 0.753433
vt 0.349390 0.009948
vt 0.349390 0.004894
vt 0.670564 0.004932
vt 0.670563 0.009986
vt 0.349361 0.252006
vt 0.349362 0.246951
vt 0.670535 0.246989
vt 0.670535 0.252044
vt 0.750185 0.445465
vt 0.745232 0.444456
vt 0.745234 0.219302
vt 0.750187 0.220311
vt 0.723136 0.444452
vt 0.718184 0.445463
vt 0.718141 0.220309
vt 0.723094 0.219298
vt 0.718140 0.214384
vt 0.723093 0.213374
vt 0.343585 0.004893
vt 0.343585 0.009948
vt 0.676369 0.004932
vt 0.676368 0.009987
vt 0.745232 0.450380
vt 0.750185 0.451390
vt 0.723137 0.450377
vt 0.718185 0.451387
vt 0.343556 0.246950
vt 0.343556 0.252005
vt 0.676340 0.246990
vt 0.676340 0.252044
vt 0.750187 0.214387
vt 0.745234 0.213377
vt 0.343584 0.015872
vt 0.349389 0.015873
vt 0.349362 0.241027
vt 0.343557 0.241026
vt 0.349333 0.489009
vt 0.349334 0.483084
vt 0.670507 0.483122
vt 0.670507 0.489047
vt 0.676341 0.241065
vt 0.670536 0.241065
vt 0.670563 0.015911
vt 0.676368 0.015911
vt 0.670534 0.257968
vt 0.349360 0.257930
vt 0.343529 0.483084
vt 0.343528 0.489008
vt 0.343555 0.257930
vt 0.676339 0.257969
vt 0.676312 0.483123
vt 0.676312 0.489047
vt 0.331614 0.494455
vt 0.331614 0.499321
vt 0.010938 0.499279
vt 0.010940 0.494437
vt 0.331624 0.247261
vt 0.331623 0.252104
vt 0.010959 0.252085
vt 0.010959 0.247242
vt 0.709501 0.449540
vt 0.704657 0.449541
vt 0.704631 0.219437
vt 0.709471 0.219437
vt 0.736530 0.449711
vt 0.731686 0.449711
vt 0.731698 0.219445
vt 0.736541 0.219446
vt 0.731746 0.213383
vt 0.736555 0.213434
vt 0.337720 0.499318
vt 0.337679 0.494440
vt 0.004900 0.499198
vt 0.004914 0.494454
vt 0.704594 0.455707
vt 0.709595 0.455682
vt 0.736530 0.455771
vt 0.731686 0.455771
vt 0.337682 0.252105
vt 0.337682 0.247261
vt 0.004901 0.252085
vt 0.004901 0.247242
vt 0.709471 0.213384
vt 0.704631 0.213384
vt 0.010958 0.258144
vt 0.004900 0.258143
vt 0.010976 0.004893
vt 0.010974 0.010951
vt 0.004916 0.010951
vt 0.004918 0.004893
vt 0.004883 0.488380
vt 0.010941 0.488380
vt 0.331623 0.258162
vt 0.331614 0.488396
vt 0.337681 0.258162
vt 0.337672 0.488396
vt 0.337695 0.010971
vt 0.331636 0.010971
vt 0.331638 0.004912
vt 0.337696 0.004913
vt 0.337682 0.241203
vt 0.331624 0.241203
vt 0.004902 0.241183
vt 0.010960 0.241184
vn 0.000000 -0.943925 0.330161
vn 0.008734 -0.943872 0.330197
vn 0.011114 -0.943863 0.330150
vn 0.000000 -0.943925 0.330161
vn 0.727077 -0.647609 0.227951
vn 0.786825 -0.582516 0.203918
vn 0.764306 -0.608707 0.212869
vn 0.010796 -0.943869 0.330143
vn 0.000000 -0.943925 0.330161
vn 0.992254 -0.117215 0.041153
vn 0.995792 -0.086510 0.030233
vn 1.000000 0.000001 0.000000
vn 1.000000 0.000000 0.000000
vn 1.000000 -0.000001 0.000000
vn 0.995880 -0.085608 0.029911
vn 0.000000 0.756414 -0.654093
vn -0.000081 0.721464 -0.692452
vn -0.000075 0.724231 -0.689558
vn -0.000000 0.756414 -0.654093
vn -0.000623 -0.733272 -0.679935
vn -0.000623 -0.666448 -0.745551
vn -0.000620 -0.586526 -0.809930
vn -0.000072 0.725208 -0.688530
vn 0.000000 0.756414 -0.654094
vn -0.000014 -0.948148 0.317829
vn -0.000013 -0.948113 0.317935
vn -0.000000 -0.943925 0.330161
vn -0.000000 -0.943925 0.330161
vn -0.000013 -0.948244 0.317542
vn 0.999405 0.026274 -0.022363
vn 0.997175 0.066361 -0.035197
vn 1.000000 0.000000 0.000000
vn 0.793038 0.465275 -0.393204
vn 0.616801 0.680564 -0.395461
vn 0.630467 0.713135 -0.306513
vn 0.991493 0.120332 -0.049628
vn 1.000000 -0.000001 -0.000000
vn 0.009659 0.756554 -0.653860
vn 0.007884 0.853466 -0.521090
vn 0.000259 0.854232 -0.519892
vn 0.000187 0.917387 -0.397995
vn 0.008302 0.917160 -0.398432
vn -1.000000 0.000001 -0.000000
vn -0.991373 -0.123736 0.043227
vn -0.995642 -0.088048 0.030749
vn -1.000000 -0.000002 0.000000
vn -0.704235 -0.670136 0.234459
vn -0.779392 -0.591419 0.206815
vn -0.761516 -0.611812 0.213962
vn -0.995805 -0.086382 0.030181
vn -1.000000 -0.000000 0.000000
vn -0.009095 -0.943884 0.330151
vn -0.011177 -0.943865 0.330142
vn -0.000000 -0.943925 0.330161
vn -0.000000 -0.943925 0.330161
vn -0.010816 -0.943869 0.330143
vn -0.010142 0.756387 -0.654046
vn -0.007603 0.855354 -0.517989
vn 0.000263 0.855424 -0.517928
vn -0.746537 0.503423 -0.435027
vn -0.606367 0.685678 -0.402697
vn -0.636125 0.709168 -0.304015
vn -0.008128 0.917965 -0.396579
vn 0.000188 0.917854 -0.396917
vn -0.999257 0.029062 -0.025314
vn -0.997028 0.067985 -0.036235
vn -1.000000 -0.000004 0.000001
vn -1.000000 -0.000000 -0.000000
vn -0.991451 0.120593 -0.049825
vn -0.000004 -0.938941 0.344078
vn -0.000001 -0.938918 0.344142
vn 0.000000 -0.943925 0.330161
vn -0.000114 -0.259064 0.965860
vn -0.000019 -0.259407 0.965768
vn 0.000083 -0.262262 0.964997
vn 0.000003 -0.938932 0.344102
vn -0.000031 0.553789 0.832657
vn -0.000004 0.553652 0.832748
vn -0.000000 0.643673 0.765300
vn -0.000000 0.643673 0.765300
vn 0.000000 0.643673 0.765300
vn 0.000025 0.553322 0.832968
vn -0.999852 0.010969 0.013227
vn -0.999655 0.020179 0.016799
vn -1.000000 0.000001 0.000001
vn -0.712112 0.450515 0.538454
vn -0.688415 0.553122 0.469192
vn -0.674876 0.700262 0.232755
vn -0.998771 0.047287 0.014833
vn -1.000000 0.000002 0.000000
vn -0.009915 0.643618 0.765282
vn -0.009726 0.763093 0.646216
vn -0.000030 0.763462 0.645853
vn -0.000037 0.948697 0.316188
vn -0.009551 0.948378 0.316998
vn 0.000261 0.854974 -0.518670
vn 0.000188 0.917632 -0.397431
vn 0.000053 0.936053 -0.351858
vn 0.000053 0.936010 -0.351974
vn 0.000053 0.936096 -0.351744
vn -0.000000 0.947877 -0.318637
vn 0.000000 0.947877 -0.318637
vn 0.000000 0.947877 -0.318637
vn 0.000037 0.948697 0.316188
vn 0.000000 0.948801 0.315875
vn -0.000000 0.763614 0.645673
vn 0.000030 0.763452 0.645864
vn 0.000000 -0.943925 0.330161
vn -1.000000 -0.000004 0.000001
vn -1.000000 0.000002 -0.000000
vn -1.000000 -0.000003 -0.000000
vn -1.000000 0.000002 -0.000001
vn 1.000000 -0.000003 0.000000
vn 1.000000 0.000001 0.000000
vn 1.000000 -0.000002 0.000000
vn 1.000000 -0.000002 -0.000000
vn 1.000000 0.000002 -0.000000
vn 1.000000 0.000000 0.000000
vn 0.000005 0.981351 -0.192227
vn 0.000000 0.981342 -0.192273
vn -0.000005 0.981350 -0.192227
vn 0.991861 0.119219 -0.044709
vn 0.692517 0.675342 -0.253640
vn 0.682360 0.692818 -0.233210
vn 0.989203 0.138740 -0.047205
vn 0.009278 0.935941 -0.352034
vn 0.009226 0.947843 -0.318603
vn 0.993167 0.114078 -0.024593
vn 0.642846 0.751472 -0.148455
vn 0.674876 0.700263 0.232754
vn 0.998771 0.047284 0.014832
vn 0.008806 0.981360 -0.191976
vn 0.009551 0.948378 0.316998
vn -0.009222 0.936091 -0.351636
vn -0.693056 0.674940 -0.253239
vn -0.682359 0.692819 -0.233210
vn -0.009226 0.947843 -0.318603
vn -0.991848 0.119321 -0.044717
vn -0.989203 0.138741 -0.047206
vn 0.009897 0.643626 0.765276
vn 0.009722 0.763084 0.646226
vn 0.712023 0.450862 0.538282
vn 0.688403 0.553190 0.469130
vn 0.999853 0.010969 0.013196
vn 0.999655 0.020179 0.016788
vn -0.008806 0.981360 -0.191976
vn -0.642844 0.751474 -0.148455
vn -0.993167 0.114083 -0.024594
vn 0.995142 -0.095212 0.025058
vn 0.851907 0.393562 -0.345490
vn 0.697483 -0.676142 0.237379
vn 0.980527 -0.183307 -0.070470
vn 0.005569 -0.948030 0.318133
vn 0.011112 -0.780489 -0.625071
vn 0.009127 0.720036 -0.693877
vn -0.006966 -0.948478 0.316766
vn -0.014598 -0.520542 -0.853711
vn -0.618718 -0.745778 0.246989
vn -0.939275 -0.171198 -0.297413
vn -0.992395 -0.120185 0.026608
vn -0.757261 0.465624 -0.457986
vn -0.010112 0.724951 -0.688726
vn 0.991195 -0.119387 0.057266
vn 0.695591 -0.673587 0.249867
vn 0.718130 0.356703 0.597539
vn 0.666862 -0.192764 0.719817
vn 0.009497 0.553879 0.832543
vn 0.009081 -0.259800 0.965620
vn 0.009655 -0.938942 0.343941
vn -0.009534 0.552965 0.833150
vn -0.009099 -0.266009 0.963928
vn -0.718351 0.354525 0.598568
vn -0.663976 -0.201931 0.719972
vn -0.991006 -0.120704 0.057772
vn -0.692464 -0.676435 0.250858
vn -0.009687 -0.938935 0.343959
vn 0.000000 -1.000000 -0.000000
vn -0.008607 -0.999963 -0.000050
vn -0.010969 -0.999940 -0.000009
vn 0.000000 -1.000000 -0.000000
vn -0.724912 -0.688841 -0.001311
vn -0.785350 -0.619052 -0.000152
vn -0.764609 -0.644495 0.000049
vn -0.010675 -0.999943 -0.000001
vn 0.000000 -1.000000 -0.000000
vn -0.992421 -0.122885 -0.000138
vn -0.996139 -0.087792 0.000026
vn -1.000000 -0.000003 0.000000
vn -1.000000 -0.000000 0.000000
vn -1.000000 -0.000000 -0.000000
vn -0.996414 -0.084607 0.000032
vn 0.000000 0.931379 0.364052
vn 0.000080 0.911503 0.411294
vn 0.000074 0.913086 0.407766
vn -0.000000 0.931379 0.364052
vn 0.000626 -0.470551 0.882373
vn 0.000627 -0.384656 0.923060
vn 0.000624 -0.286270 0.958149
vn 0.000072 0.913656 0.406488
vn 0.000000 0.931379 0.364052
vn 0.000014 -0.999918 0.012828
vn 0.000013 -0.999919 0.012743
vn 0.000000 -1.000000 -0.000000
vn 0.000000 -1.000000 -0.000000
vn 0.000013 -0.999913 0.013161
vn -0.999417 0.031884 0.012187
vn -0.997308 0.072331 0.012053
vn -1.000000 0.000001 0.000000
vn -0.792451 0.570478 0.215816
vn -0.620893 0.768205 0.156054
vn -0.636749 0.767937 0.069448
vn -0.992234 0.124020 0.009559
vn -1.000000 -0.000001 0.000000
vn -0.009542 0.931430 0.363797
vn -0.007842 0.975724 0.218866
vn -0.000240 0.976039 0.217596
vn -0.000174 0.995650 0.093171
vn -0.008299 0.995574 0.093615
vn 1.000000 0.000001 0.000000
vn 0.991601 -0.129337 0.000052
vn 0.996017 -0.089167 0.000044
vn 1.000000 -0.000001 0.000000
vn 0.703300 -0.710894 -0.000059
vn 0.778558 -0.627573 0.000051
vn 0.762250 -0.647282 0.000042
vn 0.996360 -0.085243 0.000030
vn 1.000000 0.000001 -0.000000
vn 0.008964 -0.999960 -0.000003
vn 0.011032 -0.999939 -0.000001
vn 0.000000 -1.000000 0.000000
vn 0.000000 -1.000000 0.000000
vn 0.010690 -0.999943 -0.000001
vn 0.010020 0.931339 0.364017
vn 0.007595 0.976452 0.215603
vn -0.000244 0.976496 0.215536
vn 0.746543 0.619766 0.241998
vn 0.610249 0.775662 0.161075
vn 0.641689 0.763906 0.068430
vn 0.008141 0.995748 0.091759
vn -0.000174 0.995750 0.092092
vn 0.999274 0.035434 0.013995
vn 0.997164 0.074212 0.012514
vn 1.000000 -0.000002 0.000000
vn 1.000000 -0.000002 0.000000
vn 0.992190 0.124359 0.009665
vn 0.000004 -0.999896 -0.014443
vn 0.000001 -0.999895 -0.014504
vn 0.000000 -1.000000 0.000000
vn 0.000102 -0.582961 -0.812500
vn 0.000015 -0.583211 -0.812321
vn -0.000077 -0.585078 -0.810977
vn -0.000003 -0.999895 -0.014464
vn 0.000027 0.207474 -0.978241
vn 0.000003 0.207314 -0.978274
vn -0.000000 0.311932 -0.950104
vn -0.000000 0.311932 -0.950104
vn 0.000000 0.311932 -0.950104
vn -0.000022 0.207041 -0.978332
vn 0.999863 0.005072 -0.015732
vn 0.999706 0.010814 -0.021685
vn 1.000000 0.000000 0.000000
vn 0.711009 0.217963 -0.668549
vn 0.691034 0.319136 -0.648555
vn 0.678313 0.513799 -0.525265
vn 0.999126 0.029470 -0.029630
vn 1.000000 -0.000001 -0.000000
vn 0.009769 0.311894 -0.950067
vn 0.009570 0.442636 -0.896650
vn 0.000023 0.442972 -0.896535
vn 0.000028 0.699514 -0.714619
vn 0.009394 0.699066 -0.714995
vn -0.000243 0.976323 0.216319
vn -0.000174 0.995703 0.092607
vn -0.000049 0.999029 0.044050
vn -0.000049 0.999024 0.044166
vn -0.000049 0.999034 0.043936
vn -0.000000 0.999986 -0.005292
vn 0.000000 0.999986 -0.005292
vn 0.000000 0.999986 -0.005292
vn -0.000028 0.699514 -0.714619
vn 0.000000 0.699671 -0.714465
vn 0.000000 0.443108 -0.896469
vn -0.000023 0.442964 -0.896539
vn 0.000000 -1.000000 -0.000000
vn 1.000000 -0.000003 -0.000000
vn 1.000000 0.000002 -0.000000
vn 1.000000 -0.000002 0.000000
vn 1.000000 0.000001 0.000000
vn -1.000000 -0.000000 -0.000000
vn -1.000000 -0.000001 -0.000000
vn -1.000000 -0.000001 -0.000000
vn -1.000000 0.000000 -0.000000
vn -1.000000 -0.000002 -0.000000
vn -1.000000 -0.000001 -0.000000
vn -0.000004 0.980299 -0.197519
vn 0.000000 0.980308 -0.197477
vn 0.000004 0.980299 -0.197519
vn -0.992880 0.119003 0.005241
vn -0.692001 0.721203 0.031631
vn -0.671274 0.741201 -0.003458
vn -0.991401 0.130859 0.000256
vn -0.009162 0.998979 0.044232
vn -0.008954 0.999946 -0.005343
vn -0.994866 0.099667 -0.017549
vn -0.631731 0.760201 -0.151691
vn -0.678311 0.513801 -0.525264
vn -0.999126 0.029473 -0.029629
vn -0.008590 0.980208 -0.197787
vn -0.009394 0.699066 -0.714995
vn 0.009111 0.998997 0.043836
vn 0.692377 0.720852 0.031408
vn 0.671270 0.741205 -0.003458
vn 0.008954 0.999946 -0.005343
vn 0.992863 0.119149 0.005225
vn 0.991400 0.130867 0.000256
vn -0.009754 0.311901 -0.950065
vn -0.009566 0.442629 -0.896654
vn -0.710946 0.218253 -0.668522
vn -0.691023 0.319201 -0.648535
vn -0.999864 0.005077 -0.015708
vn -0.999707 0.010819 -0.021677
vn 0.008590 0.980207 -0.197787
vn 0.631729 0.760203 -0.151691
vn 0.994865 0.099674 -0.017549
vn -0.995052 -0.099046 0.007792
vn -0.850420 0.488172 0.196148
vn -0.693558 -0.720401 -0.000542
vn -0.979557 -0.153459 0.130071
vn -0.005494 -0.999907 0.012507
vn -0.010963 -0.534073 0.845367
vn -0.009012 0.910642 0.413098
vn 0.006845 -0.999879 0.013958
vn 0.014456 -0.208049 0.978012
vn 0.617760 -0.786261 0.012886
vn 0.940334 -0.062198 0.334521
vn 0.992408 -0.122146 0.014368
vn 0.757065 0.592246 0.275859
vn 0.009982 0.913493 0.406732
vn -0.992221 -0.123650 -0.014409
vn -0.698142 -0.715841 -0.013006
vn -0.714334 0.114960 -0.690298
vn -0.653373 -0.440830 -0.615445
vn -0.009334 0.207695 -0.978149
vn -0.008789 -0.583326 -0.812190
vn -0.009575 -0.999852 -0.014317
vn 0.009362 0.206845 -0.978329
vn 0.008803 -0.587456 -0.809208
vn 0.714483 0.113059 -0.690458
vn 0.650934 -0.447806 -0.612989
vn 0.992085 -0.124735 -0.014443
vn 0.695509 -0.718400 -0.013001
vn 0.009599 -0.999851 -0.014334
vn 0.000000 -0.507730 -0.861516
vn 0.000000 -0.507730 -0.861516
vn 0.000000 -0.507730 -0.861516
vn 0.000000 -0.507730 -0.861516
vn 0.000000 0.507737 0.861512
vn 0.000000 0.507737 0.861512
vn 0.000000 0.507737 0.861512
vn 0.000000 0.507737 0.861512
vn -1.000000 0.000000 0.000000
vn -1.000000 0.000000 0.000000
vn -1.000000 0.000000 0.000000
vn -1.000000 0.000000 0.000000
vn 1.000000 -0.000000 0.000000
vn 1.000000 -0.000000 0.000000
vn 1.000000 0.000000 0.000000
vn 1.000000 0.000000 0.000000
vn 1.000000 0.000001 0.000000
vn 1.000000 0.000001 0.000000
vn 0.000000 -0.507730 -0.861516
vn 0.000000 -0.507730 -0.861516
vn 0.000000 -0.507730 -0.861516
vn 0.000000 -0.507730 -0.861516
vn -1.000000 0.000000 0.000000
vn -1.000000 0.000000 0.000000
vn 1.000000 -0.000002 0.000000
vn 1.000000 -0.000002 0.000000
vn 0.000000 0.507737 0.861512
vn 0.000000 0.507737 0.861512
vn 0.000000 0.507737 0.861512
vn 0.000000 0.507737 0.861512
vn -1.000000 0.000000 0.000000
vn -1.000000 0.000000 0.000000
vn 0.000000 0.945571 -0.325416
vn 0.000000 0.945571 -0.325416
vn 0.000000 0.945571 -0.325416
vn 0.000000 0.945571 -0.325416
vn 0.000000 -0.945571 0.325415
vn 0.000000 -0.945571 0.325416
vn 0.000000 -0.945571 0.325416
vn 0.000000 -0.945571 0.325415
vn 0.000000 0.945571 -0.325416
vn 0.000000 0.945571 -0.325416
vn 0.000000 0.945571 -0.325416
vn 0.000000 0.945571 -0.325416
vn 0.000000 0.945571 -0.325416
vn 0.000000 0.945571 -0.325416
vn 0.000000 0.945571 -0.325416
vn 0.000000 0.945571 -0.325416
vn 0.000000 0.945571 -0.325416
vn 0.000000 0.945571 -0.325416
vn 0.000000 0.945571 -0.325416
vn 0.000001 0.945571 -0.325416
vn 0.000000 -0.945571 0.325416
vn 0.000000 -0.945571 0.325416
vn 0.000000 -0.945571 0.325416
vn 0.000000 -0.945571 0.325416
vn 0.000000 -0.945571 0.325416
vn 0.000000 -0.945571 0.325416
vn 0.000000 -0.945571 0.325416
vn 0.000000 -0.945571 0.325416
vn 0.000000 -0.945571 0.325416
vn 0.000000 -0.945571 0.325417
vn 0.000000 -0.945571 0.325416
vn 0.000000 -0.945571 0.325417
vn -0.000000 0.000000 1.000000
vn -0.000000 0.000000 1.000000
vn -0.000000 0.000000 1.000000
vn -0.000000 0.000000 1.000000
vn 0.000000 0.000000 -1.000000
vn 0.000000 0.000000 -1.000000
vn 0.000000 0.000000 -1.000000
vn 0.000000 0.000000 -1.000000
vn 1.000000 0.000000 0.000000
vn 1.000000 0.000000 0.000000
vn 1.000000 0.000000 0.000000
vn 1.000000 0.000000 0.000000
vn -1.000000 0.000000 0.000000
vn -1.000000 0.000000 0.000000
vn -1.000000 0.000000 0.000000
vn -1.000000 0.000000 0.000000
vn -1.000000 0.000000 0.000000
vn -1.000000 0.000000 0.000000
vn 0.000000 0.000000 1.000000
vn 0.000000 0.000000 1.000000
vn 0.000000 0.000000 1.000000
vn 0.000000 0.000000 1.000000
vn 1.000000 0.000000 0.000000
vn 1.000000 0.000000 0.000000
vn -1.000000 0.000000 0.000000
vn -1.000000 0.000000 0.000000
vn 0.000000 0.000000 -1.000000
vn 0.000000 0.000000 -1.000000
vn 0.000000 0.000000 -1.000000
vn 0.000000 0.000000 -1.000000
vn 1.000000 0.000000 0.000000
vn 1.000000 0.000000 0.000000
vn 0.000000 1.000000 0.000000
vn 0.000000 1.000000 0.000000
vn 0.000000 1.000000 0.000000
vn 0.000000 1.000000 0.000000
vn 0.000000 -1.000000 0.000000
vn 0.000000 -1.000000 0.000000
vn 0.000000 -1.000000 0.000000
vn 0.000000 -1.000000 0.000000
vn 0.000000 1.000000 0.000000
vn 0.000000 1.000000 -0.000000
vn 0.000000 1.000000 -0.000000
vn 0.000000 1.000000 0.000000
vn 0.000000 1.000000 0.000000
vn 0.000000 1.000000 -0.000000
vn 0.000000 1.000000 -0.000000
vn 0.000000 1.000000 -0.000000
vn 0.000000 1.000000 0.000000
vn 0.000000 1.000000 -0.000000
vn 0.000000 1.000000 -0.000000
vn 0.000000 1.000000 -0.000000
vn -0.000000 -1.000000 0.000000
vn -0.000000 -1.000000 0.000000
vn -0.000000 -1.000000 0.000000
vn -0.000000 -1.000000 0.000000
vn -0.000000 -1.000000 0.000000
vn -0.000000 -1.000000 0.000000
vn 0.000000 -1.000000 0.000000
vn 0.000000 -1.000000 0.000000
vn 0.000000 -1.000000 0.000000
vn 0.000000 -1.000000 0.000000
vn 0.000000 -1.000000 0.000000
vn 0.000000 -1.000000 0.000000
s 1
g book_obj
usemtl initialShadingGroup
f 2/3/1 90/112/2 134/69/3 93/116/4
f 90/112/2 1/1/5 91/113/6 134/69/3
f 134/69/3 91/113/6 17/24/7 92/115/8
f 93/116/4 134/69/3 92/115/8 16/23/9
f 1/2/5 94/117/10 135/70/11 91/114/6
f 94/117/10 6/9/12 95/118/13 135/70/11
f 135/70/11 95/118/13 18/26/14 96/119/15
f 91/114/6 135/70/11 96/119/15 17/25/7
f 4/6/16 97/120/17 136/71/18 100/124/19
f 97/120/17 3/4/20 98/121/21 136/71/18
f 136/71/18 98/121/21 11/16/22 99/123/23
f 100/124/19 136/71/18 99/123/23 10/15/24
f 3/5/20 101/125/25 137/72/26 98/122/21
f 101/125/25 2/3/1 102/126/27 137/72/26
f 137/72/26 102/126/27 12/18/28 103/127/29
f 98/122/21 137/72/26 103/127/29 11/17/22
f 6/9/12 104/128/30 138/73/31 107/132/32
f 104/128/30 5/7/33 105/129/34 138/73/31
f 138/73/31 105/129/34 26/36/35 106/131/36
f 107/132/32 138/73/31 106/131/36 25/35/37
f 5/8/33 108/133/38 139/74/39 105/130/34
f 108/133/38 4/6/16 109/134/40 139/74/39
f 139/74/39 109/134/40 27/38/41 110/135/42
f 105/130/34 139/74/39 110/135/42 26/37/35
f 8/12/43 111/136/44 140/75/45 114/140/46
f 111/136/44 7/10/47 112/137/48 140/75/45
f 140/75/45 112/137/48 21/30/49 113/139/50
f 114/140/46 140/75/45 113/139/50 20/29/51
f 7/11/47 115/141/52 141/76/53 112/138/48
f 115/141/52 12/18/28 116/142/54 141/76/53
f 141/76/53 116/142/54 22/32/55 117/143/56
f 112/138/48 141/76/53 117/143/56 21/31/49
f 10/15/24 118/144/57 142/77/58 121/148/59
f 118/144/57 9/13/60 119/145/61 142/77/58
f 142/77/58 119/145/61 29/40/62 120/147/63
f 121/148/59 142/77/58 120/147/63 28/39/64
f 9/14/60 122/149/65 143/78/66 119/146/61
f 122/149/65 8/12/43 123/150/67 143/78/66
f 143/78/66 123/150/67 30/42/68 124/151/69
f 119/146/61 143/78/66 124/151/69 29/41/62
f 16/23/9 125/152/70 144/79/71 128/155/72
f 125/152/70 15/22/73 126/153/74 144/79/71
f 144/79/71 126/153/74 23/33/75 127/154/76
f 128/155/72 144/79/71 127/154/76 22/32/55
f 15/22/73 129/156/77 145/80/78 126/153/74
f 129/156/77 14/21/79 130/157/80 145/80/78
f 145/80/78 130/157/80 24/34/81 131/158/82
f 126/153/74 145/80/78 131/158/82 23/33/75
f 20/29/51 132/159/83 146/81/84 48/163/85
f 132/159/83 19/27/86 133/160/87 146/81/84
f 146/81/84 133/160/87 41/56/88 47/162/89
f 48/163/85 146/81/84 47/162/89 40/55/90
f 19/28/86 49/164/91 147/82/92 133/161/87
f 49/164/91 24/34/81 50/165/93 147/82/92
f 147/82/92 50/165/93 42/58/94 51/166/95
f 133/161/87 147/82/92 51/166/95 41/57/88
f 4/6/16 100/124/19 148/83/96 109/134/40
f 100/124/19 10/15/24 121/148/59 148/83/96
f 148/83/96 121/148/59 28/39/64 52/167/97
f 109/134/40 148/83/96 52/167/97 27/38/41
f 27/38/41 52/167/97 149/84/98 55/170/99
f 52/167/97 28/39/64 53/168/100 149/84/98
f 149/84/98 53/168/100 36/50/101 54/169/102
f 55/170/99 149/84/98 54/169/102 33/46/103
f 39/54/104 56/171/105 150/85/106 57/172/107
f 56/171/105 42/58/94 50/165/93 150/85/106
f 150/85/106 50/165/93 24/34/81 130/157/80
f 57/172/107 150/85/106 130/157/80 14/21/79
f 16/23/9 128/155/72 151/86/108 93/116/4
f 128/155/72 22/32/55 116/142/54 151/86/108
f 151/86/108 116/142/54 12/18/28 102/126/27
f 93/116/4 151/86/108 102/126/27 2/3/1
f 8/12/43 114/140/46 152/87/109 123/150/67
f 20/29/51 48/163/85 152/87/109 114/140/46
f 40/55/90 58/173/110 152/87/109 48/163/85
f 34/47/111 59/174/112 152/87/109 58/173/110
f 30/42/68 123/150/67 152/87/109 59/174/112
f 18/26/14 95/118/13 153/88/113 62/177/114
f 6/9/12 107/132/32 153/88/113 95/118/13
f 25/35/37 60/175/115 153/88/113 107/132/32
f 31/43/116 61/176/117 153/88/113 60/175/115
f 37/51/118 62/177/114 153/88/113 61/176/117
f 39/54/104 63/178/119 154/89/120 56/171/105
f 63/178/119 33/46/103 54/169/102 154/89/120
f 154/89/120 54/169/102 36/50/101 64/179/121
f 56/171/105 154/89/120 64/179/121 42/58/94
f 25/35/37 106/131/36 155/90/122 60/175/115
f 106/131/36 26/36/35 65/180/123 155/90/122
f 155/90/122 65/180/123 32/44/124 66/182/125
f 60/175/115 155/90/122 66/182/125 31/43/116
f 26/37/35 110/135/42 156/91/126 65/181/123
f 110/135/42 27/38/41 55/170/99 156/91/126
f 156/91/126 55/170/99 33/46/103 67/183/127
f 65/181/123 156/91/126 67/183/127 32/45/124
f 31/43/116 66/182/125 157/92/128 61/176/117
f 66/182/125 32/44/124 68/184/129 157/92/128
f 157/92/128 68/184/129 38/52/130 69/186/131
f 61/176/117 157/92/128 69/186/131 37/51/118
f 32/45/124 67/183/127 158/93/132 68/185/129
f 67/183/127 33/46/103 63/178/119 158/93/132
f 158/93/132 63/178/119 39/54/104 70/187/133
f 68/185/129 158/93/132 70/187/133 38/53/130
f 28/39/64 120/147/63 159/94/134 53/168/100
f 120/147/63 29/40/62 71/188/135 159/94/134
f 159/94/134 71/188/135 35/48/136 72/190/137
f 53/168/100 159/94/134 72/190/137 36/50/101
f 29/41/62 124/151/69 160/95/138 71/189/135
f 124/151/69 30/42/68 59/174/112 160/95/138
f 160/95/138 59/174/112 34/47/111 73/191/139
f 71/189/135 160/95/138 73/191/139 35/49/136
f 14/21/79 74/192/140 161/96/141 57/172/107
f 74/192/140 13/19/142 75/193/143 161/96/141
f 161/96/141 75/193/143 38/53/130 70/187/133
f 57/172/107 161/96/141 70/187/133 39/54/104
f 13/20/142 76/195/144 162/97/145 75/194/143
f 76/195/144 18/26/14 62/177/114 162/97/145
f 162/97/145 62/177/114 37/51/118 69/186/131
f 75/194/143 162/97/145 69/186/131 38/52/130
f 36/50/101 72/190/137 163/98/146 64/179/121
f 72/190/137 35/48/136 77/196/147 163/98/146
f 163/98/146 77/196/147 41/57/88 51/166/95
f 64/179/121 163/98/146 51/166/95 42/58/94
f 35/49/136 73/191/139 164/99/148 77/197/147
f 73/191/139 34/47/111 58/173/110 164/99/148
f 164/99/148 58/173/110 40/55/90 47/162/89
f 77/197/147 164/99/148 47/162/89 41/56/88
f 5/7/33 104/128/30 165/100/149 79/200/150
f 104/128/30 6/9/12 94/117/10 165/100/149
f 165/100/149 94/117/10 1/2/5 78/198/151
f 79/200/150 165/100/149 78/198/151 43/59/152
f 1/1/5 90/112/2 166/101/153 78/199/151
f 90/112/2 2/3/1 101/125/25 166/101/153
f 166/101/153 101/125/25 3/5/20 80/202/154
f 78/199/151 166/101/153 80/202/154 43/60/152
f 3/4/20 97/120/17 167/102/155 80/203/154
f 97/120/17 4/6/16 108/133/38 167/102/155
f 167/102/155 108/133/38 5/8/33 79/201/150
f 80/203/154 167/102/155 79/201/150 43/61/152
f 11/17/22 103/127/29 168/103/156 82/206/157
f 103/127/29 12/18/28 115/141/52 168/103/156
f 168/103/156 115/141/52 7/11/47 81/204/158
f 82/206/157 168/103/156 81/204/158 44/62/159
f 7/10/47 111/136/44 169/104/160 81/205/158
f 111/136/44 8/12/43 122/149/65 169/104/160
f 169/104/160 122/149/65 9/14/60 83/208/161
f 81/205/158 169/104/160 83/208/161 44/63/159
f 9/13/60 118/144/57 170/105/162 83/209/161
f 118/144/57 10/15/24 99/123/23 170/105/162
f 170/105/162 99/123/23 11/16/22 82/207/157
f 83/209/161 170/105/162 82/207/157 44/64/159
f 17/25/7 96/119/15 171/106/163 85/212/164
f 96/119/15 18/26/14 76/195/144 171/106/163
f 171/106/163 76/195/144 13/20/142 84/210/165
f 85/212/164 171/106/163 84/210/165 45/65/166
f 13/19/142 74/192/140 172/107/167 84/211/165
f 74/192/140 14/21/79 129/156/77 172/107/167
f 172/107/167 129/156/77 15/22/73 86/214/168
f 84/211/165 172/107/167 86/214/168 45/66/166
f 15/22/73 125/152/70 173/108/169 86/214/168
f 125/152/70 16/23/9 92/115/8 173/108/169
f 173/108/169 92/115/8 17/24/7 85/213/164
f 86/214/168 173/108/169 85/213/164 45/66/166
f 23/33/75 131/158/82 174/109/170 88/217/171
f 131/158/82 24/34/81 49/164/91 174/109/170
f 174/109/170 49/164/91 19/28/86 87/215/172
f 88/217/171 174/109/170 87/215/172 46/67/173
f 19/27/86 132/159/83 175/110/174 87/216/172
f 132/159/83 20/29/51 113/139/50 175/110/174
f 175/110/174 113/139/50 21/30/49 89/218/175
f 87/216/172 175/110/174 89/218/175 46/68/173
f 21/31/49 117/143/56 176/111/176 89/219/175
f 117/143/56 22/32/55 127/154/76 176/111/176
f 176/111/176 127/154/76 23/33/75 88/217/171
f 89/219/175 176/111/176 88/217/171 46/67/173
s 5
f 178/220/177 266/221/178 310/222/179 269/223/180
f 266/221/178 177/224/181 267/225/182 310/222/179
f 310/222/179 267/225/182 193/226/183 268/227/184
f 269/223/180 310/222/179 268/227/184 192/228/185
f 177/229/181 270/230/186 311/231/187 267/232/182
f 270/230/186 182/233/188 271/234/189 311/231/187
f 311/231/187 271/234/189 194/235/190 272/236/191
f 267/232/182 311/231/187 272/236/191 193/237/183
f 180/238/192 273/239/193 312/240/194 276/241/195
f 273/239/193 179/242/196 274/243/197 312/240/194
f 312/240/194 274/243/197 187/244/198 275/245/199
f 276/241/195 312/240/194 275/245/199 186/246/200
f 179/247/196 277/248/201 313/249/202 274/250/197
f 277/248/201 178/220/177 278/251/203 313/249/202
f 313/249/202 278/251/203 188/252/204 279/253/205
f 274/250/197 313/249/202 279/253/205 187/254/198
f 182/233/188 280/255/206 314/256/207 283/257/208
f 280/255/206 181/258/209 281/259/210 314/256/207
f 314/256/207 281/259/210 202/260/211 282/261/212
f 283/257/208 314/256/207 282/261/212 201/262/213
f 181/263/209 284/264/214 315/265/215 281/266/210
f 284/264/214 180/238/192 285/267/216 315/265/215
f 315/265/215 285/267/216 203/268/217 286/269/218
f 281/266/210 315/265/215 286/269/218 202/270/211
f 184/271/219 287/272/220 316/273/221 290/274/222
f 287/272/220 183/275/223 288/276/224 316/273/221
f 316/273/221 288/276/224 197/277/225 289/278/226
f 290/274/222 316/273/221 289/278/226 196/279/227
f 183/280/223 291/281/228 317/282/229 288/283/224
f 291/281/228 188/252/204 292/284/230 317/282/229
f 317/282/229 292/284/230 198/285/231 293/286/232
f 288/283/224 317/282/229 293/286/232 197/287/225
f 186/246/200 294/288/233 318/289/234 297/290/235
f 294/288/233 185/291/236 295/292/237 318/289/234
f 318/289/234 295/292/237 205/293/238 296/294/239
f 297/290/235 318/289/234 296/294/239 204/295/240
f 185/296/236 298/297/241 319/298/242 295/299/237
f 298/297/241 184/271/219 299/300/243 319/298/242
f 319/298/242 299/300/243 206/301/244 300/302/245
f 295/299/237 319/298/242 300/302/245 205/303/238
f 192/228/185 301/304/246 320/305/247 304/306/248
f 301/304/246 191/307/249 302/308/250 320/305/247
f 320/305/247 302/308/250 199/309/251 303/310/252
f 304/306/248 320/305/247 303/310/252 198/285/231
f 191/307/249 305/311/253 321/312/254 302/308/250
f 305/311/253 190/313/255 306/314/256 321/312/254
f 321/312/254 306/314/256 200/315/257 307/316/258
f 302/308/250 321/312/254 307/316/258 199/309/251
f 196/279/227 308/317/259 322/318/260 224/319/261
f 308/317/259 195/320/262 309/321/263 322/318/260
f 322/318/260 309/321/263 217/322/264 223/323/265
f 224/319/261 322/318/260 223/323/265 216/324/266
f 195/325/262 225/326/267 323/327/268 309/328/263
f 225/326/267 200/315/257 226/329/269 323/327/268
f 323/327/268 226/329/269 218/330/270 227/331/271
f 309/328/263 323/327/268 227/331/271 217/332/264
f 180/238/192 276/241/195 324/333/272 285/267/216
f 276/241/195 186/246/200 297/290/235 324/333/272
f 324/333/272 297/290/235 204/295/240 228/334/273
f 285/267/216 324/333/272 228/334/273 203/268/217
f 203/268/217 228/334/273 325/335/274 231/336/275
f 228/334/273 204/295/240 229/337/276 325/335/274
f 325/335/274 229/337/276 212/338/277 230/339/278
f 231/336/275 325/335/274 230/339/278 209/340/279
f 215/341/280 232/342/281 326/343/282 233/344/283
f 232/342/281 218/330/270 226/329/269 326/343/282
f 326/343/282 226/329/269 200/315/257 306/314/256
f 233/344/283 326/343/282 306/314/256 190/313/255
f 192/228/185 304/306/248 327/345/284 269/223/180
f 304/306/248 198/285/231 292/284/230 327/345/284
f 327/345/284 292/284/230 188/252/204 278/251/203
f 269/223/180 327/345/284 278/251/203 178/220/177
f 184/271/219 290/274/222 328/346/285 299/300/243
f 196/279/227 224/319/261 328/346/285 290/274/222
f 216/324/266 234/347/286 328/346/285 224/319/261
f 210/348/287 235/349/288 328/346/285 234/347/286
f 206/301/244 299/300/243 328/346/285 235/349/288
f 194/235/190 271/234/189 329/350/289 238/351/290
f 182/233/188 283/257/208 329/350/289 271/234/189
f 201/262/213 236/352/291 329/350/289 283/257/208
f 207/353/292 237/354/293 329/350/289 236/352/291
f 213/355/294 238/351/290 329/350/289 237/354/293
f 215/341/280 239/356/295 330/357/296 232/342/281
f 239/356/295 209/340/279 230/339/278 330/357/296
f 330/357/296 230/339/278 212/338/277 240/358/297
f 232/342/281 330/357/296 240/358/297 218/330/270
f 201/262/213 282/261/212 331/359/298 236/352/291
f 282/261/212 202/260/211 241/360/299 331/359/298
f 331/359/298 241/360/299 208/361/300 242/362/301
f 236/352/291 331/359/298 242/362/301 207/353/292
f 202/270/211 286/269/218 332/363/302 241/364/299
f 286/269/218 203/268/217 231/336/275 332/363/302
f 332/363/302 231/336/275 209/340/279 243/365/303
f 241/364/299 332/363/302 243/365/303 208/366/300
f 207/353/292 242/362/301 333/367/304 237/354/293
f 242/362/301 208/361/300 244/368/305 333/367/304
f 333/367/304 244/368/305 214/369/306 245/370/307
f 237/354/293 333/367/304 245/370/307 213/355/294
f 208/366/300 243/365/303 334/371/308 244/372/305
f 243/365/303 209/340/279 239/356/295 334/371/308
f 334/371/308 239/356/295 215/341/280 246/373/309
f 244/372/305 334/371/308 246/373/309 214/374/306
f 204/295/240 296/294/239 335/375/310 229/337/276
f 296/294/239 205/293/238 247/376/311 335/375/310
f 335/375/310 247/376/311 211/377/312 248/378/313
f 229/337/276 335/375/310 248/378/313 212/338/277
f 205/303/238 300/302/245 336/379/314 247/380/311
f 300/302/245 206/301/244 235/349/288 336/379/314
f 336/379/314 235/349/288 210/348/287 249/381/315
f 247/380/311 336/379/314 249/381/315 211/382/312
f 190/313/255 250/383/316 337/384/317 233/344/283
f 250/383/316 189/385/318 251/386/319 337/384/317
f 337/384/317 251/386/319 214/374/306 246/373/309
f 233/344/283 337/384/317 246/373/309 215/341/280
f 189/387/318 252/388/320 338/389/321 251/390/319
f 252/388/320 194/235/190 238/351/290 338/389/321
f 338/389/321 238/351/290 213/355/294 245/370/307
f 251/390/319 338/389/321 245/370/307 214/369/306
f 212/338/277 248/378/313 339/391/322 240/358/297
f 248/378/313 211/377/312 253/392/323 339/391/322
f 339/391/322 253/392/323 217/332/264 227/331/271
f 240/358/297 339/391/322 227/331/271 218/330/270
f 211/382/312 249/381/315 340/393/324 253/394/323
f 249/381/315 210/348/287 234/347/286 340/393/324
f 340/393/324 234/347/286 216/324/266 223/323/265
f 253/394/323 340/393/324 223/323/265 217/322/264
f 181/258/209 280/255/206 341/395/325 255/396/326
f 280/255/206 182/233/188 270/230/186 341/395/325
f 341/395/325 270/230/186 177/229/181 254/397/327
f 255/396/326 341/395/325 254/397/327 219/398/328
f 177/224/181 266/221/178 342/399/329 254/400/327
f 266/221/178 178/220/177 277/248/201 342/399/329
f 342/399/329 277/248/201 179/247/196 256/401/330
f 254/400/327 342/399/329 256/401/330 219/402/328
f 179/242/196 273/239/193 343/403/331 256/404/330
f 273/239/193 180/238/192 284/264/214 343/403/331
f 343/403/331 284/264/214 181/263/209 255/405/326
f 256/404/330 343/403/331 255/405/326 219/406/328
f 187/254/198 279/253/205 344/407/332 258/408/333
f 279/253/205 188/252/204 291/281/228 344/407/332
f 344/407/332 291/281/228 183/280/223 257/409/334
f 258/408/333 344/407/332 257/409/334 220/410/335
f 183/275/223 287/272/220 345/411/336 257/412/334
f 287/272/220 184/271/219 298/297/241 345/411/336
f 345/411/336 298/297/241 185/296/236 259/413/337
f 257/412/334 345/411/336 259/413/337 220/414/335
f 185/291/236 294/288/233 346/415/338 259/416/337
f 294/288/233 186/246/200 275/245/199 346/415/338
f 346/415/338 275/245/199 187/244/198 258/417/333
f 259/416/337 346/415/338 258/417/333 220/418/335
f 193/237/183 272/236/191 347/419/339 261/420/340
f 272/236/191 194/235/190 252/388/320 347/419/339
f 347/419/339 252/388/320 189/387/318 260/421/341
f 261/420/340 347/419/339 260/421/341 221/422/342
f 189/385/318 250/383/316 348/423/343 260/424/341
f 250/383/316 190/313/255 305/311/253 348/423/343
f 348/423/343 305/311/253 191/307/249 262/425/344
f 260/424/341 348/423/343 262/425/344 221/426/342
f 191/307/249 301/304/246 349/427/345 262/425/344
f 301/304/246 192/228/185 268/227/184 349/427/345
f 349/427/345 268/227/184 193/226/183 261/428/340
f 262/425/344 349/427/345 261/428/340 221/426/342
f 199/309/251 307/316/258 350/429/346 264/430/347
f 307/316/258 200/315/257 225/326/267 350/429/346
f 350/429/346 225/326/267 195/325/262 263/431/348
f 264/430/347 350/429/346 263/431/348 222/432/349
f 195/320/262 308/317/259 351/433/350 263/434/348
f 308/317/259 196/279/227 289/278/226 351/433/350
f 351/433/350 289/278/226 197/277/225 265/435/351
f 263/434/348 351/433/350 265/435/351 222/436/349
f 197/287/225 293/286/232 352/437/352 265/438/351
f 293/286/232 198/285/231 303/310/252 352/437/352
f 352/437/352 303/310/252 199/309/251 264/430/347
f 265/438/351 352/437/352 264/430/347 222/432/349
s 9
f 358/439/353 354/440/354 361/441/355 363/442/356
s 10
f 370/443/357 367/444/358 372/445/359 375/446/360
s 11
f 362/447/361 359/448/362 374/449/363 373/450/364
s 12
f 366/451/365 368/452/366 353/453/367 356/454/368
f 353/453/367 355/455/369 357/456/370 356/454/368
s 9
f 355/457/371 354/440/354 358/439/353 357/458/372
f 361/441/355 360/459/373 364/460/374 363/442/356
s 11
f 360/461/375 359/448/362 362/447/361 364/462/376
s 12
f 366/451/365 365/463/377 369/464/378 368/452/366
s 10
f 365/465/379 367/444/358 370/443/357 369/466/380
f 372/445/359 371/467/381 376/468/382 375/446/360
s 11
f 371/469/383 373/450/364 374/449/363 376/470/384
s 13
f 356/471/385 379/472/386 378/473/387 366/474/388
s 14
f 354/475/389 381/476/390 384/477/391 361/478/392
s 13
f 373/479/393 377/480/394 380/481/395 362/482/396
f 379/472/386 380/481/395 377/480/394 378/473/387
f 371/467/397 372/445/398 377/480/394 373/479/393
f 378/473/387 377/480/394 372/445/398 367/444/399
f 366/474/388 378/473/387 367/444/399 365/465/400
f 358/439/401 379/472/386 356/471/385 357/458/402
f 363/442/403 380/481/395 379/472/386 358/439/401
f 362/482/396 380/481/395 363/442/403 364/460/404
s 14
f 383/483/405 384/477/391 381/476/390 382/484/406
f 375/446/407 383/483/405 382/484/406 370/443/408
f 353/485/409 381/476/390 354/475/389 355/486/410
f 382/484/406 381/476/390 353/485/409 368/487/411
f 370/443/408 382/484/406 368/487/411 369/466/412
f 374/488/413 383/483/405 375/446/407 376/468/414
f 374/488/413 359/489/415 384/477/391 383/483/405
f 361/478/392 384/477/391 359/489/415 360/490/416
s 16
f 390/491/417 386/492/418 393/493/419 395/494/420
s 17
f 402/495/421 399/496/422 404/497/423 407/498/424
s 18
f 394/499/425 391/500/426 406/501/427 405/502/428
s 19
f 398/503/429 400/504/430 385/505/431 388/506/432
f 385/505/431 387/507/433 389/508/434 388/506/432
s 16
f 387/509/435 386/492/418 390/491/417 389/510/436
f 393/493/419 392/511/437 396/512/438 395/494/420
s 18
f 392/513/439 391/500/426 394/499/425 396/514/440
s 19
f 398/503/429 397/515/441 401/516/442 400/504/430
s 17
f 397/517/443 399/496/422 402/495/421 401/518/444
f 404/497/423 403/519/445 408/520/446 407/498/424
s 18
f 403/521/447 405/502/428 406/501/427 408/522/448
s 20
f 403/519/449 404/497/450 409/523/451 405/524/452
s 21
f 393/525/453 415/526/454 391/527/455 392/528/456
s 20
f 394/529/457 410/530/458 395/494/459 396/512/460
f 405/524/452 409/523/451 410/530/458 394/529/457
f 409/523/451 404/497/450 399/496/461 411/531/462
f 410/530/458 409/523/451 411/531/462 412/532/463
f 395/494/459 410/530/458 412/532/463 390/491/464
f 411/531/462 399/496/461 397/517/465 398/533/466
f 412/532/463 411/531/462 398/533/466 388/534/467
f 390/491/464 412/532/463 388/534/467 389/510/468
s 21
f 385/535/469 413/536/470 386/537/471 387/538/472
f 400/539/473 414/540/474 413/536/470 385/535/469
f 406/541/475 391/527/455 415/526/454 416/542/476
f 402/495/477 414/540/474 400/539/473 401/518/478
f 406/541/475 416/542/476 407/498/479 408/520/480
f 413/536/470 415/526/454 393/525/453 386/537/471
f 407/498/479 416/542/476 414/540/474 402/495/477
