# This file uses centimeters as units for non-parametric coordinates.

mtllib light.mtl
g default
v 0.877776 1.629442 -0.637742
v 0.335281 1.629442 -1.031888
v -0.335281 1.629442 -1.031888
v -0.877776 1.629442 -0.637742
v -1.084991 1.629442 0.000000
v -0.877776 1.629442 0.637742
v -0.335281 1.629442 1.031888
v 0.335281 1.629442 1.031888
v 0.877776 1.629442 0.637742
v 1.084991 1.629442 -0.000000
v 1.636837 2.011547 -1.189232
v 0.625216 2.011547 -1.924218
v -0.625217 2.011547 -1.924218
v -1.636838 2.011547 -1.189232
v -2.023243 2.011547 0.000000
v -1.636837 2.011547 1.189232
v -0.625216 2.011547 1.924218
v 0.625216 2.011547 1.924218
v 1.636837 2.011547 1.189232
v 2.023242 2.011547 -0.000000
v 2.252913 2.611047 -1.636838
v 0.860536 2.611047 -2.648459
v -0.860537 2.611047 -2.648459
v -2.252914 2.611047 -1.636837
v -2.784754 2.611047 0.000000
v -2.252913 2.611047 1.636838
v -0.860536 2.611047 2.648458
v 0.860536 2.611047 2.648459
v 2.252913 2.611047 1.636837
v 2.784754 2.611047 -0.000000
v 2.648459 3.366461 -1.924218
v 1.011621 3.366461 -3.113450
v -1.011622 3.366461 -3.113450
v -2.648459 3.366461 -1.924218
v -3.273675 3.366461 0.000000
v -2.648459 3.366461 1.924218
v -1.011621 3.366461 3.113450
v 1.011621 3.366461 3.113450
v 2.648459 3.366461 1.924218
v 3.273675 3.366461 -0.000000
v 2.404625 4.097874 -1.918141
v 0.994029 4.015453 -3.119059
v -0.979344 4.097874 -3.014110
v -2.637524 4.015453 -1.939096
v -3.072838 4.097874 -0.138405
v -2.404625 4.097874 1.918141
v -0.994030 4.015453 3.119059
v 0.979344 4.097874 3.014110
v 2.637523 4.015453 1.939096
v 3.072837 4.097874 0.138405
v -0.000000 1.482827 -0.000000
v 0.353015 4.203843 1.086468
v -0.353015 4.203843 -1.086468
v 1.921797 3.366461 -2.645128
v 2.481044 2.973702 -1.802584
v -0.947675 2.973702 -2.916642
v -0.000000 3.366461 -3.269557
v -2.481044 2.973702 -1.802584
v -1.921798 3.366461 -2.645127
v -3.066739 2.973702 0.000000
v -3.109534 3.366461 -1.010349
v -2.481044 2.973702 1.802584
v -3.109534 3.366461 1.010349
v -0.947674 2.973702 2.916642
v -1.921797 3.366461 2.645128
v 0.947674 2.973702 2.916642
v 0.000000 3.366461 3.269557
v 2.481044 2.973702 1.802584
v 1.921798 3.366461 2.645127
v 3.066739 2.973702 -0.000000
v 3.109534 3.366461 1.010349
v 3.109534 3.366461 -1.010349
v 1.050505 3.779966 -3.233123
v 1.684978 4.097874 -2.731259
v 2.750258 3.779966 -1.998180
v -1.050506 3.779966 -3.233123
v 0.163197 4.097874 -3.225716
v -2.750259 3.779966 -1.998179
v -2.028058 4.097874 -2.513734
v -3.399506 3.779966 0.000000
v -2.968570 4.097874 -1.219229
v -2.750258 3.779966 1.998180
v -2.876051 4.097874 0.934486
v -1.050505 3.779966 3.233123
v -1.684978 4.097874 2.731259
v 1.050505 3.779966 3.233122
v -0.163197 4.097874 3.225716
v 2.750258 3.779966 1.998179
v 2.028057 4.097874 2.513734
v 3.399506 3.779966 -0.000000
v 2.968569 4.097874 1.219230
v 2.876050 4.097874 -0.934486
v 0.504558 1.538773 -0.366583
v 0.192724 1.538773 -0.593143
v -0.192724 1.538773 -0.593143
v -0.504558 1.538773 -0.366583
v -0.623668 1.538773 0.000000
v -0.504558 1.538773 0.366583
v -0.192724 1.538773 0.593143
v 0.192724 1.538773 0.593143
v 0.504558 1.538773 0.366583
v 0.623668 1.538773 -0.000000
v -1.922275 4.203843 -0.553620
v -0.713155 4.203843 -2.194866
v -0.000000 4.203843 0.000000
v -1.229743 4.203843 1.577772
v 0.713155 4.203843 2.194865
v 1.922274 4.203843 0.553620
v 1.229743 4.203843 -1.577773
v 0.650770 1.632239 -0.895708
v 0.482864 1.789555 -1.486104
v 1.187736 2.011547 -1.634779
v 1.264155 1.789555 -0.918462
v -0.000000 1.632239 -1.107156
v -0.482864 1.789555 -1.486103
v -0.000000 2.011547 -2.020698
v -0.650770 1.632239 -0.895708
v -1.264155 1.789555 -0.918462
v -1.187736 2.011547 -1.634779
v -1.052968 1.632239 -0.342130
v -1.562581 1.789555 0.000000
v -1.921798 2.011547 -0.624430
v -1.052968 1.632239 0.342130
v -1.264155 1.789555 0.918462
v -1.921798 2.011547 0.624430
v -0.650770 1.632239 0.895708
v -0.482864 1.789555 1.486103
v -1.187736 2.011547 1.634779
v 0.000000 1.632239 1.107156
v 0.482864 1.789555 1.486103
v 0.000000 2.011547 2.020697
v 0.650770 1.632239 0.895708
v 1.264155 1.789555 0.918462
v 1.187736 2.011547 1.634779
v 1.052968 1.632239 0.342130
v 1.562581 1.789555 -0.000000
v 1.921797 2.011547 0.624430
v 1.052968 1.632239 -0.342130
v 1.921797 2.011547 -0.624430
v 0.752078 2.287853 -2.314660
v 1.634778 2.611047 -2.250080
v 1.968967 2.287853 -1.430539
v -0.752079 2.287853 -2.314660
v -0.000000 2.611047 -2.781252
v -1.968968 2.287853 -1.430539
v -1.634779 2.611047 -2.250080
v -2.433778 2.287853 0.000000
v -2.645128 2.611047 -0.859454
v -1.968967 2.287853 1.430539
v -2.645128 2.611047 0.859454
v -0.752079 2.287853 2.314660
v -1.634779 2.611047 2.250080
v 0.752079 2.287853 2.314660
v 0.000000 2.611047 2.781252
v 1.968967 2.287853 1.430539
v 1.634779 2.611047 2.250080
v 2.433778 2.287853 -0.000000
v 2.645127 2.611047 0.859454
v 2.645127 2.611047 -0.859454
v 0.947674 2.973702 -2.916642
v 0.917307 1.789555 -1.262565
v -0.000000 1.789555 -1.560616
v -0.917307 1.789555 -1.262565
v -1.484234 1.789555 -0.482257
v -1.484234 1.789555 0.482257
v -0.917307 1.789555 1.262565
v 0.000000 1.789555 1.560616
v 0.917307 1.789555 1.262565
v 1.484234 1.789555 0.482257
v 1.484234 1.789555 -0.482257
v 1.428739 2.287853 -1.966491
v -0.000000 2.287853 -2.430717
v -1.428740 2.287853 -1.966491
v -2.311749 2.287853 -0.751133
v -2.311749 2.287853 0.751133
v -1.428739 2.287853 1.966491
v 0.000000 2.287853 2.430717
v 1.428739 2.287853 1.966491
v 2.311749 2.287853 0.751133
v 2.311749 2.287853 -0.751133
v 1.800316 2.973702 -2.477924
v -0.000000 2.973702 -3.062882
v -1.800317 2.973702 -2.477923
v -2.912974 2.973702 -0.946482
v -2.912974 2.973702 0.946483
v -1.800317 2.973702 2.477923
v 0.000000 2.973702 3.062882
v 1.800316 2.973702 2.477923
v 2.912973 2.973702 0.946482
v 2.912973 2.973702 -0.946483
v 1.995666 3.779966 -2.746800
v -0.000000 3.779966 -3.395231
v -1.995667 3.779966 -2.746799
v -3.229056 3.779966 -1.049184
v -3.229056 3.779966 1.049184
v -1.995666 3.779966 2.746799
v 0.000000 3.779966 3.395230
v 1.995666 3.779966 2.746799
v 3.229056 3.779966 1.049184
v 3.229056 3.779966 -1.049184
v 0.421443 1.549963 -0.580067
v -0.000000 1.549963 -0.717002
v -0.421443 1.549963 -0.580067
v -0.681910 1.549963 -0.221566
v -0.681910 1.549963 0.221566
v -0.421443 1.549963 0.580067
v 0.000000 1.549963 0.717002
v 0.421443 1.549963 0.580067
v 0.681910 1.549963 0.221566
v 0.681910 1.549963 -0.221566
v -2.025105 4.203843 -1.676728
v -1.655030 4.203843 0.537752
v -0.652789 4.203843 2.546828
v 2.025105 4.203843 1.676728
v 1.655029 4.203843 -0.537752
v 0.652788 4.203843 -2.546829
vt 0.000000 0.100000
vt 1.000000 0.100000
vt 0.100000 0.100000
vt 0.200000 0.100000
vt 0.300000 0.100000
vt 0.400000 0.100000
vt 0.500000 0.100000
vt 0.600000 0.100000
vt 0.700000 0.100000
vt 0.800000 0.100000
vt 0.900000 0.100000
vt 0.000000 0.200000
vt 1.000000 0.200000
vt 0.100000 0.200000
vt 0.200000 0.200000
vt 0.300000 0.200000
vt 0.400000 0.200000
vt 0.500000 0.200000
vt 0.600000 0.200000
vt 0.700000 0.200000
vt 0.800000 0.200000
vt 0.900000 0.200000
vt 0.000000 0.300000
vt 1.000000 0.300000
vt 0.100000 0.300000
vt 0.200000 0.300000
vt 0.300000 0.300000
vt 0.400000 0.300000
vt 0.500000 0.300000
vt 0.600000 0.300000
vt 0.700000 0.300000
vt 0.800000 0.300000
vt 0.900000 0.300000
vt 0.000000 0.400000
vt 1.000000 0.400000
vt 0.100000 0.400000
vt 0.200000 0.400000
vt 0.300000 0.400000
vt 0.400000 0.400000
vt 0.500000 0.400000
vt 0.600000 0.400000
vt 0.700000 0.400000
vt 0.800000 0.400000
vt 0.900000 0.400000
vt 0.000000 0.500000
vt 1.000000 0.500000
vt 0.102778 0.477778
vt 0.200000 0.487500
vt 0.297222 0.477778
vt 0.382812 0.487500
vt 0.517188 0.487500
vt 0.602778 0.477778
vt 0.700000 0.487500
vt 0.797222 0.477778
vt 0.900000 0.500000
vt 0.050000 0.000000
vt 0.950000 0.000000
vt 0.850000 0.000000
vt 0.750000 0.000000
vt 0.650000 0.000000
vt 0.550000 0.000000
vt 0.450000 0.000000
vt 0.350000 0.000000
vt 0.250000 0.000000
vt 0.150000 0.000000
vt 0.637500 0.500000
vt 0.262500 0.500000
vt 0.050000 0.150000
vt 0.150000 0.150000
vt 0.250000 0.150000
vt 0.350000 0.150000
vt 0.450000 0.150000
vt 0.550000 0.150000
vt 0.650000 0.150000
vt 0.750000 0.150000
vt 0.850000 0.150000
vt 0.950000 0.150000
vt 0.050000 0.250000
vt 0.150000 0.250000
vt 0.250000 0.250000
vt 0.350000 0.250000
vt 0.450000 0.250000
vt 0.550000 0.250000
vt 0.650000 0.250000
vt 0.750000 0.250000
vt 0.850000 0.250000
vt 0.950000 0.250000
vt 0.050000 0.350000
vt 0.150000 0.350000
vt 0.250000 0.350000
vt 0.350000 0.350000
vt 0.450000 0.350000
vt 0.550000 0.350000
vt 0.650000 0.350000
vt 0.750000 0.350000
vt 0.850000 0.350000
vt 0.950000 0.350000
vt 0.050000 0.450000
vt 0.150000 0.450000
vt 0.250000 0.450000
vt 0.350000 0.450000
vt 0.450000 0.450000
vt 0.550000 0.450000
vt 0.650000 0.450000
vt 0.750000 0.450000
vt 0.850000 0.450000
vt 0.950000 0.450000
vt 0.050000 0.066667
vt 0.150000 0.066667
vt 0.250000 0.066667
vt 0.350000 0.066667
vt 0.450000 0.066667
vt 0.550000 0.066667
vt 0.650000 0.066667
vt 0.750000 0.066667
vt 0.850000 0.066667
vt 0.950000 0.066667
vt 0.275000 0.500000
vt 0.450000 0.500000
vt 0.625000 0.500000
vt 0.775000 0.500000
vt 0.450000 0.500000
vt 0.125000 0.500000
vt 0.050000 0.104167
vt 0.100000 0.150000
vt 0.050000 0.200000
vt 0.000000 0.150000
vt 1.000000 0.150000
vt 0.150000 0.104167
vt 0.200000 0.150000
vt 0.150000 0.200000
vt 0.250000 0.104167
vt 0.300000 0.150000
vt 0.250000 0.200000
vt 0.350000 0.104167
vt 0.400000 0.150000
vt 0.350000 0.200000
vt 0.450000 0.104167
vt 0.500000 0.150000
vt 0.450000 0.200000
vt 0.550000 0.104167
vt 0.600000 0.150000
vt 0.550000 0.200000
vt 0.650000 0.104167
vt 0.700000 0.150000
vt 0.650000 0.200000
vt 0.750000 0.104167
vt 0.800000 0.150000
vt 0.750000 0.200000
vt 0.850000 0.104167
vt 0.900000 0.150000
vt 0.850000 0.200000
vt 0.950000 0.104167
vt 0.950000 0.200000
vt 0.100000 0.250000
vt 0.050000 0.300000
vt 0.000000 0.250000
vt 1.000000 0.250000
vt 0.200000 0.250000
vt 0.150000 0.300000
vt 0.300000 0.250000
vt 0.250000 0.300000
vt 0.400000 0.250000
vt 0.350000 0.300000
vt 0.500000 0.250000
vt 0.450000 0.300000
vt 0.600000 0.250000
vt 0.550000 0.300000
vt 0.700000 0.250000
vt 0.650000 0.300000
vt 0.800000 0.250000
vt 0.750000 0.300000
vt 0.900000 0.250000
vt 0.850000 0.300000
vt 0.950000 0.300000
vt 0.100000 0.350000
vt 0.050000 0.400000
vt 0.000000 0.350000
vt 1.000000 0.350000
vt 0.200000 0.350000
vt 0.150000 0.400000
vt 0.300000 0.350000
vt 0.250000 0.400000
vt 0.400000 0.350000
vt 0.350000 0.400000
vt 0.500000 0.350000
vt 0.450000 0.400000
vt 0.600000 0.350000
vt 0.550000 0.400000
vt 0.700000 0.350000
vt 0.650000 0.400000
vt 0.800000 0.350000
vt 0.750000 0.400000
vt 0.900000 0.350000
vt 0.850000 0.400000
vt 0.950000 0.400000
vt 0.100000 0.450000
vt 0.068750 0.487500
vt 0.000000 0.450000
vt 1.000000 0.450000
vt 0.200000 0.450000
vt 0.143750 0.487500
vt 0.300000 0.450000
vt 0.256250 0.487500
vt 0.400000 0.450000
vt 0.331250 0.487500
vt 0.500000 0.450000
vt 0.450000 0.487500
vt 0.600000 0.450000
vt 0.568750 0.487500
vt 0.700000 0.450000
vt 0.643750 0.487500
vt 0.800000 0.450000
vt 0.756250 0.487500
vt 0.900000 0.450000
vt 0.831250 0.487500
vt 0.950000 0.500000
vt 0.450000 0.500000
vt 0.025000 0.050000
vt 0.975000 0.050000
vt 0.075000 0.050000
vt 0.125000 0.050000
vt 0.175000 0.050000
vt 0.225000 0.050000
vt 0.275000 0.050000
vt 0.325000 0.050000
vt 0.375000 0.050000
vt 0.425000 0.050000
vt 0.475000 0.050000
vt 0.525000 0.050000
vt 0.575000 0.050000
vt 0.625000 0.050000
vt 0.675000 0.050000
vt 0.725000 0.050000
vt 0.775000 0.050000
vt 0.825000 0.050000
vt 0.875000 0.050000
vt 0.925000 0.050000
vt 0.331250 0.500000
vt 0.200000 0.500000
vt 0.450000 0.500000
vt 0.568750 0.500000
vt 0.700000 0.500000
vt 0.706250 0.500000
vt 0.193750 0.500000
vn 0.227860 -0.959517 -0.165550
vn 0.166683 -0.958949 -0.229420
vn 0.230995 -0.919542 -0.317937
vn 0.318279 -0.919361 -0.231243
vn 0.087035 -0.959517 -0.267865
vn 0.121572 -0.919361 -0.374159
vn 0.157045 -0.861234 -0.483335
vn 0.298852 -0.861099 -0.411335
vn 0.411150 -0.861234 -0.298718
vn -0.000000 -0.958949 -0.283578
vn -0.000000 -0.919542 -0.392992
vn -0.087035 -0.959517 -0.267865
vn -0.121572 -0.919361 -0.374159
vn -0.157045 -0.861234 -0.483335
vn -0.000000 -0.861099 -0.508438
vn -0.166683 -0.958949 -0.229420
vn -0.230995 -0.919542 -0.317938
vn -0.227860 -0.959517 -0.165550
vn -0.318279 -0.919361 -0.231243
vn -0.411149 -0.861234 -0.298717
vn -0.298852 -0.861099 -0.411334
vn -0.269699 -0.958949 -0.087631
vn -0.373758 -0.919542 -0.121441
vn -0.281650 -0.959517 -0.000000
vn -0.393414 -0.919361 0.000000
vn -0.508209 -0.861234 0.000000
vn -0.483553 -0.861099 -0.157116
vn -0.269699 -0.958949 0.087631
vn -0.373758 -0.919542 0.121441
vn -0.227860 -0.959517 0.165550
vn -0.318279 -0.919361 0.231243
vn -0.411149 -0.861234 0.298718
vn -0.483553 -0.861099 0.157116
vn -0.166683 -0.958949 0.229420
vn -0.230995 -0.919542 0.317937
vn -0.087035 -0.959517 0.267865
vn -0.121572 -0.919361 0.374159
vn -0.157045 -0.861234 0.483335
vn -0.298852 -0.861099 0.411335
vn 0.000000 -0.958949 0.283578
vn 0.000000 -0.919542 0.392992
vn 0.087035 -0.959517 0.267865
vn 0.121572 -0.919361 0.374159
vn 0.157045 -0.861234 0.483335
vn 0.000000 -0.861099 0.508437
vn 0.166683 -0.958949 0.229420
vn 0.230995 -0.919542 0.317938
vn 0.227860 -0.959517 0.165550
vn 0.318279 -0.919361 0.231243
vn 0.411150 -0.861234 0.298717
vn 0.298852 -0.861099 0.411335
vn 0.269699 -0.958949 0.087631
vn 0.373758 -0.919542 0.121441
vn 0.281650 -0.959517 -0.000000
vn 0.393414 -0.919361 0.000000
vn 0.508209 -0.861234 0.000000
vn 0.483553 -0.861099 0.157116
vn 0.269699 -0.958949 -0.087631
vn 0.373758 -0.919542 -0.121441
vn 0.483553 -0.861099 -0.157116
vn 0.368954 -0.778454 -0.507822
vn 0.507602 -0.778673 -0.368794
vn 0.193887 -0.778673 -0.596722
vn 0.229086 -0.671133 -0.705054
vn 0.435899 -0.670848 -0.599963
vn 0.599754 -0.671133 -0.435747
vn -0.000000 -0.778454 -0.627702
vn -0.193887 -0.778673 -0.596722
vn -0.229086 -0.671133 -0.705054
vn -0.000000 -0.670848 -0.741595
vn -0.368954 -0.778454 -0.507822
vn -0.507602 -0.778673 -0.368794
vn -0.599755 -0.671133 -0.435747
vn -0.435899 -0.670848 -0.599963
vn -0.596980 -0.778454 -0.193970
vn -0.627430 -0.778673 0.000000
vn -0.741337 -0.671132 0.000000
vn -0.705299 -0.670848 -0.229165
vn -0.596980 -0.778454 0.193971
vn -0.507602 -0.778673 0.368794
vn -0.599754 -0.671133 0.435747
vn -0.705299 -0.670848 0.229166
vn -0.368954 -0.778454 0.507822
vn -0.193887 -0.778673 0.596722
vn -0.229086 -0.671133 0.705054
vn -0.435899 -0.670848 0.599963
vn -0.000000 -0.778454 0.627702
vn 0.193887 -0.778673 0.596722
vn 0.229086 -0.671133 0.705054
vn -0.000000 -0.670848 0.741595
vn 0.368954 -0.778454 0.507821
vn 0.507602 -0.778673 0.368794
vn 0.599755 -0.671133 0.435747
vn 0.435899 -0.670848 0.599963
vn 0.596980 -0.778454 0.193971
vn 0.627430 -0.778673 0.000000
vn 0.741338 -0.671132 0.000000
vn 0.705299 -0.670848 0.229166
vn 0.596980 -0.778454 -0.193971
vn 0.705299 -0.670848 -0.229165
vn 0.495944 -0.536735 -0.682609
vn 0.682447 -0.537049 -0.495827
vn 0.260672 -0.537048 -0.802265
vn 0.286266 -0.376594 -0.881038
vn 0.544576 -0.376322 -0.749545
vn 0.749456 -0.376594 -0.544511
vn -0.000000 -0.536734 -0.843751
vn -0.260672 -0.537048 -0.802265
vn -0.286267 -0.376594 -0.881038
vn -0.000000 -0.376322 -0.926489
vn -0.495944 -0.536735 -0.682609
vn -0.682447 -0.537048 -0.495827
vn -0.749456 -0.376594 -0.544511
vn -0.544577 -0.376322 -0.749545
vn -0.802455 -0.536735 -0.260733
vn -0.843552 -0.537048 0.000000
vn -0.926378 -0.376594 0.000000
vn -0.881143 -0.376322 -0.286301
vn -0.802455 -0.536734 0.260734
vn -0.682447 -0.537048 0.495827
vn -0.749456 -0.376594 0.544512
vn -0.881143 -0.376322 0.286301
vn -0.495944 -0.536735 0.682609
vn -0.260672 -0.537048 0.802265
vn -0.286266 -0.376594 0.881038
vn -0.544577 -0.376322 0.749545
vn -0.000000 -0.536734 0.843751
vn 0.260672 -0.537048 0.802265
vn 0.286267 -0.376594 0.881038
vn 0.000000 -0.376322 0.926489
vn 0.495944 -0.536735 0.682609
vn 0.682447 -0.537048 0.495827
vn 0.749456 -0.376594 0.544511
vn 0.544577 -0.376322 0.749545
vn 0.802455 -0.536735 0.260733
vn 0.843551 -0.537048 -0.000000
vn 0.926378 -0.376594 0.000000
vn 0.881143 -0.376322 0.286301
vn 0.802455 -0.536735 -0.260733
vn 0.881143 -0.376322 -0.286301
vn 0.610814 0.139776 -0.779339
vn 0.792692 0.259933 -0.551430
vn 0.310981 -0.002574 -0.950413
vn 0.178455 0.812625 -0.554793
vn 0.208830 0.939584 -0.271241
vn 0.239565 0.957063 -0.163214
vn -0.026208 0.081565 -0.996323
vn -0.306467 0.128205 -0.943208
vn -0.116118 0.926715 -0.357374
vn -0.005287 0.918778 -0.394739
vn -0.564421 0.081565 -0.821447
vn -0.810228 -0.002574 -0.586110
vn -0.470472 0.812625 -0.343943
vn -0.227744 0.918778 -0.322458
vn -0.952243 0.139776 -0.271471
vn -0.965423 0.259933 0.019817
vn -0.289747 0.957063 0.008770
vn -0.328378 0.939584 -0.096691
vn -0.906709 0.301804 0.294608
vn -0.792692 0.259933 0.551430
vn -0.239565 0.957063 0.163214
vn -0.255323 0.963290 0.082959
vn -0.610814 0.139776 0.779339
vn -0.310981 -0.002574 0.950413
vn -0.178455 0.812625 0.554792
vn -0.208830 0.939584 0.271241
vn 0.026208 0.081564 0.996323
vn 0.306467 0.128205 0.943208
vn 0.116118 0.926715 0.357374
vn 0.005287 0.918778 0.394739
vn 0.564421 0.081565 0.821447
vn 0.810228 -0.002574 0.586110
vn 0.470472 0.812625 0.343943
vn 0.227744 0.918778 0.322458
vn 0.952243 0.139776 0.271471
vn 0.965423 0.259933 -0.019817
vn 0.289747 0.957063 -0.008770
vn 0.328378 0.939584 0.096691
vn 0.906709 0.301804 -0.294607
vn 0.255323 0.963290 -0.082959
vn 0.094150 -0.987088 -0.129587
vn 0.040670 -0.991301 -0.125171
vn 0.106477 -0.991301 -0.077360
vn -0.000000 -1.000000 0.000000
vn -0.000000 -0.987088 -0.160178
vn -0.040670 -0.991301 -0.125171
vn -0.094150 -0.987088 -0.129586
vn -0.106477 -0.991301 -0.077360
vn -0.152338 -0.987088 -0.049498
vn -0.131612 -0.991301 -0.000000
vn -0.152338 -0.987088 0.049498
vn -0.106477 -0.991301 0.077360
vn -0.094150 -0.987088 0.129587
vn -0.040670 -0.991301 0.125171
vn 0.000000 -0.987088 0.160178
vn 0.040671 -0.991301 0.125171
vn 0.094150 -0.987088 0.129587
vn 0.106477 -0.991301 0.077360
vn 0.152338 -0.987088 0.049498
vn 0.131612 -0.991301 0.000000
vn 0.152338 -0.987088 -0.049498
vn -0.039594 0.999209 0.003729
vn -0.064814 0.996783 -0.047156
vn 0.000000 1.000000 0.000000
vn -0.015828 0.998687 -0.048714
vn 0.000000 1.000000 0.000000
vn 0.000000 1.000000 0.000000
vn -0.035463 0.999305 0.011522
vn -0.034225 0.999209 0.020256
vn 0.015828 0.998687 0.048714
vn -0.024718 0.996783 0.076247
vn 0.039594 0.999209 -0.003729
vn 0.064814 0.996783 0.047156
vn 0.035463 0.999305 -0.011522
vn 0.034225 0.999209 -0.020256
vn 0.024718 0.996783 -0.076247
s 1
g pSphere1 light
usemtl initialShadingGroup
f 1/1/1 110/124/2 161/68/3 113/127/4
f 110/124/2 2/3/5 111/125/6 161/68/3
f 161/68/3 111/125/6 12/14/7 112/126/8
f 113/127/4 161/68/3 112/126/8 11/12/9
f 2/3/5 114/129/10 162/69/11 111/125/6
f 114/129/10 3/4/12 115/130/13 162/69/11
f 162/69/11 115/130/13 13/15/14 116/131/15
f 111/125/6 162/69/11 116/131/15 12/14/7
f 3/4/12 117/132/16 163/70/17 115/130/13
f 117/132/16 4/5/18 118/133/19 163/70/17
f 163/70/17 118/133/19 14/16/20 119/134/21
f 115/130/13 163/70/17 119/134/21 13/15/14
f 4/5/18 120/135/22 164/71/23 118/133/19
f 120/135/22 5/6/24 121/136/25 164/71/23
f 164/71/23 121/136/25 15/17/26 122/137/27
f 118/133/19 164/71/23 122/137/27 14/16/20
f 5/6/24 123/138/28 165/72/29 121/136/25
f 123/138/28 6/7/30 124/139/31 165/72/29
f 165/72/29 124/139/31 16/18/32 125/140/33
f 121/136/25 165/72/29 125/140/33 15/17/26
f 6/7/30 126/141/34 166/73/35 124/139/31
f 126/141/34 7/8/36 127/142/37 166/73/35
f 166/73/35 127/142/37 17/19/38 128/143/39
f 124/139/31 166/73/35 128/143/39 16/18/32
f 7/8/36 129/144/40 167/74/41 127/142/37
f 129/144/40 8/9/42 130/145/43 167/74/41
f 167/74/41 130/145/43 18/20/44 131/146/45
f 127/142/37 167/74/41 131/146/45 17/19/38
f 8/9/42 132/147/46 168/75/47 130/145/43
f 132/147/46 9/10/48 133/148/49 168/75/47
f 168/75/47 133/148/49 19/21/50 134/149/51
f 130/145/43 168/75/47 134/149/51 18/20/44
f 9/10/48 135/150/52 169/76/53 133/148/49
f 135/150/52 10/11/54 136/151/55 169/76/53
f 169/76/53 136/151/55 20/22/56 137/152/57
f 133/148/49 169/76/53 137/152/57 19/21/50
f 10/11/54 138/153/58 170/77/59 136/151/55
f 138/153/58 1/2/1 113/128/4 170/77/59
f 170/77/59 113/128/4 11/13/9 139/154/60
f 136/151/55 170/77/59 139/154/60 20/22/56
f 11/12/9 112/126/8 171/78/61 142/157/62
f 112/126/8 12/14/7 140/155/63 171/78/61
f 171/78/61 140/155/63 22/25/64 141/156/65
f 142/157/62 171/78/61 141/156/65 21/23/66
f 12/14/7 116/131/15 172/79/67 140/155/63
f 116/131/15 13/15/14 143/159/68 172/79/67
f 172/79/67 143/159/68 23/26/69 144/160/70
f 140/155/63 172/79/67 144/160/70 22/25/64
f 13/15/14 119/134/21 173/80/71 143/159/68
f 119/134/21 14/16/20 145/161/72 173/80/71
f 173/80/71 145/161/72 24/27/73 146/162/74
f 143/159/68 173/80/71 146/162/74 23/26/69
f 14/16/20 122/137/27 174/81/75 145/161/72
f 122/137/27 15/17/26 147/163/76 174/81/75
f 174/81/75 147/163/76 25/28/77 148/164/78
f 145/161/72 174/81/75 148/164/78 24/27/73
f 15/17/26 125/140/33 175/82/79 147/163/76
f 125/140/33 16/18/32 149/165/80 175/82/79
f 175/82/79 149/165/80 26/29/81 150/166/82
f 147/163/76 175/82/79 150/166/82 25/28/77
f 16/18/32 128/143/39 176/83/83 149/165/80
f 128/143/39 17/19/38 151/167/84 176/83/83
f 176/83/83 151/167/84 27/30/85 152/168/86
f 149/165/80 176/83/83 152/168/86 26/29/81
f 17/19/38 131/146/45 177/84/87 151/167/84
f 131/146/45 18/20/44 153/169/88 177/84/87
f 177/84/87 153/169/88 28/31/89 154/170/90
f 151/167/84 177/84/87 154/170/90 27/30/85
f 18/20/44 134/149/51 178/85/91 153/169/88
f 134/149/51 19/21/50 155/171/92 178/85/91
f 178/85/91 155/171/92 29/32/93 156/172/94
f 153/169/88 178/85/91 156/172/94 28/31/89
f 19/21/50 137/152/57 179/86/95 155/171/92
f 137/152/57 20/22/56 157/173/96 179/86/95
f 179/86/95 157/173/96 30/33/97 158/174/98
f 155/171/92 179/86/95 158/174/98 29/32/93
f 20/22/56 139/154/60 180/87/99 157/173/96
f 139/154/60 11/13/9 142/158/62 180/87/99
f 180/87/99 142/158/62 21/24/66 159/175/100
f 157/173/96 180/87/99 159/175/100 30/33/97
f 21/23/66 141/156/65 181/88/101 55/178/102
f 141/156/65 22/25/64 160/176/103 181/88/101
f 181/88/101 160/176/103 32/36/104 54/177/105
f 55/178/102 181/88/101 54/177/105 31/34/106
f 22/25/64 144/160/70 182/89/107 160/176/103
f 144/160/70 23/26/69 56/180/108 182/89/107
f 182/89/107 56/180/108 33/37/109 57/181/110
f 160/176/103 182/89/107 57/181/110 32/36/104
f 23/26/69 146/162/74 183/90/111 56/180/108
f 146/162/74 24/27/73 58/182/112 183/90/111
f 183/90/111 58/182/112 34/38/113 59/183/114
f 56/180/108 183/90/111 59/183/114 33/37/109
f 24/27/73 148/164/78 184/91/115 58/182/112
f 148/164/78 25/28/77 60/184/116 184/91/115
f 184/91/115 60/184/116 35/39/117 61/185/118
f 58/182/112 184/91/115 61/185/118 34/38/113
f 25/28/77 150/166/82 185/92/119 60/184/116
f 150/166/82 26/29/81 62/186/120 185/92/119
f 185/92/119 62/186/120 36/40/121 63/187/122
f 60/184/116 185/92/119 63/187/122 35/39/117
f 26/29/81 152/168/86 186/93/123 62/186/120
f 152/168/86 27/30/85 64/188/124 186/93/123
f 186/93/123 64/188/124 37/41/125 65/189/126
f 62/186/120 186/93/123 65/189/126 36/40/121
f 27/30/85 154/170/90 187/94/127 64/188/124
f 154/170/90 28/31/89 66/190/128 187/94/127
f 187/94/127 66/190/128 38/42/129 67/191/130
f 64/188/124 187/94/127 67/191/130 37/41/125
f 28/31/89 156/172/94 188/95/131 66/190/128
f 156/172/94 29/32/93 68/192/132 188/95/131
f 188/95/131 68/192/132 39/43/133 69/193/134
f 66/190/128 188/95/131 69/193/134 38/42/129
f 29/32/93 158/174/98 189/96/135 68/192/132
f 158/174/98 30/33/97 70/194/136 189/96/135
f 189/96/135 70/194/136 40/44/137 71/195/138
f 68/192/132 189/96/135 71/195/138 39/43/133
f 30/33/97 159/175/100 190/97/139 70/194/136
f 159/175/100 21/24/66 55/179/102 190/97/139
f 190/97/139 55/179/102 31/35/106 72/196/140
f 70/194/136 190/97/139 72/196/140 40/44/137
f 31/34/106 54/177/105 191/98/141 75/199/142
f 54/177/105 32/36/104 73/197/143 191/98/141
f 191/98/141 73/197/143 42/47/144 74/198/145
f 75/199/142 191/98/141 74/198/145 41/45/146
f 32/36/104 57/181/110 192/99/147 73/197/143
f 57/181/110 33/37/109 76/201/148 192/99/147
f 192/99/147 76/201/148 43/48/149 77/202/150
f 73/197/143 192/99/147 77/202/150 42/47/144
f 33/37/109 59/183/114 193/100/151 76/201/148
f 59/183/114 34/38/113 78/203/152 193/100/151
f 193/100/151 78/203/152 44/49/153 79/204/154
f 76/201/148 193/100/151 79/204/154 43/48/149
f 34/38/113 61/185/118 194/101/155 78/203/152
f 61/185/118 35/39/117 80/205/156 194/101/155
f 194/101/155 80/205/156 45/50/157 81/206/158
f 78/203/152 194/101/155 81/206/158 44/49/153
f 35/39/117 63/187/122 195/102/159 80/205/156
f 63/187/122 36/40/121 82/207/160 195/102/159
f 195/102/159 82/207/160 46/51/161 83/208/162
f 80/205/156 195/102/159 83/208/162 45/50/157
f 36/40/121 65/189/126 196/103/163 82/207/160
f 65/189/126 37/41/125 84/209/164 196/103/163
f 196/103/163 84/209/164 47/52/165 85/210/166
f 82/207/160 196/103/163 85/210/166 46/51/161
f 37/41/125 67/191/130 197/104/167 84/209/164
f 67/191/130 38/42/129 86/211/168 197/104/167
f 197/104/167 86/211/168 48/53/169 87/212/170
f 84/209/164 197/104/167 87/212/170 47/52/165
f 38/42/129 69/193/134 198/105/171 86/211/168
f 69/193/134 39/43/133 88/213/172 198/105/171
f 198/105/171 88/213/172 49/54/173 89/214/174
f 86/211/168 198/105/171 89/214/174 48/53/169
f 39/43/133 71/195/138 199/106/175 88/213/172
f 71/195/138 40/44/137 90/215/176 199/106/175
f 199/106/175 90/215/176 50/55/177 91/216/178
f 88/213/172 199/106/175 91/216/178 49/54/173
f 40/44/137 72/196/140 200/107/179 90/215/176
f 72/196/140 31/35/106 75/200/142 200/107/179
f 200/107/179 75/200/142 41/46/146 92/217/180
f 90/215/176 200/107/179 92/217/180 50/55/177
f 2/3/5 110/124/2 201/108/181 94/221/182
f 1/1/1 93/219/183 201/108/181 110/124/2
f 51/56/184 94/221/182 201/108/181 93/219/183
f 3/4/12 114/129/10 202/109/185 95/223/186
f 2/3/5 94/222/182 202/109/185 114/129/10
f 51/65/184 95/223/186 202/109/185 94/222/182
f 4/5/18 117/132/16 203/110/187 96/225/188
f 3/4/12 95/224/186 203/110/187 117/132/16
f 51/64/184 96/225/188 203/110/187 95/224/186
f 5/6/24 120/135/22 204/111/189 97/227/190
f 4/5/18 96/226/188 204/111/189 120/135/22
f 51/63/184 97/227/190 204/111/189 96/226/188
f 6/7/30 123/138/28 205/112/191 98/229/192
f 5/6/24 97/228/190 205/112/191 123/138/28
f 51/62/184 98/229/192 205/112/191 97/228/190
f 7/8/36 126/141/34 206/113/193 99/231/194
f 6/7/30 98/230/192 206/113/193 126/141/34
f 51/61/184 99/231/194 206/113/193 98/230/192
f 8/9/42 129/144/40 207/114/195 100/233/196
f 7/8/36 99/232/194 207/114/195 129/144/40
f 51/60/184 100/233/196 207/114/195 99/232/194
f 9/10/48 132/147/46 208/115/197 101/235/198
f 8/9/42 100/234/196 208/115/197 132/147/46
f 51/59/184 101/235/198 208/115/197 100/234/196
f 10/11/54 135/150/52 209/116/199 102/237/200
f 9/10/48 101/236/198 209/116/199 135/150/52
f 51/58/184 102/237/200 209/116/199 101/236/198
f 1/2/1 138/153/58 210/117/201 93/220/183
f 10/11/54 102/238/200 210/117/201 138/153/58
f 51/57/184 93/220/183 210/117/201 102/238/200
f 45/50/157 103/239/202 211/118/203 81/206/158
f 103/239/202 53/67/204 104/240/205 211/118/203
f 211/118/203 104/240/205 43/48/149 79/204/154
f 81/206/158 211/118/203 79/204/154 44/49/153
f 52/66/206 105/241/207 212/119/208 106/242/209
f 105/241/207 53/67/204 103/239/202 212/119/208
f 212/119/208 103/239/202 45/50/157 83/208/162
f 106/242/209 212/119/208 83/208/162 46/51/161
f 48/53/169 107/243/210 213/120/211 87/212/170
f 107/243/210 52/66/206 106/242/209 213/120/211
f 213/120/211 106/242/209 46/51/161 85/210/166
f 87/212/170 213/120/211 85/210/166 47/52/165
f 50/55/177 108/244/212 214/121/213 91/216/178
f 108/244/212 52/66/206 107/243/210 214/121/213
f 214/121/213 107/243/210 48/53/169 89/214/174
f 91/216/178 214/121/213 89/214/174 49/54/173
f 50/55/177 92/218/180 215/122/214 108/244/212
f 92/218/180 41/45/146 109/245/215 215/122/214
f 215/122/214 109/245/215 53/67/204 105/241/207
f 108/244/212 215/122/214 105/241/207 52/66/206
f 43/48/149 104/240/205 216/123/216 77/202/150
f 104/240/205 53/67/204 109/245/215 216/123/216
f 216/123/216 109/245/215 41/45/146 74/198/145
f 77/202/150 216/123/216 74/198/145 42/47/144
g default
v 0.199159 1.261105 -0.144698
v 0.076072 1.261105 -0.234126
v -0.076072 1.261105 -0.234126
v -0.199159 1.261105 -0.144698
v -0.246174 1.261105 0.000000
v -0.199159 1.261105 0.144698
v -0.076072 1.261105 0.234126
v 0.076072 1.261105 0.234126
v 0.199159 1.261105 0.144698
v 0.246174 1.261105 -0.000000
v 0.371383 1.314352 -0.269826
v 0.141856 1.314352 -0.436587
v -0.141856 1.314352 -0.436587
v -0.371383 1.314352 -0.269826
v -0.459055 1.314352 0.000000
v -0.371383 1.314352 0.269826
v -0.141856 1.314352 0.436587
v 0.141856 1.314352 0.436587
v 0.371383 1.314352 0.269826
v 0.459055 1.314352 -0.000000
v 0.511165 1.397893 -0.371383
v 0.195248 1.397893 -0.600910
v -0.195248 1.397893 -0.600910
v -0.511165 1.397893 -0.371383
v -0.631834 1.397893 0.000000
v -0.511165 1.397893 0.371383
v -0.195248 1.397893 0.600910
v 0.195248 1.397893 0.600910
v 0.511165 1.397893 0.371383
v 0.631834 1.397893 -0.000000
v 0.600910 1.503162 -0.436587
v 0.229527 1.503162 -0.706412
v -0.229527 1.503162 -0.706412
v -0.600910 1.503162 -0.436587
v -0.742766 1.503162 0.000000
v -0.600910 1.503162 0.436587
v -0.229527 1.503162 0.706412
v 0.229527 1.503162 0.706412
v 0.600910 1.503162 0.436587
v 0.742766 1.503162 -0.000000
v 0.545587 1.605085 -0.435208
v 0.225536 1.593600 -0.707685
v -0.222204 1.605085 -0.683873
v -0.598429 1.593600 -0.439963
v -0.697198 1.605085 -0.031403
v -0.545587 1.605085 0.435208
v -0.225536 1.593600 0.707685
v 0.222204 1.605085 0.683873
v 0.598429 1.593600 0.439962
v 0.697198 1.605085 0.031403
v -0.000000 1.240674 -0.000000
v 0.080096 1.619852 0.246509
v -0.080096 1.619852 -0.246509
v 0.061969 0.897892 -0.045023
v 0.023670 0.897892 -0.072849
v -0.023670 0.897892 -0.072849
v -0.061969 0.897892 -0.045023
v -0.076598 0.897892 0.000000
v -0.061969 0.897892 0.045023
v -0.023670 0.897892 0.072849
v 0.023670 0.897892 0.072849
v 0.061969 0.897892 0.045023
v 0.076598 0.897892 -0.000000
v 0.115557 0.956705 -0.083957
v 0.044139 0.956705 -0.135846
v -0.044139 0.956705 -0.135846
v -0.115558 0.956705 -0.083957
v -0.142837 0.956705 0.000000
v -0.115557 0.956705 0.083957
v -0.044139 0.956705 0.135846
v 0.044139 0.956705 0.135846
v 0.115557 0.956705 0.083957
v 0.142837 0.956705 -0.000000
v 0.159051 1.048980 -0.115558
v 0.060752 1.048980 -0.186976
v -0.060752 1.048980 -0.186976
v -0.159051 1.048980 -0.115557
v -0.196598 1.048980 0.000000
v -0.159051 1.048980 0.115558
v -0.060752 1.048980 0.186976
v 0.060752 1.048980 0.186976
v 0.159051 1.048980 0.115557
v 0.196598 1.048980 -0.000000
v 0.186976 1.165253 -0.135846
v 0.071418 1.165253 -0.219803
v -0.071418 1.165253 -0.219803
v -0.186976 1.165253 -0.135846
v -0.231115 1.165253 0.000000
v -0.186976 1.165253 0.135846
v -0.071418 1.165253 0.219803
v 0.071418 1.165253 0.219803
v 0.186976 1.165253 0.135846
v 0.231115 1.165253 -0.000000
v 0.169762 1.277832 -0.135417
v 0.070177 1.265146 -0.220199
v -0.069140 1.277832 -0.212790
v -0.186204 1.265146 -0.136896
v -0.216936 1.277832 -0.009771
v -0.169762 1.277832 0.135417
v -0.070177 1.265146 0.220199
v 0.069140 1.277832 0.212790
v 0.186204 1.265146 0.136896
v 0.216936 1.277832 0.009771
v -0.000000 0.875325 -0.000000
v 0.024922 1.294143 0.076703
v -0.024922 1.294143 -0.076703
v -0.000000 1.619852 0.000000
v -0.279017 1.619852 0.357982
v 0.161808 1.619852 0.497994
v 0.436146 1.619852 0.125611
v 0.279017 1.619852 -0.357982
v 0.045943 0.898322 -0.063235
v 0.034089 0.922536 -0.104916
v 0.083852 0.956705 -0.115412
v 0.089247 0.922536 -0.064842
v -0.000000 0.898322 -0.078163
v -0.034089 0.922536 -0.104916
v -0.000000 0.956705 -0.142657
v -0.045943 0.898322 -0.063235
v -0.089247 0.922536 -0.064842
v -0.083852 0.956705 -0.115412
v -0.074337 0.898322 -0.024154
v -0.110315 0.922536 0.000000
v -0.135675 0.956705 -0.044084
v -0.074337 0.898322 0.024154
v -0.089247 0.922536 0.064842
v -0.135675 0.956705 0.044084
v -0.045943 0.898322 0.063235
v -0.034089 0.922536 0.104916
v -0.083852 0.956705 0.115412
v 0.000000 0.898322 0.078163
v 0.034089 0.922536 0.104916
v 0.000000 0.956705 0.142657
v 0.045943 0.898322 0.063235
v 0.089247 0.922536 0.064842
v 0.083852 0.956705 0.115412
v 0.074337 0.898322 0.024154
v 0.110315 0.922536 -0.000000
v 0.135675 0.956705 0.044084
v 0.074337 0.898322 -0.024154
v 0.135675 0.956705 -0.044084
v 0.053095 0.999234 -0.163410
v 0.115412 1.048980 -0.158851
v 0.139005 0.999234 -0.100993
v -0.053095 0.999234 -0.163410
v -0.000000 1.048980 -0.196351
v -0.139005 0.999234 -0.100993
v -0.115412 1.048980 -0.158851
v -0.171820 0.999234 0.000000
v -0.186741 1.048980 -0.060676
v -0.139005 0.999234 0.100993
v -0.186741 1.048980 0.060676
v -0.053095 0.999234 0.163410
v -0.115412 1.048980 0.158851
v 0.053095 0.999234 0.163410
v 0.000000 1.048980 0.196351
v 0.139005 0.999234 0.100993
v 0.115412 1.048980 0.158851
v 0.171820 0.999234 -0.000000
v 0.186741 1.048980 0.060676
v 0.186741 1.048980 -0.060676
v 0.066904 1.104800 -0.205909
v 0.135675 1.165253 -0.186741
v 0.175157 1.104800 -0.127259
v -0.066904 1.104800 -0.205909
v -0.000000 1.165253 -0.230824
v -0.175157 1.104800 -0.127259
v -0.135675 1.165253 -0.186741
v -0.216506 1.104800 0.000000
v -0.219527 1.165253 -0.071329
v -0.175157 1.104800 0.127259
v -0.219527 1.165253 0.071329
v -0.066904 1.104800 0.205909
v -0.135675 1.165253 0.186741
v 0.066904 1.104800 0.205909
v 0.000000 1.165253 0.230824
v 0.175157 1.104800 0.127259
v 0.135675 1.165253 0.186741
v 0.216506 1.104800 -0.000000
v 0.219527 1.165253 0.071329
v 0.219527 1.165253 -0.071329
v 0.074164 1.228900 -0.228252
v 0.118956 1.277832 -0.192822
v 0.194163 1.228900 -0.141068
v -0.074164 1.228900 -0.228252
v 0.011521 1.277832 -0.227729
v -0.194163 1.228900 -0.141068
v -0.143177 1.277832 -0.177465
v -0.239998 1.228900 0.000000
v -0.209575 1.277832 -0.086075
v -0.194163 1.228900 0.141068
v -0.203044 1.277832 0.065973
v -0.074164 1.228900 0.228252
v -0.118956 1.277832 0.192821
v 0.074164 1.228900 0.228252
v -0.011521 1.277832 0.227729
v 0.194163 1.228900 0.141068
v 0.143177 1.277832 0.177465
v 0.239998 1.228900 -0.000000
v 0.209575 1.277832 0.086075
v 0.203044 1.277832 -0.065973
v 0.035621 0.883936 -0.025880
v 0.013606 0.883936 -0.041875
v -0.013606 0.883936 -0.041875
v -0.035621 0.883936 -0.025880
v -0.044030 0.883936 0.000000
v -0.035621 0.883936 0.025880
v -0.013606 0.883936 0.041875
v 0.013606 0.883936 0.041875
v 0.035621 0.883936 0.025880
v 0.044030 0.883936 -0.000000
v -0.135709 1.294143 -0.039084
v -0.050347 1.294143 -0.154953
v -0.000000 1.294143 0.000000
v -0.086817 1.294143 0.111388
v 0.050347 1.294143 0.154953
v 0.135709 1.294143 0.039084
v 0.086817 1.294143 -0.111388
v 0.147654 1.261495 -0.203228
v 0.109557 1.283417 -0.337183
v 0.269486 1.314352 -0.370916
v 0.286825 1.283417 -0.208390
v -0.000000 1.261495 -0.251203
v -0.109557 1.283417 -0.337183
v -0.000000 1.314352 -0.458477
v -0.147654 1.261495 -0.203228
v -0.286825 1.283417 -0.208390
v -0.269486 1.314352 -0.370916
v -0.238909 1.261495 -0.077626
v -0.354535 1.283417 0.000000
v -0.436038 1.314352 -0.141677
v -0.238909 1.261495 0.077626
v -0.286825 1.283417 0.208390
v -0.436038 1.314352 0.141677
v -0.147654 1.261495 0.203228
v -0.109557 1.283417 0.337183
v -0.269486 1.314352 0.370916
v 0.000000 1.261495 0.251203
v 0.109557 1.283417 0.337183
v 0.000000 1.314352 0.458477
v 0.147654 1.261495 0.203228
v 0.286825 1.283417 0.208390
v 0.269486 1.314352 0.370916
v 0.238909 1.261495 0.077626
v 0.354535 1.283417 -0.000000
v 0.436038 1.314352 0.141677
v 0.238909 1.261495 -0.077626
v 0.436038 1.314352 -0.141677
v 0.170640 1.352855 -0.525175
v 0.370916 1.397893 -0.510522
v 0.446740 1.352855 -0.324576
v -0.170640 1.352855 -0.525175
v -0.000000 1.397893 -0.631040
v -0.446740 1.352855 -0.324576
v -0.370916 1.397893 -0.510522
v -0.552201 1.352855 0.000000
v -0.600154 1.397893 -0.195002
v -0.446740 1.352855 0.324576
v -0.600154 1.397893 0.195002
v -0.170640 1.352855 0.525175
v -0.370916 1.397893 0.510522
v 0.170640 1.352855 0.525175
v 0.000000 1.397893 0.631040
v 0.446740 1.352855 0.324576
v 0.370916 1.397893 0.510522
v 0.552201 1.352855 -0.000000
v 0.600154 1.397893 0.195002
v 0.600154 1.397893 -0.195002
v 0.215018 1.448430 -0.661759
v 0.436038 1.503161 -0.600155
v 0.562925 1.448430 -0.408989
v -0.215018 1.448430 -0.661759
v -0.000000 1.503161 -0.741832
v -0.562926 1.448430 -0.408989
v -0.436038 1.503161 -0.600154
v -0.695814 1.448430 0.000000
v -0.705524 1.503161 -0.229239
v -0.562925 1.448430 0.408989
v -0.705524 1.503161 0.229239
v -0.215018 1.448430 0.661759
v -0.436038 1.503161 0.600154
v 0.215018 1.448430 0.661759
v 0.000000 1.503161 0.741832
v 0.562925 1.448430 0.408989
v 0.436038 1.503161 0.600154
v 0.695814 1.448430 -0.000000
v 0.705524 1.503161 0.229239
v 0.705524 1.503161 -0.229239
v 0.238350 1.560784 -0.733565
v 0.382306 1.605085 -0.619697
v 0.624008 1.560784 -0.453368
v -0.238350 1.560784 -0.733565
v 0.037028 1.605085 -0.731884
v -0.624008 1.560784 -0.453368
v -0.460147 1.605085 -0.570342
v -0.771316 1.560784 0.000000
v -0.673541 1.605085 -0.276632
v -0.624008 1.560784 0.453368
v -0.652549 1.605085 0.212026
v -0.238350 1.560784 0.733565
v -0.382306 1.605085 0.619697
v 0.238350 1.560784 0.733565
v -0.037028 1.605085 0.731884
v 0.624008 1.560784 0.453368
v 0.460147 1.605085 0.570342
v 0.771316 1.560784 -0.000000
v 0.673540 1.605085 0.276632
v 0.652549 1.605085 -0.212026
v 0.114479 1.248470 -0.083174
v 0.043727 1.248470 -0.134579
v -0.043727 1.248470 -0.134579
v -0.114479 1.248470 -0.083174
v -0.141504 1.248470 0.000000
v -0.114479 1.248470 0.083174
v -0.043727 1.248470 0.134579
v 0.043727 1.248470 0.134579
v 0.114479 1.248470 0.083174
v 0.141504 1.248470 -0.000000
v -0.436146 1.619852 -0.125611
v -0.161808 1.619852 -0.497994
v 0.208128 1.283417 -0.286464
v -0.000000 1.283417 -0.354089
v -0.208128 1.283417 -0.286464
v -0.336759 1.283417 -0.109420
v -0.336759 1.283417 0.109420
v -0.208128 1.283417 0.286464
v 0.000000 1.283417 0.354089
v 0.208128 1.283417 0.286464
v 0.336759 1.283417 0.109420
v 0.336759 1.283417 -0.109420
v 0.324167 1.352856 -0.446178
v -0.000000 1.352856 -0.551507
v -0.324168 1.352856 -0.446178
v -0.524514 1.352856 -0.170425
v -0.524514 1.352856 0.170425
v -0.324167 1.352856 0.446178
v 0.000000 1.352856 0.551507
v 0.324167 1.352856 0.446178
v 0.524514 1.352856 0.170425
v 0.524514 1.352856 -0.170425
v 0.408475 1.448430 -0.562217
v -0.000000 1.448430 -0.694939
v -0.408475 1.448430 -0.562217
v -0.660926 1.448430 -0.214748
v -0.660926 1.448430 0.214748
v -0.408475 1.448430 0.562217
v 0.000000 1.448430 0.694939
v 0.408475 1.448430 0.562217
v 0.660926 1.448430 0.214748
v 0.660926 1.448430 -0.214748
v 0.452798 1.560784 -0.623223
v -0.000000 1.560784 -0.770346
v -0.452798 1.560784 -0.623223
v -0.732642 1.560784 -0.238050
v -0.732642 1.560784 0.238050
v -0.452798 1.560784 0.623223
v 0.000000 1.560784 0.770346
v 0.452798 1.560784 0.623223
v 0.732642 1.560784 0.238050
v 0.732642 1.560784 -0.238050
v 0.095622 1.250029 -0.131612
v -0.000000 1.250029 -0.162681
v -0.095622 1.250029 -0.131612
v -0.154719 1.250029 -0.050271
v -0.154719 1.250029 0.050271
v -0.095622 1.250029 0.131612
v 0.000000 1.250029 0.162681
v 0.095622 1.250029 0.131612
v 0.154719 1.250029 0.050271
v 0.154719 1.250029 -0.050271
v -0.459477 1.619852 -0.380434
v -0.375511 1.619852 0.122011
v -0.148112 1.619852 0.577851
v 0.459477 1.619852 0.380434
v 0.375511 1.619852 -0.122011
v 0.148112 1.619852 -0.577851
v 0.064760 0.922536 -0.089135
v -0.000000 0.922536 -0.110176
v -0.064760 0.922536 -0.089135
v -0.104784 0.922536 -0.034046
v -0.104784 0.922536 0.034046
v -0.064760 0.922536 0.089135
v 0.000000 0.922536 0.110176
v 0.064760 0.922536 0.089135
v 0.104784 0.922536 0.034046
v 0.104784 0.922536 -0.034046
v 0.100866 0.999234 -0.138830
v -0.000000 0.999234 -0.171604
v -0.100866 0.999234 -0.138830
v -0.163205 0.999234 -0.053028
v -0.163205 0.999234 0.053029
v -0.100866 0.999234 0.138830
v 0.000000 0.999234 0.171604
v 0.100866 0.999234 0.138830
v 0.163205 0.999234 0.053028
v 0.163205 0.999234 -0.053029
v 0.127099 1.104800 -0.174937
v -0.000000 1.104800 -0.216233
v -0.127099 1.104800 -0.174937
v -0.205650 1.104800 -0.066820
v -0.205650 1.104800 0.066820
v -0.127099 1.104800 0.174937
v 0.000000 1.104800 0.216233
v 0.127099 1.104800 0.174936
v 0.205650 1.104800 0.066820
v 0.205650 1.104800 -0.066820
v 0.140890 1.228900 -0.193919
v -0.000000 1.228900 -0.239697
v -0.140890 1.228900 -0.193919
v -0.227965 1.228900 -0.074070
v -0.227965 1.228900 0.074070
v -0.140890 1.228900 0.193919
v 0.000000 1.228900 0.239697
v 0.140890 1.228900 0.193919
v 0.227965 1.228900 0.074070
v 0.227965 1.228900 -0.074070
v 0.029753 0.885658 -0.040952
v -0.000000 0.885658 -0.050619
v -0.029753 0.885658 -0.040952
v -0.048141 0.885658 -0.015642
v -0.048141 0.885658 0.015642
v -0.029753 0.885658 0.040952
v 0.000000 0.885658 0.050619
v 0.029753 0.885658 0.040952
v 0.048141 0.885658 0.015642
v 0.048141 0.885658 -0.015642
v -0.142968 1.294143 -0.118374
v -0.116842 1.294143 0.037964
v -0.046086 1.294143 0.179801
v 0.142968 1.294143 0.118374
v 0.116842 1.294143 -0.037964
v 0.046086 1.294143 -0.179801
vt 0.000000 0.100000
vt 1.000000 0.100000
vt 0.100000 0.100000
vt 0.200000 0.100000
vt 0.300000 0.100000
vt 0.400000 0.100000
vt 0.500000 0.100000
vt 0.600000 0.100000
vt 0.700000 0.100000
vt 0.800000 0.100000
vt 0.900000 0.100000
vt 0.000000 0.200000
vt 1.000000 0.200000
vt 0.100000 0.200000
vt 0.200000 0.200000
vt 0.300000 0.200000
vt 0.400000 0.200000
vt 0.500000 0.200000
vt 0.600000 0.200000
vt 0.700000 0.200000
vt 0.800000 0.200000
vt 0.900000 0.200000
vt 0.000000 0.300000
vt 1.000000 0.300000
vt 0.100000 0.300000
vt 0.200000 0.300000
vt 0.300000 0.300000
vt 0.400000 0.300000
vt 0.500000 0.300000
vt 0.600000 0.300000
vt 0.700000 0.300000
vt 0.800000 0.300000
vt 0.900000 0.300000
vt 0.000000 0.400000
vt 1.000000 0.400000
vt 0.100000 0.400000
vt 0.200000 0.400000
vt 0.300000 0.400000
vt 0.400000 0.400000
vt 0.500000 0.400000
vt 0.600000 0.400000
vt 0.700000 0.400000
vt 0.800000 0.400000
vt 0.900000 0.400000
vt 0.000000 0.500000
vt 1.000000 0.500000
vt 0.102778 0.477778
vt 0.200000 0.487500
vt 0.297222 0.477778
vt 0.382812 0.487500
vt 0.517188 0.487500
vt 0.602778 0.477778
vt 0.700000 0.487500
vt 0.797222 0.477778
vt 0.900000 0.500000
vt 0.050000 0.000000
vt 0.950000 0.000000
vt 0.850000 0.000000
vt 0.750000 0.000000
vt 0.650000 0.000000
vt 0.550000 0.000000
vt 0.450000 0.000000
vt 0.350000 0.000000
vt 0.250000 0.000000
vt 0.150000 0.000000
vt 0.637500 0.500000
vt 0.262500 0.500000
vt 0.000000 0.100000
vt 1.000000 0.100000
vt 0.100000 0.100000
vt 0.200000 0.100000
vt 0.300000 0.100000
vt 0.400000 0.100000
vt 0.500000 0.100000
vt 0.600000 0.100000
vt 0.700000 0.100000
vt 0.800000 0.100000
vt 0.900000 0.100000
vt 0.000000 0.200000
vt 1.000000 0.200000
vt 0.100000 0.200000
vt 0.200000 0.200000
vt 0.300000 0.200000
vt 0.400000 0.200000
vt 0.500000 0.200000
vt 0.600000 0.200000
vt 0.700000 0.200000
vt 0.800000 0.200000
vt 0.900000 0.200000
vt 0.000000 0.300000
vt 1.000000 0.300000
vt 0.100000 0.300000
vt 0.200000 0.300000
vt 0.300000 0.300000
vt 0.400000 0.300000
vt 0.500000 0.300000
vt 0.600000 0.300000
vt 0.700000 0.300000
vt 0.800000 0.300000
vt 0.900000 0.300000
vt 0.000000 0.400000
vt 1.000000 0.400000
vt 0.100000 0.400000
vt 0.200000 0.400000
vt 0.300000 0.400000
vt 0.400000 0.400000
vt 0.500000 0.400000
vt 0.600000 0.400000
vt 0.700000 0.400000
vt 0.800000 0.400000
vt 0.900000 0.400000
vt 0.000000 0.500000
vt 1.000000 0.500000
vt 0.102778 0.477778
vt 0.200000 0.487500
vt 0.297222 0.477778
vt 0.382812 0.487500
vt 0.517188 0.487500
vt 0.602778 0.477778
vt 0.700000 0.487500
vt 0.797222 0.477778
vt 0.900000 0.500000
vt 0.050000 0.000000
vt 0.950000 0.000000
vt 0.850000 0.000000
vt 0.750000 0.000000
vt 0.650000 0.000000
vt 0.550000 0.000000
vt 0.450000 0.000000
vt 0.350000 0.000000
vt 0.250000 0.000000
vt 0.150000 0.000000
vt 0.637500 0.500000
vt 0.262500 0.500000
vt 0.050000 0.150000
vt 0.150000 0.150000
vt 0.250000 0.150000
vt 0.350000 0.150000
vt 0.450000 0.150000
vt 0.550000 0.150000
vt 0.650000 0.150000
vt 0.750000 0.150000
vt 0.850000 0.150000
vt 0.950000 0.150000
vt 0.050000 0.250000
vt 0.150000 0.250000
vt 0.250000 0.250000
vt 0.350000 0.250000
vt 0.450000 0.250000
vt 0.550000 0.250000
vt 0.650000 0.250000
vt 0.750000 0.250000
vt 0.850000 0.250000
vt 0.950000 0.250000
vt 0.050000 0.350000
vt 0.150000 0.350000
vt 0.250000 0.350000
vt 0.350000 0.350000
vt 0.450000 0.350000
vt 0.550000 0.350000
vt 0.650000 0.350000
vt 0.750000 0.350000
vt 0.850000 0.350000
vt 0.950000 0.350000
vt 0.050000 0.450000
vt 0.150000 0.450000
vt 0.250000 0.450000
vt 0.350000 0.450000
vt 0.450000 0.450000
vt 0.550000 0.450000
vt 0.650000 0.450000
vt 0.750000 0.450000
vt 0.850000 0.450000
vt 0.950000 0.450000
vt 0.050000 0.066667
vt 0.150000 0.066667
vt 0.250000 0.066667
vt 0.350000 0.066667
vt 0.450000 0.066667
vt 0.550000 0.066667
vt 0.650000 0.066667
vt 0.750000 0.066667
vt 0.850000 0.066667
vt 0.950000 0.066667
vt 0.275000 0.500000
vt 0.450000 0.500000
vt 0.625000 0.500000
vt 0.775000 0.500000
vt 0.450000 0.500000
vt 0.125000 0.500000
vt 0.050000 0.150000
vt 0.150000 0.150000
vt 0.250000 0.150000
vt 0.350000 0.150000
vt 0.450000 0.150000
vt 0.550000 0.150000
vt 0.650000 0.150000
vt 0.750000 0.150000
vt 0.850000 0.150000
vt 0.950000 0.150000
vt 0.050000 0.250000
vt 0.150000 0.250000
vt 0.250000 0.250000
vt 0.350000 0.250000
vt 0.450000 0.250000
vt 0.550000 0.250000
vt 0.650000 0.250000
vt 0.750000 0.250000
vt 0.850000 0.250000
vt 0.950000 0.250000
vt 0.050000 0.350000
vt 0.150000 0.350000
vt 0.250000 0.350000
vt 0.350000 0.350000
vt 0.450000 0.350000
vt 0.550000 0.350000
vt 0.650000 0.350000
vt 0.750000 0.350000
vt 0.850000 0.350000
vt 0.950000 0.350000
vt 0.050000 0.450000
vt 0.150000 0.450000
vt 0.250000 0.450000
vt 0.350000 0.450000
vt 0.450000 0.450000
vt 0.550000 0.450000
vt 0.650000 0.450000
vt 0.750000 0.450000
vt 0.850000 0.450000
vt 0.950000 0.450000
vt 0.050000 0.066667
vt 0.150000 0.066667
vt 0.250000 0.066667
vt 0.350000 0.066667
vt 0.450000 0.066667
vt 0.550000 0.066667
vt 0.650000 0.066667
vt 0.750000 0.066667
vt 0.850000 0.066667
vt 0.950000 0.066667
vt 0.275000 0.500000
vt 0.450000 0.500000
vt 0.625000 0.500000
vt 0.775000 0.500000
vt 0.450000 0.500000
vt 0.125000 0.500000
vt 0.050000 0.104167
vt 0.100000 0.150000
vt 0.050000 0.200000
vt 0.000000 0.150000
vt 1.000000 0.150000
vt 0.150000 0.104167
vt 0.200000 0.150000
vt 0.150000 0.200000
vt 0.250000 0.104167
vt 0.300000 0.150000
vt 0.250000 0.200000
vt 0.350000 0.104167
vt 0.400000 0.150000
vt 0.350000 0.200000
vt 0.450000 0.104167
vt 0.500000 0.150000
vt 0.450000 0.200000
vt 0.550000 0.104167
vt 0.600000 0.150000
vt 0.550000 0.200000
vt 0.650000 0.104167
vt 0.700000 0.150000
vt 0.650000 0.200000
vt 0.750000 0.104167
vt 0.800000 0.150000
vt 0.750000 0.200000
vt 0.850000 0.104167
vt 0.900000 0.150000
vt 0.850000 0.200000
vt 0.950000 0.104167
vt 0.950000 0.200000
vt 0.100000 0.250000
vt 0.050000 0.300000
vt 0.000000 0.250000
vt 1.000000 0.250000
vt 0.200000 0.250000
vt 0.150000 0.300000
vt 0.300000 0.250000
vt 0.250000 0.300000
vt 0.400000 0.250000
vt 0.350000 0.300000
vt 0.500000 0.250000
vt 0.450000 0.300000
vt 0.600000 0.250000
vt 0.550000 0.300000
vt 0.700000 0.250000
vt 0.650000 0.300000
vt 0.800000 0.250000
vt 0.750000 0.300000
vt 0.900000 0.250000
vt 0.850000 0.300000
vt 0.950000 0.300000
vt 0.100000 0.350000
vt 0.050000 0.400000
vt 0.000000 0.350000
vt 1.000000 0.350000
vt 0.200000 0.350000
vt 0.150000 0.400000
vt 0.300000 0.350000
vt 0.250000 0.400000
vt 0.400000 0.350000
vt 0.350000 0.400000
vt 0.500000 0.350000
vt 0.450000 0.400000
vt 0.600000 0.350000
vt 0.550000 0.400000
vt 0.700000 0.350000
vt 0.650000 0.400000
vt 0.800000 0.350000
vt 0.750000 0.400000
vt 0.900000 0.350000
vt 0.850000 0.400000
vt 0.950000 0.400000
vt 0.100000 0.450000
vt 0.068750 0.487500
vt 0.000000 0.450000
vt 1.000000 0.450000
vt 0.200000 0.450000
vt 0.143750 0.487500
vt 0.300000 0.450000
vt 0.256250 0.487500
vt 0.400000 0.450000
vt 0.331250 0.487500
vt 0.500000 0.450000
vt 0.450000 0.487500
vt 0.600000 0.450000
vt 0.568750 0.487500
vt 0.700000 0.450000
vt 0.643750 0.487500
vt 0.800000 0.450000
vt 0.756250 0.487500
vt 0.900000 0.450000
vt 0.831250 0.487500
vt 0.950000 0.500000
vt 0.450000 0.500000
vt 0.025000 0.050000
vt 0.975000 0.050000
vt 0.075000 0.050000
vt 0.125000 0.050000
vt 0.175000 0.050000
vt 0.225000 0.050000
vt 0.275000 0.050000
vt 0.325000 0.050000
vt 0.375000 0.050000
vt 0.425000 0.050000
vt 0.475000 0.050000
vt 0.525000 0.050000
vt 0.575000 0.050000
vt 0.625000 0.050000
vt 0.675000 0.050000
vt 0.725000 0.050000
vt 0.775000 0.050000
vt 0.825000 0.050000
vt 0.875000 0.050000
vt 0.925000 0.050000
vt 0.331250 0.500000
vt 0.200000 0.500000
vt 0.450000 0.500000
vt 0.568750 0.500000
vt 0.700000 0.500000
vt 0.706250 0.500000
vt 0.193750 0.500000
vt 0.050000 0.104167
vt 0.100000 0.150000
vt 0.050000 0.200000
vt 0.000000 0.150000
vt 1.000000 0.150000
vt 0.150000 0.104167
vt 0.200000 0.150000
vt 0.150000 0.200000
vt 0.250000 0.104167
vt 0.300000 0.150000
vt 0.250000 0.200000
vt 0.350000 0.104167
vt 0.400000 0.150000
vt 0.350000 0.200000
vt 0.450000 0.104167
vt 0.500000 0.150000
vt 0.450000 0.200000
vt 0.550000 0.104167
vt 0.600000 0.150000
vt 0.550000 0.200000
vt 0.650000 0.104167
vt 0.700000 0.150000
vt 0.650000 0.200000
vt 0.750000 0.104167
vt 0.800000 0.150000
vt 0.750000 0.200000
vt 0.850000 0.104167
vt 0.900000 0.150000
vt 0.850000 0.200000
vt 0.950000 0.104167
vt 0.950000 0.200000
vt 0.100000 0.250000
vt 0.050000 0.300000
vt 0.000000 0.250000
vt 1.000000 0.250000
vt 0.200000 0.250000
vt 0.150000 0.300000
vt 0.300000 0.250000
vt 0.250000 0.300000
vt 0.400000 0.250000
vt 0.350000 0.300000
vt 0.500000 0.250000
vt 0.450000 0.300000
vt 0.600000 0.250000
vt 0.550000 0.300000
vt 0.700000 0.250000
vt 0.650000 0.300000
vt 0.800000 0.250000
vt 0.750000 0.300000
vt 0.900000 0.250000
vt 0.850000 0.300000
vt 0.950000 0.300000
vt 0.100000 0.350000
vt 0.050000 0.400000
vt 0.000000 0.350000
vt 1.000000 0.350000
vt 0.200000 0.350000
vt 0.150000 0.400000
vt 0.300000 0.350000
vt 0.250000 0.400000
vt 0.400000 0.350000
vt 0.350000 0.400000
vt 0.500000 0.350000
vt 0.450000 0.400000
vt 0.600000 0.350000
vt 0.550000 0.400000
vt 0.700000 0.350000
vt 0.650000 0.400000
vt 0.800000 0.350000
vt 0.750000 0.400000
vt 0.900000 0.350000
vt 0.850000 0.400000
vt 0.950000 0.400000
vt 0.100000 0.450000
vt 0.068750 0.487500
vt 0.000000 0.450000
vt 1.000000 0.450000
vt 0.200000 0.450000
vt 0.143750 0.487500
vt 0.300000 0.450000
vt 0.256250 0.487500
vt 0.400000 0.450000
vt 0.331250 0.487500
vt 0.500000 0.450000
vt 0.450000 0.487500
vt 0.600000 0.450000
vt 0.568750 0.487500
vt 0.700000 0.450000
vt 0.643750 0.487500
vt 0.800000 0.450000
vt 0.756250 0.487500
vt 0.900000 0.450000
vt 0.831250 0.487500
vt 0.950000 0.500000
vt 0.450000 0.500000
vt 0.025000 0.050000
vt 0.975000 0.050000
vt 0.075000 0.050000
vt 0.125000 0.050000
vt 0.175000 0.050000
vt 0.225000 0.050000
vt 0.275000 0.050000
vt 0.325000 0.050000
vt 0.375000 0.050000
vt 0.425000 0.050000
vt 0.475000 0.050000
vt 0.525000 0.050000
vt 0.575000 0.050000
vt 0.625000 0.050000
vt 0.675000 0.050000
vt 0.725000 0.050000
vt 0.775000 0.050000
vt 0.825000 0.050000
vt 0.875000 0.050000
vt 0.925000 0.050000
vt 0.331250 0.500000
vt 0.200000 0.500000
vt 0.450000 0.500000
vt 0.568750 0.500000
vt 0.700000 0.500000
vt 0.706250 0.500000
vt 0.193750 0.500000
vn 0.143669 -0.984106 -0.104382
vn 0.105141 -0.983872 -0.144715
vn 0.149432 -0.967144 -0.205676
vn 0.205922 -0.967064 -0.149611
vn 0.054877 -0.984106 -0.168893
vn 0.078655 -0.967064 -0.242076
vn 0.105518 -0.939895 -0.324752
vn 0.200795 -0.939840 -0.276371
vn 0.276251 -0.939895 -0.200708
vn -0.000000 -0.983872 -0.178876
vn -0.000000 -0.967144 -0.254229
vn -0.054877 -0.984106 -0.168893
vn -0.078655 -0.967064 -0.242075
vn -0.105519 -0.939895 -0.324751
vn -0.000000 -0.939841 -0.341613
vn -0.105141 -0.983872 -0.144715
vn -0.149432 -0.967144 -0.205675
vn -0.143669 -0.984106 -0.104382
vn -0.205922 -0.967064 -0.149611
vn -0.276251 -0.939895 -0.200707
vn -0.200796 -0.939841 -0.276371
vn -0.170121 -0.983872 -0.055276
vn -0.241786 -0.967144 -0.078561
vn -0.177584 -0.984106 0.000000
vn -0.254533 -0.967064 0.000000
vn -0.341465 -0.939895 0.000000
vn -0.324894 -0.939840 -0.105564
vn -0.170121 -0.983872 0.055276
vn -0.241786 -0.967144 0.078561
vn -0.143669 -0.984106 0.104381
vn -0.205922 -0.967064 0.149611
vn -0.276251 -0.939895 0.200708
vn -0.324894 -0.939840 0.105564
vn -0.105141 -0.983872 0.144714
vn -0.149432 -0.967144 0.205676
vn -0.054876 -0.984106 0.168892
vn -0.078655 -0.967064 0.242076
vn -0.105518 -0.939895 0.324752
vn -0.200795 -0.939840 0.276371
vn 0.000000 -0.983872 0.178877
vn 0.000000 -0.967144 0.254229
vn 0.054877 -0.984105 0.168894
vn 0.078655 -0.967064 0.242076
vn 0.105519 -0.939895 0.324752
vn 0.000000 -0.939841 0.341614
vn 0.105141 -0.983871 0.144715
vn 0.149432 -0.967144 0.205676
vn 0.143669 -0.984106 0.104381
vn 0.205922 -0.967064 0.149611
vn 0.276251 -0.939895 0.200708
vn 0.200795 -0.939841 0.276371
vn 0.170121 -0.983872 0.055276
vn 0.241786 -0.967144 0.078561
vn 0.177584 -0.984106 0.000000
vn 0.254533 -0.967064 0.000000
vn 0.341465 -0.939895 0.000000
vn 0.324894 -0.939840 0.105564
vn 0.170121 -0.983872 -0.055276
vn 0.241786 -0.967144 -0.078561
vn 0.324894 -0.939840 -0.105564
vn 0.261514 -0.895573 -0.359944
vn 0.359783 -0.895672 -0.261398
vn 0.137425 -0.895672 -0.422950
vn 0.174014 -0.826373 -0.535562
vn 0.331121 -0.826227 -0.455750
vn 0.455576 -0.826373 -0.330996
vn -0.000000 -0.895573 -0.444914
vn -0.137425 -0.895672 -0.422950
vn -0.174014 -0.826373 -0.535562
vn -0.000000 -0.826227 -0.563338
vn -0.261514 -0.895573 -0.359944
vn -0.359783 -0.895672 -0.261397
vn -0.455576 -0.826373 -0.330996
vn -0.331121 -0.826227 -0.455750
vn -0.423139 -0.895573 -0.137486
vn -0.444716 -0.895672 0.000000
vn -0.563123 -0.826373 0.000000
vn -0.535765 -0.826227 -0.174081
vn -0.423139 -0.895573 0.137486
vn -0.359783 -0.895672 0.261397
vn -0.455576 -0.826373 0.330996
vn -0.535765 -0.826227 0.174081
vn -0.261514 -0.895573 0.359944
vn -0.137425 -0.895672 0.422950
vn -0.174014 -0.826373 0.535562
vn -0.331121 -0.826227 0.455750
vn 0.000000 -0.895573 0.444915
vn 0.137425 -0.895672 0.422950
vn 0.174014 -0.826373 0.535562
vn 0.000000 -0.826227 0.563337
vn 0.261514 -0.895573 0.359944
vn 0.359783 -0.895672 0.261397
vn 0.455576 -0.826373 0.330996
vn 0.331121 -0.826227 0.455750
vn 0.423139 -0.895573 0.137486
vn 0.444716 -0.895672 0.000000
vn 0.563123 -0.826373 -0.000000
vn 0.535765 -0.826227 0.174081
vn 0.423139 -0.895573 -0.137486
vn 0.535765 -0.826227 -0.174081
vn 0.409404 -0.717537 -0.563497
vn 0.563340 -0.717725 -0.409291
vn 0.215177 -0.717724 -0.662247
vn 0.258243 -0.549197 -0.794791
vn 0.491279 -0.549013 -0.676187
vn 0.676090 -0.549197 -0.491208
vn -0.000000 -0.717536 -0.696521
vn -0.215177 -0.717724 -0.662247
vn -0.258244 -0.549197 -0.794791
vn -0.000000 -0.549013 -0.835814
vn -0.409405 -0.717537 -0.563497
vn -0.563340 -0.717725 -0.409290
vn -0.676090 -0.549197 -0.491208
vn -0.491279 -0.549013 -0.676187
vn -0.662430 -0.717538 -0.215236
vn -0.696327 -0.717725 -0.000000
vn -0.835693 -0.549197 0.000000
vn -0.794906 -0.549014 -0.258280
vn -0.662430 -0.717537 0.215237
vn -0.563340 -0.717725 0.409291
vn -0.676090 -0.549197 0.491208
vn -0.794906 -0.549013 0.258281
vn -0.409404 -0.717537 0.563497
vn -0.215177 -0.717725 0.662246
vn -0.258244 -0.549197 0.794791
vn -0.491279 -0.549013 0.676187
vn -0.000000 -0.717537 0.696520
vn 0.215177 -0.717725 0.662246
vn 0.258244 -0.549197 0.794791
vn 0.000000 -0.549013 0.835814
vn 0.409404 -0.717537 0.563497
vn 0.563340 -0.717725 0.409291
vn 0.676090 -0.549197 0.491208
vn 0.491279 -0.549013 0.676187
vn 0.662430 -0.717537 0.215236
vn 0.696327 -0.717725 0.000000
vn 0.835693 -0.549197 0.000000
vn 0.794906 -0.549013 0.258280
vn 0.662430 -0.717537 -0.215236
vn 0.794906 -0.549014 -0.258280
vn 0.606664 0.246528 -0.755767
vn 0.752978 0.405040 -0.518620
vn 0.312576 -0.006190 -0.949873
vn 0.120795 0.917540 -0.378854
vn 0.133140 0.974598 -0.180093
vn 0.152383 0.982709 -0.105175
vn -0.036073 0.146163 -0.988603
vn -0.302578 0.203086 -0.931237
vn -0.075582 0.969627 -0.232616
vn 0.000856 0.965516 -0.260343
vn -0.551902 0.146163 -0.821000
vn -0.811201 -0.006190 -0.584735
vn -0.320410 0.917539 -0.235498
vn -0.153719 0.965516 -0.210120
vn -0.935030 0.246529 -0.254840
vn -0.914009 0.405040 0.023017
vn -0.185100 0.982710 0.004481
vn -0.213568 0.974598 -0.067440
vn -0.845705 0.457467 0.274787
vn -0.752978 0.405039 0.518620
vn -0.152383 0.982709 0.105175
vn -0.161978 0.985390 0.052630
vn -0.606663 0.246528 0.755767
vn -0.312576 -0.006191 0.949873
vn -0.120795 0.917539 0.378855
vn -0.133140 0.974598 0.180093
vn 0.036073 0.146163 0.988603
vn 0.302578 0.203085 0.931238
vn 0.075582 0.969627 0.232616
vn -0.000856 0.965516 0.260344
vn 0.551902 0.146164 0.821000
vn 0.811201 -0.006189 0.584735
vn 0.320410 0.917539 0.235497
vn 0.153719 0.965516 0.210119
vn 0.935030 0.246528 0.254840
vn 0.914009 0.405040 -0.023017
vn 0.185100 0.982709 -0.004480
vn 0.213568 0.974598 0.067440
vn 0.845704 0.457468 -0.274786
vn 0.161978 0.985390 -0.052630
vn 0.058284 -0.995072 -0.080220
vn 0.025151 -0.996682 -0.077407
vn 0.065847 -0.996682 -0.047841
vn -0.000000 -1.000000 -0.000000
vn -0.000000 -0.995072 -0.099158
vn -0.025151 -0.996682 -0.077407
vn -0.058284 -0.995072 -0.080220
vn -0.065847 -0.996682 -0.047840
vn -0.094305 -0.995072 -0.030641
vn -0.081391 -0.996682 0.000000
vn -0.094305 -0.995072 0.030641
vn -0.065847 -0.996682 0.047839
vn -0.058284 -0.995072 0.080219
vn -0.025151 -0.996682 0.077407
vn 0.000000 -0.995072 0.099157
vn 0.025151 -0.996682 0.077407
vn 0.058284 -0.995072 0.080220
vn 0.065847 -0.996682 0.047840
vn 0.094305 -0.995072 0.030641
vn 0.081391 -0.996682 -0.000001
vn 0.094305 -0.995072 -0.030642
vn -0.024334 0.999701 0.002291
vn -0.040099 0.998770 -0.029161
vn -0.000000 1.000000 -0.000000
vn -0.009732 0.999504 -0.029950
vn 0.000000 1.000000 -0.000000
vn 0.000000 1.000000 0.000000
vn -0.021792 0.999738 0.007081
vn -0.021033 0.999701 0.012450
vn 0.009732 0.999504 0.029950
vn -0.015300 0.998770 0.047161
vn 0.024334 0.999701 -0.002290
vn 0.040099 0.998770 0.029161
vn 0.021792 0.999738 -0.007081
vn 0.021033 0.999701 -0.012451
vn 0.015300 0.998770 -0.047161
vn 0.435576 -0.842688 -0.316465
vn 0.318136 -0.840865 -0.437877
vn 0.400265 -0.732311 -0.550917
vn 0.551283 -0.731889 -0.400530
vn 0.166375 -0.842689 -0.512050
vn 0.210571 -0.731890 -0.648072
vn 0.243730 -0.614745 -0.750123
vn 0.463731 -0.614462 -0.638271
vn 0.638093 -0.614745 -0.463601
vn -0.000000 -0.840865 -0.541246
vn -0.000000 -0.732310 -0.680971
vn -0.166375 -0.842688 -0.512051
vn -0.210572 -0.731889 -0.648072
vn -0.243730 -0.614745 -0.750123
vn -0.000000 -0.614462 -0.788946
vn -0.318136 -0.840865 -0.437876
vn -0.400265 -0.732311 -0.550917
vn -0.435576 -0.842689 -0.316463
vn -0.551283 -0.731889 -0.400530
vn -0.638093 -0.614745 -0.463602
vn -0.463731 -0.614462 -0.638271
vn -0.514755 -0.840865 -0.167254
vn -0.647642 -0.732311 -0.210431
vn -0.538401 -0.842689 -0.000000
vn -0.681424 -0.731889 0.000000
vn -0.788726 -0.614745 0.000000
vn -0.750333 -0.614462 -0.243798
vn -0.514755 -0.840865 0.167255
vn -0.647642 -0.732310 0.210432
vn -0.435576 -0.842688 0.316465
vn -0.551283 -0.731889 0.400531
vn -0.638093 -0.614745 0.463602
vn -0.750332 -0.614462 0.243798
vn -0.318136 -0.840865 0.437877
vn -0.400265 -0.732311 0.550917
vn -0.166375 -0.842689 0.512050
vn -0.210571 -0.731889 0.648072
vn -0.243730 -0.614745 0.750123
vn -0.463731 -0.614462 0.638271
vn -0.000000 -0.840865 0.541245
vn 0.000000 -0.732310 0.680971
vn 0.166375 -0.842688 0.512051
vn 0.210572 -0.731889 0.648072
vn 0.243730 -0.614745 0.750123
vn 0.000000 -0.614462 0.788946
vn 0.318136 -0.840865 0.437877
vn 0.400265 -0.732311 0.550917
vn 0.435576 -0.842688 0.316465
vn 0.551283 -0.731889 0.400531
vn 0.638093 -0.614745 0.463602
vn 0.463731 -0.614462 0.638271
vn 0.514755 -0.840865 0.167253
vn 0.647642 -0.732310 0.210432
vn 0.538401 -0.842688 -0.000001
vn 0.681424 -0.731889 0.000000
vn 0.788726 -0.614745 0.000001
vn 0.750332 -0.614462 0.243798
vn 0.514755 -0.840865 -0.167254
vn 0.647642 -0.732310 -0.210432
vn 0.750333 -0.614462 -0.243798
vn 0.510566 -0.495465 -0.702735
vn 0.702587 -0.495785 -0.510459
vn 0.268364 -0.495785 -0.825941
vn 0.285264 -0.384477 -0.877953
vn 0.542679 -0.384175 -0.746934
vn 0.746831 -0.384477 -0.542605
vn -0.000000 -0.495465 -0.868628
vn -0.268364 -0.495785 -0.825941
vn -0.285264 -0.384477 -0.877953
vn 0.000000 -0.384175 -0.923260
vn -0.510566 -0.495465 -0.702735
vn -0.702587 -0.495785 -0.510460
vn -0.746832 -0.384477 -0.542605
vn -0.542679 -0.384175 -0.746933
vn -0.826114 -0.495465 -0.268421
vn -0.868445 -0.495785 0.000000
vn -0.923135 -0.384477 -0.000000
vn -0.878073 -0.384175 -0.285303
vn -0.826114 -0.495465 0.268421
vn -0.702587 -0.495785 0.510460
vn -0.746831 -0.384477 0.542605
vn -0.878073 -0.384175 0.285303
vn -0.510567 -0.495465 0.702735
vn -0.268364 -0.495785 0.825941
vn -0.285264 -0.384477 0.877953
vn -0.542679 -0.384175 0.746933
vn 0.000000 -0.495465 0.868628
vn 0.268364 -0.495785 0.825941
vn 0.285264 -0.384477 0.877953
vn 0.000000 -0.384175 0.923260
vn 0.510566 -0.495465 0.702735
vn 0.702587 -0.495785 0.510460
vn 0.746831 -0.384477 0.542605
vn 0.542679 -0.384174 0.746934
vn 0.826114 -0.495465 0.268421
vn 0.868445 -0.495785 -0.000000
vn 0.923135 -0.384477 -0.000000
vn 0.878073 -0.384175 0.285303
vn 0.826114 -0.495465 -0.268421
vn 0.878073 -0.384175 -0.285303
vn 0.564131 -0.280832 -0.776460
vn 0.776400 -0.281084 -0.564088
vn 0.296558 -0.281084 -0.912713
vn 0.303750 -0.183840 -0.934847
vn 0.577786 -0.183663 -0.795255
vn 0.795228 -0.183840 -0.577767
vn -0.000000 -0.280832 -0.959757
vn -0.296558 -0.281084 -0.912713
vn -0.303750 -0.183840 -0.934847
vn -0.000000 -0.183663 -0.982989
vn -0.564131 -0.280832 -0.776460
vn -0.776400 -0.281084 -0.564088
vn -0.795228 -0.183840 -0.577767
vn -0.577787 -0.183663 -0.795255
vn -0.912783 -0.280832 -0.296581
vn -0.959683 -0.281084 -0.000000
vn -0.982956 -0.183840 0.000000
vn -0.934878 -0.183663 -0.303760
vn -0.912783 -0.280832 0.296581
vn -0.776400 -0.281084 0.564088
vn -0.795228 -0.183840 0.577767
vn -0.934878 -0.183663 0.303760
vn -0.564131 -0.280832 0.776460
vn -0.296558 -0.281084 0.912713
vn -0.303750 -0.183840 0.934847
vn -0.577786 -0.183663 0.795255
vn 0.000000 -0.280832 0.959757
vn 0.296558 -0.281083 0.912713
vn 0.303750 -0.183840 0.934847
vn 0.000000 -0.183663 0.982989
vn 0.564131 -0.280832 0.776460
vn 0.776400 -0.281084 0.564088
vn 0.795228 -0.183840 0.577767
vn 0.577787 -0.183663 0.795255
vn 0.912783 -0.280832 0.296581
vn 0.959683 -0.281084 0.000000
vn 0.982956 -0.183840 0.000000
vn 0.934878 -0.183663 0.303760
vn 0.912783 -0.280832 -0.296581
vn 0.934878 -0.183663 -0.303760
vn 0.610149 0.060630 -0.789963
vn 0.812808 0.122759 -0.569450
vn 0.310261 -0.000748 -0.950651
vn 0.261499 0.525861 -0.809375
vn 0.380288 0.789559 -0.481641
vn 0.453703 0.836992 -0.305937
vn -0.021008 0.035544 -0.999147
vn -0.308458 0.060124 -0.949336
vn -0.203739 0.751868 -0.627045
vn -0.014911 0.736178 -0.676624
vn -0.570289 0.035544 -0.820675
vn -0.809785 -0.000748 -0.586726
vn -0.687296 0.525861 -0.501093
vn -0.385646 0.736178 -0.556164
vn -0.957950 0.060630 -0.280457
vn -0.992290 0.122759 0.017062
vn -0.546879 0.836992 0.019171
vn -0.590761 0.789559 -0.166128
vn -0.940949 0.145404 0.305733
vn -0.812808 0.122759 0.569450
vn -0.453703 0.836992 0.305938
vn -0.490828 0.856536 0.159479
vn -0.610149 0.060630 0.789963
vn -0.310261 -0.000748 0.950651
vn -0.261499 0.525862 0.809375
vn -0.380288 0.789559 0.481641
vn 0.021008 0.035544 0.999147
vn 0.308458 0.060124 0.949336
vn 0.203739 0.751867 0.627046
vn 0.014911 0.736178 0.676624
vn 0.570289 0.035544 0.820675
vn 0.809786 -0.000748 0.586726
vn 0.687296 0.525861 0.501094
vn 0.385646 0.736178 0.556165
vn 0.957950 0.060630 0.280457
vn 0.992290 0.122759 -0.017062
vn 0.546879 0.836992 -0.019171
vn 0.590761 0.789559 0.166128
vn 0.940949 0.145404 -0.305733
vn 0.490828 0.856536 -0.159479
vn 0.196126 -0.942690 -0.269945
vn 0.085681 -0.960792 -0.263702
vn 0.224317 -0.960792 -0.162976
vn 0.000000 -1.000000 0.000000
vn -0.000000 -0.942690 -0.333669
vn -0.085681 -0.960792 -0.263701
vn -0.196126 -0.942691 -0.269943
vn -0.224317 -0.960792 -0.162975
vn -0.317338 -0.942690 -0.103109
vn -0.277271 -0.960792 -0.000000
vn -0.317338 -0.942690 0.103108
vn -0.224317 -0.960792 0.162976
vn -0.196126 -0.942690 0.269945
vn -0.085681 -0.960792 0.263701
vn 0.000000 -0.942690 0.333668
vn 0.085681 -0.960792 0.263701
vn 0.196126 -0.942690 0.269944
vn 0.224317 -0.960792 0.162977
vn 0.317338 -0.942690 0.103111
vn 0.277271 -0.960792 0.000001
vn 0.317338 -0.942690 -0.103108
vn -0.086041 0.996259 0.008114
vn -0.138212 0.985276 -0.100645
vn 0.000000 1.000000 -0.000000
vn -0.034324 0.993812 -0.105638
vn -0.000000 1.000000 -0.000000
vn -0.000000 1.000000 -0.000000
vn -0.077097 0.996709 0.025050
vn -0.074378 0.996259 0.044010
vn 0.034324 0.993812 0.105638
vn -0.052658 0.985276 0.162662
vn 0.086041 0.996259 -0.008114
vn 0.138212 0.985276 0.100645
vn 0.077097 0.996709 -0.025050
vn 0.074378 0.996259 -0.044009
vn 0.052658 0.985276 -0.162662
s 1
g light pSphere4
usemtl initialShadingGroup
f 217/246/217 435/492/218 537/380/219 438/495/220
f 435/492/218 218/248/221 436/493/222 537/380/219
f 537/380/219 436/493/222 228/259/223 437/494/224
f 438/495/220 537/380/219 437/494/224 227/257/225
f 218/248/221 439/497/226 538/381/227 436/493/222
f 439/497/226 219/249/228 440/498/229 538/381/227
f 538/381/227 440/498/229 229/260/230 441/499/231
f 436/493/222 538/381/227 441/499/231 228/259/223
f 219/249/228 442/500/232 539/382/233 440/498/229
f 442/500/232 220/250/234 443/501/235 539/382/233
f 539/382/233 443/501/235 230/261/236 444/502/237
f 440/498/229 539/382/233 444/502/237 229/260/230
f 220/250/234 445/503/238 540/383/239 443/501/235
f 445/503/238 221/251/240 446/504/241 540/383/239
f 540/383/239 446/504/241 231/262/242 447/505/243
f 443/501/235 540/383/239 447/505/243 230/261/236
f 221/251/240 448/506/244 541/384/245 446/504/241
f 448/506/244 222/252/246 449/507/247 541/384/245
f 541/384/245 449/507/247 232/263/248 450/508/249
f 446/504/241 541/384/245 450/508/249 231/262/242
f 222/252/246 451/509/250 542/385/251 449/507/247
f 451/509/250 223/253/252 452/510/253 542/385/251
f 542/385/251 452/510/253 233/264/254 453/511/255
f 449/507/247 542/385/251 453/511/255 232/263/248
f 223/253/252 454/512/256 543/386/257 452/510/253
f 454/512/256 224/254/258 455/513/259 543/386/257
f 543/386/257 455/513/259 234/265/260 456/514/261
f 452/510/253 543/386/257 456/514/261 233/264/254
f 224/254/258 457/515/262 544/387/263 455/513/259
f 457/515/262 225/255/264 458/516/265 544/387/263
f 544/387/263 458/516/265 235/266/266 459/517/267
f 455/513/259 544/387/263 459/517/267 234/265/260
f 225/255/264 460/518/268 545/388/269 458/516/265
f 460/518/268 226/256/270 461/519/271 545/388/269
f 545/388/269 461/519/271 236/267/272 462/520/273
f 458/516/265 545/388/269 462/520/273 235/266/266
f 226/256/270 463/521/274 546/389/275 461/519/271
f 463/521/274 217/247/217 438/496/220 546/389/275
f 546/389/275 438/496/220 227/258/225 464/522/276
f 461/519/271 546/389/275 464/522/276 236/267/272
f 227/257/225 437/494/224 547/390/277 467/525/278
f 437/494/224 228/259/223 465/523/279 547/390/277
f 547/390/277 465/523/279 238/270/280 466/524/281
f 467/525/278 547/390/277 466/524/281 237/268/282
f 228/259/223 441/499/231 548/391/283 465/523/279
f 441/499/231 229/260/230 468/527/284 548/391/283
f 548/391/283 468/527/284 239/271/285 469/528/286
f 465/523/279 548/391/283 469/528/286 238/270/280
f 229/260/230 444/502/237 549/392/287 468/527/284
f 444/502/237 230/261/236 470/529/288 549/392/287
f 549/392/287 470/529/288 240/272/289 471/530/290
f 468/527/284 549/392/287 471/530/290 239/271/285
f 230/261/236 447/505/243 550/393/291 470/529/288
f 447/505/243 231/262/242 472/531/292 550/393/291
f 550/393/291 472/531/292 241/273/293 473/532/294
f 470/529/288 550/393/291 473/532/294 240/272/289
f 231/262/242 450/508/249 551/394/295 472/531/292
f 450/508/249 232/263/248 474/533/296 551/394/295
f 551/394/295 474/533/296 242/274/297 475/534/298
f 472/531/292 551/394/295 475/534/298 241/273/293
f 232/263/248 453/511/255 552/395/299 474/533/296
f 453/511/255 233/264/254 476/535/300 552/395/299
f 552/395/299 476/535/300 243/275/301 477/536/302
f 474/533/296 552/395/299 477/536/302 242/274/297
f 233/264/254 456/514/261 553/396/303 476/535/300
f 456/514/261 234/265/260 478/537/304 553/396/303
f 553/396/303 478/537/304 244/276/305 479/538/306
f 476/535/300 553/396/303 479/538/306 243/275/301
f 234/265/260 459/517/267 554/397/307 478/537/304
f 459/517/267 235/266/266 480/539/308 554/397/307
f 554/397/307 480/539/308 245/277/309 481/540/310
f 478/537/304 554/397/307 481/540/310 244/276/305
f 235/266/266 462/520/273 555/398/311 480/539/308
f 462/520/273 236/267/272 482/541/312 555/398/311
f 555/398/311 482/541/312 246/278/313 483/542/314
f 480/539/308 555/398/311 483/542/314 245/277/309
f 236/267/272 464/522/276 556/399/315 482/541/312
f 464/522/276 227/258/225 467/526/278 556/399/315
f 556/399/315 467/526/278 237/269/282 484/543/316
f 482/541/312 556/399/315 484/543/316 246/278/313
f 237/268/282 466/524/281 557/400/317 487/546/318
f 466/524/281 238/270/280 485/544/319 557/400/317
f 557/400/317 485/544/319 248/281/320 486/545/321
f 487/546/318 557/400/317 486/545/321 247/279/322
f 238/270/280 469/528/286 558/401/323 485/544/319
f 469/528/286 239/271/285 488/548/324 558/401/323
f 558/401/323 488/548/324 249/282/325 489/549/326
f 485/544/319 558/401/323 489/549/326 248/281/320
f 239/271/285 471/530/290 559/402/327 488/548/324
f 471/530/290 240/272/289 490/550/328 559/402/327
f 559/402/327 490/550/328 250/283/329 491/551/330
f 488/548/324 559/402/327 491/551/330 249/282/325
f 240/272/289 473/532/294 560/403/331 490/550/328
f 473/532/294 241/273/293 492/552/332 560/403/331
f 560/403/331 492/552/332 251/284/333 493/553/334
f 490/550/328 560/403/331 493/553/334 250/283/329
f 241/273/293 475/534/298 561/404/335 492/552/332
f 475/534/298 242/274/297 494/554/336 561/404/335
f 561/404/335 494/554/336 252/285/337 495/555/338
f 492/552/332 561/404/335 495/555/338 251/284/333
f 242/274/297 477/536/302 562/405/339 494/554/336
f 477/536/302 243/275/301 496/556/340 562/405/339
f 562/405/339 496/556/340 253/286/341 497/557/342
f 494/554/336 562/405/339 497/557/342 252/285/337
f 243/275/301 479/538/306 563/406/343 496/556/340
f 479/538/306 244/276/305 498/558/344 563/406/343
f 563/406/343 498/558/344 254/287/345 499/559/346
f 496/556/340 563/406/343 499/559/346 253/286/341
f 244/276/305 481/540/310 564/407/347 498/558/344
f 481/540/310 245/277/309 500/560/348 564/407/347
f 564/407/347 500/560/348 255/288/349 501/561/350
f 498/558/344 564/407/347 501/561/350 254/287/345
f 245/277/309 483/542/314 565/408/351 500/560/348
f 483/542/314 246/278/313 502/562/352 565/408/351
f 565/408/351 502/562/352 256/289/353 503/563/354
f 500/560/348 565/408/351 503/563/354 255/288/349
f 246/278/313 484/543/316 566/409/355 502/562/352
f 484/543/316 237/269/282 487/547/318 566/409/355
f 566/409/355 487/547/318 247/280/322 504/564/356
f 502/562/352 566/409/355 504/564/356 256/289/353
f 247/279/322 486/545/321 567/410/357 507/567/358
f 486/545/321 248/281/320 505/565/359 567/410/357
f 567/410/357 505/565/359 258/292/360 506/566/361
f 507/567/358 567/410/357 506/566/361 257/290/362
f 248/281/320 489/549/326 568/411/363 505/565/359
f 489/549/326 249/282/325 508/569/364 568/411/363
f 568/411/363 508/569/364 259/293/365 509/570/366
f 505/565/359 568/411/363 509/570/366 258/292/360
f 249/282/325 491/551/330 569/412/367 508/569/364
f 491/551/330 250/283/329 510/571/368 569/412/367
f 569/412/367 510/571/368 260/294/369 511/572/370
f 508/569/364 569/412/367 511/572/370 259/293/365
f 250/283/329 493/553/334 570/413/371 510/571/368
f 493/553/334 251/284/333 512/573/372 570/413/371
f 570/413/371 512/573/372 261/295/373 513/574/374
f 510/571/368 570/413/371 513/574/374 260/294/369
f 251/284/333 495/555/338 571/414/375 512/573/372
f 495/555/338 252/285/337 514/575/376 571/414/375
f 571/414/375 514/575/376 262/296/377 515/576/378
f 512/573/372 571/414/375 515/576/378 261/295/373
f 252/285/337 497/557/342 572/415/379 514/575/376
f 497/557/342 253/286/341 516/577/380 572/415/379
f 572/415/379 516/577/380 263/297/381 517/578/382
f 514/575/376 572/415/379 517/578/382 262/296/377
f 253/286/341 499/559/346 573/416/383 516/577/380
f 499/559/346 254/287/345 518/579/384 573/416/383
f 573/416/383 518/579/384 264/298/385 519/580/386
f 516/577/380 573/416/383 519/580/386 263/297/381
f 254/287/345 501/561/350 574/417/387 518/579/384
f 501/561/350 255/288/349 520/581/388 574/417/387
f 574/417/387 520/581/388 265/299/389 521/582/390
f 518/579/384 574/417/387 521/582/390 264/298/385
f 255/288/349 503/563/354 575/418/391 520/581/388
f 503/563/354 256/289/353 522/583/392 575/418/391
f 575/418/391 522/583/392 266/300/393 523/584/394
f 520/581/388 575/418/391 523/584/394 265/299/389
f 256/289/353 504/564/356 576/419/395 522/583/392
f 504/564/356 247/280/322 507/568/358 576/419/395
f 576/419/395 507/568/358 257/291/362 524/585/396
f 522/583/392 576/419/395 524/585/396 266/300/393
f 218/248/221 435/492/218 577/420/397 526/589/398
f 217/246/217 525/587/399 577/420/397 435/492/218
f 267/301/400 526/589/398 577/420/397 525/587/399
f 219/249/228 439/497/226 578/421/401 527/591/402
f 218/248/221 526/590/398 578/421/401 439/497/226
f 267/310/400 527/591/402 578/421/401 526/590/398
f 220/250/234 442/500/232 579/422/403 528/593/404
f 219/249/228 527/592/402 579/422/403 442/500/232
f 267/309/400 528/593/404 579/422/403 527/592/402
f 221/251/240 445/503/238 580/423/405 529/595/406
f 220/250/234 528/594/404 580/423/405 445/503/238
f 267/308/400 529/595/406 580/423/405 528/594/404
f 222/252/246 448/506/244 581/424/407 530/597/408
f 221/251/240 529/596/406 581/424/407 448/506/244
f 267/307/400 530/597/408 581/424/407 529/596/406
f 223/253/252 451/509/250 582/425/409 531/599/410
f 222/252/246 530/598/408 582/425/409 451/509/250
f 267/306/400 531/599/410 582/425/409 530/598/408
f 224/254/258 454/512/256 583/426/411 532/601/412
f 223/253/252 531/600/410 583/426/411 454/512/256
f 267/305/400 532/601/412 583/426/411 531/600/410
f 225/255/264 457/515/262 584/427/413 533/603/414
f 224/254/258 532/602/412 584/427/413 457/515/262
f 267/304/400 533/603/414 584/427/413 532/602/412
f 226/256/270 460/518/268 585/428/415 534/605/416
f 225/255/264 533/604/414 585/428/415 460/518/268
f 267/303/400 534/605/416 585/428/415 533/604/414
f 217/247/217 463/521/274 586/429/417 525/588/399
f 226/256/270 534/606/416 586/429/417 463/521/274
f 267/302/400 525/588/399 586/429/417 534/606/416
f 261/295/373 535/607/418 587/430/419 513/574/374
f 535/607/418 269/312/420 536/608/421 587/430/419
f 587/430/419 536/608/421 259/293/365 511/572/370
f 513/574/374 587/430/419 511/572/370 260/294/369
f 268/311/422 323/609/423 588/431/424 324/610/425
f 323/609/423 269/312/420 535/607/418 588/431/424
f 588/431/424 535/607/418 261/295/373 515/576/378
f 324/610/425 588/431/424 515/576/378 262/296/377
f 264/298/385 325/611/426 589/432/427 519/580/386
f 325/611/426 268/311/422 324/610/425 589/432/427
f 589/432/427 324/610/425 262/296/377 517/578/382
f 519/580/386 589/432/427 517/578/382 263/297/381
f 266/300/393 326/612/428 590/433/429 523/584/394
f 326/612/428 268/311/422 325/611/426 590/433/429
f 590/433/429 325/611/426 264/298/385 521/582/390
f 523/584/394 590/433/429 521/582/390 265/299/389
f 266/300/393 524/586/396 591/434/430 326/612/428
f 524/586/396 257/290/362 327/613/431 591/434/430
f 591/434/430 327/613/431 269/312/420 323/609/423
f 326/612/428 591/434/430 323/609/423 268/311/422
f 259/293/365 536/608/421 592/435/432 509/570/366
f 536/608/421 269/312/420 327/613/431 592/435/432
f 592/435/432 327/613/431 257/290/362 506/566/361
f 509/570/366 592/435/432 506/566/361 258/292/360
s 3
f 270/313/433 328/614/434 593/436/435 331/617/436
f 328/614/434 271/315/437 329/615/438 593/436/435
f 593/436/435 329/615/438 281/326/439 330/616/440
f 331/617/436 593/436/435 330/616/440 280/324/441
f 271/315/437 332/619/442 594/437/443 329/615/438
f 332/619/442 272/316/444 333/620/445 594/437/443
f 594/437/443 333/620/445 282/327/446 334/621/447
f 329/615/438 594/437/443 334/621/447 281/326/439
f 272/316/444 335/622/448 595/438/449 333/620/445
f 335/622/448 273/317/450 336/623/451 595/438/449
f 595/438/449 336/623/451 283/328/452 337/624/453
f 333/620/445 595/438/449 337/624/453 282/327/446
f 273/317/450 338/625/454 596/439/455 336/623/451
f 338/625/454 274/318/456 339/626/457 596/439/455
f 596/439/455 339/626/457 284/329/458 340/627/459
f 336/623/451 596/439/455 340/627/459 283/328/452
f 274/318/456 341/628/460 597/440/461 339/626/457
f 341/628/460 275/319/462 342/629/463 597/440/461
f 597/440/461 342/629/463 285/330/464 343/630/465
f 339/626/457 597/440/461 343/630/465 284/329/458
f 275/319/462 344/631/466 598/441/467 342/629/463
f 344/631/466 276/320/468 345/632/469 598/441/467
f 598/441/467 345/632/469 286/331/470 346/633/471
f 342/629/463 598/441/467 346/633/471 285/330/464
f 276/320/468 347/634/472 599/442/473 345/632/469
f 347/634/472 277/321/474 348/635/475 599/442/473
f 599/442/473 348/635/475 287/332/476 349/636/477
f 345/632/469 599/442/473 349/636/477 286/331/470
f 277/321/474 350/637/478 600/443/479 348/635/475
f 350/637/478 278/322/480 351/638/481 600/443/479
f 600/443/479 351/638/481 288/333/482 352/639/483
f 348/635/475 600/443/479 352/639/483 287/332/476
f 278/322/480 353/640/484 601/444/485 351/638/481
f 353/640/484 279/323/486 354/641/487 601/444/485
f 601/444/485 354/641/487 289/334/488 355/642/489
f 351/638/481 601/444/485 355/642/489 288/333/482
f 279/323/486 356/643/490 602/445/491 354/641/487
f 356/643/490 270/314/433 331/618/436 602/445/491
f 602/445/491 331/618/436 280/325/441 357/644/492
f 354/641/487 602/445/491 357/644/492 289/334/488
f 280/324/441 330/616/440 603/446/493 360/647/494
f 330/616/440 281/326/439 358/645/495 603/446/493
f 603/446/493 358/645/495 291/337/496 359/646/497
f 360/647/494 603/446/493 359/646/497 290/335/498
f 281/326/439 334/621/447 604/447/499 358/645/495
f 334/621/447 282/327/446 361/649/500 604/447/499
f 604/447/499 361/649/500 292/338/501 362/650/502
f 358/645/495 604/447/499 362/650/502 291/337/496
f 282/327/446 337/624/453 605/448/503 361/649/500
f 337/624/453 283/328/452 363/651/504 605/448/503
f 605/448/503 363/651/504 293/339/505 364/652/506
f 361/649/500 605/448/503 364/652/506 292/338/501
f 283/328/452 340/627/459 606/449/507 363/651/504
f 340/627/459 284/329/458 365/653/508 606/449/507
f 606/449/507 365/653/508 294/340/509 366/654/510
f 363/651/504 606/449/507 366/654/510 293/339/505
f 284/329/458 343/630/465 607/450/511 365/653/508
f 343/630/465 285/330/464 367/655/512 607/450/511
f 607/450/511 367/655/512 295/341/513 368/656/514
f 365/653/508 607/450/511 368/656/514 294/340/509
f 285/330/464 346/633/471 608/451/515 367/655/512
f 346/633/471 286/331/470 369/657/516 608/451/515
f 608/451/515 369/657/516 296/342/517 370/658/518
f 367/655/512 608/451/515 370/658/518 295/341/513
f 286/331/470 349/636/477 609/452/519 369/657/516
f 349/636/477 287/332/476 371/659/520 609/452/519
f 609/452/519 371/659/520 297/343/521 372/660/522
f 369/657/516 609/452/519 372/660/522 296/342/517
f 287/332/476 352/639/483 610/453/523 371/659/520
f 352/639/483 288/333/482 373/661/524 610/453/523
f 610/453/523 373/661/524 298/344/525 374/662/526
f 371/659/520 610/453/523 374/662/526 297/343/521
f 288/333/482 355/642/489 611/454/527 373/661/524
f 355/642/489 289/334/488 375/663/528 611/454/527
f 611/454/527 375/663/528 299/345/529 376/664/530
f 373/661/524 611/454/527 376/664/530 298/344/525
f 289/334/488 357/644/492 612/455/531 375/663/528
f 357/644/492 280/325/441 360/648/494 612/455/531
f 612/455/531 360/648/494 290/336/498 377/665/532
f 375/663/528 612/455/531 377/665/532 299/345/529
f 290/335/498 359/646/497 613/456/533 380/668/534
f 359/646/497 291/337/496 378/666/535 613/456/533
f 613/456/533 378/666/535 301/348/536 379/667/537
f 380/668/534 613/456/533 379/667/537 300/346/538
f 291/337/496 362/650/502 614/457/539 378/666/535
f 362/650/502 292/338/501 381/670/540 614/457/539
f 614/457/539 381/670/540 302/349/541 382/671/542
f 378/666/535 614/457/539 382/671/542 301/348/536
f 292/338/501 364/652/506 615/458/543 381/670/540
f 364/652/506 293/339/505 383/672/544 615/458/543
f 615/458/543 383/672/544 303/350/545 384/673/546
f 381/670/540 615/458/543 384/673/546 302/349/541
f 293/339/505 366/654/510 616/459/547 383/672/544
f 366/654/510 294/340/509 385/674/548 616/459/547
f 616/459/547 385/674/548 304/351/549 386/675/550
f 383/672/544 616/459/547 386/675/550 303/350/545
f 294/340/509 368/656/514 617/460/551 385/674/548
f 368/656/514 295/341/513 387/676/552 617/460/551
f 617/460/551 387/676/552 305/352/553 388/677/554
f 385/674/548 617/460/551 388/677/554 304/351/549
f 295/341/513 370/658/518 618/461/555 387/676/552
f 370/658/518 296/342/517 389/678/556 618/461/555
f 618/461/555 389/678/556 306/353/557 390/679/558
f 387/676/552 618/461/555 390/679/558 305/352/553
f 296/342/517 372/660/522 619/462/559 389/678/556
f 372/660/522 297/343/521 391/680/560 619/462/559
f 619/462/559 391/680/560 307/354/561 392/681/562
f 389/678/556 619/462/559 392/681/562 306/353/557
f 297/343/521 374/662/526 620/463/563 391/680/560
f 374/662/526 298/344/525 393/682/564 620/463/563
f 620/463/563 393/682/564 308/355/565 394/683/566
f 391/680/560 620/463/563 394/683/566 307/354/561
f 298/344/525 376/664/530 621/464/567 393/682/564
f 376/664/530 299/345/529 395/684/568 621/464/567
f 621/464/567 395/684/568 309/356/569 396/685/570
f 393/682/564 621/464/567 396/685/570 308/355/565
f 299/345/529 377/665/532 622/465/571 395/684/568
f 377/665/532 290/336/498 380/669/534 622/465/571
f 622/465/571 380/669/534 300/347/538 397/686/572
f 395/684/568 622/465/571 397/686/572 309/356/569
f 300/346/538 379/667/537 623/466/573 400/689/574
f 379/667/537 301/348/536 398/687/575 623/466/573
f 623/466/573 398/687/575 311/359/576 399/688/577
f 400/689/574 623/466/573 399/688/577 310/357/578
f 301/348/536 382/671/542 624/467/579 398/687/575
f 382/671/542 302/349/541 401/691/580 624/467/579
f 624/467/579 401/691/580 312/360/581 402/692/582
f 398/687/575 624/467/579 402/692/582 311/359/576
f 302/349/541 384/673/546 625/468/583 401/691/580
f 384/673/546 303/350/545 403/693/584 625/468/583
f 625/468/583 403/693/584 313/361/585 404/694/586
f 401/691/580 625/468/583 404/694/586 312/360/581
f 303/350/545 386/675/550 626/469/587 403/693/584
f 386/675/550 304/351/549 405/695/588 626/469/587
f 626/469/587 405/695/588 314/362/589 406/696/590
f 403/693/584 626/469/587 406/696/590 313/361/585
f 304/351/549 388/677/554 627/470/591 405/695/588
f 388/677/554 305/352/553 407/697/592 627/470/591
f 627/470/591 407/697/592 315/363/593 408/698/594
f 405/695/588 627/470/591 408/698/594 314/362/589
f 305/352/553 390/679/558 628/471/595 407/697/592
f 390/679/558 306/353/557 409/699/596 628/471/595
f 628/471/595 409/699/596 316/364/597 410/700/598
f 407/697/592 628/471/595 410/700/598 315/363/593
f 306/353/557 392/681/562 629/472/599 409/699/596
f 392/681/562 307/354/561 411/701/600 629/472/599
f 629/472/599 411/701/600 317/365/601 412/702/602
f 409/699/596 629/472/599 412/702/602 316/364/597
f 307/354/561 394/683/566 630/473/603 411/701/600
f 394/683/566 308/355/565 413/703/604 630/473/603
f 630/473/603 413/703/604 318/366/605 414/704/606
f 411/701/600 630/473/603 414/704/606 317/365/601
f 308/355/565 396/685/570 631/474/607 413/703/604
f 396/685/570 309/356/569 415/705/608 631/474/607
f 631/474/607 415/705/608 319/367/609 416/706/610
f 413/703/604 631/474/607 416/706/610 318/366/605
f 309/356/569 397/686/572 632/475/611 415/705/608
f 397/686/572 300/347/538 400/690/574 632/475/611
f 632/475/611 400/690/574 310/358/578 417/707/612
f 415/705/608 632/475/611 417/707/612 319/367/609
f 271/315/437 328/614/434 633/476/613 419/711/614
f 270/313/433 418/709/615 633/476/613 328/614/434
f 320/368/616 419/711/614 633/476/613 418/709/615
f 272/316/444 332/619/442 634/477/617 420/713/618
f 271/315/437 419/712/614 634/477/617 332/619/442
f 320/377/616 420/713/618 634/477/617 419/712/614
f 273/317/450 335/622/448 635/478/619 421/715/620
f 272/316/444 420/714/618 635/478/619 335/622/448
f 320/376/616 421/715/620 635/478/619 420/714/618
f 274/318/456 338/625/454 636/479/621 422/717/622
f 273/317/450 421/716/620 636/479/621 338/625/454
f 320/375/616 422/717/622 636/479/621 421/716/620
f 275/319/462 341/628/460 637/480/623 423/719/624
f 274/318/456 422/718/622 637/480/623 341/628/460
f 320/374/616 423/719/624 637/480/623 422/718/622
f 276/320/468 344/631/466 638/481/625 424/721/626
f 275/319/462 423/720/624 638/481/625 344/631/466
f 320/373/616 424/721/626 638/481/625 423/720/624
f 277/321/474 347/634/472 639/482/627 425/723/628
f 276/320/468 424/722/626 639/482/627 347/634/472
f 320/372/616 425/723/628 639/482/627 424/722/626
f 278/322/480 350/637/478 640/483/629 426/725/630
f 277/321/474 425/724/628 640/483/629 350/637/478
f 320/371/616 426/725/630 640/483/629 425/724/628
f 279/323/486 353/640/484 641/484/631 427/727/632
f 278/322/480 426/726/630 641/484/631 353/640/484
f 320/370/616 427/727/632 641/484/631 426/726/630
f 270/314/433 356/643/490 642/485/633 418/710/615
f 279/323/486 427/728/632 642/485/633 356/643/490
f 320/369/616 418/710/615 642/485/633 427/728/632
f 314/362/589 428/729/634 643/486/635 406/696/590
f 428/729/634 322/379/636 429/730/637 643/486/635
f 643/486/635 429/730/637 312/360/581 404/694/586
f 406/696/590 643/486/635 404/694/586 313/361/585
f 321/378/638 430/731/639 644/487/640 431/732/641
f 430/731/639 322/379/636 428/729/634 644/487/640
f 644/487/640 428/729/634 314/362/589 408/698/594
f 431/732/641 644/487/640 408/698/594 315/363/593
f 317/365/601 432/733/642 645/488/643 412/702/602
f 432/733/642 321/378/638 431/732/641 645/488/643
f 645/488/643 431/732/641 315/363/593 410/700/598
f 412/702/602 645/488/643 410/700/598 316/364/597
f 319/367/609 433/734/644 646/489/645 416/706/610
f 433/734/644 321/378/638 432/733/642 646/489/645
f 646/489/645 432/733/642 317/365/601 414/704/606
f 416/706/610 646/489/645 414/704/606 318/366/605
f 319/367/609 417/708/612 647/490/646 433/734/644
f 417/708/612 310/357/578 434/735/647 647/490/646
f 647/490/646 434/735/647 322/379/636 430/731/639
f 433/734/644 647/490/646 430/731/639 321/378/638
f 312/360/581 429/730/637 648/491/648 402/692/582
f 429/730/637 322/379/636 434/735/647 648/491/648
f 648/491/648 434/735/647 310/357/578 399/688/577
f 402/692/582 648/491/648 399/688/577 311/359/576
