# This file uses centimeters as units for non-parametric coordinates.

mtllib longPepper.mtl
g default
v -1.100924 0.259799 -0.192804
v -1.119246 0.410278 -0.174416
v -1.105553 0.429031 0.000147
v -1.119056 0.410399 0.174787
v -1.103282 0.259785 0.192997
v -1.119061 0.102424 0.174165
v -1.102462 0.089468 0.000147
v -1.119191 0.102336 -0.174005
v -0.145382 0.341187 -0.351714
v -0.195884 0.613441 -0.322070
v -0.168618 0.637692 0.000148
v -0.195906 0.613437 0.322358
v -0.146305 0.341258 0.352092
v -0.152712 0.070510 0.322358
v -0.120378 0.045632 0.000148
v -0.152041 0.070395 -0.322071
v 1.338822 0.552629 -0.449749
v 1.362058 0.884550 -0.382733
v 1.275675 0.925009 0.000148
v 1.362035 0.884546 0.383021
v 1.338081 0.552501 0.450126
v 1.471357 0.250640 0.383021
v 1.404101 0.180803 0.000148
v 1.471845 0.250725 -0.382733
v 1.484865 0.570420 -0.271031
v 1.516690 0.758775 -0.203410
v 1.446149 0.794930 0.000147
v 1.516690 0.758775 0.203694
v 1.484865 0.570420 0.271325
v 1.574811 0.421732 0.203694
v 1.523581 0.345910 0.000147
v 1.574811 0.421732 -0.203410
v -1.669573 0.241422 0.000138
v 1.445243 0.559283 0.000147
v 0.802116 0.808397 -0.413039
v 0.855892 0.464623 -0.492610
v 0.915835 0.123950 -0.413039
v 0.928738 0.059974 0.000157
v 0.912878 0.123479 0.413353
v 0.851417 0.463889 0.493408
v 0.801982 0.808374 0.413353
v 0.795776 0.872659 0.000157
v 1.331156 0.948082 0.213109
v 1.470694 0.789818 0.108101
v 1.542409 0.373946 -0.107813
v 1.463658 0.180044 -0.212824
v 1.365866 0.740125 0.464318
v 1.491139 0.671259 0.251303
v 1.521964 0.492504 -0.251015
v 1.429641 0.388004 -0.463982
v 1.463658 0.180044 0.213109
v 1.542409 0.373946 0.108101
v 1.470694 0.789818 -0.107813
v 1.331156 0.948082 -0.212824
v 1.366039 0.740155 -0.463982
v 1.491139 0.671259 -0.251015
v 1.521964 0.492504 0.251303
v 1.426676 0.387493 0.464318
v 0.886960 0.274761 0.502073
v -0.153709 0.183212 0.369364
v -1.111140 0.174987 0.206428
v -1.111553 0.341166 -0.206246
v -0.178736 0.501621 -0.369028
v 0.826565 0.656424 -0.501497
v 0.904933 0.277630 -0.501497
v -0.149649 0.182532 -0.369028
v -1.112986 0.174788 -0.206178
v -1.111979 0.341178 0.206532
v -0.178910 0.501591 0.369364
v 0.825526 0.656245 0.502073
v 0.930637 0.052491 0.230123
v -0.140136 0.031832 0.189126
v -1.111022 0.075834 0.094376
v -1.112371 0.440132 -0.094177
v -0.190210 0.653480 -0.188842
v 0.795483 0.881567 -0.229851
v 0.795483 0.881567 0.230123
v -0.190210 0.653480 0.189126
v -1.112339 0.440153 0.094480
v -1.110978 0.075825 -0.094109
v -0.140136 0.031832 -0.188842
v 0.930637 0.052491 -0.229851
v -1.553954 0.279553 -0.100832
v -1.567694 0.308965 -0.079359
v -1.558045 0.330262 -0.042814
v -1.560421 0.329208 0.000147
v -1.557844 0.330389 0.043199
v -1.566531 0.309700 0.080191
v -1.556655 0.279630 0.101112
v -1.551287 0.245390 0.100813
v -1.558876 0.202829 0.100455
v -1.576143 0.168044 0.076388
v -1.559218 0.150940 0.042542
v -1.551018 0.155029 0.000147
v -1.558942 0.150882 -0.042381
v -1.577217 0.167713 -0.076852
v -1.571160 0.202822 -0.100399
v -1.537159 0.245681 -0.101131
v -1.104570 0.301328 -0.199824
v -1.116950 0.431288 -0.138216
v -1.107821 0.435052 0.047931
v -1.116819 0.378940 0.197778
v -1.105809 0.217133 0.200048
v -1.116424 0.082563 0.138145
v -1.105359 0.082664 -0.047639
v -1.117819 0.134823 -0.197161
v -0.160257 0.424513 -0.360934
v -0.196169 0.642696 -0.264862
v -0.177020 0.645999 0.098332
v -0.190433 0.565491 0.356741
v -0.147421 0.259074 0.361297
v -0.148110 0.042023 0.265144
v -0.127707 0.038262 -0.098041
v -0.152344 0.118507 -0.356433
v 1.345300 0.647293 -0.459726
v 1.351156 0.928733 -0.306066
v 1.296595 0.937662 0.109278
v 1.369232 0.820450 0.437153
v 1.376218 0.466549 0.460089
v 1.475920 0.205409 0.306348
v 1.427873 0.176854 -0.108986
v 1.458617 0.313765 -0.436845
v 1.484163 0.620796 -0.270807
v 1.500013 0.784818 -0.163077
v 1.453395 0.799220 0.055586
v 1.510556 0.723681 0.237208
v 1.499994 0.528997 0.271099
v 1.567704 0.392283 0.163362
v 1.530762 0.350573 -0.055295
v 1.557161 0.453420 -0.236923
v -0.666554 0.292314 -0.266716
v -0.698214 0.504477 -0.247689
v -0.675576 0.521872 0.000146
v -0.698214 0.504477 0.247971
v -0.666675 0.292447 0.267009
v -0.681416 0.078555 0.247971
v -0.657775 0.063021 0.000146
v -0.681295 0.078423 -0.247689
v 0.391883 0.402421 -0.436160
v 0.330329 0.718963 -0.379300
v 0.348844 0.765784 0.000154
v 0.330240 0.718947 0.379604
v 0.388798 0.402042 0.436790
v 0.410321 0.086448 0.379604
v 0.443206 0.041536 0.000154
v 0.412393 0.086652 -0.379300
v 1.443180 0.568195 -0.371548
v 1.479364 0.838223 -0.302113
v 1.390113 0.875922 0.000146
v 1.479364 0.838223 0.302395
v 1.443180 0.568195 0.371841
v 1.565669 0.337748 0.302395
v 1.496246 0.260467 0.000146
v 1.565669 0.337748 -0.302113
v -1.619080 0.243791 -0.059327
v -1.640155 0.278187 -0.044336
v -1.635889 0.291841 0.000147
v -1.639309 0.278721 0.045023
v -1.629047 0.243579 0.059176
v -1.645932 0.199581 0.042257
v -1.628653 0.190558 0.000147
v -1.647019 0.199340 -0.042513
v 1.478372 0.566630 -0.160212
v 1.497637 0.674860 -0.114949
v 1.455478 0.699392 0.000147
v 1.497637 0.674860 0.115237
v 1.478372 0.566630 0.160506
v 1.530500 0.484288 0.115237
v 1.501266 0.433868 0.000147
v 1.530500 0.484288 -0.114949
v 1.141167 0.869100 -0.416946
v 1.157299 0.516399 -0.493622
v 1.262110 0.179050 -0.416946
v 1.231984 0.110184 0.000154
v 1.260159 0.178714 0.417249
v 1.154336 0.515888 0.494251
v 1.141077 0.869085 0.417249
v 1.091141 0.924827 0.000154
v 0.813101 0.740015 -0.471157
v 0.881874 0.368825 -0.500753
v 0.923741 0.076488 -0.330446
v 0.930537 0.053339 0.118022
v 0.901081 0.191615 0.471585
v 0.837681 0.562306 0.501477
v 0.796977 0.856634 0.330716
v 0.795437 0.880038 -0.117725
v 1.351156 0.928733 0.306348
v 1.500013 0.784818 0.163362
v 1.567704 0.392283 -0.163078
v 1.475920 0.205409 -0.306066
v 1.436121 0.886046 0.165467
v 1.467530 0.692691 0.060323
v 1.508559 0.454766 -0.060033
v 1.541282 0.276226 -0.165180
v 1.345056 0.647251 0.460089
v 1.484163 0.620796 0.271099
v 1.499994 0.528997 -0.270807
v 1.378322 0.466912 -0.459726
v 1.465099 0.718008 0.368434
v 1.479453 0.623551 0.143836
v 1.496636 0.523907 -0.143546
v 1.512305 0.444264 -0.368147
v 1.427873 0.176854 0.109278
v 1.530762 0.350573 0.055586
v 1.453395 0.799220 -0.055295
v 1.296595 0.937661 -0.108986
v 1.541282 0.276226 0.165467
v 1.508559 0.454766 0.060323
v 1.467530 0.692691 -0.060033
v 1.436121 0.886046 -0.165180
v 1.369322 0.820465 -0.436845
v 1.510556 0.723681 -0.236923
v 1.557161 0.453420 0.237208
v 1.456666 0.313429 0.437153
v 1.465099 0.718008 -0.368147
v 1.479453 0.623551 -0.143546
v 1.496636 0.523907 0.143836
v 1.512305 0.444264 0.368434
v 0.869125 0.366780 0.501477
v -0.155025 0.118965 0.356741
v -1.116428 0.134991 0.197364
v -1.116946 0.378860 -0.197435
v -0.190343 0.565506 -0.356433
v 0.839142 0.562558 -0.500753
v 1.224097 0.330494 0.508042
v 0.397659 0.221786 0.448878
v -0.677043 0.170681 0.284440
v -1.394793 0.186926 0.147652
v -1.630403 0.262435 -0.057453
v -0.687293 0.414362 -0.284153
v 0.353324 0.583960 -0.448398
v 1.158666 0.714058 -0.507562
v 0.912910 0.193502 -0.471157
v -0.144587 0.258642 -0.360934
v -1.105542 0.217033 -0.199824
v -1.106403 0.301296 0.200048
v -0.160501 0.424471 0.361297
v 0.812562 0.739922 0.471585
v 1.235957 0.332539 -0.507562
v 0.410249 0.223037 -0.448398
v -0.676314 0.169887 -0.284153
v -1.402906 0.186921 -0.147511
v -1.632677 0.262499 0.057736
v -0.687293 0.414362 0.284440
v 0.352631 0.583840 0.448878
v 1.157973 0.713938 0.508042
v 0.923741 0.076488 0.330716
v -0.127707 0.038262 0.098332
v -1.105359 0.082664 0.047931
v -1.107821 0.435052 -0.047639
v -0.177020 0.645999 -0.098041
v 0.796977 0.856634 -0.330446
v 1.268017 0.103835 0.231714
v 0.427798 0.030906 0.217179
v -0.672799 0.048022 0.142209
v -1.395633 0.111631 0.063576
v -1.634035 0.291178 -0.024188
v -0.691537 0.537022 -0.141922
v 0.331582 0.776755 -0.216902
v 1.123143 0.942632 -0.231437
v 0.795437 0.880038 0.118022
v -0.196169 0.642696 0.265144
v -1.116823 0.431369 0.138560
v -1.116250 0.082527 -0.137943
v -0.148110 0.042023 -0.264862
v 0.930537 0.053339 -0.117725
v 1.123143 0.942633 0.231714
v 0.331582 0.776755 0.217179
v -0.691537 0.537022 0.142209
v -1.392555 0.375643 0.063991
v -1.634130 0.189243 -0.023823
v -0.672799 0.048022 -0.141922
v 0.427798 0.030906 -0.216902
v 1.268017 0.103835 -0.231437
v -1.390722 0.301013 -0.147785
v -1.401565 0.349052 -0.120512
v -1.392682 0.375563 -0.063642
v -1.392072 0.369873 0.000147
v -1.633866 0.291285 0.024559
v -1.400804 0.349533 0.121154
v -1.392428 0.301062 0.148067
v -1.387092 0.247445 0.141509
v -1.634261 0.219029 0.057183
v -1.408911 0.133956 0.118664
v -1.634362 0.189291 0.024006
v -1.387915 0.120734 0.000147
v -1.395458 0.111594 -0.063369
v -1.409553 0.133739 -0.118871
v -1.642830 0.219023 -0.057089
v -1.377784 0.247636 -0.141616
v -1.562333 0.295784 -0.094633
v -1.562037 0.323518 -0.063655
v -1.557097 0.332698 -0.022175
v -1.557097 0.332698 0.022468
v -1.561233 0.324025 0.064320
v -1.561530 0.296292 0.095298
v -1.550900 0.263892 0.104189
v -1.551327 0.223923 0.104189
v -1.568337 0.182538 0.092670
v -1.568634 0.154804 0.061693
v -1.551256 0.150596 0.022468
v -1.551256 0.150596 -0.022175
v -1.567531 0.154575 -0.061923
v -1.577917 0.182309 -0.092901
v -1.550404 0.224124 -0.104319
v -1.539295 0.264093 -0.104319
v -0.675185 0.355374 -0.275493
v -0.697069 0.528529 -0.201713
v -0.697069 0.528529 0.201997
v -0.694962 0.465243 0.275310
v -0.680878 0.118640 0.275310
v -0.663361 0.055545 0.073427
v -0.663361 0.055546 -0.073136
v -0.669316 0.229220 -0.275493
v 0.372968 0.496023 -0.444545
v 0.327780 0.758368 -0.307747
v 0.327780 0.758368 0.308022
v 0.338618 0.659488 0.426797
v 0.403033 0.145978 0.426797
v 0.437918 0.034517 0.112203
v 0.437918 0.034517 -0.111908
v 0.404039 0.309836 -0.444545
v 1.447306 0.642736 -0.373457
v 1.405990 0.882323 -0.084067
v 1.405990 0.882323 0.084358
v 1.477924 0.785097 0.344867
v 1.546518 0.387324 0.344867
v 1.561437 0.300811 0.240371
v 1.561437 0.300811 -0.240087
v 1.471352 0.503296 -0.373457
v -1.381168 0.275098 -0.145530
v -1.397839 0.366396 -0.094288
v -1.397332 0.366717 0.094812
v -1.397850 0.326781 0.139419
v -1.403579 0.158007 0.137759
v -1.390013 0.115913 0.032289
v -1.390013 0.115913 -0.031997
v -1.388661 0.217545 -0.145530
v 1.481099 0.599165 -0.177406
v 1.460660 0.717692 -0.034241
v 1.460660 0.717692 0.034534
v 1.499837 0.666460 0.151028
v 1.529294 0.495642 0.151028
v 1.536107 0.456133 0.103306
v 1.536107 0.456133 -0.103019
v 1.490918 0.542226 -0.177406
v 1.152915 0.616774 -0.503986
v 1.194233 0.421637 -0.503986
v 1.247176 0.103758 -0.118478
v 1.247176 0.103758 0.118773
v 1.246906 0.247813 0.477215
v 1.151773 0.799484 0.477215
v 1.133625 0.918582 0.333311
v 1.133625 0.918582 -0.333036
v 1.463005 0.871609 0.240371
v 1.493024 0.705969 0.103306
v 1.511358 0.423699 -0.034241
v 1.512668 0.263709 -0.084067
v 1.447306 0.642736 0.373748
v 1.481099 0.599165 0.177699
v 1.529294 0.495642 -0.150741
v 1.546518 0.387324 -0.344583
v 1.512668 0.263709 0.084358
v 1.511357 0.423699 0.034534
v 1.493024 0.705969 -0.103019
v 1.463005 0.871609 -0.240087
v 1.477924 0.785097 -0.344583
v 1.499837 0.666460 -0.150741
v 1.490918 0.542226 0.177699
v 1.471352 0.503296 0.373748
v 1.185814 0.420185 0.504565
v 0.395134 0.308913 0.445125
v -0.669802 0.229750 0.275784
v -1.389244 0.217418 0.145555
v -1.398357 0.326461 -0.138895
v -0.694962 0.465243 -0.275027
v 0.338977 0.659550 -0.426417
v 1.152132 0.799546 -0.476835
v 1.254711 0.249158 -0.476835
v 0.411324 0.146794 -0.426417
v -0.680391 0.118111 -0.275027
v -1.409629 0.157862 -0.137801
v -1.388497 0.274972 0.145555
v -0.675185 0.355374 0.275784
v 0.371994 0.495855 0.445125
v 1.151942 0.616606 0.504566
v 1.269770 0.129771 0.333311
v 0.418587 0.048153 0.308022
v -0.678771 0.055353 0.201997
v -1.404097 0.118071 0.093152
v -1.391597 0.373621 -0.031997
v -0.681626 0.529578 -0.073136
v 0.341989 0.773113 -0.111908
v 1.103359 0.935894 -0.118478
v 1.103359 0.935894 0.118773
v 0.341989 0.773113 0.112203
v -0.681626 0.529578 0.073427
v -1.391596 0.373621 0.032289
v -1.403400 0.117927 -0.093194
v -0.678771 0.055353 -0.201713
v 0.418587 0.048153 -0.307747
v 1.269770 0.129771 -0.333036
v -1.632010 0.274569 -0.059872
v -1.631844 0.292319 -0.040046
v -1.628464 0.299693 -0.014139
v -1.628464 0.299693 0.014433
v -1.631167 0.292746 0.040654
v -1.631334 0.274997 0.060480
v -1.623043 0.255549 0.067837
v -1.623283 0.229969 0.067837
v -1.636709 0.203436 0.058267
v -1.636876 0.185686 0.038441
v -1.623020 0.182018 0.014433
v -1.623020 0.182018 -0.014139
v -1.635947 0.185494 -0.038588
v -1.644776 0.203243 -0.058413
v -1.622506 0.230138 -0.067900
v -1.613270 0.255718 -0.067900
vt 0.329178 0.283757
vt 0.364975 0.313357
vt 0.411646 0.299075
vt 0.458568 0.312822
vt 0.498728 0.301264
vt 0.539175 0.279669
vt 0.569157 0.240163
vt 0.283775 0.282570
vt 0.251770 0.530246
vt 0.326901 0.542694
vt 0.413416 0.553495
vt 0.499781 0.541461
vt 0.574748 0.527872
vt 0.639723 0.493252
vt 0.108593 0.458268
vt 0.186234 0.496649
vt 0.114303 0.531390
vt 0.188871 0.547879
vt 0.273305 0.570637
vt 0.361159 0.572678
vt 0.437904 0.578397
vt 0.511304 0.563548
vt 0.599224 0.561216
vt 0.683762 0.538358
vt 0.757290 0.531364
vt 0.016327 0.898726
vt 0.106938 0.945698
vt 0.221749 0.933929
vt 0.331327 0.976711
vt 0.433960 0.953941
vt 0.537878 0.981016
vt 0.652667 0.942123
vt 0.771628 0.950140
vt 0.863237 0.900772
vt 0.969171 0.370474
vt 0.940644 0.261656
vt 0.848213 0.239356
vt 0.757155 0.266417
vt 0.733785 0.376736
vt 0.762988 0.485659
vt 0.855355 0.507838
vt 0.946470 0.480658
vt 0.916655 0.371871
vt 0.897392 0.318173
vt 0.852338 0.299445
vt 0.803817 0.320850
vt 0.790551 0.375226
vt 0.806689 0.428821
vt 0.856279 0.447615
vt 0.900275 0.426520
vt 0.353566 0.146986
vt 0.854945 0.373513
vt 0.132003 0.795163
vt 0.839312 0.793758
vt 0.030801 0.791907
vt 0.741387 0.799750
vt 0.636684 0.818031
vt 0.531126 0.827749
vt 0.437761 0.827785
vt 0.343776 0.824890
vt 0.237611 0.813026
vt 0.736874 0.312755
vt 0.280502 0.970091
vt 0.793456 0.347189
vt 0.910896 0.400280
vt 0.966489 0.434171
vt 0.720586 0.958284
vt 0.792373 0.242363
vt 0.377731 0.978875
vt 0.826412 0.306284
vt 0.878482 0.440901
vt 0.911283 0.504768
vt 0.816258 0.939165
vt 0.963106 0.307011
vt 0.590155 0.975748
vt 0.909394 0.343809
vt 0.794943 0.403070
vt 0.740272 0.440463
vt 0.156774 0.952737
vt 0.799434 0.507804
vt 0.062821 0.936089
vt 0.830027 0.442164
vt 0.874866 0.304969
vt 0.904225 0.239449
vt 0.490581 0.980932
vt 0.485710 0.829289
vt 0.481216 0.568075
vt 0.612895 0.506369
vt 0.512793 0.273648
vt 0.344925 0.309303
vt 0.160092 0.540386
vt 0.297790 0.537054
vt 0.086843 0.785829
vt 0.786749 0.792745
vt 0.713278 0.534573
vt 0.212687 0.509627
vt 0.302480 0.292785
vt 0.478517 0.308397
vt 0.391063 0.573708
vt 0.528819 0.535397
vt 0.389401 0.827784
vt 0.580675 0.825170
vt 0.546072 0.560219
vt 0.669487 0.476101
vt 0.558751 0.269102
vt 0.387187 0.316539
vt 0.222471 0.555774
vt 0.361187 0.545797
vt 0.181256 0.805030
vt 0.293937 0.820959
vt 0.326491 0.570700
vt 0.465532 0.545057
vt 0.436395 0.316239
vt 0.264248 0.271879
vt 0.649704 0.545139
vt 0.156166 0.479881
vt 0.692581 0.809805
vt 0.375105 0.201594
vt 0.384992 0.201095
vt 0.395453 0.203443
vt 0.415528 0.189455
vt 0.426745 0.203303
vt 0.437231 0.200923
vt 0.446795 0.200403
vt 0.454788 0.197234
vt 0.477577 0.174310
vt 0.490974 0.175279
vt 0.501312 0.172836
vt 0.319832 0.161888
vt 0.323331 0.177157
vt 0.333232 0.180267
vt 0.342592 0.186123
vt 0.367184 0.195149
vt 0.505180 0.158806
vt 0.253299 0.242444
vt 0.716776 0.453880
vt 0.391183 0.162441
vt 0.429166 0.162991
vt 0.478434 0.138492
vt 0.355721 0.190006
vt 0.460424 0.181318
vt 0.406588 0.189353
vt 0.306577 0.410570
vt 0.361209 0.420844
vt 0.463768 0.420170
vt 0.490053 0.415661
vt 0.574119 0.384106
vt 0.626449 0.355604
vt 0.197515 0.358814
vt 0.275843 0.399953
vt 0.096116 0.666570
vt 0.178571 0.684263
vt 0.330874 0.705924
vt 0.371582 0.708414
vt 0.502834 0.706532
vt 0.592279 0.701704
vt 0.646433 0.694065
vt 0.775971 0.668452
vt 0.835899 0.476902
vt 0.764611 0.398362
vt 0.763418 0.353502
vt 0.794765 0.283891
vt 0.903884 0.280964
vt 0.927598 0.307903
vt 0.930984 0.435169
vt 0.875009 0.475850
vt 0.355355 0.240617
vt 0.385178 0.244958
vt 0.437599 0.244680
vt 0.452980 0.241813
vt 0.501805 0.218938
vt 0.530377 0.204215
vt 0.293078 0.207144
vt 0.335247 0.231418
vt 0.848014 0.421824
vt 0.813207 0.383251
vt 0.812748 0.366008
vt 0.828255 0.333430
vt 0.875300 0.332086
vt 0.887292 0.345483
vt 0.888737 0.399784
vt 0.862878 0.421433
vt 0.047304 0.857330
vt 0.828202 0.861952
vt 0.677514 0.892578
vt 0.616661 0.900813
vt 0.511819 0.914113
vt 0.360791 0.910714
vt 0.311919 0.906781
vt 0.141664 0.882959
vt 0.772316 0.312130
vt 0.816823 0.347618
vt 0.894693 0.381255
vt 0.941126 0.393726
vt 0.830429 0.271282
vt 0.845455 0.325638
vt 0.877474 0.413800
vt 0.908735 0.463330
vt 0.939929 0.348746
vt 0.894225 0.363668
vt 0.818253 0.401399
vt 0.775696 0.439203
vt 0.799615 0.466209
vt 0.830424 0.414959
vt 0.860319 0.325239
vt 0.869540 0.270254
vt 0.462336 0.907736
vt 0.460981 0.710636
vt 0.548602 0.397684
vt 0.479703 0.231595
vt 0.369787 0.242343
vt 0.334867 0.416671
vt 0.138540 0.675448
vt 0.093739 0.873829
vt 0.782092 0.880107
vt 0.734380 0.676014
vt 0.249986 0.387022
vt 0.321217 0.221969
vt 0.466517 0.238356
vt 0.518284 0.409167
vt 0.414436 0.711384
vt 0.410117 0.906562
vt 0.561022 0.912048
vt 0.543357 0.703799
vt 0.597663 0.371194
vt 0.516006 0.211422
vt 0.401215 0.245612
vt 0.393947 0.424385
vt 0.226782 0.695481
vt 0.197469 0.885545
vt 0.257159 0.893954
vt 0.281545 0.703283
vt 0.431084 0.424138
vt 0.421532 0.245502
vt 0.306990 0.215053
vt 0.226423 0.374206
vt 0.694123 0.682574
vt 0.733811 0.888806
vt 0.385184 0.181626
vt 0.391715 0.182462
vt 0.398285 0.182214
vt 0.423302 0.182333
vt 0.429935 0.182517
vt 0.436491 0.181485
vt 0.441889 0.181006
vt 0.447071 0.177626
vt 0.480599 0.159148
vt 0.487005 0.156252
vt 0.493469 0.154307
vt 0.333525 0.159485
vt 0.339411 0.162301
vt 0.345803 0.164349
vt 0.351880 0.170906
vt 0.378619 0.183309
vt 0.334670 0.306542
vt 0.321701 0.413879
vt 0.274780 0.533650
vt 0.290842 0.406132
vt 0.375784 0.315172
vt 0.376471 0.422550
vt 0.344044 0.544245
vt 0.347546 0.418980
vt 0.448531 0.422073
vt 0.447782 0.314753
vt 0.477405 0.418132
vt 0.482656 0.543259
vt 0.468661 0.310816
vt 0.503188 0.412694
vt 0.514300 0.538429
vt 0.562102 0.390452
vt 0.529946 0.284962
vt 0.585642 0.377927
vt 0.626309 0.499811
vt 0.610994 0.363792
vt 0.569090 0.263063
vt 0.642967 0.347022
vt 0.693132 0.464991
vt 0.253974 0.265766
vt 0.213027 0.366891
vt 0.132380 0.469074
vt 0.180946 0.350356
vt 0.262063 0.393196
vt 0.312501 0.297827
vt 0.232228 0.519936
vt 0.137198 0.535888
vt 0.118504 0.671250
vt 0.063372 0.779601
vt 0.072552 0.661648
vt 0.205671 0.551826
vt 0.201209 0.689497
vt 0.155795 0.800156
vt 0.157979 0.679631
vt 0.307739 0.704664
vt 0.343825 0.571689
vt 0.351855 0.707147
vt 0.319660 0.823256
vt 0.376111 0.573193
vt 0.391846 0.709801
vt 0.366619 0.826599
vt 0.482840 0.708395
vt 0.496260 0.565811
vt 0.522496 0.705011
vt 0.508368 0.828787
vt 0.566318 0.702746
vt 0.572648 0.560718
vt 0.619548 0.699276
vt 0.608190 0.821975
vt 0.624464 0.553178
vt 0.671702 0.687892
vt 0.665188 0.814137
vt 0.754407 0.673288
vt 0.735284 0.532968
vt 0.798301 0.662561
vt 0.809371 0.784568
vt 0.827395 0.507821
vt 0.816527 0.473149
vt 0.843180 0.447674
vt 0.855977 0.477719
vt 0.768807 0.419757
vt 0.737028 0.408599
vt 0.762888 0.375962
vt 0.790551 0.389465
vt 0.735330 0.344745
vt 0.766470 0.331915
vt 0.789794 0.361007
vt 0.774764 0.254390
vt 0.811284 0.276061
vt 0.813137 0.311027
vt 0.781549 0.295629
vt 0.887453 0.274044
vt 0.922435 0.250552
vt 0.917657 0.291942
vt 0.887462 0.308951
vt 0.951875 0.284334
vt 0.934693 0.327340
vt 0.905383 0.329082
vt 0.937035 0.415382
vt 0.956479 0.457414
vt 0.921905 0.451636
vt 0.907674 0.415201
vt 0.892695 0.471114
vt 0.883319 0.506303
vt 0.867822 0.447019
vt 0.369662 0.202853
vt 0.362550 0.241630
vt 0.348181 0.239453
vt 0.390214 0.203092
vt 0.393254 0.246148
vt 0.377263 0.243278
vt 0.429521 0.245916
vt 0.432043 0.202939
vt 0.445506 0.242934
vt 0.442444 0.201190
vt 0.459993 0.240545
vt 0.495185 0.223979
vt 0.486442 0.179260
vt 0.508666 0.214539
vt 0.523389 0.208382
vt 0.506455 0.170738
vt 0.537169 0.199484
vt 0.318403 0.174525
vt 0.299812 0.211611
vt 0.286566 0.202166
vt 0.328138 0.226324
vt 0.347300 0.192014
vt 0.342449 0.236882
vt 0.841208 0.412992
vt 0.855943 0.416762
vt 0.820336 0.389788
vt 0.817732 0.374503
vt 0.819520 0.359101
vt 0.839129 0.334820
vt 0.825568 0.343658
vt 0.865754 0.334084
vt 0.879082 0.342079
vt 0.886223 0.357089
vt 0.887052 0.388251
vt 0.880719 0.403619
vt 0.867835 0.412311
vt 0.070783 0.867461
vt 0.039574 0.917407
vt 0.023564 0.845316
vt 0.805138 0.873834
vt 0.851274 0.847265
vt 0.839747 0.919968
vt 0.707115 0.892364
vt 0.686627 0.950204
vt 0.646775 0.893908
vt 0.587850 0.908468
vt 0.621411 0.958935
vt 0.487766 0.912780
vt 0.535802 0.913336
vt 0.514230 0.980974
vt 0.384735 0.910462
vt 0.354529 0.977793
vt 0.336960 0.908944
vt 0.285406 0.902394
vt 0.305914 0.973401
vt 0.168230 0.885928
vt 0.131856 0.949218
vt 0.117068 0.878355
vt 0.747015 0.289586
vt 0.796093 0.332275
vt 0.916166 0.386311
vt 0.890864 0.372557
vt 0.967830 0.402322
vt 0.942382 0.371187
vt 0.820293 0.240860
vt 0.850435 0.269399
vt 0.839254 0.300083
vt 0.853642 0.330271
vt 0.890849 0.436256
vt 0.928877 0.492713
vt 0.966138 0.338743
vt 0.915399 0.357478
vt 0.798369 0.417823
vt 0.827197 0.404888
vt 0.751630 0.463061
vt 0.785794 0.455191
vt 0.781211 0.496732
vt 0.816519 0.438135
vt 0.863895 0.299426
vt 0.876219 0.239402
vt 0.462031 0.828611
vt 0.462270 0.967436
vt 0.436223 0.903993
vt 0.459560 0.573236
vt 0.437950 0.712038
vt 0.508768 0.296444
vt 0.593821 0.517121
vt 0.533902 0.404393
vt 0.459705 0.194777
vt 0.486609 0.227483
vt 0.472954 0.235342
vt 0.354858 0.311487
vt 0.379835 0.201601
vt 0.312345 0.539874
vt 0.174482 0.544132
vt 0.109370 0.790702
vt 0.084879 0.940894
vt 0.764238 0.796811
vt 0.793943 0.944652
vt 0.758503 0.884017
vt 0.698520 0.536466
vt 0.714686 0.678490
vt 0.293057 0.287701
vt 0.199460 0.503138
vt 0.238483 0.380877
vt 0.337715 0.183095
vt 0.314246 0.218247
vt 0.488592 0.305231
vt 0.451227 0.199847
vt 0.551784 0.531635
vt 0.414484 0.576053
vt 0.413333 0.827844
vt 0.405845 0.966408
vt 0.555108 0.826819
vt 0.564016 0.978382
vt 0.528688 0.561884
vt 0.548778 0.274510
vt 0.654605 0.484676
vt 0.496398 0.174484
vt 0.399087 0.317061
vt 0.400793 0.203007
vt 0.409117 0.244214
vt 0.412523 0.425273
vt 0.387302 0.549646
vt 0.247888 0.563205
vt 0.253993 0.700612
vt 0.208901 0.809135
vt 0.227679 0.886619
vt 0.189262 0.943333
vt 0.266272 0.817258
vt 0.251125 0.952010
vt 0.299898 0.570668
vt 0.424501 0.316911
vt 0.439474 0.549276
vt 0.421393 0.202961
vt 0.413587 0.244265
vt 0.274176 0.277388
vt 0.327766 0.179318
vt 0.171200 0.488265
vt 0.666733 0.541749
vt 0.717740 0.804545
vt 0.746107 0.954212
vt 0.383119 0.179928
vt 0.388740 0.179157
vt 0.394567 0.180491
vt 0.398885 0.175897
vt 0.426903 0.180599
vt 0.422347 0.176223
vt 0.432755 0.179249
vt 0.438106 0.179235
vt 0.442437 0.177548
vt 0.444795 0.172155
vt 0.478005 0.156401
vt 0.482956 0.154633
vt 0.488925 0.153668
vt 0.491807 0.148649
vt 0.338419 0.159589
vt 0.336699 0.154437
vt 0.344067 0.160993
vt 0.349400 0.164492
vt 0.354644 0.168496
vt 0.379183 0.178795
vn -0.157433 -0.171145 -0.972586
vn -0.188357 -0.005459 -0.982086
vn -0.169576 -0.014132 -0.985416
vn -0.145259 -0.156133 -0.976997
vn -0.158058 0.018299 -0.987260
vn -0.139562 -0.128297 -0.981867
vn -0.153900 -0.015245 -0.987969
vn -0.160921 -0.007074 -0.986942
vn -0.170919 0.005101 -0.985272
vn -0.258098 0.915483 -0.308668
vn -0.226501 0.973944 -0.011415
vn -0.225789 0.974144 0.007981
vn -0.250511 0.926922 -0.279390
vn -0.229161 0.973318 -0.011687
vn -0.237547 0.927192 -0.289632
vn -0.233956 0.734533 -0.636967
vn -0.259793 0.726591 -0.636061
vn -0.272343 0.720386 -0.637866
vn -0.225761 0.974149 -0.008070
vn -0.226326 0.973993 0.010708
vn -0.257755 0.915942 0.307591
vn -0.250452 0.926981 0.279250
vn -0.271982 0.720459 0.637938
vn -0.259738 0.726657 0.636007
vn -0.233998 0.734737 0.636715
vn -0.237546 0.927201 0.289603
vn -0.229161 0.973318 0.011689
vn -0.244199 0.372752 0.895222
vn -0.188030 -0.002787 0.982159
vn -0.169673 -0.013533 0.985408
vn -0.225102 0.351391 0.908765
vn -0.158465 0.019030 0.987181
vn -0.201972 0.373801 0.905251
vn -0.167201 -0.007181 0.985897
vn -0.186247 -0.014898 0.982390
vn -0.189429 -0.385750 0.902947
vn -0.155431 -0.374610 0.914061
vn -0.167122 -0.745062 0.645719
vn -0.120676 -0.756975 0.642204
vn -0.069525 -0.767351 0.637447
vn -0.114333 -0.406563 0.906441
vn -0.147140 -0.049254 0.987889
vn -0.044687 -0.998998 0.002479
vn -0.083184 -0.996503 -0.007927
vn -0.069372 -0.988619 -0.133493
vn -0.037151 -0.994039 -0.102501
vn -0.071582 -0.997435 -0.000000
vn -0.039489 -0.999220 -0.000000
vn -0.016101 -0.999870 0.000000
vn -0.014251 -0.997263 -0.072552
vn -0.016326 -0.999354 0.032006
vn -0.069379 -0.988616 0.133513
vn -0.083139 -0.996504 0.008224
vn -0.044672 -0.998999 -0.002430
vn -0.037150 -0.994039 0.102502
vn -0.016327 -0.999354 -0.032004
vn -0.014251 -0.997263 0.072546
vn -0.166286 -0.006446 -0.986057
vn -0.184801 -0.011316 -0.982711
vn -0.177490 0.166922 -0.969863
vn -0.168952 0.141690 -0.975387
vn -0.160428 0.100453 -0.981923
vn -0.145317 -0.049080 -0.988167
vn -0.140799 0.078637 -0.986910
vn -0.122690 -0.094735 -0.987913
vn -0.091203 0.131500 -0.987112
vn -0.064250 -0.068542 -0.995577
vn -0.074007 -0.012645 -0.997178
vn -0.133849 -0.019800 -0.990804
vn -0.226730 0.972289 -0.056996
vn -0.219962 0.918927 -0.327399
vn -0.204387 0.974157 -0.096150
vn -0.192624 0.912059 -0.362002
vn -0.169319 0.747567 -0.642242
vn -0.204196 0.741373 -0.639274
vn -0.226729 0.972288 0.057001
vn -0.219959 0.918951 0.327333
vn -0.204251 0.741748 0.638821
vn -0.169339 0.747980 0.641756
vn -0.192618 0.912093 0.361918
vn -0.204387 0.974156 0.096160
vn -0.141349 0.080074 0.986716
vn -0.175841 0.424986 0.887956
vn -0.091439 0.133174 0.986866
vn -0.134835 0.469889 0.872367
vn -0.113336 -0.116331 0.986723
vn -0.063506 -0.459814 0.885742
vn -0.015538 -0.772310 0.635056
vn 0.055407 -0.768726 0.637174
vn 0.009384 -0.494327 0.869226
vn -0.046169 -0.160239 0.985998
vn 0.018596 -0.997288 0.071210
vn 0.017547 -0.998618 -0.049535
vn 0.016240 -0.999868 -0.000000
vn 0.086675 -0.996237 -0.000000
vn 0.087162 -0.995386 -0.040121
vn 0.087418 -0.991067 0.100722
vn 0.018596 -0.997289 -0.071203
vn 0.017547 -0.998619 0.049529
vn 0.087418 -0.991068 -0.100711
vn 0.087162 -0.995386 0.040115
vn -0.110959 -0.115913 -0.987042
vn -0.137914 0.056927 -0.988807
vn -0.078489 0.041976 -0.996031
vn -0.044424 -0.158589 -0.986345
vn 0.385273 -0.099196 -0.917456
vn 0.383863 0.109963 -0.916819
vn 0.806016 -0.043015 -0.590329
vn 0.773826 -0.111549 -0.623498
vn 0.960099 -0.187744 -0.207275
vn 0.973390 -0.075406 -0.216393
vn 0.961367 0.168636 -0.217567
vn 0.734592 0.128725 -0.666187
vn 0.349820 0.062701 -0.934716
vn 0.610952 0.774139 0.165669
vn 0.162407 0.986346 -0.027312
vn 0.131574 0.983517 0.124024
vn 0.571385 0.792958 0.211513
vn 0.125458 0.992099 0.000001
vn 0.568781 0.822489 0.000000
vn 0.915689 0.401887 -0.000000
vn 0.887883 0.402255 0.223280
vn 0.856794 0.400335 0.325016
vn 0.131577 0.983516 -0.124034
vn 0.162407 0.986346 0.027316
vn 0.610950 0.774140 -0.165675
vn 0.571382 0.792958 -0.211521
vn 0.856787 0.400338 -0.325031
vn 0.887879 0.402259 -0.223289
vn 0.326227 0.474438 0.817609
vn 0.383557 0.110072 0.916934
vn 0.805723 -0.043002 0.590729
vn 0.815668 0.225127 0.532919
vn 0.960102 -0.187730 0.207273
vn 0.973599 -0.096587 0.206825
vn 0.981526 0.191184 0.007479
vn 0.766363 0.544353 0.341128
vn 0.250682 0.761220 0.598083
vn 0.738159 0.317807 0.595080
vn 0.398108 0.028772 0.916887
vn 0.482418 -0.328061 0.812188
vn 0.844122 0.063516 0.532376
vn 0.519822 -0.617024 0.590818
vn 0.906012 -0.251379 0.340514
vn 0.989030 0.147460 0.008695
vn 0.880720 0.429972 0.198638
vn 0.822479 0.532276 0.200529
vn 0.534800 -0.786303 0.309381
vn 0.519039 -0.854274 0.028526
vn 0.843667 -0.517535 -0.142769
vn 0.892131 -0.447515 0.061909
vn 0.947876 -0.090655 -0.305470
vn 0.970337 -0.076713 -0.229263
vn 0.843669 -0.517534 0.142764
vn 0.519039 -0.854275 -0.028522
vn 0.534879 -0.786769 -0.308057
vn 0.892165 -0.447552 -0.061152
vn 0.522330 -0.619898 -0.585574
vn 0.907233 -0.251902 -0.336859
vn 0.989030 0.147460 -0.008697
vn 0.970339 -0.076710 0.229254
vn 0.947882 -0.090651 0.305456
vn 0.742254 0.321772 -0.587811
vn 0.408984 0.034757 -0.911879
vn 0.325992 0.232729 -0.916279
vn 0.682781 0.382315 -0.622612
vn 0.877026 0.429111 -0.216076
vn 0.822471 0.532286 -0.200531
vn -0.279842 -0.157111 -0.947103
vn -0.333546 0.068403 -0.940249
vn -0.229865 0.043673 -0.972242
vn -0.191996 -0.166707 -0.967133
vn -0.197099 0.027895 -0.979987
vn -0.281951 0.073378 -0.956619
vn -0.347097 0.854367 -0.386757
vn -0.313828 0.940190 -0.132497
vn -0.240716 0.968259 -0.067312
vn -0.273515 0.892372 -0.358973
vn -0.289268 0.714762 -0.636741
vn -0.379050 0.692406 -0.613918
vn -0.240251 0.968564 0.064522
vn -0.272664 0.894133 0.355220
vn -0.313567 0.941067 0.126765
vn -0.346034 0.857536 0.380648
vn -0.377885 0.692738 0.614262
vn -0.288440 0.714921 0.636938
vn -0.361733 0.437793 0.823096
vn -0.332327 0.122975 0.935113
vn -0.227987 0.054240 0.972152
vn -0.273485 0.418425 0.866099
vn -0.224789 -0.067089 0.972095
vn -0.241694 -0.415835 0.876736
vn -0.329506 -0.112030 0.937483
vn -0.355743 -0.407756 0.840941
vn -0.372796 -0.691741 0.618481
vn -0.233977 -0.728709 0.643613
vn -0.152774 -0.988261 -0.000442
vn -0.132865 -0.979301 -0.152696
vn -0.272458 -0.962140 -0.007344
vn -0.244462 -0.957547 -0.152783
vn -0.254124 -0.967172 -0.000000
vn -0.134207 -0.990953 -0.000000
vn -0.244895 -0.957548 0.152080
vn -0.273258 -0.961911 0.007552
vn -0.152834 -0.988251 0.001323
vn -0.132965 -0.979300 0.152614
vn -0.223444 -0.054600 -0.973186
vn -0.202166 0.179688 -0.962726
vn -0.338476 -0.057868 -0.939194
vn -0.286317 0.215306 -0.933631
vn 0.968446 -0.236082 0.079861
vn 0.994226 -0.063783 0.086292
vn 0.985344 0.170580 0.000001
vn 0.973828 0.170036 0.150820
vn 0.930766 0.057664 0.361041
vn 0.977271 0.056924 0.204208
vn 0.999995 -0.003253 -0.000000
vn 0.930759 0.057662 -0.361058
vn 0.977269 0.056925 -0.204218
vn 0.968445 -0.236085 -0.079860
vn 0.952137 -0.305668 0.001751
vn 0.961040 -0.133663 -0.241945
vn 0.797169 0.595915 -0.096988
vn 0.772374 0.634541 -0.028237
vn 0.845778 0.468071 -0.256067
vn 0.891450 0.259916 -0.371161
vn 0.888905 0.169434 -0.425605
vn 0.891457 0.259917 0.371143
vn 0.888914 0.169435 0.425586
vn 0.845783 0.468065 0.256060
vn 0.797173 0.595910 0.096990
vn 0.894964 0.437896 0.085356
vn 0.048899 0.150884 -0.987341
vn 0.085009 -0.066868 -0.994134
vn 0.069075 0.014254 -0.997510
vn 0.102756 -0.127271 -0.986531
vn 0.057229 0.093943 -0.993931
vn 0.237147 -0.966561 -0.097573
vn 0.234653 -0.970253 0.059556
vn 0.482040 -0.868189 0.117836
vn 0.473811 -0.880627 0.000001
vn 0.234248 -0.972177 -0.000000
vn 0.237146 -0.966561 0.097582
vn 0.234655 -0.970252 -0.059563
vn 0.482041 -0.868187 -0.117845
vn 0.098849 -0.129958 0.986580
vn 0.158384 -0.477150 0.864432
vn 0.200533 -0.741630 0.640133
vn 0.049046 0.151792 0.987195
vn -0.017909 0.499176 0.866316
vn -0.071121 0.762714 0.642813
vn -0.117038 0.988093 0.099869
vn -0.102908 0.921582 0.374294
vn 0.200361 0.927528 0.315510
vn -0.117037 0.988094 -0.099861
vn -0.102924 0.921565 -0.374333
vn 0.200363 0.927540 -0.315474
vn 0.250719 0.761264 -0.598011
vn -0.071168 0.762502 -0.643060
vn 0.684667 0.726577 0.057591
vn 0.888332 0.392926 -0.237644
vn 0.895322 0.141922 -0.422204
vn 0.974504 -0.094182 0.203646
vn 0.934526 0.276303 0.224318
vn 0.941674 0.336526 0.000000
vn 0.994346 -0.106193 0.000000
vn 0.801151 -0.570506 0.180773
vn 0.788489 -0.615049 0.000001
vn 0.384863 -0.100069 0.917533
vn 0.773114 -0.112080 0.624286
vn 0.347955 0.057747 0.935731
vn 0.732748 0.126077 0.668719
vn 0.961366 0.168635 0.217571
vn 0.973391 -0.075396 0.216393
vn 0.994226 -0.063788 -0.086292
vn 0.973828 0.170034 -0.150819
vn 0.880715 0.429979 -0.198641
vn 0.772375 0.634539 0.028236
vn 0.491610 -0.330476 -0.805671
vn 0.848096 0.064155 -0.525944
vn 0.801149 -0.570508 -0.180780
vn 0.974502 -0.094185 -0.203654
vn 0.934524 0.276301 -0.224329
vn 0.888335 0.392925 0.237636
vn 0.895330 0.141924 0.422187
vn 0.961042 -0.133657 0.241938
vn 0.981525 0.191186 -0.007481
vn 0.684669 0.726578 -0.057555
vn 0.766406 0.544381 -0.340985
vn 0.326412 0.474441 -0.817533
vn 0.815837 0.225146 -0.532652
vn 0.973597 -0.096595 -0.206829
vn 0.952137 -0.305668 -0.001753
vn 0.877030 0.429103 0.216076
vn 0.894961 0.437902 -0.085356
vn 0.320446 0.223456 0.920533
vn 0.680002 0.377772 0.628399
vn -0.079425 0.045399 0.995807
vn 0.056518 0.090850 0.994260
vn 0.070458 0.013189 0.997428
vn -0.073607 -0.009189 0.997245
vn -0.162052 0.104510 0.981232
vn -0.139973 0.062290 0.988194
vn -0.135145 -0.015292 0.990708
vn -0.155078 -0.012239 0.987826
vn -0.178175 0.157885 0.971250
vn -0.169632 0.142620 0.975133
vn -0.161176 -0.006396 0.986905
vn -0.170090 0.000525 0.985428
vn -0.296533 0.084514 0.951276
vn -0.205187 0.134810 0.969394
vn -0.196981 0.004392 0.980397
vn -0.297865 0.003863 0.954600
vn -0.244621 0.372756 -0.895105
vn -0.274985 0.417899 -0.865878
vn -0.366113 0.427643 -0.826488
vn -0.225093 0.351160 -0.908856
vn -0.201747 0.373139 -0.905575
vn -0.175550 0.423809 -0.888576
vn -0.134698 0.468636 -0.873062
vn -0.017962 0.498525 -0.866690
vn 0.009131 -0.487903 -0.872850
vn 0.160474 -0.477729 -0.863726
vn 0.199635 -0.742522 -0.639380
vn 0.054055 -0.765512 -0.641147
vn -0.113089 -0.403413 -0.908003
vn -0.062547 -0.452825 -0.889403
vn -0.015861 -0.769010 -0.639040
vn -0.069243 -0.766732 -0.638222
vn -0.188065 -0.389501 -0.901621
vn -0.154808 -0.375061 -0.913982
vn -0.120278 -0.758655 -0.640294
vn -0.165875 -0.748619 -0.641916
vn -0.361918 -0.454257 -0.814043
vn -0.239233 -0.430624 -0.870248
vn -0.229280 -0.740011 -0.632309
vn -0.357666 -0.735008 -0.576055
vn -0.157047 -0.167708 0.973247
vn -0.192395 -0.147878 0.970111
vn -0.289019 -0.096699 0.952427
vn -0.145357 -0.155506 0.977082
vn -0.140209 -0.127149 0.981924
vn -0.123476 -0.092477 0.988029
vn -0.064092 -0.066391 0.995733
vn 0.085964 -0.066666 0.994065
vn 0.080031 -0.930113 0.358447
vn 0.226880 -0.900503 0.370973
vn -0.032770 -0.956135 0.291086
vn 0.011554 -0.945327 0.325919
vn -0.121720 -0.948149 0.293594
vn -0.074449 -0.957798 0.277635
vn -0.321064 -0.896111 0.306436
vn -0.196080 -0.926968 0.319818
vn -0.207351 0.970468 0.123280
vn -0.215808 0.971564 0.097421
vn -0.285377 0.957548 0.040777
vn -0.289856 0.957070 -0.000002
vn -0.212722 0.977113 -0.000002
vn -0.208244 0.978077 -0.000001
vn -0.214243 0.969395 0.119894
vn -0.217287 0.976108 -0.000001
vn -0.230880 0.972982 -0.000000
vn -0.226720 0.968958 0.098587
vn -0.230448 0.970641 0.068924
vn -0.234279 0.972169 -0.000000
vn -0.208796 0.977959 -0.000000
vn -0.207133 0.977104 0.048611
vn -0.119050 0.991130 0.059068
vn -0.119049 0.992888 -0.000000
vn -0.207133 0.977104 -0.048619
vn -0.119048 0.991129 -0.059076
vn -0.226719 0.968957 -0.098595
vn -0.230448 0.970640 -0.068933
vn -0.207323 0.970456 -0.123419
vn -0.214238 0.969393 -0.119916
vn -0.285521 0.957469 -0.041604
vn -0.215750 0.971527 -0.097918
vn -0.121216 -0.948794 -0.291714
vn -0.194174 -0.929212 -0.314422
vn -0.315437 -0.902464 -0.293358
vn -0.074311 -0.958067 -0.276741
vn -0.032744 -0.956180 -0.290943
vn 0.011398 -0.945092 -0.326607
vn 0.079531 -0.929847 -0.359249
vn 0.226302 -0.900758 -0.370706
vn -0.657533 -0.168445 -0.734354
vn -0.611275 0.294365 -0.734637
vn -0.998910 0.044329 -0.014590
vn -0.776223 0.435380 -0.455985
vn -0.673650 0.728522 -0.124302
vn -0.581869 0.751698 -0.310448
vn -0.530395 0.847284 -0.028125
vn -0.678924 0.734208 0.000944
vn -0.675318 0.726445 0.127367
vn -0.531114 0.846844 0.027801
vn -0.580438 0.753575 0.308573
vn -0.768768 0.464799 0.439270
vn -0.720442 0.010524 0.693436
vn -0.605045 0.335059 0.722258
vn -0.532104 -0.063120 0.844323
vn -0.691265 0.018850 0.722356
vn -0.684568 0.041086 0.727791
vn -0.546588 0.068255 0.834616
vn -0.625380 -0.247744 0.739948
vn -0.822647 -0.420206 0.382987
vn -0.620517 -0.768516 -0.156022
vn -0.577328 -0.802811 0.148957
vn -0.475829 -0.863714 -0.166085
vn -0.618427 -0.785840 -0.001823
vn -0.618573 -0.769525 0.158740
vn -0.477076 -0.863537 0.163410
vn -0.564117 -0.817210 -0.118070
vn -0.794995 -0.552814 -0.249759
vn -0.693618 0.222868 -0.684999
vn -0.665267 -0.363173 -0.652323
vn -0.498273 0.373621 -0.782388
vn -0.604398 0.187617 -0.774276
vn -0.480690 -0.216874 -0.849649
s 1
g longPepperBodyHigh
usemtl initialShadingGroup
f 99/255/1 62/90/2 230/256/3 307/143/4
f 230/256/3 63/92/5 107/257/6 307/143/4
f 107/257/6 9/9/7 131/258/8 307/143/4
f 131/258/8 1/1/9 99/255/1 307/143/4
f 100/259/10 74/106/11 258/260/12 308/144/13
f 258/260/12 75/108/14 108/261/15 308/144/13
f 108/261/15 10/10/16 132/262/17 308/144/13
f 132/262/17 2/2/18 100/259/10 308/144/13
f 269/263/19 79/113/20 263/264/21 309/145/22
f 263/264/21 4/4/23 134/265/24 309/145/22
f 134/265/24 12/12/25 262/266/26 309/145/22
f 262/266/26 78/112/27 269/263/19 309/145/22
f 102/267/28 68/98/29 244/268/30 310/146/31
f 244/268/30 69/100/32 110/269/33 310/146/31
f 110/269/33 12/12/25 134/265/24 310/146/31
f 134/265/24 4/4/23 102/267/28 310/146/31
f 227/270/34 61/89/35 221/271/36 311/147/37
f 221/271/36 6/6/38 136/272/39 311/147/37
f 136/272/39 14/14/40 220/273/41 311/147/37
f 220/273/41 60/88/42 227/270/34 311/147/37
f 255/274/43 73/105/44 249/275/45 312/148/46
f 249/275/45 7/7/47 137/276/48 312/148/46
f 137/276/48 15/136/49 248/277/50 312/148/46
f 248/277/50 72/104/51 255/274/43 312/148/46
f 105/278/52 80/114/53 272/279/54 313/149/55
f 272/279/54 81/116/56 113/280/57 313/149/55
f 113/280/57 15/15/49 137/281/48 313/149/55
f 137/281/48 7/135/47 105/278/52 313/149/55
f 241/282/58 67/97/59 235/283/60 314/150/61
f 235/283/60 1/1/9 131/258/8 314/150/61
f 131/258/8 9/9/7 234/284/62 314/150/61
f 234/284/62 66/96/63 241/282/58 314/150/61
f 107/285/6 63/91/5 231/286/64 315/151/65
f 231/286/64 64/93/66 224/287/67 315/151/65
f 224/287/67 36/55/68 139/288/69 315/151/65
f 139/288/69 9/17/7 107/285/6 315/151/65
f 108/289/15 75/107/14 259/290/70 316/152/71
f 259/290/70 76/109/72 252/291/73 316/152/71
f 252/291/73 35/53/74 140/292/75 316/152/71
f 140/292/75 10/18/16 108/289/15 316/152/71
f 268/293/76 78/111/27 262/294/26 317/153/77
f 262/294/26 12/20/25 142/295/78 317/153/77
f 142/295/78 41/60/79 185/296/80 317/153/77
f 185/296/80 77/110/81 268/293/76 317/153/77
f 110/297/33 69/99/32 245/298/82 318/154/83
f 245/298/82 70/101/84 238/299/85 318/154/83
f 238/299/85 41/60/79 142/295/78 318/154/83
f 142/295/78 12/20/25 110/297/33 318/154/83
f 226/300/86 60/87/42 220/301/41 319/155/87
f 220/301/41 14/22/40 144/302/88 319/155/87
f 144/302/88 39/58/89 183/303/90 319/155/87
f 183/303/90 59/86/91 226/300/86 319/155/87
f 254/304/92 72/103/51 248/305/50 320/156/93
f 248/305/50 15/23/49 145/306/94 320/156/93
f 145/306/94 38/57/95 182/307/96 320/156/93
f 182/307/96 71/102/97 254/304/92 320/156/93
f 113/308/57 81/115/56 273/309/98 321/157/99
f 273/309/98 82/117/100 266/310/101 321/157/99
f 266/310/101 38/57/95 145/306/94 321/157/99
f 145/306/94 15/23/49 113/308/57 321/157/99
f 240/311/102 66/95/63 234/312/62 322/158/103
f 234/312/62 9/25/7 139/313/69 322/158/103
f 139/313/69 36/54/68 180/314/104 322/158/103
f 180/314/104 65/94/105 240/311/102 322/158/103
f 115/315/106 55/80/107 215/316/108 323/159/109
f 215/316/108 56/82/110 123/317/111 323/159/109
f 123/317/111 25/49/112 147/318/113 323/159/109
f 147/318/113 17/41/114 115/315/106 323/159/109
f 210/319/115 54/78/116 206/320/117 324/160/118
f 206/320/117 19/39/119 149/321/120 324/160/118
f 149/321/120 27/47/121 205/322/122 324/160/118
f 205/322/122 53/77/123 210/319/115 324/160/118
f 117/323/124 43/62/125 191/324/126 325/161/127
f 191/324/126 44/64/128 125/325/129 325/161/127
f 125/325/129 27/47/121 149/321/120 325/161/127
f 149/321/120 19/39/119 117/323/124 325/161/127
f 118/326/130 47/68/131 199/327/132 326/162/133
f 199/327/132 48/70/134 126/328/135 326/162/133
f 126/328/135 28/46/136 150/329/137 326/162/133
f 150/329/137 20/38/138 118/326/130 326/162/133
f 218/330/139 58/84/140 214/331/141 327/163/142
f 214/331/141 22/36/143 152/332/144 327/163/142
f 152/332/144 30/44/145 213/333/146 327/163/142
f 213/333/146 57/83/147 218/330/139 327/163/142
f 120/334/148 51/74/149 207/335/150 328/164/151
f 207/335/150 52/76/152 128/336/153 328/164/151
f 128/336/153 30/44/145 152/332/144 328/164/151
f 152/332/144 22/36/143 120/334/148 328/164/151
f 194/337/154 46/66/155 190/338/156 329/165/157
f 190/338/156 24/42/158 154/339/159 329/165/157
f 154/339/159 32/50/160 189/340/161 329/165/157
f 189/340/161 45/65/162 194/337/154 329/165/157
f 202/341/163 50/72/164 198/342/165 330/166/166
f 198/342/165 17/41/114 147/318/113 330/166/166
f 147/318/113 25/49/112 197/343/167 330/166/166
f 197/343/167 49/71/168 202/341/163 330/166/166
f 306/344/169 83/118/170 275/345/171 331/167/172
f 275/345/171 62/90/2 99/255/1 331/167/172
f 99/255/1 1/1/9 290/346/173 331/167/172
f 290/346/173 98/133/174 306/344/169 331/167/172
f 292/347/175 85/120/176 277/348/177 332/168/178
f 277/348/177 74/106/11 100/259/10 332/168/178
f 100/259/10 2/2/18 276/349/179 332/168/178
f 276/349/179 84/119/180 292/347/175 332/168/178
f 263/264/21 79/113/20 270/350/181 333/169/182
f 270/350/181 87/122/183 295/351/184 333/169/182
f 295/351/184 88/123/185 280/352/186 333/169/182
f 280/352/186 4/4/23 263/264/21 333/169/182
f 296/353/187 89/124/188 281/354/189 334/170/190
f 281/354/189 68/98/29 102/267/28 334/170/190
f 102/267/28 4/4/23 280/352/186 334/170/190
f 280/352/186 88/123/185 296/353/187 334/170/190
f 221/271/36 61/89/35 228/355/191 335/171/192
f 228/355/191 91/126/193 299/356/194 335/171/192
f 299/356/194 92/127/195 284/357/196 335/171/192
f 284/357/196 6/6/38 221/271/36 335/171/192
f 249/275/45 73/105/44 256/358/197 336/172/198
f 256/358/197 93/128/199 301/359/200 336/172/198
f 301/359/200 94/134/201 286/360/202 336/172/198
f 286/360/202 7/7/47 249/275/45 336/172/198
f 302/361/203 95/130/204 287/362/205 337/173/206
f 287/362/205 80/114/53 105/278/52 337/173/206
f 105/278/52 7/135/47 286/363/202 337/173/206
f 286/363/202 94/129/201 302/361/203 337/173/206
f 235/283/60 67/97/59 242/364/207 338/174/208
f 242/364/207 97/132/209 305/365/210 338/174/208
f 305/365/210 98/140/174 290/366/173 338/174/208
f 290/366/173 1/1/9 235/283/60 338/174/208
f 123/317/111 56/82/110 216/367/211 339/175/212
f 216/367/211 34/52/213 163/368/214 339/175/212
f 163/368/214 25/49/112 123/317/111 339/175/212
f 209/369/215 53/77/123 205/322/122 340/176/216
f 205/322/122 27/47/121 165/370/217 340/176/216
f 165/370/217 34/52/213 209/369/215 340/176/216
f 125/325/129 44/64/128 192/371/218 341/177/219
f 192/371/218 34/52/213 165/370/217 341/177/219
f 165/370/217 27/47/121 125/325/129 341/177/219
f 126/328/135 48/70/134 200/372/220 342/178/221
f 200/372/220 34/52/213 166/373/222 342/178/221
f 166/373/222 28/46/136 126/328/135 342/178/221
f 217/374/223 57/83/147 213/333/146 343/179/224
f 213/333/146 30/44/145 168/375/225 343/179/224
f 168/375/225 34/52/213 217/374/223 343/179/224
f 128/336/153 52/76/152 208/376/226 344/180/227
f 208/376/226 34/52/213 168/375/225 344/180/227
f 168/375/225 30/44/145 128/336/153 344/180/227
f 193/377/228 45/65/162 189/340/161 345/181/229
f 189/340/161 32/50/160 170/378/230 345/181/229
f 170/378/230 34/52/213 193/377/228 345/181/229
f 201/379/231 49/71/168 197/343/167 346/182/232
f 197/343/167 25/49/112 163/368/214 346/182/232
f 163/368/214 34/52/213 201/379/231 346/182/232
f 224/287/67 64/93/66 232/380/233 347/183/234
f 232/380/233 55/81/107 115/381/106 347/183/234
f 115/381/106 17/26/114 172/382/235 347/183/234
f 172/382/235 36/55/68 224/287/67 347/183/234
f 239/383/236 65/94/105 180/314/104 348/184/237
f 180/314/104 36/54/68 172/384/235 348/184/237
f 172/384/235 17/34/114 198/385/165 348/184/237
f 198/385/165 50/73/164 239/383/236 348/184/237
f 266/310/101 82/117/100 274/386/238 349/185/239
f 274/386/238 46/67/155 121/387/240 349/185/239
f 121/387/240 23/32/241 174/388/242 349/185/239
f 174/388/242 38/57/95 266/310/101 349/185/239
f 253/389/243 71/102/97 182/307/96 350/186/244
f 182/307/96 38/57/95 174/388/242 350/186/244
f 174/388/242 23/32/241 203/390/245 350/186/244
f 203/390/245 51/75/149 253/389/243 350/186/244
f 225/391/246 59/86/91 183/303/90 351/187/247
f 183/303/90 39/58/89 175/392/248 351/187/247
f 175/392/248 22/31/143 214/393/141 351/187/247
f 214/393/141 58/85/140 225/391/246 351/187/247
f 238/299/85 70/101/84 246/394/249 352/188/250
f 246/394/249 47/69/131 118/395/130 352/188/250
f 118/395/130 20/29/138 177/396/251 352/188/250
f 177/396/251 41/60/79 238/299/85 352/188/250
f 267/397/252 77/110/81 185/296/80 353/189/253
f 185/296/80 41/60/79 177/396/251 353/189/253
f 177/396/251 20/29/138 187/398/254 353/189/253
f 187/398/254 43/63/125 267/397/252 353/189/253
f 252/291/73 76/109/72 260/399/255 354/190/256
f 260/399/255 54/79/116 116/400/257 354/190/256
f 116/400/257 18/27/258 171/401/259 354/190/256
f 171/401/259 35/53/74 252/291/73 354/190/256
f 191/324/126 43/62/125 187/402/254 355/191/260
f 187/402/254 20/38/138 150/329/137 355/191/260
f 150/329/137 28/46/136 188/403/261 355/191/260
f 188/403/261 44/64/128 191/324/126 355/191/260
f 192/371/218 44/64/128 188/403/261 356/192/262
f 188/403/261 28/46/136 166/373/222 356/192/262
f 166/373/222 34/52/213 192/371/218 356/192/262
f 129/404/263 45/65/162 193/377/228 357/193/264
f 193/377/228 34/52/213 169/405/265 357/193/264
f 169/405/265 31/43/266 129/404/263 357/193/264
f 121/406/240 46/66/155 194/337/154 358/194/267
f 194/337/154 45/65/162 129/404/263 358/194/267
f 129/404/263 31/43/266 153/407/268 358/194/267
f 153/407/268 23/35/241 121/406/240 358/194/267
f 199/327/132 47/68/131 195/408/269 359/195/270
f 195/408/269 21/37/271 151/409/272 359/195/270
f 151/409/272 29/45/273 196/410/274 359/195/270
f 196/410/274 48/70/134 199/327/132 359/195/270
f 200/372/220 48/70/134 196/410/274 360/196/275
f 196/410/274 29/45/273 167/411/276 360/196/275
f 167/411/276 34/52/213 200/372/220 360/196/275
f 130/412/277 49/71/168 201/379/231 361/197/278
f 201/379/231 34/52/213 170/378/230 361/197/278
f 170/378/230 32/50/160 130/412/277 361/197/278
f 122/413/279 50/72/164 202/341/163 362/198/280
f 202/341/163 49/71/168 130/412/277 362/198/280
f 130/412/277 32/50/160 154/339/159 362/198/280
f 154/339/159 24/42/158 122/413/279 362/198/280
f 207/335/150 51/74/149 203/414/245 363/199/281
f 203/414/245 23/35/241 153/407/268 363/199/281
f 153/407/268 31/43/266 204/415/282 363/199/281
f 204/415/282 52/76/152 207/335/150 363/199/281
f 208/376/226 52/76/152 204/415/282 364/200/283
f 204/415/282 31/43/266 169/405/265 364/200/283
f 169/405/265 34/52/213 208/376/226 364/200/283
f 124/416/284 53/77/123 209/369/215 365/201/285
f 209/369/215 34/52/213 164/417/286 365/201/285
f 164/417/286 26/48/287 124/416/284 365/201/285
f 116/418/257 54/78/116 210/319/115 366/202/288
f 210/319/115 53/77/123 124/416/284 366/202/288
f 124/416/284 26/48/287 148/419/289 366/202/288
f 148/419/289 18/40/258 116/418/257 366/202/288
f 215/316/108 55/80/107 211/420/290 367/203/291
f 211/420/290 18/40/258 148/419/289 367/203/291
f 148/419/289 26/48/287 212/421/292 367/203/291
f 212/421/292 56/82/110 215/316/108 367/203/291
f 216/367/211 56/82/110 212/421/292 368/204/293
f 212/421/292 26/48/287 164/417/286 368/204/293
f 164/417/286 34/52/213 216/367/211 368/204/293
f 127/422/294 57/83/147 217/374/223 369/205/295
f 217/374/223 34/52/213 167/411/276 369/205/295
f 167/411/276 29/45/273 127/422/294 369/205/295
f 119/423/296 58/84/140 218/330/139 370/206/297
f 218/330/139 57/83/147 127/422/294 370/206/297
f 127/422/294 29/45/273 151/409/272 370/206/297
f 151/409/272 21/37/271 119/423/296 370/206/297
f 219/424/298 59/86/91 225/391/246 371/207/299
f 225/391/246 58/85/140 119/425/296 371/207/299
f 119/425/296 21/30/271 176/426/300 371/207/299
f 176/426/300 40/59/301 219/424/298 371/207/299
f 111/427/302 60/87/42 226/300/86 372/208/303
f 226/300/86 59/86/91 219/424/298 372/208/303
f 219/424/298 40/59/301 143/428/304 372/208/303
f 143/428/304 13/21/305 111/427/302 372/208/303
f 103/429/306 61/89/35 227/270/34 373/209/307
f 227/270/34 60/88/42 111/430/302 373/209/307
f 111/430/302 13/13/305 135/431/308 373/209/307
f 135/431/308 5/5/309 103/429/306 373/209/307
f 298/432/310 91/141/193 228/433/191 374/210/311
f 228/433/191 61/89/35 103/429/306 374/210/311
f 103/429/306 5/5/309 282/434/312 374/210/311
f 282/434/312 90/125/313 298/432/310 374/210/311
f 222/435/314 62/90/2 275/345/171 375/211/315
f 275/345/171 83/118/170 291/436/316 375/211/315
f 291/436/316 84/119/180 276/349/179 375/211/315
f 276/349/179 2/2/18 222/435/314 375/211/315
f 230/256/3 62/90/2 222/435/314 376/212/317
f 222/435/314 2/2/18 132/262/17 376/212/317
f 132/262/17 10/10/16 223/437/318 376/212/317
f 223/437/318 63/92/5 230/256/3 376/212/317
f 231/286/64 63/91/5 223/438/318 377/213/319
f 223/438/318 10/18/16 140/292/75 377/213/319
f 140/292/75 35/53/74 179/439/320 377/213/319
f 179/439/320 64/93/66 231/286/64 377/213/319
f 232/380/233 64/93/66 179/439/320 378/214/321
f 179/439/320 35/53/74 171/401/259 378/214/321
f 171/401/259 18/27/258 211/440/290 378/214/321
f 211/440/290 55/81/107 232/380/233 378/214/321
f 233/441/322 65/94/105 239/383/236 379/215/323
f 239/383/236 50/73/164 122/442/279 379/215/323
f 122/442/279 24/33/158 173/443/324 379/215/323
f 173/443/324 37/56/325 233/441/322 379/215/323
f 114/444/326 66/95/63 240/311/102 380/216/327
f 240/311/102 65/94/105 233/441/322 380/216/327
f 233/441/322 37/56/325 146/445/328 380/216/327
f 146/445/328 16/24/329 114/444/326 380/216/327
f 106/446/330 67/97/59 241/282/58 381/217/331
f 241/282/58 66/96/63 114/447/326 381/217/331
f 114/447/326 16/16/329 138/448/332 381/217/331
f 138/448/332 8/8/333 106/446/330 381/217/331
f 304/449/334 97/132/209 242/364/207 382/218/335
f 242/364/207 67/97/59 106/446/330 382/218/335
f 106/446/330 8/8/333 288/450/336 382/218/335
f 288/450/336 96/131/337 304/449/334 382/218/335
f 236/451/338 68/98/29 281/354/189 383/219/339
f 281/354/189 89/124/188 297/452/340 383/219/339
f 297/452/340 90/125/313 282/434/312 383/219/339
f 282/434/312 5/5/309 236/451/338 383/219/339
f 244/268/30 68/98/29 236/451/338 384/220/341
f 236/451/338 5/5/309 135/431/308 384/220/341
f 135/431/308 13/13/305 237/453/342 384/220/341
f 237/453/342 69/100/32 244/268/30 384/220/341
f 245/298/82 69/99/32 237/454/342 385/221/343
f 237/454/342 13/21/305 143/428/304 385/221/343
f 143/428/304 40/59/301 184/455/344 385/221/343
f 184/455/344 70/101/84 245/298/82 385/221/343
f 246/394/249 70/101/84 184/455/344 386/222/345
f 184/455/344 40/59/301 176/426/300 386/222/345
f 176/426/300 21/30/271 195/456/269 386/222/345
f 195/456/269 47/69/131 246/394/249 386/222/345
f 247/457/346 71/102/97 253/389/243 387/223/347
f 253/389/243 51/75/149 120/458/148 387/223/347
f 120/458/148 22/31/143 175/392/248 387/223/347
f 175/392/248 39/58/89 247/457/346 387/223/347
f 112/459/348 72/103/51 254/304/92 388/224/349
f 254/304/92 71/102/97 247/457/346 388/224/349
f 247/457/346 39/58/89 144/302/88 388/224/349
f 144/302/88 14/22/40 112/459/348 388/224/349
f 104/460/350 73/105/44 255/274/43 389/225/351
f 255/274/43 72/104/51 112/461/348 389/225/351
f 112/461/348 14/14/40 136/272/39 389/225/351
f 136/272/39 6/6/38 104/460/350 389/225/351
f 300/462/352 93/128/199 256/358/197 390/226/353
f 256/358/197 73/105/44 104/460/350 390/226/353
f 104/460/350 6/6/38 284/357/196 390/226/353
f 284/357/196 92/127/195 300/462/352 390/226/353
f 250/463/354 74/106/11 277/348/177 391/227/355
f 277/348/177 85/120/176 293/464/356 391/227/355
f 293/464/356 86/142/357 278/465/358 391/227/355
f 278/465/358 3/3/359 250/463/354 391/227/355
f 258/260/12 74/106/11 250/463/354 392/228/360
f 250/463/354 3/3/359 133/466/361 392/228/360
f 133/466/361 11/11/362 251/467/363 392/228/360
f 251/467/363 75/108/14 258/260/12 392/228/360
f 259/290/70 75/107/14 251/468/363 393/229/364
f 251/468/363 11/19/362 141/469/365 393/229/364
f 141/469/365 42/61/366 186/470/367 393/229/364
f 186/470/367 76/109/72 259/290/70 393/229/364
f 260/399/255 76/109/72 186/470/367 394/230/368
f 186/470/367 42/61/366 178/471/369 394/230/368
f 178/471/369 19/28/119 206/472/117 394/230/368
f 206/472/117 54/79/116 260/399/255 394/230/368
f 261/473/370 77/110/81 267/397/252 395/231/371
f 267/397/252 43/63/125 117/474/124 395/231/371
f 117/474/124 19/28/119 178/471/369 395/231/371
f 178/471/369 42/61/366 261/473/370 395/231/371
f 109/475/372 78/111/27 268/293/76 396/232/373
f 268/293/76 77/110/81 261/473/370 396/232/373
f 261/473/370 42/61/366 141/469/365 396/232/373
f 141/469/365 11/19/362 109/475/372 396/232/373
f 101/476/374 79/113/20 269/263/19 397/233/375
f 269/263/19 78/112/27 109/477/372 397/233/375
f 109/477/372 11/11/362 133/466/361 397/233/375
f 133/466/361 3/3/359 101/476/374 397/233/375
f 294/478/376 87/122/183 270/350/181 398/234/377
f 270/350/181 79/113/20 101/476/374 398/234/377
f 101/476/374 3/3/359 278/479/358 398/234/377
f 278/479/358 86/121/357 294/478/376 398/234/377
f 264/480/378 80/114/53 287/362/205 399/235/379
f 287/362/205 95/130/204 303/481/380 399/235/379
f 303/481/380 96/131/337 288/450/336 399/235/379
f 288/450/336 8/8/333 264/480/378 399/235/379
f 272/279/54 80/114/53 264/480/378 400/236/381
f 264/480/378 8/8/333 138/448/332 400/236/381
f 138/448/332 16/16/329 265/482/382 400/236/381
f 265/482/382 81/116/56 272/279/54 400/236/381
f 273/309/98 81/115/56 265/483/382 401/237/383
f 265/483/382 16/24/329 146/445/328 401/237/383
f 146/445/328 37/56/325 181/484/384 401/237/383
f 181/484/384 82/117/100 273/309/98 401/237/383
f 274/386/238 82/117/100 181/484/384 402/238/385
f 181/484/384 37/56/325 173/443/324 402/238/385
f 173/443/324 24/33/158 190/485/156 402/238/385
f 190/485/156 46/67/155 274/386/238 402/238/385
f 291/436/316 83/118/170 229/486/386 403/239/387
f 229/486/386 33/137/388 156/487/389 403/239/387
f 156/487/389 84/119/180 291/436/316 403/239/387
f 257/488/390 85/120/176 292/347/175 404/240/391
f 292/347/175 84/119/180 156/487/389 404/240/391
f 156/487/389 33/137/388 257/488/390 404/240/391
f 293/464/356 85/120/176 257/488/390 405/241/392
f 257/488/390 33/137/388 157/489/393 405/241/392
f 157/489/393 86/142/357 293/464/356 405/241/392
f 279/490/394 87/122/183 294/478/376 406/242/395
f 294/478/376 86/121/357 157/491/393 406/242/395
f 157/491/393 33/138/388 279/490/394 406/242/395
f 295/351/184 87/122/183 279/490/394 407/243/396
f 279/490/394 33/138/388 158/492/397 407/243/396
f 158/492/397 88/123/185 295/351/184 407/243/396
f 243/493/398 89/124/188 296/353/187 408/244/399
f 296/353/187 88/123/185 158/492/397 408/244/399
f 158/492/397 33/138/388 243/493/398 408/244/399
f 297/452/340 89/124/188 243/493/398 409/245/400
f 243/493/398 33/138/388 159/494/401 409/245/400
f 159/494/401 90/125/313 297/452/340 409/245/400
f 283/495/402 91/141/193 298/432/310 410/246/403
f 298/432/310 90/125/313 159/494/401 410/246/403
f 159/494/401 33/138/388 283/495/402 410/246/403
f 299/356/194 91/126/193 283/496/402 411/247/404
f 283/496/402 33/139/388 160/497/405 411/247/404
f 160/497/405 92/127/195 299/356/194 411/247/404
f 285/498/406 93/128/199 300/462/352 412/248/407
f 300/462/352 92/127/195 160/497/405 412/248/407
f 160/497/405 33/139/388 285/498/406 412/248/407
f 301/359/200 93/128/199 285/498/406 413/249/408
f 285/498/406 33/139/388 161/499/409 413/249/408
f 161/499/409 94/134/201 301/359/200 413/249/408
f 271/500/410 95/130/204 302/361/203 414/250/411
f 302/361/203 94/129/201 161/501/409 414/250/411
f 161/501/409 33/51/388 271/500/410 414/250/411
f 303/481/380 95/130/204 271/500/410 415/251/412
f 271/500/410 33/51/388 162/502/413 415/251/412
f 162/502/413 96/131/337 303/481/380 415/251/412
f 289/503/414 97/132/209 304/449/334 416/252/415
f 304/449/334 96/131/337 162/502/413 416/252/415
f 162/502/413 33/51/388 289/503/414 416/252/415
f 305/365/210 97/132/209 289/503/414 417/253/416
f 289/503/414 33/51/388 155/504/417 417/253/416
f 155/504/417 98/140/174 305/365/210 417/253/416
f 229/486/386 83/118/170 306/344/169 418/254/418
f 306/344/169 98/133/174 155/505/417 418/254/418
f 155/505/417 33/137/388 229/486/386 418/254/418
g default
v 1.843755 0.746201 -0.019030
v 1.360552 0.525058 -0.019064
v 1.720353 0.600341 0.042608
v 1.741020 0.582843 -0.019030
v 1.720353 0.600341 -0.080668
v 1.670397 0.642667 -0.106317
v 1.620289 0.685073 -0.080830
v 1.599565 0.702735 -0.019030
v 1.620289 0.685073 0.042770
v 1.670397 0.642667 0.068257
v 1.368634 0.506285 -0.039528
v 1.378170 0.492438 -0.055876
v 1.441325 0.509688 -0.062126
v 1.371965 0.498547 -0.019054
v 1.384183 0.478451 -0.019034
v 1.449771 0.494252 -0.019030
v 1.368580 0.506410 0.001268
v 1.378161 0.492458 0.017783
v 1.441325 0.509688 0.024066
v 1.360554 0.525053 0.009429
v 1.363658 0.526243 0.033018
v 1.420998 0.547087 0.042074
v 1.352672 0.543363 0.000891
v 1.349191 0.560013 0.017763
v 1.400748 0.584720 0.024316
v 1.349404 0.550957 -0.019073
v 1.343202 0.574017 -0.019037
v 1.392387 0.600398 -0.019030
v 1.352575 0.543590 -0.039261
v 1.349175 0.560050 -0.055874
v 1.400747 0.584720 -0.062375
v 1.360547 0.525071 -0.047924
v 1.363657 0.526246 -0.071149
v 1.420998 0.547087 -0.080133
v 1.866240 0.669969 -0.096572
v 1.917752 0.703289 -0.098728
v 1.888351 0.723292 -0.064483
v 1.892316 0.648012 -0.019030
v 1.945603 0.681486 -0.019030
v 1.903143 0.711537 -0.019030
v 1.866240 0.669969 0.058512
v 1.917752 0.703289 0.060668
v 1.888351 0.723292 0.026423
v 1.802839 0.723337 0.091186
v 1.849954 0.756382 0.094407
v 1.849657 0.754096 0.049133
v 1.738448 0.776947 0.059237
v 1.781139 0.810219 0.061826
v 1.805759 0.789198 0.032762
v 1.711941 0.799642 -0.019030
v 1.752411 0.832786 -0.019030
v 1.786039 0.804871 -0.019030
v 1.738448 0.776947 -0.097297
v 1.781139 0.810219 -0.099886
v 1.805758 0.789198 -0.070822
v 1.802839 0.723337 -0.129246
v 1.849954 0.756382 -0.132467
v 1.849656 0.754096 -0.087193
v 1.351172 0.581463 -0.019030
v 1.344808 0.570258 -0.038906
v 1.348904 0.552117 -0.048502
v 1.357561 0.566252 -0.058976
v 1.355839 0.544487 -0.067026
v 1.360540 0.525086 -0.060895
v 1.373029 0.529671 -0.075392
v 1.371484 0.508005 -0.067027
v 1.885297 0.653915 -0.060813
v 1.835629 0.620264 -0.019030
v 1.811557 0.640048 -0.089547
v 1.885297 0.653915 0.022753
v 1.811557 0.640048 0.051487
v 1.837144 0.694519 0.082222
v 1.753143 0.688048 0.081066
v 1.768158 0.752194 0.082705
v 1.694070 0.736210 0.051970
v 1.719057 0.793452 0.023236
v 1.669710 0.756485 -0.019030
v 1.719057 0.793452 -0.061296
v 1.694070 0.736210 -0.090030
v 1.768158 0.752194 -0.120765
v 1.753143 0.688048 -0.119126
v 1.837144 0.694519 -0.120282
v 1.900503 0.713959 -0.043746
v 1.868937 0.731999 -0.045146
v 1.877221 0.725343 -0.019030
v 1.900503 0.713959 0.005686
v 1.868937 0.731999 0.007086
v 1.871668 0.736887 0.043189
v 1.846741 0.749856 0.020749
v 1.826135 0.773244 0.047568
v 1.820769 0.770828 0.011696
v 1.790300 0.801850 0.010066
v 1.808893 0.780344 -0.019030
v 1.790300 0.801850 -0.048126
v 1.820769 0.770828 -0.049756
v 1.826135 0.773244 -0.085628
v 1.846741 0.749856 -0.058809
v 1.871668 0.736887 -0.081249
v 1.902600 0.689816 -0.101206
v 1.938113 0.687348 -0.061965
v 1.930815 0.666846 -0.019030
v 1.908813 0.714085 -0.084415
v 1.931158 0.696651 -0.019030
v 1.938113 0.687348 0.023905
v 1.902600 0.689816 0.063146
v 1.908813 0.714085 0.046356
v 1.886631 0.727665 0.085089
v 1.834185 0.745512 0.097555
v 1.852919 0.757757 0.075976
v 1.812926 0.785345 0.085861
v 1.765110 0.801368 0.063630
v 1.793618 0.804246 0.050505
v 1.760182 0.826668 0.024677
v 1.736608 0.824831 -0.019030
v 1.768050 0.824242 -0.019030
v 1.760182 0.826668 -0.062737
v 1.765110 0.801368 -0.101689
v 1.793618 0.804246 -0.088564
v 1.812926 0.785345 -0.123921
v 1.834185 0.745512 -0.135615
v 1.852919 0.757757 -0.114036
v 1.886631 0.727665 -0.123149
v 1.371310 0.500067 -0.030341
v 1.367060 0.509940 -0.019050
v 1.365161 0.514352 -0.030745
v 1.371273 0.500154 -0.007813
v 1.365122 0.514443 -0.007468
v 1.364964 0.514810 0.007884
v 1.360550 0.525063 -0.002858
v 1.356196 0.535177 0.007624
v 1.356082 0.535442 -0.007741
v 1.350072 0.549405 -0.008073
v 1.354228 0.539750 -0.019066
v 1.350004 0.549562 -0.030157
v 1.356012 0.535606 -0.030551
v 1.356129 0.535333 -0.046109
v 1.360544 0.525078 -0.035526
v 1.365001 0.514724 -0.046293
v 1.735447 0.587559 0.014213
v 1.574435 0.551137 0.032409
v 1.447490 0.498410 0.004207
v 1.588757 0.534987 -0.019030
v 1.735447 0.587559 -0.052273
v 1.447490 0.498410 -0.042267
v 1.574435 0.551137 -0.070469
v 1.697364 0.619824 -0.099365
v 1.431956 0.526888 -0.075229
v 1.539901 0.590216 -0.091881
v 1.643371 0.665530 -0.099474
v 1.410064 0.567364 -0.075396
v 1.505419 0.629452 -0.070636
v 1.605149 0.697957 -0.052381
v 1.394639 0.596158 -0.042433
v 1.491154 0.645763 -0.019030
v 1.605149 0.697957 0.014321
v 1.394639 0.596158 0.004373
v 1.505419 0.629452 0.032576
v 1.643371 0.665530 0.061414
v 1.410064 0.567364 0.037336
v 1.539901 0.590216 0.053821
v 1.697364 0.619824 0.061306
v 1.431956 0.526888 0.037169
v 1.372251 0.497882 -0.048676
v 1.382562 0.482219 -0.038907
v 1.377089 0.486642 -0.019045
v 1.388549 0.493247 -0.058810
v 1.394995 0.478197 -0.019030
v 1.382556 0.482233 0.000832
v 1.372216 0.497964 0.010487
v 1.388549 0.493247 0.020750
v 1.371478 0.508019 0.028912
v 1.360545 0.525075 0.022552
v 1.373029 0.529672 0.037332
v 1.355849 0.544462 0.028899
v 1.348968 0.551968 0.010240
v 1.357561 0.566252 0.020917
v 1.344819 0.570233 0.000819
v 1.344170 0.563114 -0.019057
v 1.367495 0.508930 -0.026342
v 1.367463 0.509003 -0.011798
v 1.363388 0.518470 -0.001709
v 1.357756 0.531555 -0.001928
v 1.353836 0.540661 -0.012017
v 1.353779 0.540793 -0.026186
v 1.357699 0.531686 -0.036489
v 1.363420 0.518397 -0.036645
v 1.584891 0.539340 0.008713
v 1.584891 0.539340 -0.046773
v 1.558527 0.569118 -0.086074
v 1.521292 0.611366 -0.086185
v 1.495000 0.641356 -0.046884
v 1.495000 0.641356 0.008824
v 1.521292 0.611366 0.048125
v 1.558527 0.569118 0.048014
v 1.375790 0.489660 -0.035028
v 1.393254 0.482253 -0.040482
v 1.375766 0.489715 -0.003091
v 1.393255 0.482253 0.002422
v 1.366830 0.510473 0.019345
v 1.381397 0.510006 0.032828
v 1.354291 0.539602 0.019180
v 1.364679 0.549389 0.032939
v 1.345472 0.560090 -0.003256
v 1.352893 0.577353 0.002534
v 1.345430 0.560188 -0.034912
v 1.352893 0.577353 -0.040593
v 1.354249 0.539701 -0.057509
v 1.364679 0.549389 -0.070999
v 1.381397 0.510006 -0.070888
v 1.366854 0.510419 -0.057625
v 1.829145 0.625588 -0.057040
v 1.829145 0.625588 0.018980
v 1.784724 0.662135 0.072987
v 1.721312 0.713988 0.073309
v 1.676258 0.750971 0.019302
v 1.676258 0.750971 -0.057362
v 1.721312 0.713988 -0.111369
v 1.784724 0.662135 -0.111047
v 1.879983 0.724468 -0.034981
v 1.879983 0.724468 -0.003078
v 1.861600 0.739238 0.021627
v 1.831597 0.763437 0.025315
v 1.807320 0.782988 0.000610
v 1.807320 0.782988 -0.038669
v 1.831597 0.763437 -0.063375
v 1.861600 0.739238 -0.059687
v 1.923214 0.673029 -0.063330
v 1.925211 0.701289 -0.054089
v 1.923214 0.673029 0.025270
v 1.925211 0.701289 0.016029
v 1.871162 0.715447 0.088173
v 1.883406 0.733921 0.067219
v 1.796958 0.775603 0.088495
v 1.821281 0.782553 0.069985
v 1.744274 0.818456 0.025593
v 1.775056 0.818771 0.018795
v 1.744273 0.818456 -0.063653
v 1.775056 0.818771 -0.056855
v 1.796958 0.775603 -0.126555
v 1.821281 0.782553 -0.108045
v 1.883406 0.733921 -0.105279
v 1.871161 0.715447 -0.126233
vt 0.730291 0.053063
vt 0.670104 0.265335
vt 0.639624 0.141523
vt 0.621919 0.141938
vt 0.603955 0.141599
vt 0.751965 0.150236
vt 0.730921 0.156540
vt 0.712096 0.157863
vt 0.693507 0.157024
vt 0.675370 0.152738
vt 0.657561 0.146265
vt 0.675120 0.270344
vt 0.680404 0.275628
vt 0.715497 0.236065
vt 0.629763 0.232562
vt 0.628108 0.226294
vt 0.717821 0.230034
vt 0.670102 0.272409
vt 0.670096 0.279898
vt 0.640638 0.229858
vt 0.637240 0.213369
vt 0.665121 0.270311
vt 0.659788 0.275628
vt 0.651663 0.228103
vt 0.649464 0.211768
vt 0.663121 0.265336
vt 0.655518 0.265320
vt 0.662622 0.227421
vt 0.661679 0.211792
vt 0.665213 0.260450
vt 0.659788 0.255012
vt 0.673369 0.227784
vt 0.673769 0.212918
vt 0.670106 0.258424
vt 0.670096 0.250742
vt 0.683954 0.228909
vt 0.685870 0.214449
vt 0.675054 0.260390
vt 0.680404 0.255012
vt 0.694490 0.230444
vt 0.697961 0.216034
vt 0.677177 0.265331
vt 0.684673 0.265320
vt 0.705002 0.232741
vt 0.709939 0.217993
vt 0.590970 0.107896
vt 0.767017 0.118762
vt 0.585776 0.093278
vt 0.773035 0.104523
vt 0.753134 0.028177
vt 0.741494 0.040944
vt 0.612814 0.102953
vt 0.608605 0.083714
vt 0.730331 0.017960
vt 0.730310 0.036287
vt 0.634763 0.102096
vt 0.633068 0.083359
vt 0.707504 0.028125
vt 0.719114 0.040918
vt 0.656904 0.107134
vt 0.657450 0.090384
vt 0.697985 0.052802
vt 0.713502 0.053078
vt 0.678158 0.114426
vt 0.679874 0.099727
vt 0.707445 0.077507
vt 0.717515 0.066918
vt 0.698777 0.119398
vt 0.700733 0.105858
vt 0.730251 0.087730
vt 0.730268 0.073133
vt 0.720012 0.120463
vt 0.722592 0.105889
vt 0.753081 0.077559
vt 0.743035 0.066947
vt 0.742634 0.119685
vt 0.747092 0.103564
vt 0.762597 0.052876
vt 0.747079 0.053116
vt 0.671888 0.269638
vt 0.668323 0.269619
vt 0.665851 0.267092
vt 0.665904 0.263601
vt 0.668377 0.261171
vt 0.671850 0.261136
vt 0.674375 0.263566
vt 0.674413 0.267112
vt 0.637334 0.178459
vt 0.622971 0.181423
vt 0.727406 0.189496
vt 0.712295 0.188903
vt 0.697029 0.188402
vt 0.681865 0.186358
vt 0.666983 0.182793
vt 0.652191 0.179371
vt 0.674017 0.274780
vt 0.634481 0.228056
vt 0.666189 0.274765
vt 0.645658 0.225783
vt 0.660691 0.269226
vt 0.656887 0.224514
vt 0.660731 0.261454
vt 0.667987 0.224292
vt 0.666230 0.255987
vt 0.678945 0.224998
vt 0.673988 0.255961
vt 0.689822 0.226369
vt 0.679527 0.261427
vt 0.700613 0.228396
vt 0.711320 0.231330
vt 0.679555 0.269241
vt 0.606836 0.120864
vt 0.626348 0.116785
vt 0.646717 0.119427
vt 0.666871 0.126198
vt 0.686666 0.132617
vt 0.706710 0.135465
vt 0.727516 0.134874
vt 0.748820 0.134209
vt 0.734225 0.042755
vt 0.726380 0.042747
vt 0.720295 0.048532
vt 0.719371 0.058007
vt 0.725440 0.065682
vt 0.735112 0.065693
vt 0.741199 0.058031
vt 0.740296 0.048555
vt 0.599342 0.096139
vt 0.738962 0.030413
vt 0.622015 0.091388
vt 0.721671 0.030393
vt 0.645471 0.094124
vt 0.709021 0.043443
vt 0.668208 0.101423
vt 0.708313 0.062895
vt 0.689567 0.108480
vt 0.720931 0.077383
vt 0.710723 0.111531
vt 0.739594 0.077404
vt 0.733382 0.110934
vt 0.752246 0.062945
vt 0.751582 0.043492
vt 0.757642 0.110863
vt 0.672868 0.272003
vt 0.670101 0.269369
vt 0.672967 0.268191
vt 0.667347 0.271980
vt 0.667262 0.268167
vt 0.663499 0.268069
vt 0.666132 0.265333
vt 0.663563 0.262635
vt 0.667329 0.262564
vt 0.667410 0.258838
vt 0.670105 0.261414
vt 0.672823 0.258796
vt 0.672920 0.262520
vt 0.676733 0.262593
vt 0.674139 0.265329
vt 0.676778 0.268092
vt 0.630672 0.140977
vt 0.644761 0.178466
vt 0.643331 0.212354
vt 0.630031 0.179421
vt 0.613542 0.144544
vt 0.631244 0.214820
vt 0.616031 0.183946
vt 0.734893 0.190135
vt 0.740267 0.156293
vt 0.715877 0.219335
vt 0.719885 0.189028
vt 0.721508 0.157247
vt 0.703967 0.216925
vt 0.704667 0.188801
vt 0.702753 0.157838
vt 0.691924 0.215224
vt 0.689417 0.187617
vt 0.684383 0.155277
vt 0.679817 0.213664
vt 0.674383 0.184719
vt 0.666457 0.149550
vt 0.667732 0.212262
vt 0.659605 0.180903
vt 0.648602 0.143438
vt 0.655585 0.211604
vt 0.677362 0.272586
vt 0.675250 0.277763
vt 0.635200 0.231210
vt 0.670099 0.275585
vt 0.628935 0.229428
vt 0.716659 0.233050
vt 0.640048 0.226801
vt 0.664942 0.277763
vt 0.646150 0.228980
vt 0.662862 0.272564
vt 0.651281 0.225016
vt 0.657653 0.270474
vt 0.657142 0.227762
vt 0.659904 0.265330
vt 0.662460 0.224273
vt 0.657653 0.260166
vt 0.667995 0.227603
vt 0.662922 0.258154
vt 0.673478 0.224542
vt 0.664942 0.252877
vt 0.678661 0.228346
vt 0.670102 0.255180
vt 0.684391 0.225620
vt 0.675250 0.252877
vt 0.689222 0.229676
vt 0.677319 0.258115
vt 0.695231 0.227282
vt 0.682539 0.260166
vt 0.699746 0.231592
vt 0.680357 0.265327
vt 0.705974 0.229736
vt 0.710250 0.234403
vt 0.682539 0.270474
vt 0.602291 0.106142
vt 0.616402 0.117902
vt 0.597462 0.124748
vt 0.759491 0.134499
vt 0.623688 0.101663
vt 0.636509 0.117348
vt 0.645888 0.104076
vt 0.656870 0.122537
vt 0.667647 0.110800
vt 0.676781 0.129770
vt 0.688473 0.117359
vt 0.696613 0.134572
vt 0.709250 0.120344
vt 0.716998 0.135499
vt 0.731185 0.120023
vt 0.738159 0.134230
vt 0.754225 0.120110
vt 0.736393 0.037171
vt 0.736721 0.046037
vt 0.730302 0.043420
vt 0.724225 0.037157
vt 0.723876 0.046023
vt 0.714978 0.046205
vt 0.720504 0.053019
vt 0.713877 0.060542
vt 0.722717 0.061231
vt 0.723100 0.071840
vt 0.730277 0.064984
vt 0.737438 0.071856
vt 0.737846 0.061248
vt 0.746688 0.060580
vt 0.740078 0.053041
vt 0.745619 0.046240
vt 0.588373 0.100587
vt 0.770026 0.111643
vt 0.597191 0.088496
vt 0.741732 0.023068
vt 0.610495 0.092728
vt 0.746438 0.035542
vt 0.730318 0.028549
vt 0.620837 0.083537
vt 0.718917 0.023042
vt 0.633731 0.091920
vt 0.714183 0.035506
vt 0.645259 0.086872
vt 0.702744 0.040464
vt 0.657031 0.097469
vt 0.706844 0.052981
vt 0.668662 0.095055
vt 0.702715 0.065155
vt 0.679041 0.105317
vt 0.713114 0.071567
vt 0.690303 0.102792
vt 0.718848 0.082619
vt 0.700042 0.110642
vt 0.730260 0.079582
vt 0.711662 0.105873
vt 0.741666 0.082645
vt 0.721779 0.111508
vt 0.747426 0.071606
vt 0.734842 0.104726
vt 0.757839 0.065217
vt 0.745385 0.110491
vt 0.753737 0.053035
vt 0.757865 0.040526
vt 0.760063 0.104043
vn -0.918513 -0.395390 -0.000003
vn -0.918515 -0.395386 -0.000004
vn -0.918511 -0.395395 -0.000004
vn -0.918512 -0.395394 -0.000003
vn -0.918515 -0.395387 -0.000000
vn -0.918510 -0.395397 -0.000002
vn -0.918511 -0.395395 -0.000000
vn -0.918514 -0.395388 -0.000001
vn -0.918510 -0.395397 -0.000002
vn -0.918511 -0.395396 0.000001
vn -0.918511 -0.395395 0.000001
vn -0.918513 -0.395390 -0.000001
vn -0.918514 -0.395389 0.000002
vn -0.918514 -0.395388 -0.000003
vn -0.918514 -0.395390 0.000002
vn -0.918511 -0.395395 -0.000003
vn -0.918511 -0.395394 -0.000000
vn -0.918512 -0.395394 -0.000002
vn -0.918513 -0.395392 0.000001
vn -0.918512 -0.395394 -0.000003
vn -0.918514 -0.395389 0.000001
vn -0.918513 -0.395391 0.000002
vn -0.918513 -0.395391 0.000004
vn -0.918516 -0.395383 0.000002
vn -0.918516 -0.395385 0.000006
vn -0.918516 -0.395385 -0.000002
vn -0.918514 -0.395390 0.000001
vn -0.918511 -0.395396 0.000003
vn -0.918510 -0.395398 0.000000
vn -0.918510 -0.395398 0.000004
vn -0.918511 -0.395396 -0.000002
vn -0.918510 -0.395397 0.000004
vn -0.918513 -0.395390 0.000002
vn 0.331103 -0.943595 -0.000001
vn 0.302504 -0.886526 0.350090
vn 0.265804 -0.896217 0.355168
vn 0.291694 -0.956512 -0.000000
vn 0.218330 -0.718859 0.659980
vn 0.189087 -0.717725 0.670162
vn 0.177032 -0.707333 0.684353
vn 0.254070 -0.895514 0.365380
vn 0.280422 -0.959877 -0.000000
vn 0.218330 -0.718861 -0.659978
vn 0.302504 -0.886526 -0.350089
vn 0.265804 -0.896217 -0.355168
vn 0.189087 -0.717725 -0.670162
vn 0.254070 -0.895514 -0.365380
vn 0.177032 -0.707333 -0.684353
vn -0.078782 -0.113175 -0.990447
vn 0.086084 -0.450506 -0.888613
vn 0.069538 -0.431980 -0.899198
vn -0.077343 -0.071959 -0.994404
vn 0.060133 -0.413012 -0.908738
vn -0.079535 -0.050000 -0.995577
vn -0.397949 0.561629 -0.725403
vn -0.250436 0.247657 -0.935921
vn -0.224022 0.302645 -0.926402
vn -0.344047 0.619596 -0.705501
vn -0.215755 0.321070 -0.922152
vn -0.326051 0.634441 -0.700839
vn -0.529477 0.848324 -0.000001
vn -0.495421 0.774232 -0.393855
vn -0.418856 0.825562 -0.378162
vn -0.444293 0.895882 -0.000001
vn -0.394443 0.838501 -0.375941
vn -0.417778 0.908549 -0.000000
vn -0.397949 0.561629 0.725403
vn -0.495422 0.774232 0.393856
vn -0.418856 0.825562 0.378162
vn -0.344047 0.619596 0.705502
vn -0.394442 0.838500 0.375942
vn -0.326051 0.634440 0.700840
vn -0.078782 -0.113175 0.990447
vn -0.250437 0.247657 0.935921
vn -0.224022 0.302645 0.926402
vn -0.077343 -0.071959 0.994404
vn -0.215755 0.321070 0.922152
vn -0.079534 -0.050000 0.995577
vn 0.086084 -0.450506 0.888613
vn 0.069538 -0.431980 0.899198
vn 0.060133 -0.413011 0.908739
vn -0.852043 -0.507214 -0.129445
vn -0.837125 -0.542601 -0.069330
vn -0.439947 -0.740712 -0.507732
vn -0.382796 -0.882549 -0.273083
vn -0.361330 -0.932438 0.000248
vn -0.831368 -0.555722 0.000205
vn 0.131088 -0.710527 -0.691352
vn 0.211001 -0.903886 -0.372113
vn 0.238781 -0.971073 0.000029
vn -0.837556 -0.541921 0.069439
vn -0.385001 -0.881639 0.272921
vn -0.444023 -0.739613 0.505784
vn -0.852778 -0.506158 0.128740
vn 0.210763 -0.903925 0.372154
vn 0.130615 -0.710626 0.691340
vn -0.876446 -0.451498 0.167307
vn -0.534562 -0.525503 0.661884
vn -0.637422 -0.269291 0.721925
vn -0.903682 -0.387433 0.182360
vn 0.011540 -0.415606 0.909472
vn -0.127561 -0.060062 0.990011
vn -0.931274 -0.323221 0.168100
vn -0.741419 -0.009948 0.670969
vn -0.827142 0.217061 0.518382
vn -0.954742 -0.267582 0.129872
vn -0.262607 0.300725 0.916843
vn -0.373039 0.608275 0.700602
vn -0.970454 -0.230752 0.070509
vn -0.884963 0.370266 0.282388
vn -0.903700 0.428166 0.000466
vn -0.976366 -0.216124 0.000387
vn -0.443075 0.812789 0.378232
vn -0.467184 0.884160 0.000065
vn -0.970816 -0.229277 -0.070353
vn -0.883150 0.374355 -0.282674
vn -0.823501 0.222991 -0.521652
vn -0.955120 -0.265529 -0.131301
vn -0.442636 0.813074 -0.378132
vn -0.372276 0.608721 -0.700621
vn -0.931249 -0.322006 -0.170549
vn -0.736415 -0.005165 -0.676510
vn -0.631745 -0.267046 -0.727726
vn -0.903169 -0.387385 -0.184983
vn -0.261710 0.301164 -0.916956
vn -0.126707 -0.059731 -0.990140
vn 0.012240 -0.415411 -0.909551
vn -0.529186 -0.525602 -0.666111
vn -0.875659 -0.452366 -0.169074
vn 0.281381 -0.674616 -0.682435
vn 0.398608 -0.839406 -0.369471
vn 0.363707 -0.859019 -0.360283
vn 0.259763 -0.694347 -0.671123
vn 0.439558 -0.898214 -0.000001
vn 0.399710 -0.916642 -0.000001
vn 0.398608 -0.839407 0.369471
vn 0.363707 -0.859019 0.360283
vn 0.281381 -0.674616 0.682436
vn 0.259762 -0.694346 0.671124
vn 0.107458 -0.429620 0.896594
vn 0.101616 -0.441810 0.891335
vn -0.101538 -0.139441 0.985011
vn -0.091732 -0.135665 0.986499
vn -0.319782 0.162552 0.933443
vn -0.295116 0.188311 0.936720
vn -0.518682 0.433662 0.736822
vn -0.478281 0.477327 0.737161
vn -0.661433 0.628511 0.409245
vn -0.607390 0.682108 0.407192
vn -0.714635 0.699497 0.000001
vn -0.654814 0.755791 0.000001
vn -0.661433 0.628511 -0.409244
vn -0.607391 0.682109 -0.407191
vn -0.518682 0.433662 -0.736822
vn -0.478281 0.477327 -0.737162
vn -0.319783 0.162553 -0.933443
vn -0.295116 0.188311 -0.936720
vn -0.101538 -0.139441 -0.985011
vn -0.091732 -0.135665 -0.986499
vn 0.107458 -0.429619 -0.896594
vn 0.101616 -0.441810 -0.891335
vn 0.468933 0.883234 0.000001
vn 0.479126 0.874951 0.069994
vn 0.498004 0.864945 0.062145
vn 0.505739 0.862687 0.000001
vn 0.508218 0.851529 0.128895
vn 0.536988 0.837402 0.101989
vn 0.627113 0.778928 0.000000
vn 0.508218 0.851528 -0.128896
vn 0.479125 0.874952 -0.069995
vn 0.498002 0.864946 -0.062143
vn 0.536987 0.837403 -0.101988
vn 0.601949 0.778067 -0.179637
vn 0.551143 0.817498 -0.167147
vn 0.562275 0.813760 -0.147112
vn 0.612024 0.778158 -0.141059
vn 0.694594 0.708360 -0.125558
vn 0.651747 0.740191 -0.165358
vn 0.650065 0.745840 -0.145390
vn 0.683451 0.723623 -0.096256
vn 0.732816 0.680427 -0.000001
vn 0.723135 0.687352 -0.067989
vn 0.712966 0.698589 -0.060444
vn 0.711333 0.702855 0.000000
vn 0.694594 0.708360 0.125557
vn 0.723134 0.687354 0.067988
vn 0.712965 0.698590 0.060444
vn 0.683449 0.723624 0.096256
vn 0.601949 0.778067 0.179637
vn 0.651747 0.740191 0.165356
vn 0.650064 0.745841 0.145389
vn 0.612023 0.778158 0.141057
vn 0.551143 0.817498 0.167148
vn 0.562274 0.813761 0.147110
vn 0.369415 -0.608824 -0.702044
vn 0.492766 -0.781768 -0.382127
vn 0.802150 0.072376 -0.592720
vn 0.939884 -0.072092 -0.333797
vn 0.991527 -0.129899 -0.000000
vn 0.537165 -0.843477 -0.000000
vn 0.613181 0.789941 0.001564
vn 0.612603 0.790391 0.000584
vn 0.613877 0.789402 0.000001
vn 0.492766 -0.781767 0.382127
vn 0.939885 -0.072089 0.333796
vn 0.802151 0.072375 0.592720
vn 0.369415 -0.608825 0.702043
vn 0.612603 0.790391 -0.000585
vn 0.613181 0.789941 -0.001565
vn 0.187421 -0.354871 0.915937
vn 0.616952 0.275649 0.737148
vn 0.420515 0.484513 0.767082
vn -0.026449 -0.058814 0.997919
vn 0.613828 0.789429 -0.004136
vn 0.616356 0.787466 -0.001519
vn -0.247493 0.243459 0.937803
vn 0.234707 0.682624 0.692053
vn 0.078556 0.844817 0.529258
vn -0.444988 0.510710 0.735637
vn 0.616358 0.787461 0.002752
vn 0.611989 0.790813 0.009240
vn -0.584673 0.701903 0.406803
vn -0.018522 0.958472 0.284586
vn -0.055547 0.998456 0.000000
vn -0.636226 0.771503 0.000001
vn 0.608832 0.793278 0.005799
vn 0.605401 0.795920 -0.000000
vn -0.584673 0.701905 -0.406802
vn -0.018524 0.958472 -0.284584
vn 0.078554 0.844818 -0.529255
vn -0.444987 0.510713 -0.735636
vn 0.608831 0.793279 -0.005800
vn 0.611990 0.790811 -0.009240
vn -0.247492 0.243461 -0.937803
vn 0.234708 0.682625 -0.692052
vn 0.420515 0.484513 -0.767082
vn -0.026449 -0.058814 -0.997918
vn 0.616359 0.787460 -0.002754
vn 0.616356 0.787466 0.001519
vn 0.613828 0.789429 0.004138
vn 0.616952 0.275647 -0.737149
vn 0.187421 -0.354869 -0.915937
s 1
g longPepperBodyHigh longPepperStem
usemtl initialShadingGroup
f 429/517/419 541/649/420 597/585/421 543/651/422
f 432/523/423 542/650/424 597/585/421 541/649/420
f 420/507/425 543/651/422 597/585/421 542/650/424
f 432/523/423 544/652/426 598/586/427 542/650/424
f 435/527/428 545/653/429 598/586/427 544/652/426
f 420/507/425 542/650/424 598/586/427 545/653/429
f 435/527/428 546/654/430 599/587/431 545/653/429
f 438/531/432 547/655/433 599/587/431 546/654/430
f 420/507/425 545/653/429 599/587/431 547/655/433
f 438/531/432 548/656/434 600/588/435 547/655/433
f 441/535/436 549/657/437 600/588/435 548/656/434
f 420/507/425 547/655/433 600/588/435 549/657/437
f 441/535/436 550/658/438 601/589/439 549/657/437
f 444/539/440 551/659/441 601/589/439 550/658/438
f 420/507/425 549/657/437 601/589/439 551/659/441
f 444/539/440 552/660/442 602/590/443 551/659/441
f 447/543/444 553/661/445 602/590/443 552/660/442
f 420/507/425 551/659/441 602/590/443 553/661/445
f 447/543/444 554/662/446 603/591/447 553/661/445
f 450/547/448 555/663/449 603/591/447 554/662/446
f 420/507/425 553/661/445 603/591/447 555/663/449
f 450/547/448 556/664/450 604/592/451 555/663/449
f 429/517/419 543/651/422 604/592/451 556/664/450
f 420/507/425 555/663/449 604/592/451 543/651/422
f 422/509/452 557/665/453 605/593/454 560/668/455
f 557/665/453 421/508/456 558/666/457 605/593/454
f 605/593/454 558/666/457 437/530/458 559/667/459
f 560/668/455 605/593/454 559/667/459 434/526/460
f 423/510/461 561/669/462 606/594/463 563/671/464
f 561/669/462 422/509/452 560/668/455 606/594/463
f 606/594/463 560/668/455 434/526/460 562/670/465
f 563/671/464 606/594/463 562/670/465 431/521/466
f 424/512/467 564/673/468 607/595/469 566/675/470
f 564/673/468 423/511/461 563/672/464 607/595/469
f 607/595/469 563/672/464 431/522/466 565/674/471
f 566/675/470 607/595/469 565/674/471 452/550/472
f 425/513/473 567/676/474 608/596/475 569/678/476
f 567/676/474 424/512/467 566/675/470 608/596/475
f 608/596/475 566/675/470 452/550/472 568/677/477
f 569/678/476 608/596/475 568/677/477 449/546/478
f 426/514/479 570/679/480 609/597/481 572/681/482
f 570/679/480 425/513/473 569/678/476 609/597/481
f 609/597/481 569/678/476 449/546/478 571/680/483
f 572/681/482 609/597/481 571/680/483 446/542/484
f 427/515/485 573/682/486 610/598/487 575/684/488
f 573/682/486 426/514/479 572/681/482 610/598/487
f 610/598/487 572/681/482 446/542/484 574/683/489
f 575/684/488 610/598/487 574/683/489 443/538/490
f 428/516/491 576/685/492 611/599/493 578/687/494
f 576/685/492 427/515/485 575/684/488 611/599/493
f 611/599/493 575/684/488 443/538/490 577/686/495
f 578/687/494 611/599/493 577/686/495 440/534/496
f 421/508/456 579/688/497 612/600/498 558/666/457
f 579/688/497 428/516/491 578/687/494 612/600/498
f 612/600/498 578/687/494 440/534/496 580/689/499
f 558/666/457 612/600/498 580/689/499 437/530/458
f 429/517/419 581/690/500 613/601/501 541/649/420
f 581/690/500 430/518/502 582/691/503 613/601/501
f 613/601/501 582/691/503 433/524/504 583/693/505
f 541/649/420 613/601/501 583/693/505 432/523/423
f 430/520/502 584/694/506 614/602/507 582/692/503
f 584/694/506 431/521/466 562/670/465 614/602/507
f 614/602/507 562/670/465 434/526/460 585/696/508
f 582/692/503 614/602/507 585/696/508 433/525/504
f 432/523/423 583/693/505 615/603/509 544/652/426
f 583/693/505 433/524/504 586/697/510 615/603/509
f 615/603/509 586/697/510 436/528/511 587/699/512
f 544/652/426 615/603/509 587/699/512 435/527/428
f 433/525/504 585/696/508 616/604/513 586/698/510
f 585/696/508 434/526/460 559/667/459 616/604/513
f 616/604/513 559/667/459 437/530/458 588/700/514
f 586/698/510 616/604/513 588/700/514 436/529/511
f 435/527/428 587/699/512 617/605/515 546/654/430
f 587/699/512 436/528/511 589/701/516 617/605/515
f 617/605/515 589/701/516 439/532/517 590/703/518
f 546/654/430 617/605/515 590/703/518 438/531/432
f 436/529/511 588/700/514 618/606/519 589/702/516
f 588/700/514 437/530/458 580/689/499 618/606/519
f 618/606/519 580/689/499 440/534/496 591/704/520
f 589/702/516 618/606/519 591/704/520 439/533/517
f 438/531/432 590/703/518 619/607/521 548/656/434
f 590/703/518 439/532/517 592/705/522 619/607/521
f 619/607/521 592/705/522 442/536/523 593/707/524
f 548/656/434 619/607/521 593/707/524 441/535/436
f 439/533/517 591/704/520 620/608/525 592/706/522
f 591/704/520 440/534/496 577/686/495 620/608/525
f 620/608/525 577/686/495 443/538/490 594/708/526
f 592/706/522 620/608/525 594/708/526 442/537/523
f 441/535/436 593/707/524 621/609/527 550/658/438
f 593/707/524 442/536/523 595/709/528 621/609/527
f 621/609/527 595/709/528 445/540/529 596/711/530
f 550/658/438 621/609/527 596/711/530 444/539/440
f 442/537/523 594/708/526 622/610/531 595/710/528
f 594/708/526 443/538/490 574/683/489 622/610/531
f 622/610/531 574/683/489 446/542/484 477/712/532
f 595/710/528 622/610/531 477/712/532 445/541/529
f 444/539/440 596/711/530 623/611/533 552/660/442
f 596/711/530 445/540/529 478/713/534 623/611/533
f 623/611/533 478/713/534 448/544/535 479/715/536
f 552/660/442 623/611/533 479/715/536 447/543/444
f 445/541/529 477/712/532 624/612/537 478/714/534
f 477/712/532 446/542/484 571/680/483 624/612/537
f 624/612/537 571/680/483 449/546/478 480/716/538
f 478/714/534 624/612/537 480/716/538 448/545/535
f 447/543/444 479/715/536 625/613/539 554/662/446
f 479/715/536 448/544/535 481/717/540 625/613/539
f 625/613/539 481/717/540 451/548/541 482/719/542
f 554/662/446 625/613/539 482/719/542 450/547/448
f 448/545/535 480/716/538 626/614/543 481/718/540
f 480/716/538 449/546/478 568/677/477 626/614/543
f 626/614/543 568/677/477 452/550/472 483/720/544
f 481/718/540 626/614/543 483/720/544 451/549/541
f 431/522/466 584/695/506 627/615/545 565/674/471
f 584/695/506 430/519/502 484/721/546 627/615/545
f 627/615/545 484/721/546 451/549/541 483/720/544
f 565/674/471 627/615/545 483/720/544 452/550/472
f 430/518/502 581/690/500 628/616/547 484/722/546
f 581/690/500 429/517/419 556/664/450 628/616/547
f 628/616/547 556/664/450 450/547/448 482/719/542
f 484/722/546 628/616/547 482/719/542 451/548/541
f 453/551/548 485/723/549 629/617/550 487/725/551
f 485/723/549 456/557/552 486/724/553 629/617/550
f 629/617/550 486/724/553 422/509/452 561/669/462
f 487/725/551 629/617/550 561/669/462 423/510/461
f 456/557/552 488/727/554 630/618/555 486/724/553
f 488/727/554 459/561/556 489/728/557 630/618/555
f 630/618/555 489/728/557 421/508/456 557/665/453
f 486/724/553 630/618/555 557/665/453 422/509/452
f 459/561/556 490/729/558 631/619/559 489/728/557
f 490/729/558 462/565/560 491/730/561 631/619/559
f 631/619/559 491/730/561 428/516/491 579/688/497
f 489/728/557 631/619/559 579/688/497 421/508/456
f 462/565/560 492/731/562 632/620/563 491/730/561
f 492/731/562 465/569/564 493/732/565 632/620/563
f 632/620/563 493/732/565 427/515/485 576/685/492
f 491/730/561 632/620/563 576/685/492 428/516/491
f 465/569/564 494/733/566 633/621/567 493/732/565
f 494/733/566 468/573/568 495/734/569 633/621/567
f 633/621/567 495/734/569 426/514/479 573/682/486
f 493/732/565 633/621/567 573/682/486 427/515/485
f 468/573/568 496/735/570 634/622/571 495/734/569
f 496/735/570 471/577/572 497/736/573 634/622/571
f 634/622/571 497/736/573 425/513/473 570/679/480
f 495/734/569 634/622/571 570/679/480 426/514/479
f 471/577/572 498/737/574 635/623/575 497/736/573
f 498/737/574 474/581/576 499/738/577 635/623/575
f 635/623/575 499/738/577 424/512/467 567/676/474
f 497/736/573 635/623/575 567/676/474 425/513/473
f 474/581/576 500/739/578 636/624/579 499/738/577
f 500/739/578 453/552/548 487/726/551 636/624/579
f 636/624/579 487/726/551 423/511/461 564/673/468
f 499/738/577 636/624/579 564/673/468 424/512/467
f 458/560/580 501/740/581 637/625/582 503/742/583
f 455/556/584 502/741/585 637/625/582 501/740/581
f 419/506/586 503/742/583 637/625/582 502/741/585
f 461/564/587 504/743/588 638/626/589 505/744/590
f 458/560/580 503/742/583 638/626/589 504/743/588
f 419/506/586 505/744/590 638/626/589 503/742/583
f 464/568/591 506/745/592 639/627/593 507/746/594
f 461/564/587 505/744/590 639/627/593 506/745/592
f 419/506/586 507/746/594 639/627/593 505/744/590
f 467/572/595 508/747/596 640/628/597 509/748/598
f 464/568/591 507/746/594 640/628/597 508/747/596
f 419/506/586 509/748/598 640/628/597 507/746/594
f 470/576/599 510/749/600 641/629/601 511/750/602
f 467/572/595 509/748/598 641/629/601 510/749/600
f 419/506/586 511/750/602 641/629/601 509/748/598
f 473/580/603 512/751/604 642/630/605 513/752/606
f 470/576/599 511/750/602 642/630/605 512/751/604
f 419/506/586 513/752/606 642/630/605 511/750/602
f 476/584/607 514/753/608 643/631/609 515/754/610
f 473/580/603 513/752/606 643/631/609 514/753/608
f 419/506/586 515/754/610 643/631/609 513/752/606
f 455/556/584 516/755/611 644/632/612 502/741/585
f 476/584/607 515/754/610 644/632/612 516/755/611
f 419/506/586 502/741/585 644/632/612 515/754/610
f 453/551/548 517/756/613 645/633/614 485/723/549
f 517/756/613 454/553/615 518/758/616 645/633/614
f 645/633/614 518/758/616 457/558/617 519/760/618
f 485/723/549 645/633/614 519/760/618 456/557/552
f 454/555/615 520/761/619 646/634/620 518/759/616
f 520/761/619 455/556/584 501/740/581 646/634/620
f 646/634/620 501/740/581 458/560/580 521/762/621
f 518/759/616 646/634/620 521/762/621 457/559/617
f 456/557/552 519/760/618 647/635/622 488/727/554
f 519/760/618 457/558/617 522/763/623 647/635/622
f 647/635/622 522/763/623 460/562/624 523/765/625
f 488/727/554 647/635/622 523/765/625 459/561/556
f 457/559/617 521/762/621 648/636/626 522/764/623
f 521/762/621 458/560/580 504/743/588 648/636/626
f 648/636/626 504/743/588 461/564/587 524/766/627
f 522/764/623 648/636/626 524/766/627 460/563/624
f 459/561/556 523/765/625 649/637/628 490/729/558
f 523/765/625 460/562/624 525/767/629 649/637/628
f 649/637/628 525/767/629 463/566/630 526/769/631
f 490/729/558 649/637/628 526/769/631 462/565/560
f 460/563/624 524/766/627 650/638/632 525/768/629
f 524/766/627 461/564/587 506/745/592 650/638/632
f 650/638/632 506/745/592 464/568/591 527/770/633
f 525/768/629 650/638/632 527/770/633 463/567/630
f 462/565/560 526/769/631 651/639/634 492/731/562
f 526/769/631 463/566/630 528/771/635 651/639/634
f 651/639/634 528/771/635 466/570/636 529/773/637
f 492/731/562 651/639/634 529/773/637 465/569/564
f 463/567/630 527/770/633 652/640/638 528/772/635
f 527/770/633 464/568/591 508/747/596 652/640/638
f 652/640/638 508/747/596 467/572/595 530/774/639
f 528/772/635 652/640/638 530/774/639 466/571/636
f 465/569/564 529/773/637 653/641/640 494/733/566
f 529/773/637 466/570/636 531/775/641 653/641/640
f 653/641/640 531/775/641 469/574/642 532/777/643
f 494/733/566 653/641/640 532/777/643 468/573/568
f 466/571/636 530/774/639 654/642/644 531/776/641
f 530/774/639 467/572/595 510/749/600 654/642/644
f 654/642/644 510/749/600 470/576/599 533/778/645
f 531/776/641 654/642/644 533/778/645 469/575/642
f 468/573/568 532/777/643 655/643/646 496/735/570
f 532/777/643 469/574/642 534/779/647 655/643/646
f 655/643/646 534/779/647 472/578/648 535/781/649
f 496/735/570 655/643/646 535/781/649 471/577/572
f 469/575/642 533/778/645 656/644/650 534/780/647
f 533/778/645 470/576/599 512/751/604 656/644/650
f 656/644/650 512/751/604 473/580/603 536/782/651
f 534/780/647 656/644/650 536/782/651 472/579/648
f 471/577/572 535/781/649 657/645/652 498/737/574
f 535/781/649 472/578/648 537/783/653 657/645/652
f 657/645/652 537/783/653 475/582/654 538/785/655
f 498/737/574 657/645/652 538/785/655 474/581/576
f 472/579/648 536/782/651 658/646/656 537/784/653
f 536/782/651 473/580/603 514/753/608 658/646/656
f 658/646/656 514/753/608 476/584/607 539/786/657
f 537/784/653 658/646/656 539/786/657 475/583/654
f 455/556/584 520/761/619 659/647/658 516/755/611
f 520/761/619 454/555/615 540/787/659 659/647/658
f 659/647/658 540/787/659 475/583/654 539/786/657
f 516/755/611 659/647/658 539/786/657 476/584/607
f 454/554/615 517/757/613 660/648/660 540/788/659
f 517/757/613 453/552/548 500/739/578 660/648/660
f 660/648/660 500/739/578 474/581/576 538/785/655
f 540/788/659 660/648/660 538/785/655 475/582/654
