# This file uses centimeters as units for non-parametric coordinates.

mtllib window.mtl
g default
v -5.607038 -0.056782 6.507287
v 5.607038 -0.056782 6.507287
v -5.607038 0.056782 6.507287
v 5.607038 0.056782 6.507287
v -5.607038 0.056782 -6.507287
v 5.607038 0.056782 -6.507287
v -5.607038 -0.056782 -6.507287
v 5.607038 -0.056782 -6.507287
vt 0.375000 0.000000
vt 0.625000 0.000000
vt 0.375000 0.250000
vt 0.625000 0.250000
vt 0.375000 0.500000
vt 0.625000 0.500000
vt 0.375000 0.750000
vt 0.625000 0.750000
vt 0.375000 1.000000
vt 0.625000 1.000000
vt 0.875000 0.000000
vt 0.875000 0.250000
vt 0.125000 0.000000
vt 0.125000 0.250000
vn 0.000000 0.000000 1.000000
vn 0.000000 0.000000 1.000000
vn 0.000000 0.000000 1.000000
vn 0.000000 0.000000 1.000000
vn 0.000000 1.000000 0.000000
vn 0.000000 1.000000 0.000000
vn 0.000000 1.000000 0.000000
vn 0.000000 1.000000 0.000000
vn 0.000000 0.000000 -1.000000
vn 0.000000 0.000000 -1.000000
vn 0.000000 0.000000 -1.000000
vn 0.000000 0.000000 -1.000000
vn 0.000000 -1.000000 0.000000
vn 0.000000 -1.000000 0.000000
vn 0.000000 -1.000000 0.000000
vn 0.000000 -1.000000 0.000000
vn 1.000000 0.000000 0.000000
vn 1.000000 0.000000 0.000000
vn 1.000000 0.000000 0.000000
vn 1.000000 0.000000 0.000000
vn -1.000000 0.000000 0.000000
vn -1.000000 0.000000 0.000000
vn -1.000000 0.000000 0.000000
vn -1.000000 0.000000 0.000000
s off
g pane window
usemtl initialShadingGroup
f 1/1/1 2/2/2 4/4/3 3/3/4
f 3/3/5 4/4/6 6/6/7 5/5/8
f 5/5/9 6/6/10 8/8/11 7/7/12
f 7/7/13 8/8/14 2/10/15 1/9/16
f 2/2/17 8/11/18 6/12/19 4/4/20
f 7/13/21 1/1/22 3/3/23 5/14/24
g default
v -6.086964 -0.343368 7.064267
v 6.086964 -0.343368 7.064267
v -6.086964 0.343368 7.064267
v 6.086964 0.343368 7.064267
v -6.086964 0.343368 -7.064267
v 6.086964 0.343368 -7.064267
v -6.086964 -0.343368 -7.064267
v 6.086964 -0.343368 -7.064267
v -6.086964 0.343368 0.000000
v -6.086964 -0.343368 0.000000
v 6.086964 -0.343368 0.000000
v 6.086964 0.343368 0.000000
v 0.000000 -0.343368 7.064267
v 0.000000 0.343368 7.064267
v 0.000000 0.343368 0.000000
v 0.000000 0.343368 -7.064267
v 0.000000 -0.343368 -7.064267
v 0.000000 -0.343368 0.000000
v -6.086964 -0.343368 -6.357840
v -6.086964 0.343368 -6.357840
v 0.000000 0.343368 -6.357840
v 6.086964 0.343368 -6.357840
v 6.086964 -0.343368 -6.357840
v 0.000000 -0.343368 -6.357840
v -6.086964 0.343368 6.357840
v -6.086964 -0.343368 6.357840
v 0.000000 -0.343368 6.357840
v 6.086964 -0.343368 6.357840
v 6.086964 0.343368 6.357840
v 0.000000 0.343368 6.357840
v -6.086964 -0.343368 0.263241
v -6.086964 0.343368 0.263241
v 0.000000 0.343368 0.263241
v 6.086964 0.343368 0.263241
v 6.086964 -0.343368 0.263241
v 0.000000 -0.343368 0.263241
v -6.086964 0.343368 -0.263241
v -6.086964 -0.343368 -0.263241
v 0.000000 -0.343368 -0.263241
v 6.086964 -0.343368 -0.263241
v 6.086964 0.343368 -0.263241
v 0.000000 0.343368 -0.263241
v -5.295482 -0.343368 7.064267
v -5.295482 0.343368 7.064267
v -5.295482 0.343368 6.357840
v -5.295482 0.343368 0.263241
v -5.295482 0.343368 0.000000
v -5.295482 0.343368 -0.263241
v -5.295482 0.343368 -6.357840
v -5.295482 0.343368 -7.064267
v -5.295482 -0.343368 -7.064267
v -5.295482 -0.343368 -6.357840
v -5.295482 -0.343368 -0.263241
v -5.295482 -0.343368 0.000000
v -5.295482 -0.343368 0.263241
v -5.295482 -0.343368 6.357840
v 5.223436 0.343368 0.000000
v 5.223436 0.343368 0.263241
v 5.223436 0.343368 6.357840
v 5.223436 0.343368 7.064267
v 5.223436 -0.343368 7.064267
v 5.223436 -0.343368 6.357840
v 5.223436 -0.343368 0.263241
v 5.223436 -0.343368 0.000000
v 5.223436 -0.343368 -0.263241
v 5.223436 -0.343368 -6.357840
v 5.223436 -0.343368 -7.064267
v 5.223436 0.343368 -7.064267
v 5.223436 0.343368 -6.357840
v 5.223436 0.343368 -0.263241
vt 0.375000 0.000000
vt 0.625000 0.000000
vt 0.375000 0.250000
vt 0.625000 0.250000
vt 0.375000 0.500000
vt 0.625000 0.500000
vt 0.375000 0.750000
vt 0.625000 0.750000
vt 0.375000 1.000000
vt 0.625000 1.000000
vt 0.875000 0.000000
vt 0.875000 0.250000
vt 0.125000 0.000000
vt 0.125000 0.250000
vt 0.250000 0.250000
vt 0.375000 0.375000
vt 0.250000 0.000000
vt 0.375000 0.875000
vt 0.625000 0.875000
vt 0.750000 0.000000
vt 0.625000 0.375000
vt 0.750000 0.250000
vt 0.500000 0.000000
vt 0.500000 1.000000
vt 0.500000 0.250000
vt 0.500000 0.375000
vt 0.500000 0.500000
vt 0.500000 0.750000
vt 0.500000 0.875000
vt 0.137500 0.000000
vt 0.375000 0.762500
vt 0.137500 0.250000
vt 0.375000 0.487500
vt 0.500000 0.487500
vt 0.625000 0.487500
vt 0.862500 0.250000
vt 0.625000 0.762500
vt 0.862500 0.000000
vt 0.500000 0.762500
vt 0.362500 0.250000
vt 0.375000 0.262500
vt 0.362500 0.000000
vt 0.375000 0.987500
vt 0.500000 0.987500
vt 0.625000 0.987500
vt 0.637500 0.000000
vt 0.625000 0.262500
vt 0.637500 0.250000
vt 0.500000 0.262500
vt 0.261250 0.000000
vt 0.375000 0.886250
vt 0.261250 0.250000
vt 0.375000 0.363750
vt 0.500000 0.363750
vt 0.625000 0.363750
vt 0.738750 0.250000
vt 0.625000 0.886250
vt 0.738750 0.000000
vt 0.500000 0.886250
vt 0.238750 0.250000
vt 0.375000 0.386250
vt 0.238750 0.000000
vt 0.375000 0.863750
vt 0.500000 0.863750
vt 0.625000 0.863750
vt 0.761250 0.000000
vt 0.625000 0.386250
vt 0.761250 0.250000
vt 0.500000 0.386250
vt 0.391254 0.000000
vt 0.391254 1.000000
vt 0.391254 0.250000
vt 0.391254 0.262500
vt 0.391254 0.363750
vt 0.391254 0.375000
vt 0.391254 0.386250
vt 0.391254 0.487500
vt 0.391254 0.500000
vt 0.391254 0.750000
vt 0.391254 0.762500
vt 0.391254 0.863750
vt 0.391254 0.875000
vt 0.391254 0.886250
vt 0.391254 0.987500
vt 0.607267 0.375000
vt 0.607267 0.363750
vt 0.607267 0.262500
vt 0.607267 0.250000
vt 0.607267 0.000000
vt 0.607267 1.000000
vt 0.607267 0.987500
vt 0.607267 0.886250
vt 0.607267 0.875000
vt 0.607267 0.863750
vt 0.607267 0.762500
vt 0.607267 0.750000
vt 0.607267 0.500000
vt 0.607267 0.487500
vt 0.607267 0.386250
vn 0.000000 0.000000 1.000000
vn 0.000000 0.000000 1.000000
vn 0.000000 0.000000 1.000000
vn 0.000000 0.000000 1.000000
vn 0.000000 1.000000 0.000000
vn 0.000000 1.000000 0.000000
vn 0.000000 1.000000 0.000000
vn 0.000000 1.000000 0.000000
vn 0.000000 0.000000 -1.000000
vn 0.000000 0.000000 -1.000000
vn 0.000000 0.000000 -1.000000
vn 0.000000 0.000000 -1.000000
vn 0.000000 -1.000000 0.000000
vn 0.000000 -1.000000 0.000000
vn 0.000000 -1.000000 0.000000
vn 0.000000 -1.000000 0.000000
vn 1.000000 0.000000 0.000000
vn 1.000000 0.000000 0.000000
vn 1.000000 0.000000 0.000000
vn 1.000000 0.000000 0.000000
vn -1.000000 0.000000 0.000000
vn -1.000000 0.000000 0.000000
vn -1.000000 0.000000 0.000000
vn -1.000000 0.000000 0.000000
vn -1.000000 0.000000 0.000000
vn -1.000000 0.000000 0.000000
vn -1.000000 0.000000 0.000000
vn -1.000000 0.000000 0.000000
vn 0.000000 -1.000000 0.000000
vn 0.000000 -1.000000 0.000000
vn 0.000000 -1.000000 0.000000
vn 0.000000 -1.000000 0.000000
vn 1.000000 0.000000 0.000000
vn 1.000000 0.000000 0.000000
vn 1.000000 0.000000 0.000000
vn 1.000000 0.000000 0.000000
vn 0.000000 1.000000 0.000000
vn 0.000000 1.000000 0.000000
vn 0.000000 1.000000 0.000000
vn 0.000000 1.000000 0.000000
vn 0.000000 0.000000 1.000000
vn 0.000000 0.000000 1.000000
vn 0.000000 0.000000 1.000000
vn 0.000000 0.000000 1.000000
vn 0.000000 1.000000 0.000000
vn 0.000000 1.000000 0.000000
vn 0.000000 1.000000 0.000000
vn 0.000000 1.000000 0.000000
vn 0.000000 1.000000 0.000000
vn 0.000000 1.000000 0.000000
vn 0.000000 1.000000 0.000000
vn 0.000000 1.000000 0.000000
vn 0.000000 0.000000 -1.000000
vn 0.000000 0.000000 -1.000000
vn 0.000000 0.000000 -1.000000
vn 0.000000 0.000000 -1.000000
vn 0.000000 -1.000000 0.000000
vn 0.000000 -1.000000 0.000000
vn 0.000000 -1.000000 0.000000
vn 0.000000 -1.000000 0.000000
vn 0.000000 -1.000000 0.000000
vn 0.000000 -1.000000 0.000000
vn 0.000000 -1.000000 0.000000
vn 0.000000 -1.000000 0.000000
vn -1.000000 0.000000 0.000000
vn -1.000000 0.000000 0.000000
vn -1.000000 0.000000 0.000000
vn -1.000000 0.000000 0.000000
vn 0.000000 1.000000 0.000000
vn 0.000000 1.000000 0.000000
vn 0.000000 1.000000 0.000000
vn 0.000000 1.000000 0.000000
vn 0.000000 1.000000 0.000000
vn 0.000000 1.000000 0.000000
vn 0.000000 1.000000 0.000000
vn 0.000000 1.000000 0.000000
vn 1.000000 0.000000 0.000000
vn 1.000000 0.000000 0.000000
vn 1.000000 0.000000 0.000000
vn 1.000000 0.000000 0.000000
vn 0.000000 -1.000000 0.000000
vn 0.000000 -1.000000 0.000000
vn 0.000000 -1.000000 0.000000
vn 0.000000 -1.000000 0.000000
vn 0.000000 -1.000000 0.000000
vn 0.000000 -1.000000 0.000000
vn 0.000000 -1.000000 0.000000
vn 0.000000 -1.000000 0.000000
vn -1.000000 0.000000 0.000000
vn -1.000000 0.000000 0.000000
vn 0.000000 -1.000000 0.000000
vn 0.000000 -1.000000 0.000000
vn 0.000000 -1.000000 0.000000
vn 0.000000 -1.000000 0.000000
vn 1.000000 0.000000 0.000000
vn 1.000000 0.000000 0.000000
vn 0.000000 1.000000 0.000000
vn 0.000000 1.000000 0.000000
vn 0.000000 1.000000 0.000000
vn 0.000000 1.000000 0.000000
vn 0.000000 0.000000 1.000000
vn 0.000000 0.000000 1.000000
vn 0.000000 1.000000 0.000000
vn 0.000000 1.000000 0.000000
vn 0.000000 1.000000 0.000000
vn 0.000000 1.000000 0.000000
vn 0.000000 1.000000 0.000000
vn 0.000000 1.000000 0.000000
vn 0.000000 1.000000 0.000000
vn 0.000000 0.000000 -1.000000
vn 0.000000 0.000000 -1.000000
vn 0.000000 -1.000000 0.000000
vn 0.000000 -1.000000 0.000000
vn 0.000000 -1.000000 0.000000
vn 0.000000 -1.000000 0.000000
vn 0.000000 -1.000000 0.000000
vn 0.000000 -1.000000 0.000000
vn 0.000000 -1.000000 0.000000
vn 0.000000 0.000000 1.000000
vn 0.000000 0.000000 1.000000
vn 0.000000 0.000000 1.000000
vn 0.000000 0.000000 1.000000
vn 0.000000 0.000000 1.000000
vn 0.000000 0.000000 1.000000
vn 0.000000 0.000000 1.000000
vn 0.000000 0.000000 1.000000
vn 1.000000 0.000000 0.000000
vn 1.000000 0.000000 0.000000
vn 1.000000 0.000000 0.000000
vn 1.000000 0.000000 0.000000
vn 0.000000 0.000000 -1.000000
vn 0.000000 0.000000 -1.000000
vn 0.000000 0.000000 -1.000000
vn 0.000000 0.000000 -1.000000
vn 0.000000 0.000000 -1.000000
vn 0.000000 0.000000 -1.000000
vn 0.000000 0.000000 -1.000000
vn 0.000000 0.000000 -1.000000
vn -1.000000 -0.000000 0.000000
vn -1.000000 -0.000000 0.000000
vn -1.000000 -0.000000 0.000000
vn -1.000000 -0.000000 0.000000
vn 0.000000 0.000000 -1.000000
vn 0.000000 0.000000 -1.000000
vn 0.000000 0.000000 -1.000000
vn 0.000000 0.000000 -1.000000
vn 0.000000 0.000000 -1.000000
vn 0.000000 0.000000 -1.000000
vn 0.000000 0.000000 -1.000000
vn 0.000000 0.000000 -1.000000
vn 1.000000 0.000000 0.000000
vn 1.000000 0.000000 0.000000
vn 1.000000 0.000000 0.000000
vn 1.000000 0.000000 0.000000
vn 0.000000 -0.000000 1.000000
vn 0.000000 -0.000000 1.000000
vn 0.000000 -0.000000 1.000000
vn 0.000000 -0.000000 1.000000
vn 0.000000 -0.000000 1.000000
vn 0.000000 -0.000000 1.000000
vn 0.000000 -0.000000 1.000000
vn 0.000000 -0.000000 1.000000
vn -1.000000 0.000000 0.000000
vn -1.000000 0.000000 0.000000
vn -1.000000 0.000000 0.000000
vn -1.000000 0.000000 0.000000
s 1
g window frame
usemtl initialShadingGroup
f 9/15/25 51/84/26 52/86/27 11/17/28
s 2
f 11/17/29 52/86/30 53/87/31 33/55/32
s 3
f 13/19/33 58/92/34 59/93/35 15/21/36
s 4
f 34/57/37 64/98/38 51/85/39 9/23/40
s 5
f 10/16/41 36/60/42 37/62/43 12/18/44
s 6
f 33/54/45 34/56/46 9/15/47 11/17/48
f 15/27/49 27/44/50 28/46/51 13/28/52
s 4
f 15/21/53 59/93/54 60/94/55 27/45/56
s 5
f 30/50/57 31/52/58 16/25/59 14/26/60
s 2
f 28/47/61 57/91/62 58/92/63 13/19/64
s 1
f 68/102/65 69/103/66 10/16/67 12/18/68
s 2
f 37/61/69 67/101/70 68/102/71 12/18/72
f 76/111/73 77/112/74 30/49/75 14/20/76
s 3
f 75/110/77 76/111/78 14/20/79 16/22/80
s 4
f 31/51/81 74/109/82 75/110/83 16/22/84
f 69/104/85 70/105/86 36/59/87 10/24/88
s 6
f 45/74/89 46/76/90 18/31/91 17/29/92
s 2
f 17/30/93 55/89/94 56/90/95 45/75/96
f 49/81/97 78/113/98 65/99/99 20/35/100
s 5
f 20/36/101 19/34/102 48/80/103 49/82/104
s 4
f 72/107/105 73/108/106 48/79/107 19/33/108
f 46/77/109 61/95/110 62/96/111 18/32/112
s 6
f 17/29/92 18/31/91 39/64/113 40/66/114
s 4
f 18/32/112 62/96/111 63/97/115 39/65/116
f 43/71/117 71/106/118 72/107/105 19/33/108
s 5
f 42/70/119 43/72/120 19/34/102 20/36/101
s 2
f 65/99/99 66/100/121 42/69/122 20/35/100
f 40/67/123 54/88/124 55/89/94 17/30/93
s 6
f 40/66/114 39/64/113 34/56/46 33/54/45
s 2
f 33/55/32 53/87/31 54/88/124 40/67/123
f 42/69/122 66/100/121 67/101/70 37/61/69
s 5
f 37/62/43 36/60/42 43/72/120 42/70/119
s 4
f 36/59/87 70/105/86 71/106/118 43/71/117
f 39/65/116 63/97/115 64/98/38 34/57/37
s 6
f 28/46/51 27/44/50 46/76/90 45/74/89
s 4
f 27/45/56 60/94/55 61/95/110 46/77/109
f 48/79/107 73/108/106 74/109/82 31/51/81
s 5
f 49/82/104 48/80/103 31/52/58 30/50/57
s 2
f 30/49/75 77/112/74 78/113/98 49/81/97
f 45/75/96 56/90/95 57/91/62 28/47/61
s 1
f 52/86/27 51/84/26 21/37/125 22/39/126
s 2
f 53/87/31 52/86/30 22/39/127 38/63/128
f 55/89/94 54/88/124 41/68/129 23/40/130
f 56/90/95 55/89/94 23/40/130 50/83/131
f 58/92/63 57/91/62 29/48/132 24/41/133
s 3
f 59/93/35 58/92/34 24/41/134 25/42/135
s 4
f 60/94/55 59/93/54 25/42/136 32/53/137
f 62/96/111 61/95/110 47/78/138 26/43/139
f 63/97/115 62/96/111 26/43/139 44/73/140
f 51/85/39 64/98/38 35/58/141 21/38/142
s 2
f 23/40/130 41/68/129 66/100/121 65/99/99
f 68/102/71 67/101/70 38/63/128 22/39/127
s 1
f 22/39/126 21/37/125 69/103/66 68/102/65
s 4
f 21/38/142 35/58/141 70/105/86 69/104/85
f 72/107/105 71/106/118 44/73/140 26/43/139
f 26/43/139 47/78/138 73/108/106 72/107/105
f 75/110/83 74/109/82 32/53/137 25/42/136
s 3
f 25/42/135 24/41/134 76/111/78 75/110/77
s 2
f 24/41/133 29/48/132 77/112/74 76/111/73
f 65/99/99 78/113/98 50/83/131 23/40/130
s off
f 77/112/143 29/48/144 32/53/145 74/109/146
f 29/48/147 57/91/148 60/94/149 32/53/150
f 57/91/151 56/90/152 61/95/153 60/94/154
f 56/90/155 50/83/156 47/78/157 61/95/158
f 50/83/159 78/113/160 73/108/161 47/78/162
f 78/113/163 77/112/164 74/109/165 73/108/166
f 70/105/167 35/58/168 38/63/169 67/101/170
f 35/58/171 64/98/172 53/87/173 38/63/174
f 64/98/175 63/97/176 54/88/177 53/87/178
f 63/97/179 44/73/180 41/68/181 54/88/182
f 44/73/183 71/106/184 66/100/185 41/68/186
f 71/106/187 70/105/188 67/101/189 66/100/190
